G04 DesignSpark PCB Gerber Version 11.0 Build 5877*
G04 #@! TF.Part,Single*
G04 #@! TF.FileFunction,Drillmap*
G04 #@! TF.FilePolarity,Positive*
%FSLAX35Y35*%
%MOIN*%
%ADD10C,0.00500*%
G04 #@! TA.AperFunction,ViaPad*
%ADD87C,0.10000*%
G04 #@! TD.AperFunction*
X0Y0D02*
D02*
D10*
X30437Y228929D02*
X31063Y228616D01*
X31375Y227991D01*
X31063Y227366D01*
X30437Y227054D01*
X28250D01*
Y230804D01*
X30437D01*
X31063Y230491D01*
X31375Y229866D01*
X31063Y229241D01*
X30437Y228929D01*
X28250D01*
X40437D02*
X41063Y228616D01*
X41375Y227991D01*
X41063Y227366D01*
X40437Y227054D01*
X38250D01*
Y230804D01*
X40437D01*
X41063Y230491D01*
X41375Y229866D01*
X41063Y229241D01*
X40437Y228929D01*
X38250D01*
X42856Y179219D02*
Y182969D01*
X45981D01*
X45356Y181094D02*
X42856D01*
Y192998D02*
Y196748D01*
X45981D01*
X45356Y194874D02*
X42856D01*
X49919Y38309D02*
X49606Y37996D01*
X48981Y37683D01*
X48043D01*
X47419Y37996D01*
X47106Y38309D01*
X46793Y38933D01*
Y40183D01*
X47106Y40809D01*
X47419Y41121D01*
X48043Y41433D01*
X48981D01*
X49606Y41121D01*
X49919Y40809D01*
Y313899D02*
X49606Y313587D01*
X48981Y313274D01*
X48043D01*
X47419Y313587D01*
X47106Y313899D01*
X46793Y314524D01*
Y315774D01*
X47106Y316399D01*
X47419Y316712D01*
X48043Y317024D01*
X48981D01*
X49606Y316712D01*
X49919Y316399D01*
X46793Y359534D02*
Y363284D01*
X49919D01*
X49293Y361409D02*
X46793D01*
Y369376D02*
Y373126D01*
X49919D01*
X49293Y371252D02*
X46793D01*
Y379219D02*
Y382969D01*
X49919D01*
X49293Y381094D02*
X46793D01*
Y389061D02*
Y392811D01*
X49919D01*
X49293Y390937D02*
X46793D01*
Y416620D02*
Y420370D01*
X49919D01*
X49293Y418496D02*
X46793D01*
Y426463D02*
Y430213D01*
X49919D01*
X49293Y428338D02*
X46793D01*
Y436306D02*
Y440056D01*
X49919D01*
X49293Y438181D02*
X46793D01*
Y446148D02*
Y449898D01*
X49919D01*
X49293Y448023D02*
X46793D01*
X49919Y546183D02*
X49606Y545870D01*
X48981Y545557D01*
X48043D01*
X47419Y545870D01*
X47106Y546183D01*
X46793Y546807D01*
Y548057D01*
X47106Y548683D01*
X47419Y548995D01*
X48043Y549307D01*
X48981D01*
X49606Y548995D01*
X49919Y548683D01*
X50437Y228929D02*
X51063Y228616D01*
X51375Y227991D01*
X51063Y227366D01*
X50437Y227054D01*
X48250D01*
Y230804D01*
X50437D01*
X51063Y230491D01*
X51375Y229866D01*
X51063Y229241D01*
X50437Y228929D01*
X48250D01*
Y235557D02*
Y239307D01*
Y237433D02*
X49187D01*
X51375Y239307D01*
X49187Y237433D02*
X51375Y235557D01*
X50730Y480439D02*
Y484189D01*
X52606D01*
X53230Y483877D01*
X53543Y483565D01*
X53856Y482939D01*
Y481689D01*
X53543Y481065D01*
X53230Y480752D01*
X52606Y480439D01*
X50730D01*
Y500439D02*
Y504189D01*
X52606D01*
X53230Y503877D01*
X53543Y503565D01*
X53856Y502939D01*
Y501689D01*
X53543Y501065D01*
X53230Y500752D01*
X52606Y500439D01*
X50730D01*
X59148Y173353D02*
X60398D01*
X59773D02*
Y177103D01*
X59148D02*
X60398D01*
X59148Y193353D02*
X60398D01*
X59773D02*
Y197103D01*
X59148D02*
X60398D01*
X60437Y228929D02*
X61063Y228616D01*
X61375Y227991D01*
X61063Y227366D01*
X60437Y227054D01*
X58250D01*
Y230804D01*
X60437D01*
X61063Y230491D01*
X61375Y229866D01*
X61063Y229241D01*
X60437Y228929D01*
X58250D01*
X67809Y173353D02*
X69059D01*
X68435D02*
Y177103D01*
X67809D02*
X69059D01*
X67809Y193353D02*
X69059D01*
X68435D02*
Y197103D01*
X67809D02*
X69059D01*
X71990Y488471D02*
Y492221D01*
X75115D01*
X74490Y490346D02*
X71990D01*
Y488471D02*
X75115D01*
X72384Y380203D02*
X73946Y383953D01*
X75509Y380203D01*
X73009Y381766D02*
X74884D01*
X76471Y173353D02*
X77721D01*
X77096D02*
Y177103D01*
X76471D02*
X77721D01*
X76471Y193353D02*
X77721D01*
X77096D02*
Y197103D01*
X76471D02*
X77721D01*
X79470Y256187D02*
X81033Y259937D01*
X82596Y256187D01*
X80096Y257750D02*
X81970D01*
X80652Y436502D02*
X82214Y440252D01*
X83777Y436502D01*
X81277Y438065D02*
X83152D01*
X85376Y212880D02*
X86939Y216630D01*
X88501Y212880D01*
X86001Y214443D02*
X87876D01*
X87738Y290439D02*
X89301Y294189D01*
X90863Y290439D01*
X88363Y292002D02*
X90238D01*
X87738Y401069D02*
X89301Y404819D01*
X90863Y401069D01*
X88363Y402632D02*
X90238D01*
X89069Y173353D02*
X90319D01*
X89694D02*
Y177103D01*
X89069D02*
X90319D01*
X89069Y193353D02*
X90319D01*
X89694D02*
Y197103D01*
X89069D02*
X90319D01*
X90437Y302236D02*
X91063Y301923D01*
X91375Y301298D01*
X91063Y300673D01*
X90437Y300361D01*
X88250D01*
Y304111D01*
X90437D01*
X91063Y303798D01*
X91375Y303173D01*
X91063Y302548D01*
X90437Y302236D01*
X88250D01*
X90437Y312236D02*
X91063Y311923D01*
X91375Y311298D01*
X91063Y310673D01*
X90437Y310361D01*
X88250D01*
Y314111D01*
X90437D01*
X91063Y313798D01*
X91375Y313173D01*
X91063Y312548D01*
X90437Y312236D01*
X88250D01*
X90437Y322236D02*
X91063Y321923D01*
X91375Y321298D01*
X91063Y320673D01*
X90437Y320361D01*
X88250D01*
Y324111D01*
X90437D01*
X91063Y323798D01*
X91375Y323173D01*
X91063Y322548D01*
X90437Y322236D01*
X88250D01*
X90437Y332236D02*
X91063Y331923D01*
X91375Y331298D01*
X91063Y330673D01*
X90437Y330361D01*
X88250D01*
Y334111D01*
X90437D01*
X91063Y333798D01*
X91375Y333173D01*
X91063Y332548D01*
X90437Y332236D01*
X88250D01*
X90437Y342236D02*
X91063Y341923D01*
X91375Y341298D01*
X91063Y340673D01*
X90437Y340361D01*
X88250D01*
Y344111D01*
X90437D01*
X91063Y343798D01*
X91375Y343173D01*
X91063Y342548D01*
X90437Y342236D01*
X88250D01*
X92856Y374691D02*
X94419Y378441D01*
X95981Y374691D01*
X93481Y376254D02*
X95356D01*
X95219Y231778D02*
X96781Y235528D01*
X98344Y231778D01*
X95844Y233341D02*
X97719D01*
X99374Y520267D02*
X100000Y519955D01*
X100312Y519330D01*
X100000Y518705D01*
X99374Y518392D01*
X97187D01*
Y522142D01*
X99374D01*
X100000Y521830D01*
X100312Y521205D01*
X100000Y520580D01*
X99374Y520267D01*
X97187D01*
X100437Y302236D02*
X101063Y301923D01*
X101375Y301298D01*
X101063Y300673D01*
X100437Y300361D01*
X98250D01*
Y304111D01*
X100437D01*
X101063Y303798D01*
X101375Y303173D01*
X101063Y302548D01*
X100437Y302236D01*
X98250D01*
X100437Y312236D02*
X101063Y311923D01*
X101375Y311298D01*
X101063Y310673D01*
X100437Y310361D01*
X98250D01*
Y314111D01*
X100437D01*
X101063Y313798D01*
X101375Y313173D01*
X101063Y312548D01*
X100437Y312236D01*
X98250D01*
X100437Y322236D02*
X101063Y321923D01*
X101375Y321298D01*
X101063Y320673D01*
X100437Y320361D01*
X98250D01*
Y324111D01*
X100437D01*
X101063Y323798D01*
X101375Y323173D01*
X101063Y322548D01*
X100437Y322236D01*
X98250D01*
X100437Y332236D02*
X101063Y331923D01*
X101375Y331298D01*
X101063Y330673D01*
X100437Y330361D01*
X98250D01*
Y334111D01*
X100437D01*
X101063Y333798D01*
X101375Y333173D01*
X101063Y332548D01*
X100437Y332236D01*
X98250D01*
X100437Y342236D02*
X101063Y341923D01*
X101375Y341298D01*
X101063Y340673D01*
X100437Y340361D01*
X98250D01*
Y344111D01*
X100437D01*
X101063Y343798D01*
X101375Y343173D01*
X101063Y342548D01*
X100437Y342236D01*
X98250D01*
X103880Y230597D02*
X105443Y234347D01*
X107005Y230597D01*
X104505Y232159D02*
X106380D01*
X103880Y242802D02*
X105443Y246552D01*
X107005Y242802D01*
X104505Y244364D02*
X106380D01*
X104667Y206187D02*
X106230Y209937D01*
X107793Y206187D01*
X105293Y207750D02*
X107167D01*
X105848Y295164D02*
X107411Y298914D01*
X108974Y295164D01*
X106474Y296726D02*
X108348D01*
X105848Y305400D02*
X107411Y309150D01*
X108974Y305400D01*
X106474Y306963D02*
X108348D01*
X105848Y315636D02*
X107411Y319386D01*
X108974Y315636D01*
X106474Y317199D02*
X108348D01*
X105848Y325872D02*
X107411Y329622D01*
X108974Y325872D01*
X106474Y327435D02*
X108348D01*
X105848Y336109D02*
X107411Y339859D01*
X108974Y336109D01*
X106474Y337671D02*
X108348D01*
X107423Y141620D02*
X108986Y145370D01*
X110548Y141620D01*
X108048Y143183D02*
X109923D01*
X107522Y429416D02*
X109084Y433166D01*
X110647Y429416D01*
X108147Y430978D02*
X110022D01*
X110573Y151069D02*
X112135Y154819D01*
X113698Y151069D01*
X111198Y152632D02*
X113073D01*
X112935Y267998D02*
X114498Y271748D01*
X116060Y267998D01*
X113560Y269561D02*
X115435D01*
X112935Y283353D02*
X114498Y287103D01*
X116060Y283353D01*
X113560Y284915D02*
X115435D01*
X117266Y380991D02*
X118828Y384741D01*
X120391Y380991D01*
X117891Y382553D02*
X119766D01*
X123959Y261699D02*
X125521Y265449D01*
X127084Y261699D01*
X124584Y263262D02*
X126459D01*
X126146Y515543D02*
X126771Y515230D01*
X127084Y514606D01*
X126771Y513980D01*
X126146Y513668D01*
X123959D01*
Y517418D01*
X126146D01*
X126771Y517106D01*
X127084Y516480D01*
X126771Y515856D01*
X126146Y515543D01*
X123959D01*
X132226Y151069D02*
X133789Y154819D01*
X135352Y151069D01*
X132852Y152632D02*
X134726D01*
X132620Y466030D02*
X134183Y469780D01*
X135745Y466030D01*
X133245Y467593D02*
X135120D01*
X133801Y141620D02*
X135364Y145370D01*
X136926Y141620D01*
X134426Y143183D02*
X136301D01*
X134589Y267998D02*
X136151Y271748D01*
X137714Y267998D01*
X135214Y269561D02*
X137089D01*
X137563Y50740D02*
X138189Y50427D01*
X138501Y49802D01*
X138189Y49177D01*
X137563Y48865D01*
X135376D01*
Y52615D01*
X137563D01*
X138189Y52302D01*
X138501Y51677D01*
X138189Y51052D01*
X137563Y50740D01*
X135376D01*
X137563Y60740D02*
X138189Y60427D01*
X138501Y59802D01*
X138189Y59177D01*
X137563Y58865D01*
X135376D01*
Y62615D01*
X137563D01*
X138189Y62302D01*
X138501Y61677D01*
X138189Y61052D01*
X137563Y60740D01*
X135376D01*
X137563Y70740D02*
X138189Y70427D01*
X138501Y69802D01*
X138189Y69177D01*
X137563Y68865D01*
X135376D01*
Y72615D01*
X137563D01*
X138189Y72302D01*
X138501Y71677D01*
X138189Y71052D01*
X137563Y70740D01*
X135376D01*
X137563Y80740D02*
X138189Y80427D01*
X138501Y79802D01*
X138189Y79177D01*
X137563Y78865D01*
X135376D01*
Y82615D01*
X137563D01*
X138189Y82302D01*
X138501Y81677D01*
X138189Y81052D01*
X137563Y80740D01*
X135376D01*
X137563Y90740D02*
X138189Y90427D01*
X138501Y89802D01*
X138189Y89177D01*
X137563Y88865D01*
X135376D01*
Y92615D01*
X137563D01*
X138189Y92302D01*
X138501Y91677D01*
X138189Y91052D01*
X137563Y90740D01*
X135376D01*
X137563Y100740D02*
X138189Y100427D01*
X138501Y99802D01*
X138189Y99177D01*
X137563Y98865D01*
X135376D01*
Y102615D01*
X137563D01*
X138189Y102302D01*
X138501Y101677D01*
X138189Y101052D01*
X137563Y100740D01*
X135376D01*
X137563Y110740D02*
X138189Y110427D01*
X138501Y109802D01*
X138189Y109177D01*
X137563Y108865D01*
X135376D01*
Y112615D01*
X137563D01*
X138189Y112302D01*
X138501Y111677D01*
X138189Y111052D01*
X137563Y110740D01*
X135376D01*
X137563Y120740D02*
X138189Y120427D01*
X138501Y119802D01*
X138189Y119177D01*
X137563Y118865D01*
X135376D01*
Y122615D01*
X137563D01*
X138189Y122302D01*
X138501Y121677D01*
X138189Y121052D01*
X137563Y120740D01*
X135376D01*
X136557Y263274D02*
X138120Y267024D01*
X139682Y263274D01*
X137182Y264837D02*
X139057D01*
X137344Y238077D02*
X138907Y241827D01*
X140470Y238077D01*
X137970Y239640D02*
X139844D01*
X137344Y305400D02*
X138907Y309150D01*
X140470Y305400D01*
X137970Y306963D02*
X139844D01*
X140100Y454219D02*
X141663Y457969D01*
X143226Y454219D01*
X140726Y455781D02*
X142600D01*
X140494Y313668D02*
X142057Y317418D01*
X143619Y313668D01*
X141119Y315230D02*
X142994D01*
X140730Y326754D02*
X141043Y326441D01*
X141668Y326128D01*
X142293Y326441D01*
X142606Y326754D01*
Y329878D01*
X143230D01*
X142606D02*
X141356D01*
X140730Y331754D02*
X141043Y331441D01*
X141668Y331128D01*
X142293Y331441D01*
X142606Y331754D01*
Y334878D01*
X143230D01*
X142606D02*
X141356D01*
X142069Y232959D02*
X143631Y236709D01*
X145194Y232959D01*
X142694Y234522D02*
X144569D01*
X145730Y326754D02*
X146043Y326441D01*
X146668Y326128D01*
X147293Y326441D01*
X147606Y326754D01*
Y329878D01*
X148230D01*
X147606D02*
X146356D01*
X145730Y331754D02*
X146043Y331441D01*
X146668Y331128D01*
X147293Y331441D01*
X147606Y331754D01*
Y334878D01*
X148230D01*
X147606D02*
X146356D01*
X150730Y313668D02*
X152293Y317418D01*
X153856Y313668D01*
X151356Y315230D02*
X153230D01*
X150730Y326754D02*
X151043Y326441D01*
X151668Y326128D01*
X152293Y326441D01*
X152606Y326754D01*
Y329878D01*
X153230D01*
X152606D02*
X151356D01*
X150730Y331754D02*
X151043Y331441D01*
X151668Y331128D01*
X152293Y331441D01*
X152606Y331754D01*
Y334878D01*
X153230D01*
X152606D02*
X151356D01*
X152699Y147920D02*
X154261Y151670D01*
X155824Y147920D01*
X153324Y149482D02*
X155199D01*
X152699Y157369D02*
X154261Y161119D01*
X155824Y157369D01*
X153324Y158931D02*
X155199D01*
X153093Y205006D02*
X154655Y208756D01*
X156218Y205006D01*
X153718Y206569D02*
X155593D01*
X153486Y269180D02*
X155049Y272930D01*
X156611Y269180D01*
X154111Y270742D02*
X155986D01*
X153486Y274691D02*
X155049Y278441D01*
X156611Y274691D01*
X154111Y276254D02*
X155986D01*
X153486Y280203D02*
X155049Y283953D01*
X156611Y280203D01*
X154111Y281766D02*
X155986D01*
X153880Y433353D02*
X155443Y437103D01*
X157005Y433353D01*
X154505Y434915D02*
X156380D01*
X155730Y326754D02*
X156043Y326441D01*
X156668Y326128D01*
X157293Y326441D01*
X157606Y326754D01*
Y329878D01*
X158230D01*
X157606D02*
X156356D01*
X155730Y331754D02*
X156043Y331441D01*
X156668Y331128D01*
X157293Y331441D01*
X157606Y331754D01*
Y334878D01*
X158230D01*
X157606D02*
X156356D01*
X155848Y439652D02*
X157411Y443402D01*
X158974Y439652D01*
X156474Y441215D02*
X158348D01*
X155868Y320754D02*
X157431Y324504D01*
X158993Y320754D01*
X156493Y322317D02*
X158368D01*
X156636Y209337D02*
X158198Y213087D01*
X159761Y209337D01*
X157261Y210900D02*
X159136D01*
X157030Y152644D02*
X158592Y156394D01*
X160155Y152644D01*
X157655Y154207D02*
X159530D01*
X157030Y162093D02*
X158592Y165843D01*
X160155Y162093D01*
X157655Y163656D02*
X159530D01*
X157817Y263668D02*
X159380Y267418D01*
X160942Y263668D01*
X158442Y265230D02*
X160317D01*
X161028Y179834D02*
X161653Y179522D01*
X161966Y178897D01*
X161653Y178272D01*
X161028Y177959D01*
X158841D01*
Y181709D01*
X161028D01*
X161653Y181397D01*
X161966Y180772D01*
X161653Y180147D01*
X161028Y179834D01*
X158841D01*
X161028Y189834D02*
X161653Y189522D01*
X161966Y188897D01*
X161653Y188272D01*
X161028Y187959D01*
X158841D01*
Y191709D01*
X161028D01*
X161653Y191397D01*
X161966Y190772D01*
X161653Y190147D01*
X161028Y189834D01*
X158841D01*
X159785Y214061D02*
X161348Y217811D01*
X162911Y214061D01*
X160411Y215624D02*
X162285D01*
X162760Y50740D02*
X163385Y50427D01*
X163698Y49802D01*
X163385Y49177D01*
X162760Y48865D01*
X160573D01*
Y52615D01*
X162760D01*
X163385Y52302D01*
X163698Y51677D01*
X163385Y51052D01*
X162760Y50740D01*
X160573D01*
X162760Y60740D02*
X163385Y60427D01*
X163698Y59802D01*
X163385Y59177D01*
X162760Y58865D01*
X160573D01*
Y62615D01*
X162760D01*
X163385Y62302D01*
X163698Y61677D01*
X163385Y61052D01*
X162760Y60740D01*
X160573D01*
X162760Y70740D02*
X163385Y70427D01*
X163698Y69802D01*
X163385Y69177D01*
X162760Y68865D01*
X160573D01*
Y72615D01*
X162760D01*
X163385Y72302D01*
X163698Y71677D01*
X163385Y71052D01*
X162760Y70740D01*
X160573D01*
X162760Y80740D02*
X163385Y80427D01*
X163698Y79802D01*
X163385Y79177D01*
X162760Y78865D01*
X160573D01*
Y82615D01*
X162760D01*
X163385Y82302D01*
X163698Y81677D01*
X163385Y81052D01*
X162760Y80740D01*
X160573D01*
X162760Y90740D02*
X163385Y90427D01*
X163698Y89802D01*
X163385Y89177D01*
X162760Y88865D01*
X160573D01*
Y92615D01*
X162760D01*
X163385Y92302D01*
X163698Y91677D01*
X163385Y91052D01*
X162760Y90740D01*
X160573D01*
X162760Y100740D02*
X163385Y100427D01*
X163698Y99802D01*
X163385Y99177D01*
X162760Y98865D01*
X160573D01*
Y102615D01*
X162760D01*
X163385Y102302D01*
X163698Y101677D01*
X163385Y101052D01*
X162760Y100740D01*
X160573D01*
X162760Y110740D02*
X163385Y110427D01*
X163698Y109802D01*
X163385Y109177D01*
X162760Y108865D01*
X160573D01*
Y112615D01*
X162760D01*
X163385Y112302D01*
X163698Y111677D01*
X163385Y111052D01*
X162760Y110740D01*
X160573D01*
X162760Y120740D02*
X163385Y120427D01*
X163698Y119802D01*
X163385Y119177D01*
X162760Y118865D01*
X160573D01*
Y122615D01*
X162760D01*
X163385Y122302D01*
X163698Y121677D01*
X163385Y121052D01*
X162760Y120740D01*
X160573D01*
X162760Y130740D02*
X163385Y130427D01*
X163698Y129802D01*
X163385Y129177D01*
X162760Y128865D01*
X160573D01*
Y132615D01*
X162760D01*
X163385Y132302D01*
X163698Y131677D01*
X163385Y131052D01*
X162760Y130740D01*
X160573D01*
X160730Y326754D02*
X161043Y326441D01*
X161668Y326128D01*
X162293Y326441D01*
X162606Y326754D01*
Y329878D01*
X163230D01*
X162606D02*
X161356D01*
X160730Y331754D02*
X161043Y331441D01*
X161668Y331128D01*
X162293Y331441D01*
X162606Y331754D01*
Y334878D01*
X163230D01*
X162606D02*
X161356D01*
X160967Y488471D02*
Y492221D01*
X164092D01*
X163467Y490346D02*
X160967D01*
Y488471D02*
X164092D01*
X162148Y248313D02*
X163710Y252063D01*
X165273Y248313D01*
X162773Y249876D02*
X164648D01*
X163722Y222723D02*
X165285Y226473D01*
X166848Y222723D01*
X164348Y224285D02*
X166222D01*
X166085Y297920D02*
X167647Y301670D01*
X169210Y297920D01*
X166710Y299482D02*
X168585D01*
X168053Y257762D02*
X169616Y261512D01*
X171178Y257762D01*
X168678Y259325D02*
X170553D01*
X168053Y264455D02*
X169616Y268205D01*
X171178Y264455D01*
X168678Y266018D02*
X170553D01*
X171028Y179834D02*
X171653Y179522D01*
X171966Y178897D01*
X171653Y178272D01*
X171028Y177959D01*
X168841D01*
Y181709D01*
X171028D01*
X171653Y181397D01*
X171966Y180772D01*
X171653Y180147D01*
X171028Y179834D01*
X168841D01*
X171028Y189834D02*
X171653Y189522D01*
X171966Y188897D01*
X171653Y188272D01*
X171028Y187959D01*
X168841D01*
Y191709D01*
X171028D01*
X171653Y191397D01*
X171966Y190772D01*
X171653Y190147D01*
X171028Y189834D01*
X168841D01*
X169628Y280203D02*
X171191Y283953D01*
X172753Y280203D01*
X170253Y281766D02*
X172128D01*
X171203Y296739D02*
X172765Y300489D01*
X174328Y296739D01*
X171828Y298301D02*
X173703D01*
X172384Y222723D02*
X173946Y226473D01*
X175509Y222723D01*
X173009Y224285D02*
X174884D01*
X177915Y248313D02*
X179478Y252063D01*
X181041Y248313D01*
X178541Y249876D02*
X180415D01*
X181028Y179834D02*
X181653Y179522D01*
X181966Y178897D01*
X181653Y178272D01*
X181028Y177959D01*
X178841D01*
Y181709D01*
X181028D01*
X181653Y181397D01*
X181966Y180772D01*
X181653Y180147D01*
X181028Y179834D01*
X178841D01*
X181028Y189834D02*
X181653Y189522D01*
X181966Y188897D01*
X181653Y188272D01*
X181028Y187959D01*
X178841D01*
Y191709D01*
X181028D01*
X181653Y191397D01*
X181966Y190772D01*
X181653Y190147D01*
X181028Y189834D01*
X178841D01*
X180652Y317211D02*
X182214Y320961D01*
X183777Y317211D01*
X181277Y318774D02*
X183152D01*
X180652Y324691D02*
X182214Y328441D01*
X183777Y324691D01*
X181277Y326254D02*
X183152D01*
X181833Y311699D02*
X183395Y315449D01*
X184958Y311699D01*
X182458Y313262D02*
X184333D01*
X182226Y389258D02*
X183789Y393008D01*
X185352Y389258D01*
X182852Y390821D02*
X184726D01*
X182226Y397920D02*
X183789Y401670D01*
X185352Y397920D01*
X182852Y399482D02*
X184726D01*
X184807Y50740D02*
X185433Y50427D01*
X185745Y49802D01*
X185433Y49177D01*
X184807Y48865D01*
X182620D01*
Y52615D01*
X184807D01*
X185433Y52302D01*
X185745Y51677D01*
X185433Y51052D01*
X184807Y50740D01*
X182620D01*
X184807Y60740D02*
X185433Y60427D01*
X185745Y59802D01*
X185433Y59177D01*
X184807Y58865D01*
X182620D01*
Y62615D01*
X184807D01*
X185433Y62302D01*
X185745Y61677D01*
X185433Y61052D01*
X184807Y60740D01*
X182620D01*
X184807Y70740D02*
X185433Y70427D01*
X185745Y69802D01*
X185433Y69177D01*
X184807Y68865D01*
X182620D01*
Y72615D01*
X184807D01*
X185433Y72302D01*
X185745Y71677D01*
X185433Y71052D01*
X184807Y70740D01*
X182620D01*
X184807Y80740D02*
X185433Y80427D01*
X185745Y79802D01*
X185433Y79177D01*
X184807Y78865D01*
X182620D01*
Y82615D01*
X184807D01*
X185433Y82302D01*
X185745Y81677D01*
X185433Y81052D01*
X184807Y80740D01*
X182620D01*
X184807Y90740D02*
X185433Y90427D01*
X185745Y89802D01*
X185433Y89177D01*
X184807Y88865D01*
X182620D01*
Y92615D01*
X184807D01*
X185433Y92302D01*
X185745Y91677D01*
X185433Y91052D01*
X184807Y90740D01*
X182620D01*
X184807Y100740D02*
X185433Y100427D01*
X185745Y99802D01*
X185433Y99177D01*
X184807Y98865D01*
X182620D01*
Y102615D01*
X184807D01*
X185433Y102302D01*
X185745Y101677D01*
X185433Y101052D01*
X184807Y100740D01*
X182620D01*
X184807Y110740D02*
X185433Y110427D01*
X185745Y109802D01*
X185433Y109177D01*
X184807Y108865D01*
X182620D01*
Y112615D01*
X184807D01*
X185433Y112302D01*
X185745Y111677D01*
X185433Y111052D01*
X184807Y110740D01*
X182620D01*
X184807Y120740D02*
X185433Y120427D01*
X185745Y119802D01*
X185433Y119177D01*
X184807Y118865D01*
X182620D01*
Y122615D01*
X184807D01*
X185433Y122302D01*
X185745Y121677D01*
X185433Y121052D01*
X184807Y120740D01*
X182620D01*
X184807Y130740D02*
X185433Y130427D01*
X185745Y129802D01*
X185433Y129177D01*
X184807Y128865D01*
X182620D01*
Y132615D01*
X184807D01*
X185433Y132302D01*
X185745Y131677D01*
X185433Y131052D01*
X184807Y130740D01*
X182620D01*
X184982Y227841D02*
X186545Y231591D01*
X188107Y227841D01*
X185607Y229404D02*
X187482D01*
X184982Y234140D02*
X186545Y237890D01*
X188107Y234140D01*
X185607Y235703D02*
X187482D01*
X185376Y264849D02*
X186939Y268599D01*
X188501Y264849D01*
X186001Y266411D02*
X187876D01*
X186951Y143195D02*
X188513Y146945D01*
X190076Y143195D01*
X187576Y144758D02*
X189451D01*
X186951Y152644D02*
X188513Y156394D01*
X190076Y152644D01*
X187576Y154207D02*
X189451D01*
X186951Y162093D02*
X188513Y165843D01*
X190076Y162093D01*
X187576Y163656D02*
X189451D01*
X192288Y179322D02*
X192913Y179010D01*
X193226Y178385D01*
X192913Y177760D01*
X192288Y177447D01*
X190100D01*
Y181197D01*
X192288D01*
X192913Y180885D01*
X193226Y180260D01*
X192913Y179635D01*
X192288Y179322D01*
X190100D01*
X191281Y138471D02*
X192844Y142221D01*
X194407Y138471D01*
X191907Y140033D02*
X193781D01*
X191281Y147920D02*
X192844Y151670D01*
X194407Y147920D01*
X191907Y149482D02*
X193781D01*
X191281Y157369D02*
X192844Y161119D01*
X194407Y157369D01*
X191907Y158931D02*
X193781D01*
X196225Y496645D02*
X196850Y496333D01*
X197163Y495708D01*
X196850Y495083D01*
X196225Y494770D01*
X194037D01*
Y498520D01*
X196225D01*
X196850Y498208D01*
X197163Y497583D01*
X196850Y496958D01*
X196225Y496645D01*
X194037D01*
X194431Y401069D02*
X195994Y404819D01*
X197556Y401069D01*
X195056Y402632D02*
X196931D01*
X194431Y439652D02*
X195994Y443402D01*
X197556Y439652D01*
X195056Y441215D02*
X196931D01*
X196400Y220754D02*
X197962Y224504D01*
X199525Y220754D01*
X197025Y222317D02*
X198900D01*
X196793Y230991D02*
X198356Y234741D01*
X199919Y230991D01*
X197419Y232553D02*
X199293D01*
X198762Y261699D02*
X200324Y265449D01*
X201887Y261699D01*
X199387Y263262D02*
X201262D01*
X200337Y43589D02*
X201899Y47339D01*
X203462Y43589D01*
X200962Y45152D02*
X202837D01*
X200730Y62093D02*
X202293Y65843D01*
X203856Y62093D01*
X201356Y63656D02*
X203230D01*
X203311Y469874D02*
X203937Y469561D01*
X204249Y468936D01*
X203937Y468311D01*
X203311Y467998D01*
X201124D01*
Y471748D01*
X203311D01*
X203937Y471436D01*
X204249Y470811D01*
X203937Y470186D01*
X203311Y469874D01*
X201124D01*
X203311Y546527D02*
X203937Y546215D01*
X204249Y545590D01*
X203937Y544965D01*
X203311Y544652D01*
X201124D01*
Y548402D01*
X203311D01*
X203937Y548090D01*
X204249Y547465D01*
X203937Y546840D01*
X203311Y546527D01*
X201124D01*
X204493Y385504D02*
X205118Y385191D01*
X205430Y384566D01*
X205118Y383941D01*
X204493Y383628D01*
X202305D01*
Y387378D01*
X204493D01*
X205118Y387066D01*
X205430Y386441D01*
X205118Y385816D01*
X204493Y385504D01*
X202305D01*
X204274Y271935D02*
X205836Y275685D01*
X207399Y271935D01*
X204899Y273498D02*
X206774D01*
X209785Y306975D02*
X211348Y310725D01*
X212911Y306975D01*
X210411Y308537D02*
X212285D01*
X210179Y358943D02*
X211742Y362693D01*
X213304Y358943D01*
X210804Y360506D02*
X212679D01*
X210179Y364455D02*
X211742Y368205D01*
X213304Y364455D01*
X210804Y366018D02*
X212679D01*
X210179Y369967D02*
X211742Y373717D01*
X213304Y369967D01*
X210804Y371530D02*
X212679D01*
X216697Y552551D02*
X217322Y552238D01*
X217635Y551613D01*
X217322Y550988D01*
X216697Y550676D01*
X214510D01*
Y554426D01*
X216697D01*
X217322Y554113D01*
X217635Y553488D01*
X217322Y552863D01*
X216697Y552551D01*
X214510D01*
X216872Y230991D02*
X218435Y234741D01*
X219997Y230991D01*
X217497Y232553D02*
X219372D01*
X217266Y221148D02*
X218828Y224898D01*
X220391Y221148D01*
X217891Y222711D02*
X219766D01*
X219847Y452944D02*
X220472Y452632D01*
X220785Y452007D01*
X220472Y451382D01*
X219847Y451069D01*
X217659D01*
Y454819D01*
X219847D01*
X220472Y454507D01*
X220785Y453882D01*
X220472Y453257D01*
X219847Y452944D01*
X217659D01*
X218447Y317211D02*
X220009Y320961D01*
X221572Y317211D01*
X219072Y318774D02*
X220947D01*
X218447Y339258D02*
X220009Y343008D01*
X221572Y339258D01*
X219072Y340821D02*
X220947D01*
X219234Y264849D02*
X220797Y268599D01*
X222359Y264849D01*
X219859Y266411D02*
X221734D01*
X222384Y43589D02*
X223946Y47339D01*
X225509Y43589D01*
X223009Y45152D02*
X224884D01*
X222778Y62093D02*
X224340Y65843D01*
X225903Y62093D01*
X223403Y63656D02*
X225278D01*
X223644Y405006D02*
Y408756D01*
X226769D01*
X226144Y406881D02*
X223644D01*
X227084Y195789D02*
X226771Y195476D01*
X226146Y195164D01*
X225209D01*
X224584Y195476D01*
X224271Y195789D01*
X223959Y196414D01*
Y197664D01*
X224271Y198289D01*
X224584Y198602D01*
X225209Y198914D01*
X226146D01*
X226771Y198602D01*
X227084Y198289D01*
X224746Y146739D02*
X226309Y150489D01*
X227871Y146739D01*
X225371Y148301D02*
X227246D01*
X226321Y291620D02*
X227883Y295370D01*
X229446Y291620D01*
X226946Y293183D02*
X228821D01*
X226321Y297132D02*
X227883Y300882D01*
X229446Y297132D01*
X226946Y298695D02*
X228821D01*
X229470Y311699D02*
X231033Y315449D01*
X232596Y311699D01*
X230096Y313262D02*
X231970D01*
X229470Y339258D02*
X231033Y343008D01*
X232596Y339258D01*
X230096Y340821D02*
X231970D01*
X229864Y150676D02*
X231427Y154426D01*
X232989Y150676D01*
X230489Y152238D02*
X232364D01*
X231235Y486896D02*
X232485D01*
X231860D02*
Y490646D01*
X231235D02*
X232485D01*
X231235Y539652D02*
X232485D01*
X231860D02*
Y543402D01*
X231235D02*
X232485D01*
X231045Y290046D02*
X232608Y293796D01*
X234170Y290046D01*
X231670Y291608D02*
X233545D01*
X231045Y358550D02*
X232608Y362300D01*
X234170Y358550D01*
X231670Y360112D02*
X233545D01*
X231045Y383746D02*
X232608Y387496D01*
X234170Y383746D01*
X231670Y385309D02*
X233545D01*
X233407Y223117D02*
X234970Y226867D01*
X236533Y223117D01*
X234033Y224679D02*
X235907D01*
X233644Y405006D02*
Y408756D01*
X236769D01*
X236144Y406881D02*
X233644D01*
X233801Y349888D02*
X235364Y353638D01*
X236926Y349888D01*
X234426Y351451D02*
X236301D01*
X234982Y154613D02*
X236545Y158363D01*
X238107Y154613D01*
X235607Y156175D02*
X237482D01*
X235770Y371148D02*
X237332Y374898D01*
X238895Y371148D01*
X236395Y372711D02*
X238270D01*
X241235Y486896D02*
X242485D01*
X241860D02*
Y490646D01*
X241235D02*
X242485D01*
X241235Y539652D02*
X242485D01*
X241860D02*
Y543402D01*
X241235D02*
X242485D01*
X243644Y405006D02*
Y408756D01*
X246769D01*
X246144Y406881D02*
X243644D01*
X244037Y286896D02*
X245600Y290646D01*
X247163Y286896D01*
X244663Y288459D02*
X246537D01*
X251235Y486896D02*
X252485D01*
X251860D02*
Y490646D01*
X251235D02*
X252485D01*
X251235Y539652D02*
X252485D01*
X251860D02*
Y543402D01*
X251235D02*
X252485D01*
X258604Y383746D02*
X260167Y387496D01*
X261730Y383746D01*
X259230Y385309D02*
X261104D01*
X261579Y369874D02*
X262204Y369561D01*
X262517Y368936D01*
X262204Y368311D01*
X261579Y367998D01*
X259392D01*
Y371748D01*
X261579D01*
X262204Y371436D01*
X262517Y370811D01*
X262204Y370186D01*
X261579Y369874D01*
X259392D01*
X261697Y332472D02*
X262322Y332159D01*
X262635Y331535D01*
X262322Y330909D01*
X261697Y330597D01*
X259510D01*
Y334347D01*
X261697D01*
X262322Y334035D01*
X262635Y333409D01*
X262322Y332785D01*
X261697Y332472D01*
X259510D01*
X260179Y278235D02*
X261742Y281985D01*
X263304Y278235D01*
X260804Y279797D02*
X262679D01*
X265516Y341527D02*
X266141Y341215D01*
X266454Y340590D01*
X266141Y339965D01*
X265516Y339652D01*
X263329D01*
Y343402D01*
X265516D01*
X266141Y343090D01*
X266454Y342465D01*
X266141Y341840D01*
X265516Y341527D01*
X263329D01*
X263722Y262093D02*
X265285Y265843D01*
X266848Y262093D01*
X264348Y263656D02*
X266222D01*
X264904Y168392D02*
X266466Y172142D01*
X268029Y168392D01*
X265529Y169955D02*
X267404D01*
X264904Y179022D02*
X266466Y182772D01*
X268029Y179022D01*
X265529Y180585D02*
X267404D01*
X264904Y184928D02*
X266466Y188678D01*
X268029Y184928D01*
X265529Y186490D02*
X267404D01*
X268053Y397920D02*
X269616Y401670D01*
X271178Y397920D01*
X268678Y399482D02*
X270553D01*
X268841Y312487D02*
X270403Y316237D01*
X271966Y312487D01*
X269466Y314049D02*
X271341D01*
X271146Y252157D02*
X271771Y251844D01*
X272084Y251220D01*
X271771Y250594D01*
X271146Y250282D01*
X268959D01*
Y254032D01*
X271146D01*
X271771Y253720D01*
X272084Y253094D01*
X271771Y252470D01*
X271146Y252157D01*
X268959D01*
X269628Y209731D02*
X271191Y213481D01*
X272753Y209731D01*
X270253Y211293D02*
X272128D01*
X271235Y486896D02*
X272485D01*
X271860D02*
Y490646D01*
X271235D02*
X272485D01*
X271235Y539652D02*
X272485D01*
X271860D02*
Y543402D01*
X271235D02*
X272485D01*
X271990Y230991D02*
X273553Y234741D01*
X275115Y230991D01*
X272615Y232553D02*
X274490D01*
X275927Y115243D02*
X277490Y118993D01*
X279052Y115243D01*
X276552Y116805D02*
X278427D01*
X280258Y209731D02*
X281820Y213481D01*
X283383Y209731D01*
X280883Y211293D02*
X282758D01*
X281235Y486896D02*
X282485D01*
X281860D02*
Y490646D01*
X281235D02*
X282485D01*
X281235Y539652D02*
X282485D01*
X281860D02*
Y543402D01*
X281235D02*
X282485D01*
X284057Y312487D02*
X285620Y316237D01*
X287182Y312487D01*
X284682Y314049D02*
X286557D01*
X284195Y108943D02*
X285757Y112693D01*
X287320Y108943D01*
X284820Y110506D02*
X286695D01*
X284982Y339652D02*
X286545Y343402D01*
X288107Y339652D01*
X285607Y341215D02*
X287482D01*
X284982Y345557D02*
X286545Y349307D01*
X288107Y345557D01*
X285607Y347120D02*
X287482D01*
X284982Y351463D02*
X286545Y355213D01*
X288107Y351463D01*
X285607Y353026D02*
X287482D01*
X285770Y208156D02*
X287332Y211906D01*
X288895Y208156D01*
X286395Y209719D02*
X288270D01*
X286163Y272723D02*
X287726Y276473D01*
X289289Y272723D01*
X286789Y274285D02*
X288663D01*
X286163Y278235D02*
X287726Y281985D01*
X289289Y278235D01*
X286789Y279797D02*
X288663D01*
X286163Y283746D02*
X287726Y287496D01*
X289289Y283746D01*
X286789Y285309D02*
X288663D01*
X289057Y312487D02*
X290620Y316237D01*
X292182Y312487D01*
X289682Y314049D02*
X291557D01*
X290100Y408550D02*
X291663Y412300D01*
X293226Y408550D01*
X290726Y410112D02*
X292600D01*
X291235Y486896D02*
X292485D01*
X291860D02*
Y490646D01*
X291235D02*
X292485D01*
X291235Y539652D02*
X292485D01*
X291860D02*
Y543402D01*
X291235D02*
X292485D01*
X293250Y175085D02*
X294813Y178835D01*
X296375Y175085D01*
X293875Y176648D02*
X295750D01*
X294037Y292408D02*
X295600Y296158D01*
X297163Y292408D01*
X294663Y293970D02*
X296537D01*
X297012Y447826D02*
X297637Y447514D01*
X297950Y446889D01*
X297637Y446264D01*
X297012Y445951D01*
X294825D01*
Y449701D01*
X297012D01*
X297637Y449389D01*
X297950Y448764D01*
X297637Y448139D01*
X297012Y447826D01*
X294825D01*
X297012Y456488D02*
X297637Y456175D01*
X297950Y455550D01*
X297637Y454925D01*
X297012Y454613D01*
X294825D01*
Y458363D01*
X297012D01*
X297637Y458050D01*
X297950Y457425D01*
X297637Y456800D01*
X297012Y456488D01*
X294825D01*
X296400Y262487D02*
X297962Y266237D01*
X299525Y262487D01*
X297025Y264049D02*
X298900D01*
X299156Y379022D02*
X300718Y382772D01*
X302281Y379022D01*
X299781Y380585D02*
X301656D01*
X299156Y384140D02*
X300718Y387890D01*
X302281Y384140D01*
X299781Y385703D02*
X301656D01*
X299549Y115636D02*
X301112Y119386D01*
X302674Y115636D01*
X300174Y117199D02*
X302049D01*
X299549Y152250D02*
X301112Y156000D01*
X302674Y152250D01*
X300174Y153813D02*
X302049D01*
X301235Y486896D02*
X302485D01*
X301860D02*
Y490646D01*
X301235D02*
X302485D01*
X301235Y539652D02*
X302485D01*
X301860D02*
Y543402D01*
X301235D02*
X302485D01*
X301124Y243589D02*
X302687Y247339D01*
X304249Y243589D01*
X301749Y245152D02*
X303624D01*
X301124Y253589D02*
X302687Y257339D01*
X304249Y253589D01*
X301749Y255152D02*
X303624D01*
X304274Y312487D02*
X305836Y316237D01*
X307399Y312487D01*
X304899Y314049D02*
X306774D01*
X306461Y369874D02*
X307086Y369561D01*
X307399Y368936D01*
X307086Y368311D01*
X306461Y367998D01*
X304274D01*
Y371748D01*
X306461D01*
X307086Y371436D01*
X307399Y370811D01*
X307086Y370186D01*
X306461Y369874D01*
X304274D01*
X304923Y152250D02*
X306486Y156000D01*
X308048Y152250D01*
X305548Y153813D02*
X307423D01*
X307817Y272723D02*
X309380Y276473D01*
X310942Y272723D01*
X308442Y274285D02*
X310317D01*
X307817Y278235D02*
X309380Y281985D01*
X310942Y278235D01*
X308442Y279797D02*
X310317D01*
X307817Y283746D02*
X309380Y287496D01*
X310942Y283746D01*
X308442Y285309D02*
X310317D01*
X308211Y29416D02*
X309773Y33166D01*
X311336Y29416D01*
X308836Y30978D02*
X310711D01*
X308211Y408550D02*
X309773Y412300D01*
X311336Y408550D01*
X308836Y410112D02*
X310711D01*
X310792Y341527D02*
X311417Y341215D01*
X311730Y340590D01*
X311417Y339965D01*
X310792Y339652D01*
X308604D01*
Y343402D01*
X310792D01*
X311417Y343090D01*
X311730Y342465D01*
X311417Y341840D01*
X310792Y341527D01*
X308604D01*
X310967Y195164D02*
X312529Y198914D01*
X314092Y195164D01*
X311592Y196726D02*
X313467D01*
X311360Y158156D02*
X312923Y161906D01*
X314485Y158156D01*
X311985Y159719D02*
X313860D01*
X312935Y77054D02*
X314498Y80804D01*
X316060Y77054D01*
X313560Y78616D02*
X315435D01*
X314116Y201069D02*
X315679Y204819D01*
X317241Y201069D01*
X314741Y202632D02*
X316616D01*
X314510Y184928D02*
X316072Y188678D01*
X317635Y184928D01*
X315135Y186490D02*
X317010D01*
X314510Y192014D02*
X316072Y195764D01*
X317635Y192014D01*
X315135Y193577D02*
X317010D01*
X314510Y210518D02*
X316072Y214268D01*
X317635Y210518D01*
X315135Y212081D02*
X317010D01*
X314510Y229809D02*
X316072Y233559D01*
X317635Y229809D01*
X315135Y231372D02*
X317010D01*
X314904Y152250D02*
X316466Y156000D01*
X318029Y152250D01*
X315529Y153813D02*
X317404D01*
X317659Y99101D02*
X319222Y102851D01*
X320785Y99101D01*
X318285Y100663D02*
X320159D01*
X318053Y28628D02*
X319616Y32378D01*
X321178Y28628D01*
X318678Y30191D02*
X320553D01*
X320809Y168786D02*
X322372Y172536D01*
X323934Y168786D01*
X321434Y170348D02*
X323309D01*
X320809Y506975D02*
X322372Y510725D01*
X323934Y506975D01*
X321434Y508537D02*
X323309D01*
X320809Y559337D02*
X322372Y563087D01*
X323934Y559337D01*
X321434Y560900D02*
X323309D01*
X322384Y152250D02*
X323946Y156000D01*
X325509Y152250D01*
X323009Y153813D02*
X324884D01*
X325337Y28628D02*
X326899Y32378D01*
X328462Y28628D01*
X325962Y30191D02*
X327837D01*
X325533Y197920D02*
X327096Y201670D01*
X328659Y197920D01*
X326159Y199482D02*
X328033D01*
X325533Y214061D02*
X327096Y217811D01*
X328659Y214061D01*
X326159Y215624D02*
X328033D01*
X325533Y224298D02*
X327096Y228048D01*
X328659Y224298D01*
X326159Y225860D02*
X328033D01*
X329470Y292408D02*
X331033Y296158D01*
X332596Y292408D01*
X330096Y293970D02*
X331970D01*
X330258Y105400D02*
X331820Y109150D01*
X333383Y105400D01*
X330883Y106963D02*
X332758D01*
X330258Y168786D02*
X331820Y172536D01*
X333383Y168786D01*
X330883Y170348D02*
X332758D01*
X330258Y189258D02*
X331820Y193008D01*
X333383Y189258D01*
X330883Y190821D02*
X332758D01*
X330258Y339652D02*
X331820Y343402D01*
X333383Y339652D01*
X330883Y341215D02*
X332758D01*
X330258Y345557D02*
X331820Y349307D01*
X333383Y345557D01*
X330883Y347120D02*
X332758D01*
X330258Y351463D02*
X331820Y355213D01*
X333383Y351463D01*
X330883Y353026D02*
X332758D01*
X330258Y368786D02*
X331820Y372536D01*
X333383Y368786D01*
X330883Y370348D02*
X332758D01*
X331045Y62880D02*
X332608Y66630D01*
X334170Y62880D01*
X331670Y64443D02*
X333545D01*
X331833Y33353D02*
X333395Y37103D01*
X334958Y33353D01*
X332458Y34915D02*
X334333D01*
X331833Y224298D02*
X333395Y228048D01*
X334958Y224298D01*
X332458Y225860D02*
X334333D01*
X333407Y332959D02*
X334970Y336709D01*
X336533Y332959D01*
X334033Y334522D02*
X335907D01*
X333801Y165243D02*
X335364Y168993D01*
X336926Y165243D01*
X334426Y166805D02*
X336301D01*
X334195Y278235D02*
X335757Y281985D01*
X337320Y278235D01*
X334820Y279797D02*
X336695D01*
X336557Y78235D02*
X338120Y81985D01*
X339682Y78235D01*
X337182Y79797D02*
X339057D01*
X336951Y105400D02*
X338513Y109150D01*
X340076Y105400D01*
X337576Y106963D02*
X339451D01*
X337344Y384534D02*
X338907Y388284D01*
X340470Y384534D01*
X337970Y386096D02*
X339844D01*
X337344Y401660D02*
X338907Y405410D01*
X340470Y401660D01*
X337970Y403222D02*
X339844D01*
X337344Y410518D02*
X338907Y414268D01*
X340470Y410518D01*
X337970Y412081D02*
X339844D01*
X338919Y207762D02*
X340482Y211512D01*
X342044Y207762D01*
X339544Y209325D02*
X341419D01*
X339707Y155006D02*
X341269Y158756D01*
X342832Y155006D01*
X340332Y156569D02*
X342207D01*
X342069Y262900D02*
X343631Y266650D01*
X345194Y262900D01*
X342694Y264463D02*
X344569D01*
X342069Y275872D02*
X343631Y279622D01*
X345194Y275872D01*
X342694Y277435D02*
X344569D01*
X344256Y294165D02*
X344881Y293852D01*
X345194Y293228D01*
X344881Y292602D01*
X344256Y292290D01*
X342069D01*
Y296040D01*
X344256D01*
X344881Y295728D01*
X345194Y295102D01*
X344881Y294478D01*
X344256Y294165D01*
X342069D01*
X344256Y455307D02*
X344881Y454994D01*
X345194Y454369D01*
X344881Y453744D01*
X344256Y453431D01*
X342069D01*
Y457181D01*
X344256D01*
X344881Y456869D01*
X345194Y456244D01*
X344881Y455619D01*
X344256Y455307D01*
X342069D01*
X343644Y236896D02*
X345206Y240646D01*
X346769Y236896D01*
X344269Y238459D02*
X346144D01*
X348193Y304519D02*
X348819Y304207D01*
X349131Y303582D01*
X348819Y302957D01*
X348193Y302644D01*
X346006D01*
Y306394D01*
X348193D01*
X348819Y306082D01*
X349131Y305457D01*
X348819Y304832D01*
X348193Y304519D01*
X346006D01*
X353311Y361212D02*
X353937Y360900D01*
X354249Y360275D01*
X353937Y359650D01*
X353311Y359337D01*
X351124D01*
Y363087D01*
X353311D01*
X353937Y362775D01*
X354249Y362150D01*
X353937Y361525D01*
X353311Y361212D01*
X351124D01*
X353486Y125872D02*
X355049Y129622D01*
X356611Y125872D01*
X354111Y127435D02*
X355986D01*
X357524Y337590D02*
X358149Y337278D01*
X358462Y336653D01*
X358149Y336028D01*
X357524Y335715D01*
X355337D01*
Y339465D01*
X357524D01*
X358149Y339153D01*
X358462Y338528D01*
X358149Y337903D01*
X357524Y337590D01*
X355337D01*
X355455Y266837D02*
X357017Y270587D01*
X358580Y266837D01*
X356080Y268400D02*
X357955D01*
X355848Y132959D02*
X357411Y136709D01*
X358974Y132959D01*
X356474Y134522D02*
X358348D01*
X355848Y151069D02*
X357411Y154819D01*
X358974Y151069D01*
X356474Y152632D02*
X358348D01*
X357817Y384534D02*
X359380Y388284D01*
X360942Y384534D01*
X358442Y386096D02*
X360317D01*
X361360Y53825D02*
X362923Y57575D01*
X364485Y53825D01*
X361985Y55388D02*
X363860D01*
X362541Y70361D02*
X364104Y74111D01*
X365667Y70361D01*
X363167Y71923D02*
X365041D01*
X364729Y187196D02*
X365354Y186884D01*
X365667Y186259D01*
X365354Y185634D01*
X364729Y185321D01*
X362541D01*
Y189071D01*
X364729D01*
X365354Y188759D01*
X365667Y188134D01*
X365354Y187509D01*
X364729Y187196D01*
X362541D01*
X368272Y527354D02*
X368897Y527041D01*
X369210Y526417D01*
X368897Y525791D01*
X368272Y525479D01*
X366085D01*
Y529229D01*
X368272D01*
X368897Y528917D01*
X369210Y528291D01*
X368897Y527667D01*
X368272Y527354D01*
X366085D01*
X369847Y467511D02*
X370472Y467199D01*
X370785Y466574D01*
X370472Y465949D01*
X369847Y465636D01*
X367659D01*
Y469386D01*
X369847D01*
X370472Y469074D01*
X370785Y468449D01*
X370472Y467824D01*
X369847Y467511D01*
X367659D01*
X374571Y136015D02*
X375196Y135703D01*
X375509Y135078D01*
X375196Y134453D01*
X374571Y134140D01*
X372384D01*
Y137890D01*
X374571D01*
X375196Y137578D01*
X375509Y136953D01*
X375196Y136328D01*
X374571Y136015D01*
X372384D01*
X374571Y162787D02*
X375196Y162474D01*
X375509Y161850D01*
X375196Y161224D01*
X374571Y160912D01*
X372384D01*
Y164662D01*
X374571D01*
X375196Y164350D01*
X375509Y163724D01*
X375196Y163100D01*
X374571Y162787D01*
X372384D01*
X377721Y59244D02*
X378346Y58931D01*
X378659Y58306D01*
X378346Y57681D01*
X377721Y57369D01*
X375533D01*
Y61119D01*
X377721D01*
X378346Y60806D01*
X378659Y60181D01*
X378346Y59556D01*
X377721Y59244D01*
X375533D01*
X375927Y411699D02*
X377490Y415449D01*
X379052Y411699D01*
X376552Y413262D02*
X378427D01*
X377502Y368392D02*
X379065Y372142D01*
X380627Y368392D01*
X378127Y369955D02*
X380002D01*
X377896Y467211D02*
X379458Y470961D01*
X381021Y467211D01*
X378521Y468774D02*
X380396D01*
X383233Y80897D02*
X383858Y80585D01*
X384170Y79960D01*
X383858Y79335D01*
X383233Y79022D01*
X381045D01*
Y82772D01*
X383233D01*
X383858Y82460D01*
X384170Y81835D01*
X383858Y81210D01*
X383233Y80897D01*
X381045D01*
X384564Y546183D02*
X384252Y545870D01*
X383626Y545557D01*
X382689D01*
X382064Y545870D01*
X381752Y546183D01*
X381439Y546807D01*
Y548057D01*
X381752Y548683D01*
X382064Y548995D01*
X382689Y549307D01*
X383626D01*
X384252Y548995D01*
X384564Y548683D01*
X381833Y47526D02*
X383395Y51276D01*
X384958Y47526D01*
X382458Y49089D02*
X384333D01*
X384414Y135622D02*
X385039Y135309D01*
X385352Y134684D01*
X385039Y134059D01*
X384414Y133746D01*
X382226D01*
Y137496D01*
X384414D01*
X385039Y137184D01*
X385352Y136559D01*
X385039Y135934D01*
X384414Y135622D01*
X382226D01*
X388526Y420754D02*
X390088Y424504D01*
X391651Y420754D01*
X389151Y422317D02*
X391026D01*
X388919Y68786D02*
X390482Y72536D01*
X392044Y68786D01*
X389544Y70348D02*
X391419D01*
X391675Y64061D02*
X393238Y67811D01*
X394800Y64061D01*
X392300Y65624D02*
X394175D01*
X392069Y210518D02*
X393631Y214268D01*
X395194Y210518D01*
X392694Y212081D02*
X394569D01*
X395831Y304519D02*
X396456Y304207D01*
X396769Y303582D01*
X396456Y302957D01*
X395831Y302644D01*
X393644D01*
Y306394D01*
X395831D01*
X396456Y306082D01*
X396769Y305457D01*
X396456Y304832D01*
X395831Y304519D01*
X393644D01*
X396793Y88471D02*
X398356Y92221D01*
X399919Y88471D01*
X397419Y90033D02*
X399293D01*
X404249Y274529D02*
X403937Y274217D01*
X403311Y273904D01*
X402374D01*
X401749Y274217D01*
X401437Y274529D01*
X401124Y275154D01*
Y276404D01*
X401437Y277029D01*
X401749Y277342D01*
X402374Y277654D01*
X403311D01*
X403937Y277342D01*
X404249Y277029D01*
X402699Y128235D02*
X404261Y131985D01*
X405824Y128235D01*
X403324Y129797D02*
X405199D01*
X406067Y162787D02*
X406693Y162474D01*
X407005Y161850D01*
X406693Y161224D01*
X406067Y160912D01*
X403880D01*
Y164662D01*
X406067D01*
X406693Y164350D01*
X407005Y163724D01*
X406693Y163100D01*
X406067Y162787D01*
X403880D01*
X406067Y187196D02*
X406693Y186884D01*
X407005Y186259D01*
X406693Y185634D01*
X406067Y185321D01*
X403880D01*
Y189071D01*
X406067D01*
X406693Y188759D01*
X407005Y188134D01*
X406693Y187509D01*
X406067Y187196D01*
X403880D01*
X408036Y556370D02*
X408661Y556057D01*
X408974Y555432D01*
X408661Y554807D01*
X408036Y554494D01*
X405848D01*
Y558244D01*
X408036D01*
X408661Y557932D01*
X408974Y557307D01*
X408661Y556682D01*
X408036Y556370D01*
X405848D01*
X408604Y152250D02*
X410167Y156000D01*
X411730Y152250D01*
X409230Y153813D02*
X411104D01*
X408998Y379809D02*
X410561Y383559D01*
X412123Y379809D01*
X409623Y381372D02*
X411498D01*
X412541Y394770D02*
X414104Y398520D01*
X415667Y394770D01*
X413167Y396333D02*
X415041D01*
X415691Y145164D02*
X417254Y148914D01*
X418816Y145164D01*
X416316Y146726D02*
X418191D01*
X425140Y403431D02*
X426702Y407181D01*
X428265Y403431D01*
X425765Y404994D02*
X427640D01*
X425140Y428628D02*
X426702Y432378D01*
X428265Y428628D01*
X425765Y430191D02*
X427640D01*
X427502Y354219D02*
X429065Y357969D01*
X430627Y354219D01*
X428127Y355781D02*
X430002D01*
X427502Y508943D02*
X429065Y512693D01*
X430627Y508943D01*
X428127Y510506D02*
X430002D01*
X431045Y333353D02*
X432608Y337103D01*
X434170Y333353D01*
X431670Y334915D02*
X433545D01*
X431439Y64455D02*
X433002Y68205D01*
X434564Y64455D01*
X432064Y66018D02*
X433939D01*
X432620Y279416D02*
X434183Y283166D01*
X435745Y279416D01*
X433245Y280978D02*
X435120D01*
X432620Y301857D02*
X434183Y305607D01*
X435745Y301857D01*
X433245Y303419D02*
X435120D01*
X433407Y198707D02*
X434970Y202457D01*
X436533Y198707D01*
X434033Y200270D02*
X435907D01*
X440100Y518392D02*
X441663Y522142D01*
X443226Y518392D01*
X440726Y519955D02*
X442600D01*
X443619Y38309D02*
X443307Y37996D01*
X442681Y37683D01*
X441744D01*
X441119Y37996D01*
X440807Y38309D01*
X440494Y38933D01*
Y40183D01*
X440807Y40809D01*
X441119Y41121D01*
X441744Y41433D01*
X442681D01*
X443307Y41121D01*
X443619Y40809D01*
X440494Y198707D02*
X442057Y202457D01*
X443619Y198707D01*
X441119Y200270D02*
X442994D01*
X442463Y129809D02*
X444025Y133559D01*
X445588Y129809D01*
X443088Y131372D02*
X444963D01*
X442463Y339652D02*
X444025Y343402D01*
X445588Y339652D01*
X443088Y341215D02*
X444963D01*
X444411Y485321D02*
X445974Y489071D01*
X447537Y485321D01*
X445037Y486884D02*
X446911D01*
X444963Y234140D02*
X446525Y237890D01*
X448088Y234140D01*
X445588Y235703D02*
X447463D01*
X447187Y194376D02*
X448750Y198126D01*
X450312Y194376D01*
X447812Y195939D02*
X449687D01*
X449963Y234140D02*
X451525Y237890D01*
X453088Y234140D01*
X450588Y235703D02*
X452463D01*
X451518Y198707D02*
X453080Y202457D01*
X454643Y198707D01*
X452143Y200270D02*
X454018D01*
X451911Y329416D02*
X453474Y333166D01*
X455037Y329416D01*
X452537Y330978D02*
X454411D01*
X452305Y129809D02*
X453868Y133559D01*
X455430Y129809D01*
X452930Y131372D02*
X454805D01*
X452640Y292014D02*
X454202Y295764D01*
X455765Y292014D01*
X453265Y293577D02*
X455140D01*
X457640Y326660D02*
X459202Y330410D01*
X460765Y326660D01*
X458265Y328222D02*
X460140D01*
X459392Y129809D02*
X460954Y133559D01*
X462517Y129809D01*
X460017Y131372D02*
X461892D01*
X460179Y268392D02*
X461742Y272142D01*
X463304Y268392D01*
X460804Y269955D02*
X462679D01*
X460573Y106581D02*
X462135Y110331D01*
X463698Y106581D01*
X461198Y108144D02*
X463073D01*
X461754Y344376D02*
X463317Y348126D01*
X464879Y344376D01*
X462379Y345939D02*
X464254D01*
X464116Y490046D02*
X465679Y493796D01*
X467241Y490046D01*
X464741Y491608D02*
X466616D01*
X464904Y474691D02*
X466466Y478441D01*
X468029Y474691D01*
X465529Y476254D02*
X467404D01*
X469628Y268392D02*
X471191Y272142D01*
X472753Y268392D01*
X470253Y269955D02*
X472128D01*
X470415Y530203D02*
X471978Y533953D01*
X473541Y530203D01*
X471041Y531766D02*
X472915D01*
X471203Y106581D02*
X472765Y110331D01*
X474328Y106581D01*
X471828Y108144D02*
X473703D01*
X473565Y243195D02*
X475128Y246945D01*
X476690Y243195D01*
X474190Y244758D02*
X476065D01*
X475927Y496345D02*
X477490Y500095D01*
X479052Y496345D01*
X476552Y497907D02*
X478427D01*
X478289Y397920D02*
X479852Y401670D01*
X481415Y397920D01*
X478915Y399482D02*
X480789D01*
X479077Y268392D02*
X480639Y272142D01*
X482202Y268392D01*
X479702Y269955D02*
X481577D01*
X479864Y228628D02*
X481427Y232378D01*
X482989Y228628D01*
X480489Y230191D02*
X482364D01*
X484195Y434534D02*
X485757Y438284D01*
X487320Y434534D01*
X484820Y436096D02*
X486695D01*
X485770Y397920D02*
X487332Y401670D01*
X488895Y397920D01*
X486395Y399482D02*
X488270D01*
X486163Y535715D02*
X487726Y539465D01*
X489289Y535715D01*
X486789Y537278D02*
X488663D01*
X488427Y420754D02*
X489990Y424504D01*
X491552Y420754D01*
X489052Y422317D02*
X490927D01*
X488526Y268392D02*
X490088Y272142D01*
X491651Y268392D01*
X489151Y269955D02*
X491026D01*
X493250Y482959D02*
X494813Y486709D01*
X496375Y482959D01*
X493875Y484522D02*
X495750D01*
X493644Y446345D02*
X495206Y450095D01*
X496769Y446345D01*
X494269Y447907D02*
X496144D01*
X501518Y134534D02*
X503080Y138284D01*
X504643Y134534D01*
X502143Y136096D02*
X504018D01*
X502699Y122723D02*
X504261Y126473D01*
X505824Y122723D01*
X503324Y124285D02*
X505199D01*
X503486Y203038D02*
X505049Y206788D01*
X506611Y203038D01*
X504111Y204600D02*
X505986D01*
X504667Y173117D02*
X506230Y176867D01*
X507793Y173117D01*
X505293Y174679D02*
X507167D01*
X504667Y178235D02*
X506230Y181985D01*
X507793Y178235D01*
X505293Y179797D02*
X507167D01*
X506242Y296739D02*
X507805Y300489D01*
X509367Y296739D01*
X506867Y298301D02*
X508742D01*
X507030Y86109D02*
X508592Y89859D01*
X510155Y86109D01*
X507655Y87671D02*
X509530D01*
X507817Y217998D02*
X509380Y221748D01*
X510942Y217998D01*
X508442Y219561D02*
X510317D01*
X513329Y217998D02*
X514891Y221748D01*
X516454Y217998D01*
X513954Y219561D02*
X515829D01*
X515691Y509731D02*
X517254Y513481D01*
X518816Y509731D01*
X516316Y511293D02*
X518191D01*
X520415Y86109D02*
X521978Y89859D01*
X523541Y86109D01*
X521041Y87671D02*
X522915D01*
X521353Y182291D02*
X522603D01*
X521978D02*
Y186041D01*
X521353D02*
X522603D01*
X521353Y192291D02*
X522603D01*
X521978D02*
Y196041D01*
X521353D02*
X522603D01*
X522778Y241227D02*
X524340Y244977D01*
X525903Y241227D01*
X523403Y242789D02*
X525278D01*
X522778Y273117D02*
X524340Y276867D01*
X525903Y273117D01*
X523403Y274679D02*
X525278D01*
X522778Y292408D02*
X524340Y296158D01*
X525903Y292408D01*
X523403Y293970D02*
X525278D01*
X528289Y33353D02*
X529852Y37103D01*
X531415Y33353D01*
X528915Y34915D02*
X530789D01*
X528289Y518392D02*
X529852Y522142D01*
X531415Y518392D01*
X528915Y519955D02*
X530789D01*
X533407Y222329D02*
X534970Y226079D01*
X536533Y222329D01*
X534033Y223892D02*
X535907D01*
X539707Y222329D02*
X541269Y226079D01*
X542832Y222329D01*
X540332Y223892D02*
X542207D01*
X540494Y138865D02*
X542057Y142615D01*
X543619Y138865D01*
X541119Y140427D02*
X542994D01*
X545612Y142802D02*
X547175Y146552D01*
X548737Y142802D01*
X546237Y144364D02*
X548112D01*
X548762Y25479D02*
X550324Y29229D01*
X551887Y25479D01*
X549387Y27041D02*
X551262D01*
X548762Y193983D02*
X550324Y197733D01*
X551887Y193983D01*
X549387Y195545D02*
X551262D01*
X553486Y61699D02*
X555049Y65449D01*
X556611Y61699D01*
X554111Y63262D02*
X555986D01*
X553486Y490046D02*
X555049Y493796D01*
X556611Y490046D01*
X554111Y491608D02*
X555986D01*
X553880Y297526D02*
X555443Y301276D01*
X557005Y297526D01*
X554505Y299089D02*
X556380D01*
X558191Y148313D02*
X559754Y152063D01*
X561316Y148313D01*
X558816Y149876D02*
X560691D01*
X560573Y288471D02*
X562135Y292221D01*
X563698Y288471D01*
X561198Y290033D02*
X563073D01*
X561360Y33353D02*
X562923Y37103D01*
X564485Y33353D01*
X561985Y34915D02*
X563860D01*
X563329Y162487D02*
X564891Y166237D01*
X566454Y162487D01*
X563954Y164049D02*
X565829D01*
X563329Y187526D02*
X564891Y191276D01*
X566454Y187526D01*
X563954Y189089D02*
X565829D01*
X563722Y100282D02*
X565285Y104032D01*
X566848Y100282D01*
X564348Y101844D02*
X566222D01*
X563722Y475872D02*
X565285Y479622D01*
X566848Y475872D01*
X564348Y477435D02*
X566222D01*
X565829Y277054D02*
X567391Y280804D01*
X568954Y277054D01*
X566454Y278616D02*
X568329D01*
X566085Y499888D02*
X567647Y503638D01*
X569210Y499888D01*
X566710Y501451D02*
X568585D01*
X566478Y74691D02*
X568041Y78441D01*
X569604Y74691D01*
X567104Y76254D02*
X568978D01*
X566872Y397920D02*
X568435Y401670D01*
X569997Y397920D01*
X567497Y399482D02*
X569372D01*
X567266Y65636D02*
X568828Y69386D01*
X570391Y65636D01*
X567891Y67199D02*
X569766D01*
X568841Y507762D02*
X570403Y511512D01*
X571966Y507762D01*
X569466Y509325D02*
X571341D01*
X569234Y82172D02*
X570797Y85922D01*
X572359Y82172D01*
X569859Y83734D02*
X571734D01*
X572581Y435124D02*
X574143Y438874D01*
X575706Y435124D01*
X573206Y436687D02*
X575081D01*
X573171Y284534D02*
X574734Y288284D01*
X576296Y284534D01*
X573796Y286096D02*
X575671D01*
X574746Y397920D02*
X576309Y401670D01*
X577871Y397920D01*
X575371Y399482D02*
X577246D01*
X576865Y117447D02*
X578115D01*
X577490D02*
Y121197D01*
X576865D02*
X578115D01*
X576865Y137447D02*
X578115D01*
X577490D02*
Y141197D01*
X576865D02*
X578115D01*
X577010Y420754D02*
X578572Y424504D01*
X580135Y420754D01*
X577635Y422317D02*
X579510D01*
X579864Y77054D02*
X581427Y80804D01*
X582989Y77054D01*
X580489Y78616D02*
X582364D01*
X581439Y489258D02*
X583002Y493008D01*
X584564Y489258D01*
X582064Y490821D02*
X583939D01*
X581833Y33353D02*
X583395Y37103D01*
X584958Y33353D01*
X582458Y34915D02*
X584333D01*
X581833Y59337D02*
X583395Y63087D01*
X584958Y59337D01*
X582458Y60900D02*
X584333D01*
X583014Y446739D02*
X584576Y450489D01*
X586139Y446739D01*
X583639Y448301D02*
X585514D01*
X583407Y332959D02*
X584970Y336709D01*
X586533Y332959D01*
X584033Y334522D02*
X585907D01*
X585526Y117447D02*
X586776D01*
X586151D02*
Y121197D01*
X585526D02*
X586776D01*
X585526Y137447D02*
X586776D01*
X586151D02*
Y141197D01*
X585526D02*
X586776D01*
X584982Y521148D02*
X586545Y524898D01*
X588107Y521148D01*
X585607Y522711D02*
X587482D01*
X590888Y61306D02*
X592450Y65056D01*
X594013Y61306D01*
X591513Y62868D02*
X593388D01*
X590888Y484534D02*
X592450Y488284D01*
X594013Y484534D01*
X591513Y486096D02*
X593388D01*
X591931Y520754D02*
X593494Y524504D01*
X595056Y520754D01*
X592556Y522317D02*
X594431D01*
X592069Y320361D02*
X593631Y324111D01*
X595194Y320361D01*
X592694Y321923D02*
X594569D01*
X594187Y117447D02*
X595437D01*
X594813D02*
Y121197D01*
X594187D02*
X595437D01*
X594187Y137447D02*
X595437D01*
X594813D02*
Y141197D01*
X594187D02*
X595437D01*
X596931Y485715D02*
X598494Y489465D01*
X600056Y485715D01*
X597556Y487278D02*
X599431D01*
X596931Y507762D02*
X598494Y511512D01*
X600056Y507762D01*
X597556Y509325D02*
X599431D01*
X597974Y224691D02*
X599537Y228441D01*
X601100Y224691D01*
X598600Y226254D02*
X600474D01*
X602642Y542315D02*
X603267Y542002D01*
X603580Y541377D01*
X603267Y540752D01*
X602642Y540439D01*
X600455D01*
Y544189D01*
X602642D01*
X603267Y543877D01*
X603580Y543252D01*
X603267Y542627D01*
X602642Y542315D01*
X600455D01*
X600730Y368786D02*
X602293Y372536D01*
X603856Y368786D01*
X601356Y370348D02*
X603230D01*
X601911Y242802D02*
X603474Y246552D01*
X605037Y242802D01*
X602537Y244364D02*
X604411D01*
X604146Y438077D02*
X605396D01*
X604772D02*
Y441827D01*
X604146D02*
X605396D01*
X606786Y117447D02*
X608036D01*
X607411D02*
Y121197D01*
X606786D02*
X608036D01*
X606786Y137447D02*
X608036D01*
X607411D02*
Y141197D01*
X606786D02*
X608036D01*
X607817Y288471D02*
X609380Y292221D01*
X610942Y288471D01*
X608442Y290033D02*
X610317D01*
X609392Y356187D02*
X610954Y359937D01*
X612517Y356187D01*
X610017Y357750D02*
X611892D01*
X610573Y209731D02*
X612135Y213481D01*
X613698Y209731D01*
X611198Y211293D02*
X613073D01*
X610967Y320754D02*
X612529Y324504D01*
X614092Y320754D01*
X611592Y322317D02*
X613467D01*
X612541Y501463D02*
X614104Y505213D01*
X615667Y501463D01*
X613167Y503026D02*
X615041D01*
X614146Y438077D02*
X615396D01*
X614772D02*
Y441827D01*
X614146D02*
X615396D01*
X618053Y356975D02*
X619616Y360725D01*
X621178Y356975D01*
X618678Y358537D02*
X620553D01*
X620022Y223117D02*
X621584Y226867D01*
X623147Y223117D01*
X620647Y224679D02*
X622522D01*
X621990Y324298D02*
X623553Y328048D01*
X625115Y324298D01*
X622615Y325860D02*
X624490D01*
X623171Y103431D02*
X624734Y107181D01*
X626296Y103431D01*
X623796Y104994D02*
X625671D01*
X623959Y81778D02*
X625521Y85528D01*
X627084Y81778D01*
X624584Y83341D02*
X626459D01*
X624746Y71542D02*
X626309Y75292D01*
X627871Y71542D01*
X625371Y73104D02*
X627246D01*
X625927Y115243D02*
X627490Y118993D01*
X629052Y115243D01*
X626552Y116805D02*
X628427D01*
X628289Y356975D02*
X629852Y360725D01*
X631415Y356975D01*
X628915Y358537D02*
X630789D01*
X628683Y76266D02*
X630246Y80016D01*
X631808Y76266D01*
X629308Y77829D02*
X631183D01*
X628683Y101463D02*
X630246Y105213D01*
X631808Y101463D01*
X629308Y103026D02*
X631183D01*
X630258Y381384D02*
X631820Y385134D01*
X633383Y381384D01*
X630883Y382947D02*
X632758D01*
X632620Y94376D02*
X634183Y98126D01*
X635745Y94376D01*
X633245Y95939D02*
X635120D01*
X636533Y137128D02*
X636220Y136815D01*
X635595Y136502D01*
X634657D01*
X634033Y136815D01*
X633720Y137128D01*
X633407Y137752D01*
Y139002D01*
X633720Y139628D01*
X634033Y139940D01*
X634657Y140252D01*
X635595D01*
X636220Y139940D01*
X636533Y139628D01*
Y412718D02*
X636220Y412406D01*
X635595Y412093D01*
X634657D01*
X634033Y412406D01*
X633720Y412718D01*
X633407Y413343D01*
Y414593D01*
X633720Y415218D01*
X634033Y415531D01*
X634657Y415843D01*
X635595D01*
X636220Y415531D01*
X636533Y415218D01*
X634195Y199494D02*
X635757Y203244D01*
X637320Y199494D01*
X634820Y201057D02*
X636695D01*
X634195Y205006D02*
X635757Y208756D01*
X637320Y205006D01*
X634820Y206569D02*
X636695D01*
X634195Y210518D02*
X635757Y214268D01*
X637320Y210518D01*
X634820Y212081D02*
X636695D01*
X636163Y193195D02*
X637726Y196945D01*
X639289Y193195D01*
X636789Y194758D02*
X638663D01*
X636951Y256187D02*
X638513Y259937D01*
X640076Y256187D01*
X637576Y257750D02*
X639451D01*
X636951Y295164D02*
X638513Y298914D01*
X640076Y295164D01*
X637576Y296726D02*
X639451D01*
X640297Y26266D02*
X641860Y30016D01*
X643422Y26266D01*
X640922Y27829D02*
X642797D01*
X644037Y255794D02*
X645600Y259544D01*
X647163Y255794D01*
X644663Y257356D02*
X646537D01*
X644037Y295164D02*
X645600Y298914D01*
X647163Y295164D01*
X644663Y296726D02*
X646537D01*
X647581Y66030D02*
X649143Y69780D01*
X650706Y66030D01*
X648206Y67593D02*
X650081D01*
X647974Y26266D02*
X649537Y30016D01*
X651100Y26266D01*
X648600Y27829D02*
X650474D01*
X655061Y88077D02*
X656624Y91827D01*
X658186Y88077D01*
X655686Y89640D02*
X657561D01*
X655061Y340046D02*
X656624Y343796D01*
X658186Y340046D01*
X655686Y341608D02*
X657561D01*
X657030Y220754D02*
X658592Y224504D01*
X660155Y220754D01*
X657655Y222317D02*
X659530D01*
X660573Y503431D02*
Y507181D01*
Y505307D02*
X663698D01*
Y503431D02*
Y507181D01*
X671596Y230597D02*
X673159Y234347D01*
X674722Y230597D01*
X672222Y232159D02*
X674096D01*
X672384Y411068D02*
Y414818D01*
Y412943D02*
X675509D01*
Y411068D02*
Y414818D01*
X679077Y158550D02*
X680639Y162300D01*
X682202Y158550D01*
X679702Y160112D02*
X681577D01*
X679077Y193983D02*
X680639Y197733D01*
X682202Y193983D01*
X679702Y195545D02*
X681577D01*
X680258Y248313D02*
X681820Y252063D01*
X683383Y248313D01*
X680883Y249876D02*
X682758D01*
X680652Y74298D02*
X682214Y78048D01*
X683777Y74298D01*
X681277Y75860D02*
X683152D01*
X681439Y84928D02*
X683002Y88678D01*
X684564Y84928D01*
X682064Y86490D02*
X683939D01*
X685376Y216030D02*
X686939Y219780D01*
X688501Y216030D01*
X686001Y217593D02*
X687876D01*
X688282Y32014D02*
X689532D01*
X688907D02*
Y35764D01*
X688282D02*
X689532D01*
X688282Y52014D02*
X689532D01*
X688907D02*
Y55764D01*
X688282D02*
X689532D01*
X688132Y375085D02*
X689694Y378835D01*
X691257Y375085D01*
X688757Y376648D02*
X690632D01*
X693250Y243983D02*
X694813Y247733D01*
X696375Y243983D01*
X693875Y245545D02*
X695750D01*
X696786Y83353D02*
X698036D01*
X697411D02*
Y87103D01*
X696786D02*
X698036D01*
X696786Y92014D02*
X698036D01*
X697411D02*
Y95764D01*
X696786D02*
X698036D01*
X696786Y100676D02*
X698036D01*
X697411D02*
Y104426D01*
X696786D02*
X698036D01*
X696786Y113274D02*
X698036D01*
X697411D02*
Y117024D01*
X696786D02*
X698036D01*
X699156Y247526D02*
X700718Y251276D01*
X702281Y247526D01*
X699781Y249089D02*
X701656D01*
X700880Y32014D02*
X702130D01*
X701506D02*
Y35764D01*
X700880D02*
X702130D01*
X700880Y52014D02*
X702130D01*
X701506D02*
Y55764D01*
X700880D02*
X702130D01*
X700573Y515931D02*
Y519681D01*
X703698D01*
X703073Y517807D02*
X700573D01*
X706461Y376960D02*
X707086Y376648D01*
X707399Y376023D01*
X707086Y375398D01*
X706461Y375085D01*
X704274D01*
Y378835D01*
X706461D01*
X707086Y378523D01*
X707399Y377898D01*
X707086Y377273D01*
X706461Y376960D01*
X704274D01*
X707030Y238077D02*
X708592Y241827D01*
X710155Y238077D01*
X707655Y239640D02*
X709530D01*
X709542Y32014D02*
X710792D01*
X710167D02*
Y35764D01*
X709542D02*
X710792D01*
X709542Y52014D02*
X710792D01*
X710167D02*
Y55764D01*
X709542D02*
X710792D01*
X710179Y157369D02*
X711742Y161119D01*
X713304Y157369D01*
X710804Y158931D02*
X712679D01*
X710179Y167605D02*
X711742Y171355D01*
X713304Y167605D01*
X710804Y169167D02*
X712679D01*
X710179Y192802D02*
X711742Y196552D01*
X713304Y192802D01*
X710804Y194364D02*
X712679D01*
X710179Y206187D02*
X711742Y209937D01*
X713304Y206187D01*
X710804Y207750D02*
X712679D01*
X710573Y515931D02*
Y519681D01*
X713698D01*
X713073Y517807D02*
X710573D01*
X712384Y396068D02*
Y399818D01*
X715509D01*
X714884Y397943D02*
X712384D01*
Y426068D02*
Y429818D01*
X715509D01*
X714884Y427943D02*
X712384D01*
X713722Y219573D02*
X715285Y223323D01*
X716848Y219573D01*
X714348Y221136D02*
X716222D01*
X716786Y83353D02*
X718036D01*
X717411D02*
Y87103D01*
X716786D02*
X718036D01*
X716786Y92014D02*
X718036D01*
X717411D02*
Y95764D01*
X716786D02*
X718036D01*
X716786Y100676D02*
X718036D01*
X717411D02*
Y104426D01*
X716786D02*
X718036D01*
X716786Y113274D02*
X718036D01*
X717411D02*
Y117024D01*
X716786D02*
X718036D01*
X718203Y32014D02*
X719453D01*
X718828D02*
Y35764D01*
X718203D02*
X719453D01*
X718203Y52014D02*
X719453D01*
X718828D02*
Y55764D01*
X718203D02*
X719453D01*
X720573Y515931D02*
Y519681D01*
X723698D01*
X723073Y517807D02*
X720573D01*
X721203Y316424D02*
Y320174D01*
Y318299D02*
X724328D01*
Y316424D02*
Y320174D01*
X722384Y396068D02*
Y399818D01*
X725509D01*
X724884Y397943D02*
X722384D01*
X723565Y260124D02*
X725128Y263874D01*
X726690Y260124D01*
X724190Y261687D02*
X726065D01*
X725927Y139632D02*
X727490Y143382D01*
X729052Y139632D01*
X726552Y141195D02*
X728427D01*
X725927Y144632D02*
X727490Y148382D01*
X729052Y144632D01*
X726552Y146195D02*
X728427D01*
X725927Y149632D02*
X727490Y153382D01*
X729052Y149632D01*
X726552Y151195D02*
X728427D01*
X725927Y154632D02*
X727490Y158382D01*
X729052Y154632D01*
X726552Y156195D02*
X728427D01*
X725927Y179002D02*
X727490Y182752D01*
X729052Y179002D01*
X726552Y180565D02*
X728427D01*
X725927Y184002D02*
X727490Y187752D01*
X729052Y184002D01*
X726552Y185565D02*
X728427D01*
X725927Y189002D02*
X727490Y192752D01*
X729052Y189002D01*
X726552Y190565D02*
X728427D01*
X725927Y194002D02*
X727490Y197752D01*
X729052Y194002D01*
X726552Y195565D02*
X728427D01*
X725927Y218372D02*
X727490Y222122D01*
X729052Y218372D01*
X726552Y219935D02*
X728427D01*
X725927Y223117D02*
X727490Y226867D01*
X729052Y223117D01*
X726552Y224679D02*
X728427D01*
X725927Y228235D02*
X727490Y231985D01*
X729052Y228235D01*
X726552Y229797D02*
X728427D01*
X725927Y233372D02*
X727490Y237122D01*
X729052Y233372D01*
X726552Y234935D02*
X728427D01*
X725927Y255794D02*
X727490Y259544D01*
X729052Y255794D01*
X726552Y257356D02*
X728427D01*
X725927Y264061D02*
X727490Y267811D01*
X729052Y264061D01*
X726552Y265624D02*
X728427D01*
X728289Y260124D02*
X729852Y263874D01*
X731415Y260124D01*
X728915Y261687D02*
X730789D01*
X732384Y396068D02*
Y399818D01*
X735509D01*
X734884Y397943D02*
X732384D01*
Y426068D02*
Y429818D01*
X735509D01*
X734884Y427943D02*
X732384D01*
X738390Y307236D02*
X739328D01*
Y306924D01*
X739015Y306299D01*
X738703Y305986D01*
X738078Y305674D01*
X737453D01*
X736828Y305986D01*
X736515Y306299D01*
X736203Y306924D01*
Y308174D01*
X736515Y308799D01*
X736828Y309111D01*
X737453Y309424D01*
X738078D01*
X738703Y309111D01*
X739015Y308799D01*
X739328Y308174D01*
X746619Y376960D02*
X747244Y376648D01*
X747556Y376023D01*
X747244Y375398D01*
X746619Y375085D01*
X744431D01*
Y378835D01*
X746619D01*
X747244Y378523D01*
X747556Y377898D01*
X747244Y377273D01*
X746619Y376960D01*
X744431D01*
X753880Y154613D02*
X755443Y158363D01*
X757005Y154613D01*
X754505Y156175D02*
X756380D01*
X753880Y193983D02*
X755443Y197733D01*
X757005Y193983D01*
X754505Y195545D02*
X756380D01*
X756203Y305674D02*
Y309424D01*
X758078D01*
X758703Y309111D01*
X759015Y308799D01*
X759328Y308174D01*
Y306924D01*
X759015Y306299D01*
X758703Y305986D01*
X758078Y305674D01*
X756203D01*
X760573Y503431D02*
Y507181D01*
Y505307D02*
X763698D01*
Y503431D02*
Y507181D01*
X761203Y334424D02*
Y338174D01*
X764328D01*
X763703Y336299D02*
X761203D01*
X771203Y334424D02*
Y338174D01*
X774328D01*
X773703Y336299D02*
X771203D01*
X772384Y411068D02*
Y414818D01*
Y412943D02*
X775509D01*
Y411068D02*
Y414818D01*
X773171Y238077D02*
X774734Y241827D01*
X776296Y238077D01*
X773796Y239640D02*
X775671D01*
X781203Y334424D02*
Y338174D01*
X784328D01*
X783703Y336299D02*
X781203D01*
X785595Y376960D02*
X786220Y376648D01*
X786533Y376023D01*
X786220Y375398D01*
X785595Y375085D01*
X783407D01*
Y378835D01*
X785595D01*
X786220Y378523D01*
X786533Y377898D01*
X786220Y377273D01*
X785595Y376960D01*
X783407D01*
X786203Y305674D02*
Y309424D01*
X788078D01*
X788703Y309111D01*
X789015Y308799D01*
X789328Y308174D01*
Y306924D01*
X789015Y306299D01*
X788703Y305986D01*
X788078Y305674D01*
X786203D01*
X797012Y449795D02*
X797637Y449482D01*
X797950Y448857D01*
X797637Y448232D01*
X797012Y447920D01*
X794825D01*
Y451670D01*
X797012D01*
X797637Y451357D01*
X797950Y450732D01*
X797637Y450107D01*
X797012Y449795D01*
X794825D01*
X796793Y162093D02*
X798356Y165843D01*
X799919Y162093D01*
X797419Y163656D02*
X799293D01*
X796793Y200676D02*
X798356Y204426D01*
X799919Y200676D01*
X797419Y202238D02*
X799293D01*
X805061Y219573D02*
X806624Y223323D01*
X808186Y219573D01*
X805686Y221136D02*
X807561D01*
X808390Y307236D02*
X809328D01*
Y306924D01*
X809015Y306299D01*
X808703Y305986D01*
X808078Y305674D01*
X807453D01*
X806828Y305986D01*
X806515Y306299D01*
X806203Y306924D01*
Y308174D01*
X806515Y308799D01*
X806828Y309111D01*
X807453Y309424D01*
X808078D01*
X808703Y309111D01*
X809015Y308799D01*
X809328Y308174D01*
X808430Y289559D02*
X809055Y289246D01*
X809367Y288621D01*
X809055Y287996D01*
X808430Y287683D01*
X806242D01*
Y291433D01*
X808430D01*
X809055Y291121D01*
X809367Y290496D01*
X809055Y289871D01*
X808430Y289559D01*
X806242D01*
X808430Y320267D02*
X809055Y319955D01*
X809367Y319330D01*
X809055Y318705D01*
X808430Y318392D01*
X806242D01*
Y322142D01*
X808430D01*
X809055Y321830D01*
X809367Y321205D01*
X809055Y320580D01*
X808430Y320267D01*
X806242D01*
X809392Y167605D02*
X810954Y171355D01*
X812517Y167605D01*
X810017Y169167D02*
X811892D01*
X809785Y206187D02*
X811348Y209937D01*
X812911Y206187D01*
X810411Y207750D02*
X812285D01*
X815297Y237290D02*
X816860Y241040D01*
X818422Y237290D01*
X815922Y238852D02*
X817797D01*
X815297Y242014D02*
X816860Y245764D01*
X818422Y242014D01*
X815922Y243577D02*
X817797D01*
X815297Y246739D02*
X816860Y250489D01*
X818422Y246739D01*
X815922Y248301D02*
X817797D01*
X821203Y316424D02*
Y320174D01*
Y318299D02*
X824328D01*
Y316424D02*
Y320174D01*
X831264Y414443D02*
X832202D01*
Y414130D01*
X831889Y413506D01*
X831577Y413193D01*
X830952Y412880D01*
X830327D01*
X829702Y413193D01*
X829389Y413506D01*
X829077Y414130D01*
Y415380D01*
X829389Y416006D01*
X829702Y416318D01*
X830327Y416630D01*
X830952D01*
X831577Y416318D01*
X831889Y416006D01*
X832202Y415380D01*
X831264Y444443D02*
X832202D01*
Y444130D01*
X831889Y443506D01*
X831577Y443193D01*
X830952Y442880D01*
X830327D01*
X829702Y443193D01*
X829389Y443506D01*
X829077Y444130D01*
Y445380D01*
X829389Y446006D01*
X829702Y446318D01*
X830327Y446630D01*
X830952D01*
X831577Y446318D01*
X831889Y446006D01*
X832202Y445380D01*
X829077Y501857D02*
Y505607D01*
X832202D01*
X831577Y503732D02*
X829077D01*
Y501857D02*
X832202D01*
X831264Y519443D02*
X832202D01*
Y519130D01*
X831889Y518506D01*
X831577Y518193D01*
X830952Y517880D01*
X830327D01*
X829702Y518193D01*
X829389Y518506D01*
X829077Y519130D01*
Y520380D01*
X829389Y521006D01*
X829702Y521318D01*
X830327Y521630D01*
X830952D01*
X831577Y521318D01*
X831889Y521006D01*
X832202Y520380D01*
X831264Y549443D02*
X832202D01*
Y549130D01*
X831889Y548506D01*
X831577Y548193D01*
X830952Y547880D01*
X830327D01*
X829702Y548193D01*
X829389Y548506D01*
X829077Y549130D01*
Y550380D01*
X829389Y551006D01*
X829702Y551318D01*
X830327Y551630D01*
X830952D01*
X831577Y551318D01*
X831889Y551006D01*
X832202Y550380D01*
X832226Y140046D02*
X833789Y143796D01*
X835352Y140046D01*
X832852Y141608D02*
X834726D01*
X832226Y144770D02*
X833789Y148520D01*
X835352Y144770D01*
X832852Y146333D02*
X834726D01*
X832226Y149494D02*
X833789Y153244D01*
X835352Y149494D01*
X832852Y151057D02*
X834726D01*
X832226Y179022D02*
X833789Y182772D01*
X835352Y179022D01*
X832852Y180585D02*
X834726D01*
X832226Y183746D02*
X833789Y187496D01*
X835352Y183746D01*
X832852Y185309D02*
X834726D01*
X832226Y188471D02*
X833789Y192221D01*
X835352Y188471D01*
X832852Y190033D02*
X834726D01*
X861973Y480897D02*
X862598Y480585D01*
X862911Y479960D01*
X862598Y479335D01*
X861973Y479022D01*
X859785D01*
Y482772D01*
X861973D01*
X862598Y482460D01*
X862911Y481835D01*
X862598Y481210D01*
X861973Y480897D01*
X859785D01*
X864729Y289559D02*
X865354Y289246D01*
X865667Y288621D01*
X865354Y287996D01*
X864729Y287683D01*
X862541D01*
Y291433D01*
X864729D01*
X865354Y291121D01*
X865667Y290496D01*
X865354Y289871D01*
X864729Y289559D01*
X862541D01*
X864729Y320267D02*
X865354Y319955D01*
X865667Y319330D01*
X865354Y318705D01*
X864729Y318392D01*
X862541D01*
Y322142D01*
X864729D01*
X865354Y321830D01*
X865667Y321205D01*
X865354Y320580D01*
X864729Y320267D01*
X862541D01*
X889313Y351542D02*
Y355292D01*
X891188D01*
X891813Y354980D01*
X892126Y354667D01*
X892438Y354042D01*
Y352792D01*
X892126Y352167D01*
X891813Y351854D01*
X891188Y351542D01*
X889313D01*
Y371542D02*
Y375292D01*
X891188D01*
X891813Y374980D01*
X892126Y374667D01*
X892438Y374042D01*
Y372792D01*
X892126Y372167D01*
X891813Y371854D01*
X891188Y371542D01*
X889313D01*
Y391542D02*
Y395292D01*
X891188D01*
X891813Y394980D01*
X892126Y394667D01*
X892438Y394042D01*
Y392792D01*
X892126Y392167D01*
X891813Y391854D01*
X891188Y391542D01*
X889313D01*
Y429652D02*
Y433402D01*
X891188D01*
X891813Y433090D01*
X892126Y432777D01*
X892438Y432152D01*
Y430902D01*
X892126Y430277D01*
X891813Y429965D01*
X891188Y429652D01*
X889313D01*
Y449652D02*
Y453402D01*
X891188D01*
X891813Y453090D01*
X892126Y452777D01*
X892438Y452152D01*
Y450902D01*
X892126Y450277D01*
X891813Y449965D01*
X891188Y449652D01*
X889313D01*
Y488707D02*
Y492457D01*
X891188D01*
X891813Y492145D01*
X892126Y491832D01*
X892438Y491207D01*
Y489957D01*
X892126Y489332D01*
X891813Y489020D01*
X891188Y488707D01*
X889313D01*
Y508707D02*
Y512457D01*
X891188D01*
X891813Y512145D01*
X892126Y511832D01*
X892438Y511207D01*
Y509957D01*
X892126Y509332D01*
X891813Y509020D01*
X891188Y508707D01*
X889313D01*
X896375Y38309D02*
X896063Y37996D01*
X895437Y37683D01*
X894500D01*
X893875Y37996D01*
X893563Y38309D01*
X893250Y38933D01*
Y40183D01*
X893563Y40809D01*
X893875Y41121D01*
X894500Y41433D01*
X895437D01*
X896063Y41121D01*
X896375Y40809D01*
Y313899D02*
X896063Y313587D01*
X895437Y313274D01*
X894500D01*
X893875Y313587D01*
X893563Y313899D01*
X893250Y314524D01*
Y315774D01*
X893563Y316399D01*
X893875Y316712D01*
X894500Y317024D01*
X895437D01*
X896063Y316712D01*
X896375Y316399D01*
Y546183D02*
X896063Y545870D01*
X895437Y545557D01*
X894500D01*
X893875Y545870D01*
X893563Y546183D01*
X893250Y546807D01*
Y548057D01*
X893563Y548683D01*
X893875Y548995D01*
X894500Y549307D01*
X895437D01*
X896063Y548995D01*
X896375Y548683D01*
X897187Y67211D02*
Y70961D01*
X900312D01*
X899687Y69086D02*
X897187D01*
Y80991D02*
Y84741D01*
X900312D01*
X899687Y82866D02*
X897187D01*
Y94770D02*
Y98520D01*
X900312D01*
X899687Y96645D02*
X897187D01*
Y238274D02*
Y242024D01*
X900312D01*
X899687Y240149D02*
X897187D01*
Y252054D02*
Y255804D01*
X900312D01*
X899687Y253929D02*
X897187D01*
D02*
D87*
X18250Y221116D03*
X28250D03*
X32856Y173281D03*
Y187061D03*
X36793Y31746D03*
Y307337D03*
Y353596D03*
Y363439D03*
Y373281D03*
Y383124D03*
Y410683D03*
Y420526D03*
Y430368D03*
Y440211D03*
Y539620D03*
X38250Y221116D03*
Y229620D03*
X40730Y474502D03*
Y494502D03*
X48211Y167415D03*
Y187415D03*
X48250Y221116D03*
X56872Y167415D03*
Y187415D03*
X61990Y482533D03*
X62384Y374266D03*
X65533Y167415D03*
Y187415D03*
X69470Y250250D03*
X70652Y430565D03*
X75376Y206943D03*
X77738Y284502D03*
Y395132D03*
X78132Y167415D03*
Y187415D03*
X78250Y294423D03*
Y304423D03*
Y314423D03*
Y324423D03*
Y334423D03*
X82856Y368754D03*
X85219Y225841D03*
X87187Y512455D03*
X88250Y294423D03*
Y304423D03*
Y314423D03*
Y324423D03*
Y334423D03*
X93880Y224659D03*
Y236864D03*
X94667Y200250D03*
X95848Y289226D03*
Y299463D03*
Y309699D03*
Y319935D03*
Y330171D03*
X97423Y135683D03*
X97522Y423478D03*
X100573Y145132D03*
X102935Y262061D03*
Y277415D03*
X107266Y375053D03*
X113959Y255762D03*
Y507730D03*
X122226Y145132D03*
X122620Y460093D03*
X123801Y135683D03*
X124589Y262061D03*
X125376Y42927D03*
Y52927D03*
Y62927D03*
Y72927D03*
Y82927D03*
Y92927D03*
Y102927D03*
Y112927D03*
X126557Y257337D03*
X127344Y232140D03*
Y299463D03*
X130100Y448281D03*
X130494Y307730D03*
X130730Y320191D03*
Y325191D03*
X132069Y227022D03*
X135730Y320191D03*
Y325191D03*
X140730Y307730D03*
Y320191D03*
Y325191D03*
X142699Y141982D03*
Y151431D03*
X143093Y199069D03*
X143486Y263242D03*
Y268754D03*
Y274266D03*
X143880Y427415D03*
X145730Y320191D03*
Y325191D03*
X145848Y433715D03*
X145868Y314817D03*
X146636Y203400D03*
X147030Y146707D03*
Y156156D03*
X147817Y257730D03*
X148841Y172022D03*
Y182022D03*
X149785Y208124D03*
X150573Y42927D03*
Y52927D03*
Y62927D03*
Y72927D03*
Y82927D03*
Y92927D03*
Y102927D03*
Y112927D03*
Y122927D03*
X150730Y320191D03*
Y325191D03*
X150967Y482533D03*
X152148Y242376D03*
X153722Y216785D03*
X156085Y291982D03*
X158053Y251825D03*
Y258518D03*
X158841Y172022D03*
Y182022D03*
X159628Y274266D03*
X161203Y290801D03*
X162384Y216785D03*
X167915Y242376D03*
X168841Y172022D03*
Y182022D03*
X170652Y311274D03*
Y318754D03*
X171833Y305762D03*
X172226Y383321D03*
Y391982D03*
X172620Y42927D03*
Y52927D03*
Y62927D03*
Y72927D03*
Y82927D03*
Y92927D03*
Y102927D03*
Y112927D03*
Y122927D03*
X174982Y221904D03*
Y228203D03*
X175376Y258911D03*
X176951Y137258D03*
Y146707D03*
Y156156D03*
X180100Y171510D03*
X181281Y132533D03*
Y141982D03*
Y151431D03*
X184037Y488833D03*
X184431Y395132D03*
Y433715D03*
X186400Y214817D03*
X186793Y225053D03*
X188762Y255762D03*
X190337Y37652D03*
X190730Y56156D03*
X191124Y462061D03*
Y538715D03*
X192305Y377691D03*
X194274Y265998D03*
X199785Y301037D03*
X200179Y353006D03*
Y358518D03*
Y364030D03*
X204510Y544738D03*
X206872Y225053D03*
X207266Y215211D03*
X207659Y445132D03*
X208447Y311274D03*
Y333321D03*
X209234Y258911D03*
X212384Y37652D03*
X212778Y56156D03*
X213644Y399069D03*
X213959Y189226D03*
X214746Y140801D03*
X216321Y285683D03*
Y291195D03*
X219470Y305762D03*
Y333321D03*
X219864Y144738D03*
X220297Y480959D03*
Y533715D03*
X221045Y284108D03*
Y352612D03*
Y377809D03*
X223407Y217179D03*
X223644Y399069D03*
X223801Y343951D03*
X224982Y148675D03*
X225770Y365211D03*
X230297Y480959D03*
Y533715D03*
X233644Y399069D03*
X234037Y280959D03*
X240297Y480959D03*
Y533715D03*
X248604Y377809D03*
X249392Y362061D03*
X249510Y324659D03*
X250179Y272297D03*
X253329Y333715D03*
X253722Y256156D03*
X254904Y162455D03*
Y173085D03*
Y178990D03*
X258053Y391982D03*
X258841Y306549D03*
X258959Y244344D03*
X259628Y203793D03*
X260297Y480959D03*
Y533715D03*
X261990Y225053D03*
X265927Y109305D03*
X270258Y203793D03*
X270297Y480959D03*
Y533715D03*
X274057Y306549D03*
X274195Y103006D03*
X274982Y333715D03*
Y339620D03*
Y345526D03*
X275770Y202219D03*
X276163Y266785D03*
Y272297D03*
Y277809D03*
X279057Y306549D03*
X280100Y402612D03*
X280297Y480959D03*
Y533715D03*
X283250Y169148D03*
X284037Y286470D03*
X284825Y440014D03*
Y448675D03*
X286400Y256549D03*
X289156Y373085D03*
Y378203D03*
X289549Y109699D03*
Y146313D03*
X290297Y480959D03*
Y533715D03*
X291124Y237652D03*
Y247652D03*
X294274Y306549D03*
Y362061D03*
X294923Y146313D03*
X297817Y266785D03*
Y272297D03*
Y277809D03*
X298211Y23478D03*
Y402612D03*
X298604Y333715D03*
X300967Y189226D03*
X301360Y152219D03*
X302935Y71116D03*
X304116Y195132D03*
X304510Y178990D03*
Y186077D03*
Y204581D03*
Y223872D03*
X304904Y146313D03*
X307659Y93163D03*
X308053Y22691D03*
X310809Y162848D03*
Y501037D03*
Y553400D03*
X312384Y146313D03*
X315337Y22691D03*
X315533Y191982D03*
Y208124D03*
Y218360D03*
X319470Y286470D03*
X320258Y99463D03*
Y162848D03*
Y183321D03*
Y333715D03*
Y339620D03*
Y345526D03*
Y362848D03*
X321045Y56943D03*
X321833Y27415D03*
Y218360D03*
X323407Y327022D03*
X323801Y159305D03*
X324195Y272297D03*
X326557Y72297D03*
X326951Y99463D03*
X327344Y378596D03*
Y395722D03*
Y404581D03*
X328919Y201825D03*
X329707Y149069D03*
X332069Y256963D03*
Y269935D03*
Y286352D03*
Y447494D03*
X333644Y230959D03*
X336006Y296707D03*
X341124Y353400D03*
X343486Y119935D03*
X345337Y329778D03*
X345455Y260900D03*
X345848Y127022D03*
Y145132D03*
X347817Y378596D03*
X351360Y47888D03*
X352541Y64423D03*
Y179384D03*
X356085Y519541D03*
X357659Y459699D03*
X362384Y128203D03*
Y154974D03*
X365533Y51431D03*
X365927Y405762D03*
X367502Y362455D03*
X367896Y461274D03*
X371045Y73085D03*
X371439Y539620D03*
X371833Y41589D03*
X372226Y127809D03*
X378526Y414817D03*
X378919Y62848D03*
X381675Y58124D03*
X382069Y204581D03*
X383644Y296707D03*
X386793Y82533D03*
X391124Y267967D03*
X392699Y122297D03*
X393880Y154974D03*
Y179384D03*
X395848Y548557D03*
X398604Y146313D03*
X398998Y373872D03*
X402541Y388833D03*
X405691Y139226D03*
X415140Y397494D03*
Y422691D03*
X417502Y348281D03*
Y503006D03*
X421045Y327415D03*
X421439Y58518D03*
X422620Y273478D03*
Y295919D03*
X423407Y192770D03*
X430100Y512455D03*
X430494Y31746D03*
Y192770D03*
X432463Y123872D03*
Y333715D03*
X434411Y479384D03*
X434963Y228203D03*
X437187Y188439D03*
X439963Y228203D03*
X441518Y192770D03*
X441911Y323478D03*
X442305Y123872D03*
X442640Y286077D03*
X447640Y320722D03*
X449392Y123872D03*
X450179Y262455D03*
X450573Y100644D03*
X451754Y338439D03*
X454116Y484108D03*
X454904Y468754D03*
X459628Y262455D03*
X460415Y524266D03*
X461203Y100644D03*
X463565Y237258D03*
X465927Y490407D03*
X468289Y391982D03*
X469077Y262455D03*
X469864Y222691D03*
X474195Y428596D03*
X475770Y391982D03*
X476163Y529778D03*
X478427Y414817D03*
X478526Y262455D03*
X483250Y477022D03*
X483644Y440407D03*
X491518Y128596D03*
X492699Y116785D03*
X493486Y197100D03*
X494667Y167179D03*
Y172297D03*
X496242Y290801D03*
X497030Y80171D03*
X497817Y212061D03*
X503329D03*
X505691Y503793D03*
X510415Y80171D03*
Y176354D03*
Y186354D03*
X512778Y235289D03*
Y267179D03*
Y286470D03*
X518289Y27415D03*
Y512455D03*
X523407Y216392D03*
X529707D03*
X530494Y132927D03*
X535612Y136864D03*
X538762Y19541D03*
Y188045D03*
X543486Y55762D03*
Y484108D03*
X543880Y291589D03*
X548191Y142376D03*
X550573Y282533D03*
X551360Y27415D03*
X553329Y156549D03*
Y181589D03*
X553722Y94344D03*
Y469935D03*
X555829Y271116D03*
X556085Y493951D03*
X556478Y68754D03*
X556872Y391982D03*
X557266Y59699D03*
X558841Y501825D03*
X559234Y76234D03*
X562581Y429187D03*
X563171Y278596D03*
X564746Y391982D03*
X565927Y111510D03*
Y131510D03*
X567010Y414817D03*
X569864Y71116D03*
X571439Y483321D03*
X571833Y27415D03*
Y53400D03*
X573014Y440801D03*
X573407Y327022D03*
X574589Y111510D03*
Y131510D03*
X574982Y515211D03*
X580888Y55368D03*
Y478596D03*
X581931Y514817D03*
X582069Y314423D03*
X583250Y111510D03*
Y131510D03*
X586931Y479778D03*
Y501825D03*
X587974Y218754D03*
X590455Y534502D03*
X590730Y362848D03*
X591911Y236864D03*
X593209Y432140D03*
X595848Y111510D03*
Y131510D03*
X597817Y282533D03*
X599392Y350250D03*
X600573Y203793D03*
X600967Y314817D03*
X602541Y495526D03*
X603209Y432140D03*
X608053Y351037D03*
X610022Y217179D03*
X611990Y318360D03*
X613171Y97494D03*
X613959Y75841D03*
X614746Y65604D03*
X615927Y109305D03*
X618289Y351037D03*
X618683Y70329D03*
Y95526D03*
X620258Y375447D03*
X622620Y88439D03*
X623407Y130565D03*
Y406156D03*
X624195Y193557D03*
Y199069D03*
Y204581D03*
X626163Y187258D03*
X626951Y250250D03*
Y289226D03*
X630297Y20329D03*
X634037Y249856D03*
Y289226D03*
X637581Y60093D03*
X637974Y20329D03*
X645061Y82140D03*
Y334108D03*
X647030Y214817D03*
X650573Y497494D03*
X661596Y224659D03*
X662384Y405130D03*
X669077Y152612D03*
Y188045D03*
X670258Y242376D03*
X670652Y68360D03*
X671439Y78990D03*
X675376Y210093D03*
X677344Y26077D03*
Y46077D03*
X678132Y369148D03*
X683250Y238045D03*
X685848Y77415D03*
Y86077D03*
Y94738D03*
Y107337D03*
X689156Y241589D03*
X689943Y26077D03*
Y46077D03*
X690573Y509994D03*
X694274Y369148D03*
X697030Y232140D03*
X698604Y26077D03*
Y46077D03*
X700179Y151431D03*
Y161667D03*
Y186864D03*
Y200250D03*
X700573Y509994D03*
X702384Y390130D03*
Y420130D03*
X703722Y213636D03*
X705848Y77415D03*
Y86077D03*
Y94738D03*
Y107337D03*
X707266Y26077D03*
Y46077D03*
X710573Y509994D03*
X711203Y310486D03*
X712384Y390130D03*
X713565Y254187D03*
X715927Y133695D03*
Y138695D03*
Y143695D03*
Y148695D03*
Y173065D03*
Y178065D03*
Y183065D03*
Y188065D03*
Y212435D03*
Y217179D03*
Y222297D03*
Y227435D03*
Y249856D03*
Y258124D03*
X718289Y254187D03*
X722384Y390130D03*
Y420130D03*
X726203Y299736D03*
X734431Y369148D03*
X743880Y148675D03*
Y188045D03*
X746203Y299736D03*
X750573Y497494D03*
X751203Y328486D03*
X761203D03*
X762384Y405130D03*
X763171Y232140D03*
X771203Y328486D03*
X773407Y369148D03*
X776203Y299736D03*
X784825Y441982D03*
X786793Y156156D03*
Y194738D03*
X795061Y213636D03*
X796203Y299736D03*
X796242Y281746D03*
Y312455D03*
X799392Y161667D03*
X799785Y200250D03*
X805297Y231352D03*
Y236077D03*
Y240801D03*
X811203Y310486D03*
X819077Y406943D03*
Y436943D03*
Y495919D03*
Y511943D03*
Y541943D03*
X822226Y134108D03*
Y138833D03*
Y143557D03*
Y173085D03*
Y177809D03*
Y182533D03*
X849785Y473085D03*
X852541Y281746D03*
Y312455D03*
X879313Y345604D03*
Y365604D03*
Y385604D03*
Y423715D03*
Y443715D03*
Y482770D03*
Y502770D03*
X883250Y31746D03*
Y307337D03*
Y539620D03*
X887187Y61274D03*
Y75053D03*
Y88833D03*
Y232337D03*
Y246116D03*
X0Y0D02*
M02*
