G05
M48
;#@! TF.GenerationSoftware,DesignSpark,DesignSpark PCB,11.0.5875
;#@! TF.CreationDate,2024-05-15T22:12:42+00:00*
;#@! TF.FileFunction,Plated,1,4,PTH
;FILE_FORMAT=3:5
;TYPE=PLATED
INCH,TZ
FMAT,2
T1C000.01969
T2C000.02559
T3C000.03150
T4C000.03937
T5C000.04724
T6C000.05512
T7C000.06299
T8C000.07874
T9C000.11811
T10C000.13780
%
T001
X0.62384Y3.74266
X0.69470Y2.50250
X0.70652Y4.30565
X0.75376Y2.06943
X0.77738Y2.84502
X0.77738Y3.95132
X0.82856Y3.68754
X0.85219Y2.25841
X0.93880Y2.24659
X0.93880Y2.36864
X0.94667Y2.00250
X0.95848Y2.89226
X0.95848Y2.99463
X0.95848Y3.09699
X0.95848Y3.19935
X0.95848Y3.30171
X0.97423Y1.35683
X0.97522Y4.23478
X1.00573Y1.45132
X1.02935Y2.62061
X1.02935Y2.77415
X1.07266Y3.75053
X1.13959Y2.55762
X1.22226Y1.45132
X1.22620Y4.60093
X1.23801Y1.35683
X1.24589Y2.62061
X1.26557Y2.57337
X1.27344Y2.32140
X1.27344Y2.99463
X1.30100Y4.48281
X1.30494Y3.07730
X1.32069Y2.27022
X1.40730Y3.07730
X1.42699Y1.41982
X1.42699Y1.51431
X1.43093Y1.99069
X1.43486Y2.63242
X1.43486Y2.68754
X1.43486Y2.74266
X1.43880Y4.27415
X1.45848Y4.33715
X1.45868Y3.14817
X1.46636Y2.03400
X1.47030Y1.46707
X1.47030Y1.56156
X1.47817Y2.57730
X1.49785Y2.08124
X1.52148Y2.42376
X1.53722Y2.16785
X1.56085Y2.91982
X1.58053Y2.51825
X1.58053Y2.58518
X1.59628Y2.74266
X1.61203Y2.90801
X1.62384Y2.16785
X1.67915Y2.42376
X1.70652Y3.11274
X1.70652Y3.18754
X1.71833Y3.05762
X1.72226Y3.83321
X1.72226Y3.91982
X1.74982Y2.21904
X1.74982Y2.28203
X1.75376Y2.58911
X1.76951Y1.37258
X1.76951Y1.46707
X1.76951Y1.56156
X1.81281Y1.32533
X1.81281Y1.41982
X1.81281Y1.51431
X1.84431Y3.95132
X1.84431Y4.33715
X1.86400Y2.14817
X1.86793Y2.25053
X1.88762Y2.55762
X1.90337Y0.37652
X1.90730Y0.56156
X1.94274Y2.65998
X1.99785Y3.01037
X2.00179Y3.53006
X2.00179Y3.58518
X2.00179Y3.64030
X2.06872Y2.25053
X2.07266Y2.15211
X2.08447Y3.11274
X2.08447Y3.33321
X2.09234Y2.58911
X2.12384Y0.37652
X2.12778Y0.56156
X2.14746Y1.40801
X2.16321Y2.85683
X2.16321Y2.91195
X2.19470Y3.05762
X2.19470Y3.33321
X2.19864Y1.44738
X2.21045Y2.84108
X2.21045Y3.52612
X2.21045Y3.77809
X2.23407Y2.17179
X2.23801Y3.43951
X2.24982Y1.48675
X2.25770Y3.65211
X2.34037Y2.80959
X2.48604Y3.77809
X2.50179Y2.72297
X2.53722Y2.56156
X2.54904Y1.62455
X2.54904Y1.73085
X2.54904Y1.78990
X2.58053Y3.91982
X2.58841Y3.06549
X2.59628Y2.03793
X2.61990Y2.25053
X2.65927Y1.09305
X2.70258Y2.03793
X2.74057Y3.06549
X2.74195Y1.03006
X2.74982Y3.33715
X2.74982Y3.39620
X2.74982Y3.45526
X2.75770Y2.02219
X2.76163Y2.66785
X2.76163Y2.72297
X2.76163Y2.77809
X2.79057Y3.06549
X2.80100Y4.02612
X2.83250Y1.69148
X2.84037Y2.86470
X2.86400Y2.56549
X2.89156Y3.73085
X2.89156Y3.78203
X2.89549Y1.09699
X2.89549Y1.46313
X2.91124Y2.37652
X2.91124Y2.47652
X2.94274Y3.06549
X2.94923Y1.46313
X2.97817Y2.66785
X2.97817Y2.72297
X2.97817Y2.77809
X2.98211Y0.23478
X2.98211Y4.02612
X3.00967Y1.89226
X3.01360Y1.52219
X3.02935Y0.71116
X3.04116Y1.95132
X3.04510Y1.78990
X3.04510Y1.86077
X3.04510Y2.04581
X3.04510Y2.23872
X3.04904Y1.46313
X3.07659Y0.93163
X3.08053Y0.22691
X3.10809Y1.62848
X3.10809Y5.01037
X3.10809Y5.53400
X3.12384Y1.46313
X3.15337Y0.22691
X3.15533Y1.91982
X3.15533Y2.08124
X3.15533Y2.18360
X3.19470Y2.86470
X3.20258Y0.99463
X3.20258Y1.62848
X3.20258Y1.83321
X3.20258Y3.33715
X3.20258Y3.39620
X3.20258Y3.45526
X3.20258Y3.62848
X3.21045Y0.56943
X3.21833Y0.27415
X3.21833Y2.18360
X3.23407Y3.27022
X3.23801Y1.59305
X3.24195Y2.72297
X3.26557Y0.72297
X3.26951Y0.99463
X3.27344Y3.78596
X3.27344Y3.95722
X3.27344Y4.04581
X3.28919Y2.01825
X3.29707Y1.49069
X3.32069Y2.56963
X3.32069Y2.69935
X3.33644Y2.30959
X3.43486Y1.19935
X3.45455Y2.60900
X3.45848Y1.27022
X3.45848Y1.45132
X3.47817Y3.78596
X3.51360Y0.47888
X3.52541Y0.64423
X3.65927Y4.05762
X3.67502Y3.62455
X3.67896Y4.61274
X3.71833Y0.41589
X3.78526Y4.14817
X3.78919Y0.62848
X3.81675Y0.58124
X3.82069Y2.04581
X3.86793Y0.82533
X3.92699Y1.22297
X3.98604Y1.46313
X3.98998Y3.73872
X4.02541Y3.88833
X4.05691Y1.39226
X4.15140Y3.97494
X4.15140Y4.22691
X4.17502Y3.48281
X4.17502Y5.03006
X4.21045Y3.27415
X4.21439Y0.58518
X4.22620Y2.73478
X4.22620Y2.95919
X4.23407Y1.92770
X4.30100Y5.12455
X4.30494Y1.92770
X4.32463Y1.23872
X4.32463Y3.33715
X4.34411Y4.79384
X4.34963Y2.28203
X4.37187Y1.88439
X4.39963Y2.28203
X4.41518Y1.92770
X4.41911Y3.23478
X4.42305Y1.23872
X4.42640Y2.86077
X4.47640Y3.20722
X4.49392Y1.23872
X4.50179Y2.62455
X4.50573Y1.00644
X4.51754Y3.38439
X4.54116Y4.84108
X4.54904Y4.68754
X4.59628Y2.62455
X4.60415Y5.24266
X4.61203Y1.00644
X4.63565Y2.37258
X4.65927Y4.90407
X4.68289Y3.91982
X4.69077Y2.62455
X4.69864Y2.22691
X4.74195Y4.28596
X4.75770Y3.91982
X4.76163Y5.29778
X4.78427Y4.14817
X4.78526Y2.62455
X4.83250Y4.77022
X4.83644Y4.40407
X4.91518Y1.28596
X4.92699Y1.16785
X4.93486Y1.97100
X4.94667Y1.67179
X4.94667Y1.72297
X4.96242Y2.90801
X4.97030Y0.80171
X4.97817Y2.12061
X5.03329Y2.12061
X5.05691Y5.03793
X5.10415Y0.80171
X5.12778Y2.35289
X5.12778Y2.67179
X5.12778Y2.86470
X5.18289Y0.27415
X5.18289Y5.12455
X5.23407Y2.16392
X5.29707Y2.16392
X5.30494Y1.32927
X5.35612Y1.36864
X5.38762Y0.19541
X5.38762Y1.88045
X5.43486Y0.55762
X5.43486Y4.84108
X5.43880Y2.91589
X5.48191Y1.42376
X5.50573Y2.82533
X5.51360Y0.27415
X5.53329Y1.56549
X5.53329Y1.81589
X5.53722Y0.94344
X5.53722Y4.69935
X5.55829Y2.71116
X5.56085Y4.93951
X5.56478Y0.68754
X5.56872Y3.91982
X5.57266Y0.59699
X5.58841Y5.01825
X5.59234Y0.76234
X5.62581Y4.29187
X5.63171Y2.78596
X5.64746Y3.91982
X5.67010Y4.14817
X5.69864Y0.71116
X5.71439Y4.83321
X5.71833Y0.27415
X5.71833Y0.53400
X5.73014Y4.40801
X5.73407Y3.27022
X5.74982Y5.15211
X5.80888Y0.55368
X5.80888Y4.78596
X5.81931Y5.14817
X5.82069Y3.14423
X5.86931Y4.79778
X5.86931Y5.01825
X5.87974Y2.18754
X5.90730Y3.62848
X5.91911Y2.36864
X5.97817Y2.82533
X5.99392Y3.50250
X6.00573Y2.03793
X6.00967Y3.14817
X6.02541Y4.95526
X6.08053Y3.51037
X6.10022Y2.17179
X6.11990Y3.18360
X6.13171Y0.97494
X6.13959Y0.75841
X6.14746Y0.65604
X6.15927Y1.09305
X6.18289Y3.51037
X6.18683Y0.70329
X6.18683Y0.95526
X6.20258Y3.75447
X6.22620Y0.88439
X6.24195Y1.93557
X6.24195Y1.99069
X6.24195Y2.04581
X6.26163Y1.87258
X6.26951Y2.50250
X6.26951Y2.89226
X6.30297Y0.20329
X6.34037Y2.49856
X6.34037Y2.89226
X6.37581Y0.60093
X6.37974Y0.20329
X6.45061Y0.82140
X6.45061Y3.34108
X6.47030Y2.14817
X6.61596Y2.24659
X6.69077Y1.52612
X6.69077Y1.88045
X6.70258Y2.42376
X6.70652Y0.68360
X6.71439Y0.78990
X6.75376Y2.10093
X6.78132Y3.69148
X6.83250Y2.38045
X6.89156Y2.41589
X6.97030Y2.32140
X7.00179Y1.51431
X7.00179Y1.61667
X7.00179Y1.86864
X7.00179Y2.00250
X7.03722Y2.13636
X7.13565Y2.54187
X7.15927Y1.33695
X7.15927Y1.38695
X7.15927Y1.43695
X7.15927Y1.48695
X7.15927Y1.73065
X7.15927Y1.78065
X7.15927Y1.83065
X7.15927Y1.88065
X7.15927Y2.12435
X7.15927Y2.17179
X7.15927Y2.22297
X7.15927Y2.27435
X7.15927Y2.49856
X7.15927Y2.58124
X7.18289Y2.54187
X7.43880Y1.48675
X7.43880Y1.88045
X7.63171Y2.32140
X7.86793Y1.56156
X7.86793Y1.94738
X7.95061Y2.13636
X7.99392Y1.61667
X7.99785Y2.00250
X8.05297Y2.31352
X8.05297Y2.36077
X8.05297Y2.40801
X8.22226Y1.34108
X8.22226Y1.38833
X8.22226Y1.43557
X8.22226Y1.73085
X8.22226Y1.77809
X8.22226Y1.82533
T002
X1.30730Y3.20191
X1.30730Y3.25191
X1.35730Y3.20191
X1.35730Y3.25191
X1.40730Y3.20191
X1.40730Y3.25191
X1.45730Y3.20191
X1.45730Y3.25191
X1.50730Y3.20191
X1.50730Y3.25191
T003
X0.48211Y1.67415
X0.48211Y1.87415
X0.56872Y1.67415
X0.56872Y1.87415
X0.65533Y1.67415
X0.65533Y1.87415
X0.78132Y1.67415
X0.78132Y1.87415
X2.20297Y4.80959
X2.20297Y5.33715
X2.30297Y4.80959
X2.30297Y5.33715
X2.40297Y4.80959
X2.40297Y5.33715
X2.60297Y4.80959
X2.60297Y5.33715
X2.70297Y4.80959
X2.70297Y5.33715
X2.80297Y4.80959
X2.80297Y5.33715
X2.90297Y4.80959
X2.90297Y5.33715
X5.10415Y1.76354
X5.10415Y1.86354
X5.65927Y1.11510
X5.65927Y1.31510
X5.74589Y1.11510
X5.74589Y1.31510
X5.83250Y1.11510
X5.83250Y1.31510
X5.93209Y4.32140
X5.95848Y1.11510
X5.95848Y1.31510
X6.03209Y4.32140
X6.77344Y0.26077
X6.77344Y0.46077
X6.85848Y0.77415
X6.85848Y0.86077
X6.85848Y0.94738
X6.85848Y1.07337
X6.89943Y0.26077
X6.89943Y0.46077
X6.98604Y0.26077
X6.98604Y0.46077
X7.05848Y0.77415
X7.05848Y0.86077
X7.05848Y0.94738
X7.05848Y1.07337
X7.07266Y0.26077
X7.07266Y0.46077
T004
X0.18250Y2.21116
X0.28250Y2.21116
X0.38250Y2.21116
X0.48250Y2.21116
X0.78250Y2.94423
X0.78250Y3.04423
X0.78250Y3.14423
X0.78250Y3.24423
X0.78250Y3.34423
X0.87187Y5.12455
X0.88250Y2.94423
X0.88250Y3.04423
X0.88250Y3.14423
X0.88250Y3.24423
X0.88250Y3.34423
X1.13959Y5.07730
X1.25376Y0.42927
X1.25376Y0.52927
X1.25376Y0.62927
X1.25376Y0.72927
X1.25376Y0.82927
X1.25376Y0.92927
X1.25376Y1.02927
X1.25376Y1.12927
X1.48841Y1.72022
X1.48841Y1.82022
X1.50573Y0.42927
X1.50573Y0.52927
X1.50573Y0.62927
X1.50573Y0.72927
X1.50573Y0.82927
X1.50573Y0.92927
X1.50573Y1.02927
X1.50573Y1.12927
X1.50573Y1.22927
X1.58841Y1.72022
X1.58841Y1.82022
X1.68841Y1.72022
X1.68841Y1.82022
X1.72620Y0.42927
X1.72620Y0.52927
X1.72620Y0.62927
X1.72620Y0.72927
X1.72620Y0.82927
X1.72620Y0.92927
X1.72620Y1.02927
X1.72620Y1.12927
X1.72620Y1.22927
X1.80100Y1.71510
X1.84037Y4.88833
X1.91124Y4.62061
X1.91124Y5.38715
X1.92305Y3.77691
X2.04510Y5.44738
X2.07659Y4.45132
X2.49392Y3.62061
X2.49510Y3.24659
X2.53329Y3.33715
X2.58959Y2.44344
X2.84825Y4.40014
X2.84825Y4.48675
X2.94274Y3.62061
X2.98604Y3.33715
X3.32069Y2.86352
X3.32069Y4.47494
X3.36006Y2.96707
X3.41124Y3.53400
X3.45337Y3.29778
X3.52541Y1.79384
X3.56085Y5.19541
X3.57659Y4.59699
X3.62384Y1.28203
X3.62384Y1.54974
X3.65533Y0.51431
X3.71045Y0.73085
X3.72226Y1.27809
X3.83644Y2.96707
X3.93880Y1.54974
X3.93880Y1.79384
X3.95848Y5.48557
X5.90455Y5.34502
X6.94274Y3.69148
X7.34431Y3.69148
X7.73407Y3.69148
X7.84825Y4.41982
X7.96242Y2.81746
X7.96242Y3.12455
X8.49785Y4.73085
X8.52541Y2.81746
X8.52541Y3.12455
T005
X0.32856Y1.73281
X0.32856Y1.87061
X0.36793Y3.53596
X0.36793Y3.63439
X0.36793Y3.73281
X0.36793Y3.83124
X0.36793Y4.10683
X0.36793Y4.20526
X0.36793Y4.30368
X0.36793Y4.40211
X2.13644Y3.99069
X2.23644Y3.99069
X2.33644Y3.99069
X6.90573Y5.09994
X7.00573Y5.09994
X7.02384Y3.90130
X7.02384Y4.20130
X7.10573Y5.09994
X7.12384Y3.90130
X7.22384Y3.90130
X7.22384Y4.20130
X7.51203Y3.28486
X7.61203Y3.28486
X7.71203Y3.28486
X8.87187Y0.61274
X8.87187Y0.75053
X8.87187Y0.88833
X8.87187Y2.32337
X8.87187Y2.46116
T006
X0.61990Y4.82533
X1.50967Y4.82533
X8.19077Y4.95919
T007
X0.40730Y4.74502
X0.40730Y4.94502
X7.46203Y2.99736
X7.76203Y2.99736
X8.79313Y3.45604
X8.79313Y3.65604
X8.79313Y3.85604
X8.79313Y4.23715
X8.79313Y4.43715
X8.79313Y4.82770
X8.79313Y5.02770
T008
X7.26203Y2.99736
X7.96203Y2.99736
X8.19077Y4.06943
X8.19077Y4.36943
X8.19077Y5.11943
X8.19077Y5.41943
T009
X6.50573Y4.97494
X6.62384Y4.05130
X7.11203Y3.10486
X7.50573Y4.97494
X7.62384Y4.05130
X8.11203Y3.10486
T010
X0.36793Y0.31746
X0.36793Y3.07337
X0.36793Y5.39620
X2.13959Y1.89226
X3.71439Y5.39620
X3.91124Y2.67967
X4.30494Y0.31746
X6.23407Y1.30565
X6.23407Y4.06156
X8.83250Y0.31746
X8.83250Y3.07337
X8.83250Y5.39620
M30
