G04 DesignSpark PCB Gerber Version 11.0 Build 5877*
G04 #@! TF.Part,Single*
G04 #@! TF.FileFunction,Copper,L3,Inr*
G04 #@! TF.FilePolarity,Positive*
%FSLAX35Y35*%
%MOIN*%
G04 #@! TA.AperFunction,ComponentPad*
%ADD28O,0.07874X0.05118*%
G04 #@! TD.AperFunction*
%ADD10C,0.00500*%
%ADD15C,0.01181*%
%ADD13C,0.01575*%
%ADD12C,0.01969*%
%ADD11C,0.02362*%
%ADD29C,0.02500*%
G04 #@! TA.AperFunction,ViaPad*
%ADD17C,0.03543*%
G04 #@! TA.AperFunction,ComponentPad*
%ADD26C,0.03740*%
G04 #@! TD.AperFunction*
%ADD14C,0.03937*%
G04 #@! TA.AperFunction,ComponentPad*
%ADD25C,0.05512*%
G04 #@! TD.AperFunction*
%ADD72C,0.05906*%
G04 #@! TA.AperFunction,ViaPad*
%ADD18C,0.06299*%
G04 #@! TA.AperFunction,ComponentPad*
%ADD20C,0.07087*%
G04 #@! TD.AperFunction*
%ADD16C,0.07480*%
G04 #@! TA.AperFunction,ComponentPad*
%ADD21C,0.07874*%
%ADD71C,0.08031*%
%ADD27C,0.08268*%
%ADD24C,0.09843*%
%ADD70C,0.11811*%
%ADD23C,0.13780*%
%ADD22C,0.15748*%
G04 #@! TA.AperFunction,WasherPad*
%ADD19C,0.23622*%
G04 #@! TD.AperFunction*
X0Y0D02*
D02*
D10*
X83250Y222370D02*
Y204974D01*
X85612D01*
Y24266D01*
X88762Y21116D01*
X226557D01*
X229707Y24266D01*
Y364561D01*
G75*
G02*
X221780Y365211I-3937J649D01*
G01*
G75*
G02*
X229707Y365860I3990J0D01*
G01*
Y394235D01*
G75*
G02*
X228644Y395345I3938J4834D01*
G01*
G75*
G02*
X218644I-5000J3724D01*
G01*
G75*
G02*
X207409Y399069I-5000J3724D01*
G01*
G75*
G02*
X218644Y402793I6234J0D01*
G01*
G75*
G02*
X228644I5000J-3724D01*
G01*
G75*
G02*
X229707Y403903I5001J-3724D01*
G01*
Y443951D01*
X227738Y445919D01*
X212970D01*
G75*
G02*
X213028Y445132I-5311J-786D01*
G01*
G75*
G02*
X202291I-5368J0D01*
G01*
G75*
G02*
X202349Y445919I5369J1D01*
G01*
X144274D01*
X142305Y443951D01*
Y435549D01*
G75*
G02*
X149839Y433715I3543J-1835D01*
G01*
G75*
G02*
X147006Y429896I-3990J0D01*
G01*
G75*
G02*
X142305Y423749I-3126J-2480D01*
G01*
Y354581D01*
X125376Y337652D01*
X93022D01*
G75*
G02*
X91113Y329423I-4772J-3228D01*
G01*
G75*
G02*
Y319423I-2863J-5000D01*
G01*
G75*
G02*
Y309423I-2863J-5000D01*
G01*
G75*
G02*
Y299423I-2863J-5000D01*
G01*
G75*
G02*
X94012Y294423I-2863J-5000D01*
G01*
G75*
G02*
X83250Y291560I-5762J0D01*
G01*
Y229311D01*
G75*
G02*
X89209Y225841I1969J-3471D01*
G01*
G75*
G02*
X83250Y222370I-3990J0D01*
G01*
X204457Y311274D02*
G75*
G02*
X212437I3990J0D01*
G01*
G75*
G02*
X204457I-3990J0D01*
G01*
X205244Y258911D02*
G75*
G02*
X213224I3990J0D01*
G01*
G75*
G02*
X205244I-3990J0D01*
G01*
X219669Y287854D02*
G75*
G02*
X225035Y284108I1376J-3745D01*
G01*
G75*
G02*
X217697Y281938I-3990J0D01*
G01*
G75*
G02*
X213435Y288439I-1376J3745D01*
G01*
G75*
G02*
X212331Y291195I2885J2756D01*
G01*
G75*
G02*
X220311I3990J0D01*
G01*
G75*
G02*
X219206Y288439I-3990J0D01*
G01*
G75*
G02*
X219669Y287854I-2886J-2756D01*
G01*
X219417Y217179D02*
G75*
G02*
X227398I3990J0D01*
G01*
G75*
G02*
X219417I-3990J0D01*
G01*
X163925Y242376D02*
G75*
G02*
X171906I3990J0D01*
G01*
G75*
G02*
X163925I-3990J0D01*
G01*
X170992Y228203D02*
G75*
G02*
X178972I3990J0D01*
G01*
G75*
G02*
X177432Y225053I-3990J0D01*
G01*
G75*
G02*
X178972Y221904I-2450J-3150D01*
G01*
G75*
G02*
X170992I-3990J0D01*
G01*
G75*
G02*
X172533Y225053I3990J0D01*
G01*
G75*
G02*
X170992Y228203I2450J3150D01*
G01*
X174004Y309109D02*
G75*
G02*
X175823Y305762I-2171J-3348D01*
G01*
G75*
G02*
X167843I-3990J0D01*
G01*
G75*
G02*
X168480Y307926I3990J0D01*
G01*
G75*
G02*
X166661Y311274I2171J3348D01*
G01*
G75*
G02*
X174642I3990J0D01*
G01*
G75*
G02*
X174004Y309109I-3990J0D01*
G01*
X171386Y258911D02*
G75*
G02*
X179366I3990J0D01*
G01*
G75*
G02*
X171386I-3990J0D01*
G01*
X168236Y391982D02*
G75*
G02*
X176217I3990J0D01*
G01*
G75*
G02*
X168236I-3990J0D01*
G01*
X182409Y214817D02*
G75*
G02*
X190390I3990J0D01*
G01*
G75*
G02*
X182409I-3990J0D01*
G01*
X186740Y56156D02*
G75*
G02*
X194720I3990J0D01*
G01*
G75*
G02*
X186740I-3990J0D01*
G01*
X182803Y225053D02*
G75*
G02*
X190783I3990J0D01*
G01*
G75*
G02*
X182803I-3990J0D01*
G01*
X186937Y377691D02*
G75*
G02*
X197673I5368J0D01*
G01*
G75*
G02*
X186937I-5368J0D01*
G01*
X195795Y301037D02*
G75*
G02*
X203776I3990J0D01*
G01*
G75*
G02*
X195795I-3990J0D01*
G01*
X199929Y189226D02*
G75*
G02*
X227988I14030J0D01*
G01*
G75*
G02*
X199929I-14030J0D01*
G01*
X208787Y56156D02*
G75*
G02*
X216768I3990J0D01*
G01*
G75*
G02*
X208787I-3990J0D01*
G01*
X220992Y148675D02*
G75*
G02*
X228972I3990J0D01*
G01*
G75*
G02*
X223853Y144848I-3990J0D01*
G01*
G75*
G02*
X223854Y144738I-3996J-112D01*
G01*
G75*
G02*
X218735Y140911I-3990J0D01*
G01*
G75*
G02*
X218736Y140801I-3996J-112D01*
G01*
G75*
G02*
X210756I-3990J0D01*
G01*
G75*
G02*
X215876Y144628I3990J0D01*
G01*
G75*
G02*
X215874Y144738I3996J112D01*
G01*
G75*
G02*
X220994Y148565I3990J0D01*
G01*
G75*
G02*
X220992Y148675I3996J112D01*
G01*
X202882Y225053D02*
G75*
G02*
X210862I3990J0D01*
G01*
G75*
G02*
X202882I-3990J0D01*
G01*
X203276Y215211D02*
G75*
G02*
X211256I3990J0D01*
G01*
G75*
G02*
X203276I-3990J0D01*
G01*
X190283Y265998D02*
G75*
G02*
X198264I3990J0D01*
G01*
G75*
G02*
X190283I-3990J0D01*
G01*
X126504Y307730D02*
G75*
G02*
X134484I3990J0D01*
G01*
G75*
G02*
X126504I-3990J0D01*
G01*
X148230Y328426D02*
G75*
G02*
X153965Y322691I2500J-3235D01*
G01*
G75*
G02*
X149586Y316266I-3235J-2500D01*
G01*
G75*
G02*
X149858Y314817I-3718J-1449D01*
G01*
G75*
G02*
X141878I-3990J0D01*
G01*
G75*
G02*
X142194Y316373I3990J0D01*
G01*
G75*
G02*
X138230Y316956I-1463J3818D01*
G01*
G75*
G02*
X133230I-2500J3235D01*
G01*
G75*
G02*
X127495Y322691I-2500J3235D01*
G01*
G75*
G02*
X133230Y328426I3235J2500D01*
G01*
G75*
G02*
X138230I2500J-3235D01*
G01*
G75*
G02*
X143230I2500J-3235D01*
G01*
G75*
G02*
X148230I2500J-3235D01*
G01*
X152094Y291982D02*
G75*
G02*
X160075I3990J0D01*
G01*
G75*
G02*
X152094I-3990J0D01*
G01*
X154063Y258518D02*
G75*
G02*
X162043I3990J0D01*
G01*
G75*
G02*
X160226Y255171I-3990J0D01*
G01*
G75*
G02*
X162043Y251825I-2173J-3346D01*
G01*
G75*
G02*
X154063I-3990J0D01*
G01*
G75*
G02*
X155880Y255171I3990J0D01*
G01*
G75*
G02*
X154063Y258518I2173J3346D01*
G01*
X158394Y216785D02*
G75*
G02*
X166374I3990J0D01*
G01*
G75*
G02*
X158394I-3990J0D01*
G01*
X155638Y274266D02*
G75*
G02*
X163618I3990J0D01*
G01*
G75*
G02*
X155638I-3990J0D01*
G01*
X136740Y307730D02*
G75*
G02*
X144720I3990J0D01*
G01*
G75*
G02*
X136740I-3990J0D01*
G01*
X143039Y156156D02*
G75*
G02*
X151020I3990J0D01*
G01*
G75*
G02*
X146617Y152187I-3990J0D01*
G01*
G75*
G02*
X146689Y151431I-3917J-755D01*
G01*
G75*
G02*
X146617Y150676I-3989J-1D01*
G01*
G75*
G02*
X151020Y146707I413J-3969D01*
G01*
G75*
G02*
X146617Y142738I-3990J0D01*
G01*
G75*
G02*
X146689Y141982I-3917J-755D01*
G01*
G75*
G02*
X138709I-3990J0D01*
G01*
G75*
G02*
X143111Y145951I3990J0D01*
G01*
G75*
G02*
X143039Y146707I3917J755D01*
G01*
G75*
G02*
X143111Y147462I3989J1D01*
G01*
G75*
G02*
X138709Y151431I-413J3969D01*
G01*
G75*
G02*
X143111Y155400I3990J0D01*
G01*
G75*
G02*
X143039Y156156I3917J755D01*
G01*
X151951Y47705D02*
G75*
G02*
Y38150I0J-4778D01*
G01*
X149195D01*
G75*
G02*
Y47705I0J4778D01*
G01*
X151951D01*
Y57705D02*
G75*
G02*
Y48150I0J-4778D01*
G01*
X149195D01*
G75*
G02*
Y57705I0J4778D01*
G01*
X151951D01*
Y67705D02*
G75*
G02*
Y58150I0J-4778D01*
G01*
X149195D01*
G75*
G02*
Y67705I0J4778D01*
G01*
X151951D01*
Y77705D02*
G75*
G02*
Y68150I0J-4778D01*
G01*
X149195D01*
G75*
G02*
Y77705I0J4778D01*
G01*
X151951D01*
Y87705D02*
G75*
G02*
Y78150I0J-4778D01*
G01*
X149195D01*
G75*
G02*
Y87705I0J4778D01*
G01*
X151951D01*
Y97705D02*
G75*
G02*
Y88150I0J-4778D01*
G01*
X149195D01*
G75*
G02*
Y97705I0J4778D01*
G01*
X151951D01*
Y107705D02*
G75*
G02*
Y98150I0J-4778D01*
G01*
X149195D01*
G75*
G02*
Y107705I0J4778D01*
G01*
X151951D01*
Y117705D02*
G75*
G02*
Y108150I0J-4778D01*
G01*
X149195D01*
G75*
G02*
Y117705I0J4778D01*
G01*
X151951D01*
Y127705D02*
G75*
G02*
Y118150I0J-4778D01*
G01*
X149195D01*
G75*
G02*
Y127705I0J4778D01*
G01*
X151951D01*
X145795Y208124D02*
G75*
G02*
X153776I3990J0D01*
G01*
G75*
G02*
X150544Y204207I-3990J0D01*
G01*
G75*
G02*
X147066Y199433I-3908J-807D01*
G01*
G75*
G02*
X147083Y199069I-3974J-363D01*
G01*
G75*
G02*
X139102I-3990J0D01*
G01*
G75*
G02*
X142662Y203036I3990J0D01*
G01*
G75*
G02*
X145878Y207317I3974J364D01*
G01*
G75*
G02*
X145795Y208124I3909J806D01*
G01*
X163841Y183975D02*
G75*
G02*
X174209Y182022I5000J-1954D01*
G01*
G75*
G02*
X170794Y177022I-5368J0D01*
G01*
G75*
G02*
X168841Y166654I-1954J-5000D01*
G01*
G75*
G02*
X163841Y170068I0J5368D01*
G01*
G75*
G02*
X153841I-5000J1954D01*
G01*
G75*
G02*
X143472Y172022I-5000J1954D01*
G01*
G75*
G02*
X146887Y177022I5368J0D01*
G01*
G75*
G02*
X148841Y187390I1954J5000D01*
G01*
G75*
G02*
X153841Y183975I0J-5368D01*
G01*
G75*
G02*
X163841I5000J-1954D01*
G01*
X180869Y155400D02*
G75*
G02*
X185272Y151431I413J-3969D01*
G01*
G75*
G02*
X180869Y147462I-3990J0D01*
G01*
G75*
G02*
X180941Y146707I-3917J-755D01*
G01*
G75*
G02*
X180869Y145951I-3989J-1D01*
G01*
G75*
G02*
X185272Y141982I413J-3969D01*
G01*
G75*
G02*
X180869Y138013I-3990J0D01*
G01*
G75*
G02*
X180941Y137258I-3917J-755D01*
G01*
G75*
G02*
X180869Y136502I-3989J-1D01*
G01*
G75*
G02*
X185272Y132533I413J-3969D01*
G01*
G75*
G02*
X177291I-3990J0D01*
G01*
G75*
G02*
X177363Y133289I3989J1D01*
G01*
G75*
G02*
X172961Y137258I-413J3969D01*
G01*
G75*
G02*
X177363Y141227I3990J0D01*
G01*
G75*
G02*
X177291Y141982I3917J755D01*
G01*
G75*
G02*
X177363Y142738I3989J1D01*
G01*
G75*
G02*
X172961Y146707I-413J3969D01*
G01*
G75*
G02*
X177363Y150676I3990J0D01*
G01*
G75*
G02*
X177291Y151431I3917J755D01*
G01*
G75*
G02*
X177363Y152187I3989J1D01*
G01*
G75*
G02*
X172961Y156156I-413J3969D01*
G01*
G75*
G02*
X180941I3990J0D01*
G01*
G75*
G02*
X180869Y155400I-3989J-1D01*
G01*
X173998Y47705D02*
G75*
G02*
Y38150I0J-4778D01*
G01*
X171242D01*
G75*
G02*
Y47705I0J4778D01*
G01*
X173998D01*
Y57705D02*
G75*
G02*
Y48150I0J-4778D01*
G01*
X171242D01*
G75*
G02*
Y57705I0J4778D01*
G01*
X173998D01*
Y67705D02*
G75*
G02*
Y58150I0J-4778D01*
G01*
X171242D01*
G75*
G02*
Y67705I0J4778D01*
G01*
X173998D01*
Y77705D02*
G75*
G02*
Y68150I0J-4778D01*
G01*
X171242D01*
G75*
G02*
Y77705I0J4778D01*
G01*
X173998D01*
Y87705D02*
G75*
G02*
Y78150I0J-4778D01*
G01*
X171242D01*
G75*
G02*
Y87705I0J4778D01*
G01*
X173998D01*
Y97705D02*
G75*
G02*
Y88150I0J-4778D01*
G01*
X171242D01*
G75*
G02*
Y97705I0J4778D01*
G01*
X173998D01*
Y107705D02*
G75*
G02*
Y98150I0J-4778D01*
G01*
X171242D01*
G75*
G02*
Y107705I0J4778D01*
G01*
X173998D01*
Y117705D02*
G75*
G02*
Y108150I0J-4778D01*
G01*
X171242D01*
G75*
G02*
Y117705I0J4778D01*
G01*
X173998D01*
Y127705D02*
G75*
G02*
Y118150I0J-4778D01*
G01*
X171242D01*
G75*
G02*
Y127705I0J4778D01*
G01*
X173998D01*
X147151Y261665D02*
G75*
G02*
X151807Y257730I666J-3934D01*
G01*
G75*
G02*
X143827I-3990J0D01*
G01*
G75*
G02*
X144152Y259308I3990J0D01*
G01*
G75*
G02*
X140601Y265998I-666J3934D01*
G01*
G75*
G02*
Y271510I2885J2756D01*
G01*
G75*
G02*
X139496Y274266I2885J2756D01*
G01*
G75*
G02*
X147476I3990J0D01*
G01*
G75*
G02*
X146372Y271510I-3990J0D01*
G01*
G75*
G02*
Y265998I-2885J-2756D01*
G01*
G75*
G02*
X147151Y261665I-2885J-2756D01*
G01*
X148157Y242376D02*
G75*
G02*
X156138I3990J0D01*
G01*
G75*
G02*
X148157I-3990J0D01*
G01*
X98945Y262061D02*
G75*
G02*
X106925I3990J0D01*
G01*
G75*
G02*
X98945I-3990J0D01*
G01*
X109969Y255762D02*
G75*
G02*
X117949I3990J0D01*
G01*
G75*
G02*
X109969I-3990J0D01*
G01*
X126754Y47705D02*
G75*
G02*
Y38150I0J-4778D01*
G01*
X123998D01*
G75*
G02*
Y47705I0J4778D01*
G01*
X126754D01*
Y57705D02*
G75*
G02*
Y48150I0J-4778D01*
G01*
X123998D01*
G75*
G02*
Y57705I0J4778D01*
G01*
X126754D01*
Y67705D02*
G75*
G02*
Y58150I0J-4778D01*
G01*
X123998D01*
G75*
G02*
Y67705I0J4778D01*
G01*
X126754D01*
Y77705D02*
G75*
G02*
Y68150I0J-4778D01*
G01*
X123998D01*
G75*
G02*
Y77705I0J4778D01*
G01*
X126754D01*
Y87705D02*
G75*
G02*
Y78150I0J-4778D01*
G01*
X123998D01*
G75*
G02*
Y87705I0J4778D01*
G01*
X126754D01*
Y97705D02*
G75*
G02*
Y88150I0J-4778D01*
G01*
X123998D01*
G75*
G02*
Y97705I0J4778D01*
G01*
X126754D01*
Y107705D02*
G75*
G02*
Y98150I0J-4778D01*
G01*
X123998D01*
G75*
G02*
Y107705I0J4778D01*
G01*
X126754D01*
Y117705D02*
G75*
G02*
Y108150I0J-4778D01*
G01*
X123998D01*
G75*
G02*
Y117705I0J4778D01*
G01*
X126754D01*
X122567Y257337D02*
G75*
G02*
X130547I3990J0D01*
G01*
G75*
G02*
X122567I-3990J0D01*
G01*
X131138Y230902D02*
G75*
G02*
X136059Y227022I931J-3880D01*
G01*
G75*
G02*
X128079I-3990J0D01*
G01*
G75*
G02*
X128276Y228260I3990J0D01*
G01*
G75*
G02*
X123354Y232140I-931J3880D01*
G01*
G75*
G02*
X131335I3990J0D01*
G01*
G75*
G02*
X131138Y230902I-3990J0D01*
G01*
X123354Y299463D02*
G75*
G02*
X131335I3990J0D01*
G01*
G75*
G02*
X123354I-3990J0D01*
G01*
X89890Y224659D02*
G75*
G02*
X97870I3990J0D01*
G01*
G75*
G02*
X89890I-3990J0D01*
G01*
X90677Y200250D02*
G75*
G02*
X98657I3990J0D01*
G01*
G75*
G02*
X90677I-3990J0D01*
G01*
X93433Y135683D02*
G75*
G02*
X101413I3990J0D01*
G01*
G75*
G02*
X93433I-3990J0D01*
G01*
X96583Y145132D02*
G75*
G02*
X104563I3990J0D01*
G01*
G75*
G02*
X96583I-3990J0D01*
G01*
X89890Y236864D02*
G75*
G02*
X97870I3990J0D01*
G01*
G75*
G02*
X89890I-3990J0D01*
G01*
X215480Y305762D02*
G75*
G02*
X223461I3990J0D01*
G01*
G75*
G02*
X215480I-3990J0D01*
G01*
X217055Y352612D02*
G75*
G02*
X225035I3990J0D01*
G01*
G75*
G02*
X217055I-3990J0D01*
G01*
X219811Y343951D02*
G75*
G02*
X227791I3990J0D01*
G01*
G75*
G02*
X219811I-3990J0D01*
G01*
X217055Y377809D02*
G75*
G02*
X225035I3990J0D01*
G01*
G75*
G02*
X217055I-3990J0D01*
G01*
X85612Y42927D02*
G36*
X85612Y42927D02*
Y24266D01*
X88512Y21366D01*
X226807D01*
X229457Y24016D01*
Y42927D01*
X178776D01*
G75*
G02*
X173998Y38150I-4778J0D01*
G01*
X171242D01*
G75*
G02*
X166465Y42927I0J4778D01*
G01*
X156728D01*
G75*
G02*
X151951Y38150I-4778J0D01*
G01*
X149195D01*
G75*
G02*
X144417Y42927I0J4778D01*
G01*
X131531D01*
G75*
G02*
X126754Y38150I-4778J0D01*
G01*
X123998D01*
G75*
G02*
X119220Y42927I0J4778D01*
G01*
X85612D01*
G37*
Y56156D02*
G36*
X85612Y56156D02*
Y42927D01*
X119220D01*
G75*
G02*
X123998Y47705I4778J0D01*
G01*
X126754D01*
G75*
G02*
X131531Y42927I0J-4778D01*
G01*
X144417D01*
G75*
G02*
X149195Y47705I4778J0D01*
G01*
X151951D01*
G75*
G02*
X156728Y42927I0J-4778D01*
G01*
X166465D01*
G75*
G02*
X171242Y47705I4778J0D01*
G01*
X173998D01*
G75*
G02*
X178776Y42927I0J-4778D01*
G01*
X229457D01*
Y56156D01*
X216768D01*
G75*
G02*
X208787I-3990J0D01*
G01*
X194720D01*
G75*
G02*
X186740I-3990J0D01*
G01*
X177520D01*
G75*
G02*
X178776Y52927I-3522J-3228D01*
G01*
G75*
G02*
X173998Y48150I-4778J0D01*
G01*
X171242D01*
G75*
G02*
X166465Y52927I0J4778D01*
G01*
G75*
G02*
X167720Y56156I4778J0D01*
G01*
X155472D01*
G75*
G02*
X156728Y52927I-3522J-3228D01*
G01*
G75*
G02*
X151951Y48150I-4778J0D01*
G01*
X149195D01*
G75*
G02*
X144417Y52927I0J4778D01*
G01*
G75*
G02*
X145673Y56156I4778J0D01*
G01*
X130276D01*
G75*
G02*
X131531Y52927I-3522J-3228D01*
G01*
G75*
G02*
X126754Y48150I-4778J0D01*
G01*
X123998D01*
G75*
G02*
X119220Y52927I0J4778D01*
G01*
G75*
G02*
X120476Y56156I4778J0D01*
G01*
X85612D01*
G37*
Y62927D02*
G36*
X85612Y62927D02*
Y56156D01*
X120476D01*
G75*
G02*
X123998Y57705I3522J-3228D01*
G01*
X126754D01*
G75*
G02*
X130276Y56156I0J-4778D01*
G01*
X145673D01*
G75*
G02*
X149195Y57705I3522J-3228D01*
G01*
X151951D01*
G75*
G02*
X155472Y56156I0J-4778D01*
G01*
X167720D01*
G75*
G02*
X171242Y57705I3522J-3228D01*
G01*
X173998D01*
G75*
G02*
X177520Y56156I0J-4778D01*
G01*
X186740D01*
G75*
G02*
X194720I3990J0D01*
G01*
X208787D01*
G75*
G02*
X216768I3990J0D01*
G01*
X229457D01*
Y62927D01*
X178776D01*
G75*
G02*
X173998Y58150I-4778J0D01*
G01*
X171242D01*
G75*
G02*
X166465Y62927I0J4778D01*
G01*
X156728D01*
G75*
G02*
X151951Y58150I-4778J0D01*
G01*
X149195D01*
G75*
G02*
X144417Y62927I0J4778D01*
G01*
X131531D01*
G75*
G02*
X126754Y58150I-4778J0D01*
G01*
X123998D01*
G75*
G02*
X119220Y62927I0J4778D01*
G01*
X85612D01*
G37*
Y72927D02*
G36*
X85612Y72927D02*
Y62927D01*
X119220D01*
G75*
G02*
X123998Y67705I4778J0D01*
G01*
X126754D01*
G75*
G02*
X131531Y62927I0J-4778D01*
G01*
X144417D01*
G75*
G02*
X149195Y67705I4778J0D01*
G01*
X151951D01*
G75*
G02*
X156728Y62927I0J-4778D01*
G01*
X166465D01*
G75*
G02*
X171242Y67705I4778J0D01*
G01*
X173998D01*
G75*
G02*
X178776Y62927I0J-4778D01*
G01*
X229457D01*
Y72927D01*
X178776D01*
G75*
G02*
X173998Y68150I-4778J0D01*
G01*
X171242D01*
G75*
G02*
X166465Y72927I0J4778D01*
G01*
X156728D01*
G75*
G02*
X151951Y68150I-4778J0D01*
G01*
X149195D01*
G75*
G02*
X144417Y72927I0J4778D01*
G01*
X131531D01*
G75*
G02*
X126754Y68150I-4778J0D01*
G01*
X123998D01*
G75*
G02*
X119220Y72927I0J4778D01*
G01*
X85612D01*
G37*
Y82927D02*
G36*
X85612Y82927D02*
Y72927D01*
X119220D01*
G75*
G02*
X123998Y77705I4778J0D01*
G01*
X126754D01*
G75*
G02*
X131531Y72927I0J-4778D01*
G01*
X144417D01*
G75*
G02*
X149195Y77705I4778J0D01*
G01*
X151951D01*
G75*
G02*
X156728Y72927I0J-4778D01*
G01*
X166465D01*
G75*
G02*
X171242Y77705I4778J0D01*
G01*
X173998D01*
G75*
G02*
X178776Y72927I0J-4778D01*
G01*
X229457D01*
Y82927D01*
X178776D01*
G75*
G02*
X173998Y78150I-4778J0D01*
G01*
X171242D01*
G75*
G02*
X166465Y82927I0J4778D01*
G01*
X156728D01*
G75*
G02*
X151951Y78150I-4778J0D01*
G01*
X149195D01*
G75*
G02*
X144417Y82927I0J4778D01*
G01*
X131531D01*
G75*
G02*
X126754Y78150I-4778J0D01*
G01*
X123998D01*
G75*
G02*
X119220Y82927I0J4778D01*
G01*
X85612D01*
G37*
Y92927D02*
G36*
X85612Y92927D02*
Y82927D01*
X119220D01*
G75*
G02*
X123998Y87705I4778J0D01*
G01*
X126754D01*
G75*
G02*
X131531Y82927I0J-4778D01*
G01*
X144417D01*
G75*
G02*
X149195Y87705I4778J0D01*
G01*
X151951D01*
G75*
G02*
X156728Y82927I0J-4778D01*
G01*
X166465D01*
G75*
G02*
X171242Y87705I4778J0D01*
G01*
X173998D01*
G75*
G02*
X178776Y82927I0J-4778D01*
G01*
X229457D01*
Y92927D01*
X178776D01*
G75*
G02*
X173998Y88150I-4778J0D01*
G01*
X171242D01*
G75*
G02*
X166465Y92927I0J4778D01*
G01*
X156728D01*
G75*
G02*
X151951Y88150I-4778J0D01*
G01*
X149195D01*
G75*
G02*
X144417Y92927I0J4778D01*
G01*
X131531D01*
G75*
G02*
X126754Y88150I-4778J0D01*
G01*
X123998D01*
G75*
G02*
X119220Y92927I0J4778D01*
G01*
X85612D01*
G37*
Y102927D02*
G36*
X85612Y102927D02*
Y92927D01*
X119220D01*
G75*
G02*
X123998Y97705I4778J0D01*
G01*
X126754D01*
G75*
G02*
X131531Y92927I0J-4778D01*
G01*
X144417D01*
G75*
G02*
X149195Y97705I4778J0D01*
G01*
X151951D01*
G75*
G02*
X156728Y92927I0J-4778D01*
G01*
X166465D01*
G75*
G02*
X171242Y97705I4778J0D01*
G01*
X173998D01*
G75*
G02*
X178776Y92927I0J-4778D01*
G01*
X229457D01*
Y102927D01*
X178776D01*
G75*
G02*
X173998Y98150I-4778J0D01*
G01*
X171242D01*
G75*
G02*
X166465Y102927I0J4778D01*
G01*
X156728D01*
G75*
G02*
X151951Y98150I-4778J0D01*
G01*
X149195D01*
G75*
G02*
X144417Y102927I0J4778D01*
G01*
X131531D01*
G75*
G02*
X126754Y98150I-4778J0D01*
G01*
X123998D01*
G75*
G02*
X119220Y102927I0J4778D01*
G01*
X85612D01*
G37*
Y112927D02*
G36*
X85612Y112927D02*
Y102927D01*
X119220D01*
G75*
G02*
X123998Y107705I4778J0D01*
G01*
X126754D01*
G75*
G02*
X131531Y102927I0J-4778D01*
G01*
X144417D01*
G75*
G02*
X149195Y107705I4778J0D01*
G01*
X151951D01*
G75*
G02*
X156728Y102927I0J-4778D01*
G01*
X166465D01*
G75*
G02*
X171242Y107705I4778J0D01*
G01*
X173998D01*
G75*
G02*
X178776Y102927I0J-4778D01*
G01*
X229457D01*
Y112927D01*
X178776D01*
G75*
G02*
X173998Y108150I-4778J0D01*
G01*
X171242D01*
G75*
G02*
X166465Y112927I0J4778D01*
G01*
X156728D01*
G75*
G02*
X151951Y108150I-4778J0D01*
G01*
X149195D01*
G75*
G02*
X144417Y112927I0J4778D01*
G01*
X131531D01*
G75*
G02*
X126754Y108150I-4778J0D01*
G01*
X123998D01*
G75*
G02*
X119220Y112927I0J4778D01*
G01*
X85612D01*
G37*
Y122927D02*
G36*
X85612Y122927D02*
Y112927D01*
X119220D01*
G75*
G02*
X123998Y117705I4778J0D01*
G01*
X126754D01*
G75*
G02*
X131531Y112927I0J-4778D01*
G01*
X144417D01*
G75*
G02*
X149195Y117705I4778J0D01*
G01*
X151951D01*
G75*
G02*
X156728Y112927I0J-4778D01*
G01*
X166465D01*
G75*
G02*
X171242Y117705I4778J0D01*
G01*
X173998D01*
G75*
G02*
X178776Y112927I0J-4778D01*
G01*
X229457D01*
Y122927D01*
X178776D01*
G75*
G02*
X173998Y118150I-4778J0D01*
G01*
X171242D01*
G75*
G02*
X166465Y122927I0J4778D01*
G01*
X156728D01*
G75*
G02*
X151951Y118150I-4778J0D01*
G01*
X149195D01*
G75*
G02*
X144417Y122927I0J4778D01*
G01*
X85612D01*
G37*
Y135683D02*
G36*
X85612Y135683D02*
Y122927D01*
X144417D01*
G75*
G02*
X149195Y127705I4778J0D01*
G01*
X151951D01*
G75*
G02*
X156728Y122927I0J-4778D01*
G01*
X166465D01*
G75*
G02*
X171242Y127705I4778J0D01*
G01*
X173998D01*
G75*
G02*
X178776Y122927I0J-4778D01*
G01*
X229457D01*
Y135683D01*
X183731D01*
G75*
G02*
X185272Y132533I-2450J-3150D01*
G01*
G75*
G02*
X177291I-3990J0D01*
G01*
G75*
G02*
X177363Y133289I4009J-1D01*
G01*
G75*
G02*
X173285Y135683I-413J3969D01*
G01*
X101413D01*
G75*
G02*
X93433I-3990J0D01*
G01*
X85612D01*
G37*
Y144738D02*
G36*
X85612Y144738D02*
Y135683D01*
X93433D01*
G75*
G02*
X101413I3990J0D01*
G01*
X173285D01*
G75*
G02*
X172961Y137258I3667J1575D01*
G01*
G75*
G02*
X177363Y141227I3990J0D01*
G01*
G75*
G02*
X177291Y141982I3937J757D01*
G01*
G75*
G02*
X177363Y142738I4009J-1D01*
G01*
G75*
G02*
X173480Y144738I-413J3969D01*
G01*
X150500D01*
G75*
G02*
X146617Y142738I-3471J1969D01*
G01*
G75*
G02*
X146689Y141982I-3937J-757D01*
G01*
G75*
G02*
X138709I-3990J0D01*
G01*
G75*
G02*
X139813Y144738I3991J0D01*
G01*
X104544D01*
G75*
G02*
X96602I-3971J394D01*
G01*
X85612D01*
G37*
X180941Y137258D02*
G36*
X180941Y137258D02*
G75*
G02*
X180869Y136502I-4009J1D01*
G01*
G75*
G02*
X183731Y135683I413J-3969D01*
G01*
X229457D01*
Y144738D01*
X225630D01*
G75*
G02*
X224334I-648J3938D01*
G01*
X223854D01*
G75*
G02*
X218735Y140911I-3990J0D01*
G01*
G75*
G02*
X218736Y140801I-3859J-110D01*
G01*
G75*
G02*
X210756I-3990J0D01*
G01*
G75*
G02*
X214098Y144738I3990J0D01*
G01*
X184167D01*
G75*
G02*
X185272Y141982I-2886J-2756D01*
G01*
G75*
G02*
X180869Y138013I-3990J0D01*
G01*
G75*
G02*
X180941Y137258I-3937J-757D01*
G01*
G37*
X215874Y144738D02*
G36*
X215874Y144738D02*
X215394D01*
G75*
G02*
X215876Y144628I-648J-3937D01*
G01*
G75*
G02*
X215874Y144738I3859J110D01*
G01*
G37*
X85612Y177022D02*
G36*
X85612Y177022D02*
Y144738D01*
X96602D01*
G75*
G02*
X96583Y145132I3971J392D01*
G01*
G75*
G02*
X104563I3990J0D01*
G01*
G75*
G02*
X104544Y144738I-3991J-2D01*
G01*
X139813D01*
G75*
G02*
X143111Y145951I2886J-2756D01*
G01*
G75*
G02*
X143039Y146707I3937J757D01*
G01*
G75*
G02*
X143111Y147462I4009J-1D01*
G01*
G75*
G02*
X138709Y151431I-413J3969D01*
G01*
G75*
G02*
X143111Y155400I3990J0D01*
G01*
G75*
G02*
X143039Y156156I3937J757D01*
G01*
G75*
G02*
X151020I3990J0D01*
G01*
G75*
G02*
X146617Y152187I-3990J0D01*
G01*
G75*
G02*
X146689Y151431I-3937J-757D01*
G01*
G75*
G02*
X146617Y150676I-4009J1D01*
G01*
G75*
G02*
X151020Y146707I413J-3969D01*
G01*
G75*
G02*
X150500Y144738I-3990J0D01*
G01*
X173480D01*
G75*
G02*
X172961Y146707I3471J1969D01*
G01*
G75*
G02*
X177363Y150676I3990J0D01*
G01*
G75*
G02*
X177291Y151431I3937J757D01*
G01*
G75*
G02*
X177363Y152187I4009J-1D01*
G01*
G75*
G02*
X172961Y156156I-413J3969D01*
G01*
G75*
G02*
X180941I3990J0D01*
G01*
G75*
G02*
X180869Y155400I-4009J1D01*
G01*
G75*
G02*
X185272Y151431I413J-3969D01*
G01*
G75*
G02*
X180869Y147462I-3990J0D01*
G01*
G75*
G02*
X180941Y146707I-3937J-757D01*
G01*
G75*
G02*
X180869Y145951I-4009J1D01*
G01*
G75*
G02*
X184167Y144738I412J-3969D01*
G01*
X214098D01*
G75*
G02*
X215394I648J-3938D01*
G01*
X215874D01*
G75*
G02*
X220994Y148565I3990J0D01*
G01*
G75*
G02*
X220992Y148675I3859J110D01*
G01*
G75*
G02*
X228972I3990J0D01*
G01*
G75*
G02*
X225630Y144738I-3990J0D01*
G01*
X229457D01*
Y177022D01*
X220878D01*
G75*
G02*
X207040I-6919J12205D01*
G01*
X170794D01*
G75*
G02*
X174209Y172022I-1954J-5000D01*
G01*
G75*
G02*
X168841Y166654I-5368J0D01*
G01*
G75*
G02*
X163841Y170068I0J5369D01*
G01*
G75*
G02*
X153841I-5000J1954D01*
G01*
G75*
G02*
X143472Y172022I-5000J1954D01*
G01*
G75*
G02*
X146887Y177022I5369J0D01*
G01*
X85612D01*
G37*
X223853Y144848D02*
G36*
X223853Y144848D02*
G75*
G02*
X223854Y144738I-3859J-110D01*
G01*
X224334D01*
G75*
G02*
X223853Y144848I648J3937D01*
G01*
G37*
X85612Y189226D02*
G36*
X85612Y189226D02*
Y177022D01*
X146887D01*
G75*
G02*
X143472Y182022I1954J5000D01*
G01*
G75*
G02*
X148841Y187390I5368J0D01*
G01*
G75*
G02*
X153841Y183975I0J-5369D01*
G01*
G75*
G02*
X163841I5000J-1954D01*
G01*
G75*
G02*
X174209Y182022I5000J-1954D01*
G01*
G75*
G02*
X170794Y177022I-5369J0D01*
G01*
X207040D01*
G75*
G02*
X199929Y189226I6919J12205D01*
G01*
X85612D01*
G37*
X227988D02*
G36*
X227988Y189226D02*
G75*
G02*
X220878Y177022I-14030J0D01*
G01*
X229457D01*
Y189226D01*
X227988D01*
G37*
X85612Y203596D02*
G36*
X85612Y203596D02*
Y189226D01*
X199929D01*
G75*
G02*
X227988I14030J0D01*
G01*
X229457D01*
Y203596D01*
X150621D01*
G75*
G02*
X150626Y203400I-3987J-194D01*
G01*
G75*
G02*
X147066Y199433I-3991J0D01*
G01*
G75*
G02*
X147083Y199078I-3802J-355D01*
G01*
G75*
G02*
Y199069I-3817J-4D01*
G01*
G75*
G02*
X139102I-3990J0D01*
G01*
G75*
G02*
X142662Y203036I3991J0D01*
G01*
G75*
G02*
X142646Y203399I3973J363D01*
G01*
G75*
G02*
X142650Y203596I3994J3D01*
G01*
X96841D01*
G75*
G02*
X98657Y200250I-2173J-3346D01*
G01*
G75*
G02*
X90677I-3990J0D01*
G01*
G75*
G02*
X92494Y203596I3990J0D01*
G01*
X85612D01*
G37*
X83500Y217179D02*
G36*
X83500Y217179D02*
Y204974D01*
X85612D01*
Y203596D01*
X92494D01*
G75*
G02*
X96841I2173J-3346D01*
G01*
X142650D01*
G75*
G02*
X145878Y207317I3985J-197D01*
G01*
G75*
G02*
X145795Y208121I3891J804D01*
G01*
G75*
G02*
Y208124I4155J2D01*
G01*
G75*
G02*
X153776I3990J0D01*
G01*
Y208124D01*
G75*
G02*
X150544Y204207I-3989J0D01*
G01*
G75*
G02*
X150621Y203596I-3909J-807D01*
G01*
X229457D01*
Y217179D01*
X227398D01*
G75*
G02*
X219417I-3990J0D01*
G01*
X210737D01*
G75*
G02*
X211256Y215211I-3471J-1969D01*
G01*
G75*
G02*
X203276I-3990J0D01*
G01*
G75*
G02*
X203795Y217179I3990J0D01*
G01*
X189615D01*
G75*
G02*
X190390Y214817I-3216J-2362D01*
G01*
G75*
G02*
X182409I-3990J0D01*
G01*
G75*
G02*
X183184Y217179I3990J0D01*
G01*
X166355D01*
G75*
G02*
X166374Y216785I-3971J-392D01*
G01*
G75*
G02*
X158394I-3990J0D01*
G01*
G75*
G02*
X158413Y217179I3991J2D01*
G01*
X83500D01*
G37*
Y222239D02*
G36*
X83500Y222239D02*
Y217179D01*
X158413D01*
G75*
G02*
X166355I3971J-394D01*
G01*
X183184D01*
G75*
G02*
X189615I3216J-2362D01*
G01*
X203795D01*
G75*
G02*
X210737I3471J-1969D01*
G01*
X219417D01*
G75*
G02*
X227398I3990J0D01*
G01*
X229457D01*
Y225053D01*
X210862D01*
G75*
G02*
X202882I-3990J0D01*
G01*
X190783D01*
G75*
G02*
X182803I-3990J0D01*
G01*
X177432D01*
G75*
G02*
X178972Y221904I-2450J-3150D01*
G01*
G75*
G02*
X170992I-3990J0D01*
G01*
G75*
G02*
X172533Y225053I3991J0D01*
G01*
X135540D01*
G75*
G02*
X128598I-3471J1969D01*
G01*
X97851D01*
G75*
G02*
X97870Y224659I-3971J-392D01*
G01*
G75*
G02*
X89890I-3990J0D01*
G01*
G75*
G02*
X89909Y225053I3991J2D01*
G01*
X89130D01*
G75*
G02*
X83500Y222239I-3912J787D01*
G01*
G37*
Y236864D02*
G36*
X83500Y236864D02*
Y229442D01*
G75*
G02*
X89209Y225841I1719J-3601D01*
G01*
G75*
G02*
X89130Y225053I-3991J0D01*
G01*
X89909D01*
G75*
G02*
X97851I3971J-394D01*
G01*
X128598D01*
G75*
G02*
X128079Y227022I3471J1969D01*
G01*
G75*
G02*
X128276Y228260I4001J-1D01*
G01*
G75*
G02*
X123354Y232140I-931J3880D01*
G01*
G75*
G02*
X131335I3990J0D01*
G01*
G75*
G02*
X131138Y230902I-4001J1D01*
G01*
G75*
G02*
X136059Y227022I931J-3880D01*
G01*
G75*
G02*
X135540Y225053I-3990J0D01*
G01*
X172533D01*
G75*
G02*
X170992Y228203I2450J3150D01*
G01*
G75*
G02*
X178972I3990J0D01*
G01*
G75*
G02*
X177432Y225053I-3991J0D01*
G01*
X182803D01*
G75*
G02*
X190783I3990J0D01*
G01*
X202882D01*
G75*
G02*
X210862I3990J0D01*
G01*
X229457D01*
Y236864D01*
X97870D01*
G75*
G02*
X89890I-3990J0D01*
G01*
X83500D01*
G37*
Y242376D02*
G36*
X83500Y242376D02*
Y236864D01*
X89890D01*
G75*
G02*
X97870I3990J0D01*
G01*
X229457D01*
Y242376D01*
X171906D01*
G75*
G02*
X163925I-3990J0D01*
G01*
X156138D01*
G75*
G02*
X148157I-3990J0D01*
G01*
X83500D01*
G37*
Y258911D02*
G36*
X83500Y258911D02*
Y242376D01*
X148157D01*
G75*
G02*
X156138I3990J0D01*
G01*
X163925D01*
G75*
G02*
X171906I3990J0D01*
G01*
X229457D01*
Y258911D01*
X213224D01*
G75*
G02*
X205244I-3990J0D01*
G01*
X179366D01*
G75*
G02*
X171386I-3990J0D01*
G01*
X162024D01*
G75*
G02*
X162043Y258518I-3971J-392D01*
G01*
Y258517D01*
G75*
G02*
X160226Y255171I-3990J0D01*
G01*
G75*
G02*
X162043Y251825I-2173J-3346D01*
G01*
Y251825D01*
G75*
G02*
X154063I-3990J0D01*
G01*
Y251825D01*
G75*
G02*
X155880Y255171I3990J0D01*
G01*
G75*
G02*
X154063Y258517I2173J3346D01*
G01*
Y258518D01*
G75*
G02*
X154082Y258911I3991J2D01*
G01*
X151628D01*
G75*
G02*
X151807Y257730I-3812J-1181D01*
G01*
G75*
G02*
X143827I-3990J0D01*
G01*
G75*
G02*
X144006Y258911I3994J-2D01*
G01*
X130223D01*
G75*
G02*
X130547Y257337I-3666J-1575D01*
G01*
G75*
G02*
X122567I-3990J0D01*
G01*
G75*
G02*
X122891Y258911I3990J0D01*
G01*
X116408D01*
G75*
G02*
X117949Y255762I-2450J-3150D01*
G01*
G75*
G02*
X109969I-3990J0D01*
G01*
G75*
G02*
X111509Y258911I3990J0D01*
G01*
X105385D01*
G75*
G02*
X100485I-2450J3150D01*
G01*
X83500D01*
G37*
Y265998D02*
G36*
X83500Y265998D02*
Y258911D01*
X100485D01*
G75*
G02*
X98945Y262061I2450J3150D01*
G01*
G75*
G02*
X102286Y265998I3990J0D01*
G01*
X83500D01*
G37*
X106925Y262061D02*
G36*
X106925Y262061D02*
G75*
G02*
X105385Y258911I-3990J0D01*
G01*
X111509D01*
G75*
G02*
X116408I2450J-3150D01*
G01*
X122891D01*
G75*
G02*
X130223I3666J-1575D01*
G01*
X144006D01*
G75*
G02*
X144152Y259308I3815J-1181D01*
G01*
G75*
G02*
X139496Y263242I-666J3934D01*
G01*
G75*
G02*
X140601Y265998I3990J0D01*
G01*
X103584D01*
G75*
G02*
X106925Y262061I-649J-3937D01*
G01*
G37*
X147476Y263242D02*
G36*
X147476Y263242D02*
G75*
G02*
X147151Y261665I-3989J0D01*
G01*
G75*
G02*
X151628Y258911I665J-3935D01*
G01*
X154082D01*
G75*
G02*
X162024I3971J-394D01*
G01*
X171386D01*
G75*
G02*
X179366I3990J0D01*
G01*
X205244D01*
G75*
G02*
X213224I3990J0D01*
G01*
X229457D01*
Y265998D01*
X198264D01*
G75*
G02*
X190283I-3990J0D01*
G01*
X146372D01*
G75*
G02*
X147476Y263242I-2885J-2756D01*
G01*
G37*
X83500Y274266D02*
G36*
X83500Y274266D02*
Y265998D01*
X102286D01*
G75*
G02*
X103584I649J-3938D01*
G01*
X140601D01*
G75*
G02*
X139496Y268754I2885J2756D01*
G01*
G75*
G02*
X140601Y271510I3990J0D01*
G01*
G75*
G02*
X139496Y274266I2887J2756D01*
G01*
X83500D01*
G37*
X147476Y268754D02*
G36*
X147476Y268754D02*
G75*
G02*
X146372Y265998I-3990J0D01*
G01*
X190283D01*
G75*
G02*
X198264I3990J0D01*
G01*
X229457D01*
Y274266D01*
X163618D01*
G75*
G02*
X155638I-3990J0D01*
G01*
X147476D01*
G75*
G02*
X146372Y271510I-3991J0D01*
G01*
G75*
G02*
X147476Y268754I-2885J-2756D01*
G01*
G37*
X83500Y287652D02*
G36*
X83500Y287652D02*
Y274266D01*
X139496D01*
G75*
G02*
X147476I3990J0D01*
G01*
X155638D01*
G75*
G02*
X163618I3990J0D01*
G01*
X229457D01*
Y287652D01*
X222880D01*
G75*
G02*
X225035Y284108I-1835J-3543D01*
G01*
Y284108D01*
G75*
G02*
X217697Y281938I-3990J0D01*
G01*
G75*
G02*
X212331Y285683I-1376J3745D01*
G01*
G75*
G02*
X212850Y287652I3990J0D01*
G01*
X83500D01*
G37*
Y291162D02*
G36*
X83500Y291162D02*
Y287652D01*
X212850D01*
G75*
G02*
X213435Y288439I3471J-1969D01*
G01*
G75*
G02*
X212331Y291195I2887J2756D01*
G01*
G75*
G02*
X212409Y291982I3990J0D01*
G01*
X160075D01*
G75*
G02*
X152094I-3990J0D01*
G01*
X93469D01*
G75*
G02*
X83500Y291162I-5219J2441D01*
G01*
G37*
X219206Y288439D02*
G36*
X219206Y288439D02*
G75*
G02*
X219669Y287854I-2906J-2772D01*
G01*
G75*
G02*
X222880Y287652I1376J-3746D01*
G01*
X229457D01*
Y291982D01*
X220233D01*
G75*
G02*
X220311Y291195I-3912J-787D01*
G01*
G75*
G02*
X219206Y288439I-3991J0D01*
G01*
G37*
X92912Y301037D02*
G36*
X92912Y301037D02*
G75*
G02*
X91113Y299423I-4662J3386D01*
G01*
G75*
G02*
X94012Y294423I-2864J-5000D01*
G01*
G75*
G02*
X93469Y291982I-5762J0D01*
G01*
X152094D01*
G75*
G02*
X160075I3990J0D01*
G01*
X212409D01*
G75*
G02*
X220233I3912J-787D01*
G01*
X229457D01*
Y301037D01*
X203776D01*
G75*
G02*
X195795I-3990J0D01*
G01*
X131011D01*
G75*
G02*
X131335Y299463I-3666J-1575D01*
G01*
G75*
G02*
X123354I-3990J0D01*
G01*
G75*
G02*
X123678Y301037I3990J0D01*
G01*
X92912D01*
G37*
X94012Y304423D02*
G36*
X94012Y304423D02*
G75*
G02*
X92912Y301037I-5762J0D01*
G01*
X123678D01*
G75*
G02*
X131011I3666J-1575D01*
G01*
X195795D01*
G75*
G02*
X203776I3990J0D01*
G01*
X229457D01*
Y305762D01*
X223461D01*
G75*
G02*
X215480I-3990J0D01*
G01*
X175823D01*
G75*
G02*
X167843I-3990J0D01*
G01*
X144201D01*
G75*
G02*
X137259I-3471J1969D01*
G01*
X133965D01*
G75*
G02*
X127023I-3471J1969D01*
G01*
X93854D01*
G75*
G02*
X94012Y304423I-5605J-1338D01*
G01*
G37*
X93075Y311274D02*
G36*
X93075Y311274D02*
G75*
G02*
X91113Y309423I-4825J3150D01*
G01*
G75*
G02*
X93854Y305762I-2863J-5000D01*
G01*
X127023D01*
G75*
G02*
X126504Y307730I3471J1969D01*
G01*
G75*
G02*
X128659Y311274I3990J0D01*
G01*
X93075D01*
G37*
X134484Y307730D02*
G36*
X134484Y307730D02*
G75*
G02*
X133965Y305762I-3990J0D01*
G01*
X137259D01*
G75*
G02*
X136740Y307730I3471J1969D01*
G01*
G75*
G02*
X138896Y311274I3990J0D01*
G01*
X132329D01*
G75*
G02*
X134484Y307730I-1835J-3543D01*
G01*
G37*
X144033Y311274D02*
G36*
X144033Y311274D02*
X142565D01*
G75*
G02*
X144720Y307730I-1835J-3543D01*
G01*
G75*
G02*
X144201Y305762I-3990J0D01*
G01*
X167843D01*
G75*
G02*
Y305763I3759J0D01*
G01*
G75*
G02*
X168480Y307926I3988J0D01*
G01*
G75*
G02*
X166661Y311274I2172J3348D01*
G01*
X147703D01*
G75*
G02*
X144033I-1835J3543D01*
G01*
G37*
X174642Y311273D02*
G36*
X174642Y311273D02*
G75*
G02*
X174004Y309109I-3988J0D01*
G01*
G75*
G02*
X175823Y305762I-2172J-3348D01*
G01*
X215480D01*
G75*
G02*
X223461I3990J0D01*
G01*
X229457D01*
Y311274D01*
X212437D01*
G75*
G02*
X204457I-3990J0D01*
G01*
X174642D01*
G75*
G02*
Y311273I-3759J0D01*
G01*
G37*
X94012Y334423D02*
G36*
X94012Y334423D02*
G75*
G02*
X91113Y329423I-5762J0D01*
G01*
G75*
G02*
X94012Y324423I-2863J-5000D01*
G01*
G75*
G02*
X91113Y319423I-5762J0D01*
G01*
G75*
G02*
X94012Y314423I-2863J-5000D01*
G01*
G75*
G02*
X93075Y311274I-5762J0D01*
G01*
X128659D01*
G75*
G02*
X132329I1835J-3543D01*
G01*
X138896D01*
G75*
G02*
X142565I1835J-3543D01*
G01*
X144033D01*
G75*
G02*
X141878Y314817I1835J3543D01*
G01*
G75*
G02*
X142194Y316373I3993J-1D01*
G01*
G75*
G02*
X138230Y316956I-1464J3817D01*
G01*
G75*
G02*
X133230I-2500J3234D01*
G01*
G75*
G02*
X126642Y320191I-2500J3235D01*
G01*
G75*
G02*
X127495Y322691I4088J0D01*
G01*
G75*
G02*
X126642Y325191I3235J2500D01*
G01*
G75*
G02*
X133230Y328426I4089J0D01*
G01*
G75*
G02*
X138230I2500J-3234D01*
G01*
G75*
G02*
X143230I2500J-3234D01*
G01*
G75*
G02*
X148230I2500J-3234D01*
G01*
G75*
G02*
X154819Y325191I2500J-3235D01*
G01*
G75*
G02*
X153965Y322691I-4089J0D01*
G01*
G75*
G02*
X154819Y320191I-3235J-2500D01*
G01*
G75*
G02*
X149586Y316266I-4089J0D01*
G01*
G75*
G02*
X149858Y314817I-3728J-1451D01*
G01*
G75*
G02*
X147703Y311274I-3990J0D01*
G01*
X166661D01*
G75*
G02*
X174642I3990J0D01*
G01*
X204457D01*
G75*
G02*
X212437I3990J0D01*
G01*
X229457D01*
Y343951D01*
X227791D01*
G75*
G02*
X219811I-3990J0D01*
G01*
X131675D01*
X125376Y337652D01*
X93022D01*
G75*
G02*
X94012Y334423I-4773J-3228D01*
G01*
G37*
X140337Y352612D02*
G36*
X140337Y352612D02*
X131675Y343951D01*
X219811D01*
G75*
G02*
X227791I3990J0D01*
G01*
X229457D01*
Y352612D01*
X225035D01*
G75*
G02*
X217055I-3990J0D01*
G01*
X140337D01*
G37*
X142305Y354581D02*
G36*
X142305Y354581D02*
X140337Y352612D01*
X217055D01*
G75*
G02*
X225035I3990J0D01*
G01*
X229457D01*
Y363685D01*
G75*
G02*
X221780Y365211I-3687J1526D01*
G01*
G75*
G02*
X229457Y366736I3990J0D01*
G01*
Y377691D01*
X225034D01*
G75*
G02*
X217057I-3989J118D01*
G01*
X197673D01*
G75*
G02*
X186937I-5368J0D01*
G01*
X142305D01*
Y354581D01*
G37*
Y391982D02*
G36*
X142305Y391982D02*
Y377691D01*
X186937D01*
G75*
G02*
X197673I5368J0D01*
G01*
X217057D01*
G75*
G02*
X217055Y377809I3989J112D01*
G01*
G75*
G02*
X225035I3990J0D01*
G01*
G75*
G02*
X225034Y377691I-3991J-6D01*
G01*
X229457D01*
Y391982D01*
X176217D01*
G75*
G02*
X168236I-3990J0D01*
G01*
X142305D01*
G37*
Y423749D02*
G36*
X142305Y423749D02*
Y391982D01*
X168236D01*
G75*
G02*
X176217I3990J0D01*
G01*
X229457D01*
Y394450D01*
G75*
G02*
X228644Y395345I4181J4614D01*
G01*
G75*
G02*
X218644I-5000J3724D01*
G01*
G75*
G02*
X207409Y399069I-5000J3724D01*
G01*
G75*
G02*
X218644Y402793I6234J0D01*
G01*
G75*
G02*
X228644I5000J-3724D01*
G01*
G75*
G02*
X229457Y403688I5021J-3743D01*
G01*
Y444201D01*
X227988Y445669D01*
X213001D01*
G75*
G02*
X213028Y445132I-5385J-538D01*
G01*
G75*
G02*
X202291I-5368J0D01*
G01*
G75*
G02*
X202318Y445669I5412J0D01*
G01*
X144024D01*
X142305Y443951D01*
Y435549D01*
G75*
G02*
X149839Y433715I3543J-1835D01*
G01*
Y433714D01*
G75*
G02*
X147006Y429896I-3990J0D01*
G01*
G75*
G02*
X147870Y427415I-3126J-2480D01*
G01*
G75*
G02*
X142305Y423749I-3990J0D01*
G01*
G37*
X241518Y137258D02*
Y24266D01*
X244667Y21116D01*
X265533D01*
X268683Y24266D01*
Y128990D01*
X273407Y133715D01*
Y137258D01*
X241518D01*
G36*
X241518Y137258D02*
Y24266D01*
X244667Y21116D01*
X265533D01*
X268683Y24266D01*
Y128990D01*
X273407Y133715D01*
Y137258D01*
X241518D01*
G37*
Y280565D02*
Y133715D01*
X331281D01*
X335219Y137652D01*
Y227293D01*
G75*
G02*
X329654Y230959I-1575J3666D01*
G01*
G75*
G02*
X335219Y234625I3990J0D01*
G01*
Y254187D01*
X335071Y254334D01*
G75*
G02*
X328252Y258124I-3002J2628D01*
G01*
X290066D01*
G75*
G02*
X290390Y256549I-3666J-1575D01*
G01*
G75*
G02*
X282409I-3990J0D01*
G01*
G75*
G02*
X286347Y260539I3990J0D01*
G01*
X284825Y262061D01*
Y276628D01*
X280888Y280565D01*
X241518D01*
X304870Y190050D02*
G75*
G02*
X308500Y186077I-361J-3974D01*
G01*
G75*
G02*
X300606Y185253I-3990J0D01*
G01*
G75*
G02*
X300624Y193202I361J3974D01*
G01*
G75*
G02*
X300126Y195132I3492J1930D01*
G01*
G75*
G02*
X308106I3990J0D01*
G01*
G75*
G02*
X304459Y191156I-3990J0D01*
G01*
G75*
G02*
X304870Y190050I-3493J-1930D01*
G01*
X306819Y162848D02*
G75*
G02*
X314799I3990J0D01*
G01*
G75*
G02*
X306819I-3990J0D01*
G01*
X308644Y147703D02*
G75*
G02*
X316374Y146313I3740J-1390D01*
G01*
G75*
G02*
X308644Y144923I-3990J0D01*
G01*
G75*
G02*
X300913Y146313I-3740J1390D01*
G01*
G75*
G02*
X301403Y148229I3991J0D01*
G01*
G75*
G02*
X297370Y152219I-43J3990D01*
G01*
G75*
G02*
X305350I3990J0D01*
G01*
G75*
G02*
X304861Y150303I-3991J0D01*
G01*
G75*
G02*
X308644Y147703I43J-3990D01*
G01*
X300520Y223872D02*
G75*
G02*
X308500I3990J0D01*
G01*
G75*
G02*
X300520I-3990J0D01*
G01*
X311543Y191982D02*
G75*
G02*
X319524I3990J0D01*
G01*
G75*
G02*
X311543I-3990J0D01*
G01*
X324226Y163273D02*
G75*
G02*
X327791Y159305I-424J-3968D01*
G01*
G75*
G02*
X319833Y158881I-3990J0D01*
G01*
G75*
G02*
X316268Y162848I424J3968D01*
G01*
G75*
G02*
X324226Y163273I3990J0D01*
G01*
X318683Y220810D02*
G75*
G02*
X325823Y218360I3150J-2450D01*
G01*
G75*
G02*
X318683Y215911I-3990J0D01*
G01*
G75*
G02*
X311543Y218360I-3150J2450D01*
G01*
G75*
G02*
X318683Y220810I3990J0D01*
G01*
X324929Y201825D02*
G75*
G02*
X332909I3990J0D01*
G01*
G75*
G02*
X324929I-3990J0D01*
G01*
X287134Y237652D02*
G75*
G02*
X295114I3990J0D01*
G01*
G75*
G02*
X287134I-3990J0D01*
G01*
X246189Y272297D02*
G75*
G02*
X254169I3990J0D01*
G01*
G75*
G02*
X246189I-3990J0D01*
G01*
X249732Y256156D02*
G75*
G02*
X257713I3990J0D01*
G01*
G75*
G02*
X249732I-3990J0D01*
G01*
X250913Y162455D02*
G75*
G02*
X258894I3990J0D01*
G01*
G75*
G02*
X250913I-3990J0D01*
G01*
Y178990D02*
G75*
G02*
X258894I3990J0D01*
G01*
G75*
G02*
X257587Y176037I-3990J0D01*
G01*
G75*
G02*
X258894Y173085I-2684J-2953D01*
G01*
G75*
G02*
X250913I-3990J0D01*
G01*
G75*
G02*
X252220Y176037I3990J0D01*
G01*
G75*
G02*
X250913Y178990I2684J2953D01*
G01*
X253591Y244344D02*
G75*
G02*
X264327I5368J0D01*
G01*
G75*
G02*
X253591I-5368J0D01*
G01*
X255638Y203793D02*
G75*
G02*
X263618I3990J0D01*
G01*
G75*
G02*
X255638I-3990J0D01*
G01*
X258000Y225053D02*
G75*
G02*
X265980I3990J0D01*
G01*
G75*
G02*
X258000I-3990J0D01*
G01*
X273776Y205675D02*
G75*
G02*
X279760Y202219I1993J-3457D01*
G01*
G75*
G02*
X272251Y200337I-3990J0D01*
G01*
G75*
G02*
X266268Y203793I-1993J3457D01*
G01*
G75*
G02*
X273776Y205675I3990J0D01*
G01*
X279260Y169148D02*
G75*
G02*
X287240I3990J0D01*
G01*
G75*
G02*
X279260I-3990J0D01*
G01*
X285559Y146313D02*
G75*
G02*
X293539I3990J0D01*
G01*
G75*
G02*
X285559I-3990J0D01*
G01*
X241768Y149266D02*
G36*
X241768Y149266D02*
Y133965D01*
X331531D01*
X334969Y137402D01*
Y149266D01*
X315068D01*
G75*
G02*
X316374Y146313I-2684J-2953D01*
G01*
G75*
G02*
X308644Y144923I-3990J0D01*
G01*
G75*
G02*
X300913Y146313I-3740J1390D01*
G01*
G75*
G02*
X301403Y148229I3993J0D01*
G01*
G75*
G02*
X298676Y149266I-43J3990D01*
G01*
X292233D01*
G75*
G02*
X293539Y146313I-2684J-2953D01*
G01*
G75*
G02*
X285559I-3990J0D01*
G01*
G75*
G02*
X286865Y149266I3990J0D01*
G01*
X241768D01*
G37*
X307587D02*
G36*
X307587Y149266D02*
G75*
G02*
X308644Y147703I-2683J-2952D01*
G01*
G75*
G02*
X309700Y149266I3740J-1390D01*
G01*
X307587D01*
G37*
X241768Y162848D02*
G36*
X241768Y162848D02*
Y149266D01*
X286865D01*
G75*
G02*
X292233I2684J-2953D01*
G01*
X298676D01*
G75*
G02*
X297370Y152218I2683J2952D01*
G01*
Y152219D01*
G75*
G02*
X305350I3990J0D01*
G01*
G75*
G02*
X304861Y150303I-3993J0D01*
G01*
G75*
G02*
X307587Y149266I43J-3989D01*
G01*
X309700D01*
G75*
G02*
X315068I2684J-2953D01*
G01*
X334969D01*
Y162848D01*
X325636D01*
G75*
G02*
X327791Y159305I-1835J-3543D01*
G01*
G75*
G02*
X319833Y158881I-3990J0D01*
G01*
G75*
G02*
X316268Y162848I424J3968D01*
G01*
X314799D01*
G75*
G02*
X306819I-3990J0D01*
G01*
X258874D01*
G75*
G02*
X258894Y162455I-3971J-392D01*
G01*
G75*
G02*
X250913I-3990J0D01*
G01*
G75*
G02*
X250933Y162848I3991J2D01*
G01*
X241768D01*
G37*
Y169148D02*
G36*
X241768Y169148D02*
Y162848D01*
X250933D01*
G75*
G02*
X258874I3971J-394D01*
G01*
X306819D01*
G75*
G02*
X314799I3990J0D01*
G01*
X316268D01*
G75*
G02*
X324226Y163273I3990J0D01*
G01*
G75*
G02*
X325636Y162848I-425J-3968D01*
G01*
X334969D01*
Y169148D01*
X287240D01*
G75*
G02*
X279260I-3990J0D01*
G01*
X255553D01*
G75*
G02*
X254254I-649J3938D01*
G01*
X241768D01*
G37*
Y176037D02*
G36*
X241768Y176037D02*
Y169148D01*
X254254D01*
G75*
G02*
X250913Y173085I649J3937D01*
G01*
G75*
G02*
Y173086I3981J1D01*
G01*
G75*
G02*
X252220Y176037I3988J0D01*
G01*
X241768D01*
G37*
X258894Y173085D02*
G36*
X258894Y173085D02*
G75*
G02*
X255553Y169148I-3990J0D01*
G01*
X279260D01*
G75*
G02*
X287240I3990J0D01*
G01*
X334969D01*
Y176037D01*
X257587D01*
G75*
G02*
X258894Y173086I-2681J-2952D01*
G01*
G75*
G02*
Y173085I-3981J0D01*
G01*
G37*
X241768Y190604D02*
G36*
X241768Y190604D02*
Y176037D01*
X252220D01*
G75*
G02*
X250913Y178989I2681J2952D01*
G01*
G75*
G02*
Y178990I3981J1D01*
G01*
G75*
G02*
X258894I3990J0D01*
G01*
G75*
G02*
Y178989I-3981J0D01*
G01*
G75*
G02*
X257587Y176037I-3988J0D01*
G01*
X334969D01*
Y190604D01*
X319278D01*
G75*
G02*
X311789I-3744J1378D01*
G01*
X304711D01*
G75*
G02*
X304870Y190050I-3762J-1386D01*
G01*
G75*
G02*
X308500Y186077I-361J-3974D01*
G01*
G75*
G02*
X300606Y185253I-3990J0D01*
G01*
G75*
G02*
X296976Y189226I361J3974D01*
G01*
G75*
G02*
X297222Y190604I3991J0D01*
G01*
X241768D01*
G37*
Y201825D02*
G36*
X241768Y201825D02*
Y190604D01*
X297222D01*
G75*
G02*
X300624Y193202I3745J-1378D01*
G01*
G75*
G02*
X300126Y195131I3487J1929D01*
G01*
G75*
G02*
Y195132I4101J0D01*
G01*
G75*
G02*
X308106I3990J0D01*
G01*
G75*
G02*
X304459Y191156I-3990J0D01*
G01*
G75*
G02*
X304711Y190604I-3511J-1936D01*
G01*
X311789D01*
G75*
G02*
X311543Y191982I3744J1378D01*
G01*
G75*
G02*
X319524I3990J0D01*
G01*
G75*
G02*
X319278Y190604I-3990J0D01*
G01*
X334969D01*
Y201825D01*
X332909D01*
G75*
G02*
X324929I-3990J0D01*
G01*
X279741D01*
G75*
G02*
X272251Y200337I-3971J394D01*
G01*
G75*
G02*
X266787Y201825I-1993J3457D01*
G01*
X263099D01*
G75*
G02*
X256157I-3471J1969D01*
G01*
X241768D01*
G37*
Y218360D02*
G36*
X241768Y218360D02*
Y201825D01*
X256157D01*
G75*
G02*
X255638Y203793I3471J1969D01*
G01*
G75*
G02*
X263618I3990J0D01*
G01*
G75*
G02*
X263099Y201825I-3990J0D01*
G01*
X266787D01*
G75*
G02*
X266268Y203793I3471J1969D01*
G01*
G75*
G02*
X273776Y205675I3990J0D01*
G01*
G75*
G02*
X279760Y202219I1993J-3457D01*
G01*
G75*
G02*
X279741Y201825I-3991J-2D01*
G01*
X324929D01*
G75*
G02*
X332909I3990J0D01*
G01*
X334969D01*
Y218360D01*
X325823D01*
G75*
G02*
X318683Y215911I-3990J0D01*
G01*
G75*
G02*
X311543Y218360I-3150J2450D01*
G01*
X241768D01*
G37*
Y223872D02*
G36*
X241768Y223872D02*
Y218360D01*
X311543D01*
G75*
G02*
X318683Y220810I3990J0D01*
G01*
G75*
G02*
X325823Y218360I3150J-2450D01*
G01*
X334969D01*
Y223872D01*
X308500D01*
G75*
G02*
X300520I-3990J0D01*
G01*
X265802D01*
G75*
G02*
X258179I-3811J1181D01*
G01*
X241768D01*
G37*
Y237652D02*
G36*
X241768Y237652D02*
Y223872D01*
X258179D01*
G75*
G02*
X258000Y225053I3811J1181D01*
G01*
G75*
G02*
X265980I3990J0D01*
G01*
G75*
G02*
X265802Y223872I-3990J0D01*
G01*
X300520D01*
G75*
G02*
X308500I3990J0D01*
G01*
X334969D01*
Y227195D01*
G75*
G02*
X329654Y230959I-1325J3764D01*
G01*
G75*
G02*
X334969Y234722I3990J0D01*
G01*
Y237652D01*
X295114D01*
G75*
G02*
X287134I-3990J0D01*
G01*
X241768D01*
G37*
Y244344D02*
G36*
X241768Y244344D02*
Y237652D01*
X287134D01*
G75*
G02*
X295114I3990J0D01*
G01*
X334969D01*
Y244344D01*
X264327D01*
G75*
G02*
X253591I-5368J0D01*
G01*
X241768D01*
G37*
Y256156D02*
G36*
X241768Y256156D02*
Y244344D01*
X253591D01*
G75*
G02*
X264327I5368J0D01*
G01*
X334969D01*
Y254221D01*
G75*
G02*
X328161Y256156I-2900J2741D01*
G01*
X290370D01*
G75*
G02*
X282429I-3971J394D01*
G01*
X257713D01*
G75*
G02*
X249732I-3990J0D01*
G01*
X241768D01*
G37*
Y272297D02*
G36*
X241768Y272297D02*
Y256156D01*
X249732D01*
G75*
G02*
X257713I3990J0D01*
G01*
X282429D01*
G75*
G02*
X282409Y256549I3971J392D01*
G01*
Y256550D01*
G75*
G02*
X286347Y260539I3990J0D01*
G01*
X284825Y262061D01*
Y272297D01*
X254169D01*
G75*
G02*
X246189I-3990J0D01*
G01*
X241768D01*
G37*
X290390Y256549D02*
G36*
X290390Y256549D02*
G75*
G02*
X290370Y256156I-3991J-2D01*
G01*
X328161D01*
G75*
G02*
X328079Y256962I3908J806D01*
G01*
G75*
G02*
X328252Y258124I3990J0D01*
G01*
X290066D01*
G75*
G02*
X290390Y256549I-3667J-1575D01*
G01*
G37*
X241768Y280315D02*
G36*
X241768Y280315D02*
Y272297D01*
X246189D01*
G75*
G02*
X254169I3990J0D01*
G01*
X284825D01*
Y276628D01*
X281138Y280315D01*
X241768D01*
G37*
X273407Y125053D02*
Y110093D01*
X277344Y106156D01*
X351754D01*
X355691Y110093D01*
Y276628D01*
X351754Y280565D01*
X293486D01*
X289549Y276628D01*
Y266785D01*
X293486Y262848D01*
X336006D01*
X339943Y258911D01*
Y132927D01*
X336006Y128990D01*
X277344D01*
X273407Y125053D01*
X320205Y272297D02*
G75*
G02*
X328185I3990J0D01*
G01*
G75*
G02*
X320205I-3990J0D01*
G01*
X341465Y260900D02*
G75*
G02*
X349445I3990J0D01*
G01*
G75*
G02*
X341465I-3990J0D01*
G01*
X341858Y127022D02*
G75*
G02*
X349839I3990J0D01*
G01*
G75*
G02*
X341858I-3990J0D01*
G01*
Y145132D02*
G75*
G02*
X349839I3990J0D01*
G01*
G75*
G02*
X341858I-3990J0D01*
G01*
X273657Y125303D02*
G36*
X273657Y125303D02*
Y109843D01*
X277094Y106406D01*
X352004D01*
X355441Y109843D01*
Y127022D01*
X349839D01*
G75*
G02*
X341858I-3990J0D01*
G01*
X275376D01*
X273657Y125303D01*
G37*
X277344Y128990D02*
G36*
X277344Y128990D02*
X275376Y127022D01*
X341858D01*
G75*
G02*
X349839I3990J0D01*
G01*
X355441D01*
Y145132D01*
X349839D01*
G75*
G02*
X341858I-3990J0D01*
G01*
X339943D01*
Y132927D01*
X336006Y128990D01*
X277344D01*
G37*
X339943Y258911D02*
G36*
X339943Y258911D02*
Y145132D01*
X341858D01*
G75*
G02*
X349839I3990J0D01*
G01*
X355441D01*
Y260900D01*
X349445D01*
G75*
G02*
X341465I-3990J0D01*
G01*
X337955D01*
X339943Y258911D01*
G37*
X289549Y272297D02*
G36*
X289549Y272297D02*
Y266785D01*
X293486Y262848D01*
X336006D01*
X337955Y260900D01*
X341465D01*
G75*
G02*
X349445I3990J0D01*
G01*
X355441D01*
Y272297D01*
X328185D01*
G75*
G02*
X320205I-3990J0D01*
G01*
X289549D01*
G37*
Y276628D02*
G36*
X289549Y276628D02*
Y272297D01*
X320205D01*
G75*
G02*
X328185I3990J0D01*
G01*
X355441D01*
Y276878D01*
X352004Y280315D01*
X293236D01*
X289549Y276628D01*
G37*
X664352Y518754D02*
Y418754D01*
X669426Y413681D01*
G75*
G02*
X670934Y412172I-7043J-8552D01*
G01*
X687187Y395919D01*
Y358124D01*
X698998Y346313D01*
X751754D01*
X757659Y340407D01*
Y333759D01*
G75*
G02*
X765078Y333519I3543J-5272D01*
G01*
G75*
G02*
X779130Y328486I6124J-5033D01*
G01*
G75*
G02*
X765078Y323453I-7927J0D01*
G01*
G75*
G02*
X757659Y323214I-3876J5033D01*
G01*
Y313242D01*
X782463D01*
X794667Y325447D01*
X890337D01*
X894274Y329384D01*
Y349856D01*
X890730Y353400D01*
X882746D01*
G75*
G02*
X879313Y337087I-3433J-7795D01*
G01*
G75*
G02*
X875880Y353400I0J8518D01*
G01*
X873801D01*
X850179Y377022D01*
X806872D01*
X793880Y390014D01*
Y401037D01*
X765533Y429384D01*
X736400D01*
X693093Y472691D01*
Y504163D01*
G75*
G02*
X684220Y509994I-2520J5831D01*
G01*
G75*
G02*
X693093Y515825I6352J0D01*
G01*
Y522297D01*
X686006Y529384D01*
X674982D01*
X664352Y518754D01*
X751307Y405130D02*
G75*
G02*
X773461I11077J0D01*
G01*
G75*
G02*
X751307I-11077J0D01*
G01*
X766071Y369148D02*
G75*
G02*
X780744I7337J0D01*
G01*
G75*
G02*
X766071I-7337J0D01*
G01*
X716259Y395163D02*
G75*
G02*
X730311Y390130I6124J-5033D01*
G01*
G75*
G02*
X716259Y385097I-7927J0D01*
G01*
G75*
G02*
X708508I-3876J5033D01*
G01*
G75*
G02*
X694457Y390130I-6124J5033D01*
G01*
G75*
G02*
X708508Y395163I7927J0D01*
G01*
G75*
G02*
X716259I3876J-5033D01*
G01*
X727094Y369148D02*
G75*
G02*
X741768I7337J0D01*
G01*
G75*
G02*
X727094I-7337J0D01*
G01*
X694850Y420130D02*
G75*
G02*
X709917I7533J0D01*
G01*
G75*
G02*
X694850I-7533J0D01*
G01*
X713276D02*
G75*
G02*
X731492I9108J0D01*
G01*
G75*
G02*
X713276I-9108J0D01*
G01*
X687187Y369148D02*
G36*
X687187Y369148D02*
Y358124D01*
X698998Y346313D01*
X751754D01*
X757659Y340407D01*
Y333759D01*
G75*
G02*
X765078Y333519I3543J-5272D01*
G01*
G75*
G02*
X779130Y328487I6124J-5033D01*
G01*
Y328486D01*
Y328486D01*
G75*
G02*
X765078Y323453I-7927J0D01*
G01*
G75*
G02*
X757659Y323214I-3876J5033D01*
G01*
Y313492D01*
X782713D01*
X794667Y325447D01*
X890337D01*
X894024Y329134D01*
Y350106D01*
X890730Y353400D01*
X882746D01*
G75*
G02*
X887831Y345604I-3433J-7795D01*
G01*
G75*
G02*
X879313Y337087I-8518J0D01*
G01*
G75*
G02*
X870795Y345604I0J8518D01*
G01*
G75*
G02*
X875880Y353400I8518J0D01*
G01*
X873801D01*
X858053Y369148D01*
X780744D01*
G75*
G02*
X766071I-7337J0D01*
G01*
X741768D01*
G75*
G02*
X727094I-7337J0D01*
G01*
X687187D01*
G37*
Y390130D02*
G36*
X687187Y390130D02*
Y369148D01*
X727094D01*
G75*
G02*
X741768I7337J0D01*
G01*
X766071D01*
G75*
G02*
X780744I7337J0D01*
G01*
X858053D01*
X850179Y377022D01*
X806872D01*
X793880Y390014D01*
Y390130D01*
X730311D01*
Y390130D01*
G75*
G02*
X716259Y385097I-7927J0D01*
G01*
G75*
G02*
X708508I-3876J5033D01*
G01*
G75*
G02*
X694457Y390130I-6124J5033D01*
G01*
Y390130D01*
X687187D01*
G37*
Y395919D02*
G36*
X687187Y395919D02*
Y390130D01*
X694457D01*
Y390131D01*
G75*
G02*
X708508Y395163I7927J0D01*
G01*
G75*
G02*
X716259I3876J-5033D01*
G01*
G75*
G02*
X730311Y390131I6124J-5033D01*
G01*
Y390130D01*
X793880D01*
Y401037D01*
X789787Y405130D01*
X773461D01*
G75*
G02*
X751307I-11077J0D01*
G01*
X677976D01*
X687187Y395919D01*
G37*
X664602Y420130D02*
G36*
X664602Y420130D02*
Y418504D01*
X669426Y413681D01*
G75*
G02*
X670934Y412172I-7041J-8549D01*
G01*
X677976Y405130D01*
X751307D01*
G75*
G02*
X773461I11077J0D01*
G01*
X789787D01*
X774787Y420130D01*
X731492D01*
G75*
G02*
X713276I-9108J0D01*
G01*
X709917D01*
G75*
G02*
X694850I-7533J0D01*
G01*
X664602D01*
G37*
Y519004D02*
G36*
X664602Y519004D02*
Y420130D01*
X694850D01*
G75*
G02*
X709917I7533J0D01*
G01*
X713276D01*
G75*
G02*
X731492I9108J0D01*
G01*
X774787D01*
X765533Y429384D01*
X736400D01*
X693093Y472691D01*
Y504163D01*
G75*
G02*
X684220Y509994I-2520J5831D01*
G01*
G75*
G02*
X693093Y515825I6352J0D01*
G01*
Y522297D01*
X686256Y529134D01*
X674732D01*
X664602Y519004D01*
G37*
X687187Y325841D02*
Y297494D01*
X702935Y281746D01*
X731281D01*
X739156Y289620D01*
Y293966D01*
G75*
G02*
X744900Y308751I7047J5770D01*
G01*
X751110Y314961D01*
Y322135D01*
G75*
G02*
X744850Y328486I93J6352D01*
G01*
G75*
G02*
X753128Y334540I6352J0D01*
G01*
G75*
G02*
X753222Y334665I8056J-6046D01*
G01*
Y337758D01*
X749392Y341589D01*
X702935D01*
X687187Y325841D01*
X722059Y308287D02*
G75*
G02*
X735705Y299736I4144J-8551D01*
G01*
G75*
G02*
X716701I-9502J0D01*
G01*
G75*
G02*
X716774Y300913I9504J-1D01*
G01*
G75*
G02*
X700126Y310486I-5571J9574D01*
G01*
G75*
G02*
X722280I11077J0D01*
G01*
G75*
G02*
X722059Y308287I-11078J0D01*
G01*
X687437Y305898D02*
G36*
X687437Y305898D02*
Y297244D01*
X702685Y281996D01*
X731531D01*
X739156Y289620D01*
Y293966D01*
G75*
G02*
X737094Y299736I7047J5771D01*
G01*
G75*
G02*
X739495Y305898I9108J0D01*
G01*
X733435D01*
G75*
G02*
X735705Y299736I-7233J-6163D01*
G01*
G75*
G02*
X716701I-9502J0D01*
G01*
G75*
G02*
X716774Y300913I9578J-6D01*
G01*
G75*
G02*
X701121Y305898I-5571J9574D01*
G01*
X687437D01*
G37*
Y326091D02*
G36*
X687437Y326091D02*
Y305898D01*
X701121D01*
G75*
G02*
X700126Y310486I10082J4588D01*
G01*
G75*
G02*
X722280I11077J0D01*
G01*
G75*
G02*
Y310483I-11279J-1D01*
G01*
G75*
G02*
X722059Y308287I-11052J0D01*
G01*
G75*
G02*
X733435Y305898I4144J-8551D01*
G01*
X739495D01*
G75*
G02*
X744900Y308751I6707J-6162D01*
G01*
X751110Y314961D01*
Y322135D01*
G75*
G02*
X744850Y328486I92J6351D01*
G01*
Y328486D01*
G75*
G02*
X752972Y334587I6352J0D01*
G01*
Y338008D01*
X749642Y341339D01*
X702685D01*
X687437Y326091D01*
G37*
X699498Y503733D02*
Y475734D01*
X739156Y436077D01*
X769077D01*
X800573Y404581D01*
Y393557D01*
X810415Y383715D01*
X860809D01*
X866715Y377809D01*
X875880D01*
G75*
G02*
X879313Y394122I3433J7795D01*
G01*
G75*
G02*
X882746Y377809I0J-8518D01*
G01*
X890337D01*
X894274Y381746D01*
Y407337D01*
X890337Y411274D01*
X848998D01*
X837187Y423085D01*
Y447888D01*
X819470Y465604D01*
X814352D01*
X793093Y486864D01*
Y493163D01*
X756872Y529384D01*
X704904D01*
X699319Y523800D01*
G75*
G02*
X699498Y522297I-6227J-1503D01*
G01*
Y516255D01*
G75*
G02*
X702694Y515982I1075J-6260D01*
G01*
G75*
G02*
X720469Y509994I7879J-5988D01*
G01*
G75*
G02*
X702694Y504006I-9896J0D01*
G01*
G75*
G02*
X699498Y503733I-2121J5987D01*
G01*
X808591Y406943D02*
G75*
G02*
X829563I10486J0D01*
G01*
G75*
G02*
X808591I-10486J0D01*
G01*
Y436943D02*
G75*
G02*
X829563I10486J0D01*
G01*
G75*
G02*
X808591I-10486J0D01*
G01*
X775520Y441982D02*
G75*
G02*
X794130I9305J0D01*
G01*
G75*
G02*
X775520I-9305J0D01*
G01*
X737528Y497494D02*
G75*
G02*
X763618I13045J0D01*
G01*
G75*
G02*
X737528I-13045J0D01*
G01*
X800573Y404581D02*
G36*
X800573Y404581D02*
Y393557D01*
X810415Y383715D01*
X860809D01*
X866465Y378059D01*
X875361D01*
G75*
G02*
X870795Y385604I3953J7545D01*
G01*
G75*
G02*
X879313Y394122I8518J0D01*
G01*
G75*
G02*
X887831Y385604I0J-8518D01*
G01*
G75*
G02*
X883265Y378059I-8518J0D01*
G01*
X890587D01*
X894024Y381496D01*
Y406943D01*
X829563D01*
G75*
G02*
X808591I-10486J0D01*
G01*
X798211D01*
X800573Y404581D01*
G37*
X738289Y436943D02*
G36*
X738289Y436943D02*
X739156Y436077D01*
X769077D01*
X798211Y406943D01*
X808591D01*
G75*
G02*
X829563I10486J0D01*
G01*
X894024D01*
Y407587D01*
X890337Y411274D01*
X848998D01*
X837187Y423085D01*
Y436943D01*
X829563D01*
G75*
G02*
X808591I-10486J0D01*
G01*
X792647D01*
G75*
G02*
X777002I-7822J5039D01*
G01*
X738289D01*
G37*
X699569Y497494D02*
G36*
X699569Y497494D02*
Y475663D01*
X738289Y436943D01*
X777002D01*
G75*
G02*
X775520Y441982I7822J5039D01*
G01*
G75*
G02*
X794130I9305J0D01*
G01*
G75*
G02*
X792647Y436943I-9305J0D01*
G01*
X808591D01*
G75*
G02*
X829563I10486J0D01*
G01*
X837187D01*
Y447888D01*
X819470Y465604D01*
X814352D01*
X793093Y486864D01*
Y493163D01*
X788762Y497494D01*
X763618D01*
G75*
G02*
X737528I-13045J0D01*
G01*
X699569D01*
G37*
Y503722D02*
G36*
X699569Y503722D02*
Y497494D01*
X737528D01*
G75*
G02*
X763618I13045J0D01*
G01*
X788762D01*
X757122Y529134D01*
X704654D01*
X699569Y524050D01*
Y516267D01*
G75*
G02*
X702694Y515982I1004J-6277D01*
G01*
G75*
G02*
X720469Y509994I7879J-5988D01*
G01*
G75*
G02*
X702694Y504006I-9896J0D01*
G01*
G75*
G02*
X699569Y503722I-2121J5993D01*
G01*
G37*
X745455Y142928D02*
Y127415D01*
X749785Y123085D01*
X768170D01*
G75*
G02*
X770652Y123585I2481J-5906D01*
G01*
X839443D01*
Y243057D01*
X770652D01*
G75*
G02*
X764246Y249463I0J6406D01*
G01*
G75*
G02*
X770652Y255868I6406J0D01*
G01*
X843880D01*
G75*
G02*
X845210Y255762I0J-8374D01*
G01*
X855297D01*
X859234Y259699D01*
Y316785D01*
X855297Y320722D01*
X815435D01*
G75*
G02*
X822280Y310486I-4233J-10236D01*
G01*
G75*
G02*
X805631Y300913I-11077J0D01*
G01*
G75*
G02*
X805705Y299736I-9431J-1178D01*
G01*
G75*
G02*
X786701I-9502J0D01*
G01*
G75*
G02*
X800346Y308287I9502J0D01*
G01*
G75*
G02*
X806970Y320722I10856J2199D01*
G01*
X796636D01*
X785612Y309699D01*
Y295919D01*
X745455Y255762D01*
Y193792D01*
G75*
G02*
Y182298I-1575J-5747D01*
G01*
Y154422D01*
G75*
G02*
Y142928I-1575J-5747D01*
G01*
X757213Y232140D02*
G75*
G02*
X769130I5959J0D01*
G01*
G75*
G02*
X757213I-5959J0D01*
G01*
X780835Y156156D02*
G75*
G02*
X792752I5959J0D01*
G01*
G75*
G02*
X780835I-5959J0D01*
G01*
Y194738D02*
G75*
G02*
X792752I5959J0D01*
G01*
G75*
G02*
X780835I-5959J0D01*
G01*
X789102Y213636D02*
G75*
G02*
X801020I5959J0D01*
G01*
G75*
G02*
X789102I-5959J0D01*
G01*
X793433Y161667D02*
G75*
G02*
X805350I5959J0D01*
G01*
G75*
G02*
X793433I-5959J0D01*
G01*
X793827Y200250D02*
G75*
G02*
X805744I5959J0D01*
G01*
G75*
G02*
X793827I-5959J0D01*
G01*
X745705Y143003D02*
G36*
X745705Y143003D02*
Y127165D01*
X749535Y123335D01*
X768880D01*
G75*
G02*
X770652Y123585I1773J-6164D01*
G01*
X839443D01*
Y156156D01*
X801656D01*
G75*
G02*
X797128I-2264J5511D01*
G01*
X792752D01*
G75*
G02*
X780835I-5959J0D01*
G01*
X745705D01*
Y154348D01*
G75*
G02*
X749839Y148675I-1825J-5672D01*
G01*
G75*
G02*
X745705Y143003I-5959J0D01*
G01*
G37*
Y182373D02*
G36*
X745705Y182373D02*
Y156156D01*
X780835D01*
G75*
G02*
X792752I5959J0D01*
G01*
X797128D01*
G75*
G02*
X793433Y161667I2264J5512D01*
G01*
G75*
G02*
X805350I5959J0D01*
G01*
G75*
G02*
X801656Y156156I-5959J0D01*
G01*
X839443D01*
Y194738D01*
X802049D01*
G75*
G02*
X797522I-2264J5511D01*
G01*
X792752D01*
G75*
G02*
X780835I-5959J0D01*
G01*
X745705D01*
Y193718D01*
G75*
G02*
X749839Y188045I-1825J-5672D01*
G01*
G75*
G02*
X745705Y182373I-5959J0D01*
G01*
G37*
Y213636D02*
G36*
X745705Y213636D02*
Y194738D01*
X780835D01*
G75*
G02*
X792752I5959J0D01*
G01*
X797522D01*
G75*
G02*
X793827Y200250I2264J5512D01*
G01*
G75*
G02*
X805744I5959J0D01*
G01*
G75*
G02*
X802049Y194738I-5959J0D01*
G01*
X839443D01*
Y213636D01*
X801020D01*
G75*
G02*
X789102I-5959J0D01*
G01*
X745705D01*
G37*
Y232140D02*
G36*
X745705Y232140D02*
Y213636D01*
X789102D01*
G75*
G02*
X801020I5959J0D01*
G01*
X839443D01*
Y232140D01*
X769130D01*
G75*
G02*
X757213I-5959J0D01*
G01*
X745705D01*
G37*
Y256012D02*
G36*
X745705Y256012D02*
Y232140D01*
X757213D01*
G75*
G02*
X769130I5959J0D01*
G01*
X839443D01*
Y243057D01*
X770652D01*
G75*
G02*
X764246Y249462I0J6405D01*
G01*
Y249463D01*
Y249463D01*
G75*
G02*
X770652Y255868I6406J0D01*
G01*
X843880D01*
G75*
G02*
X845210Y255762I-4J-8426D01*
G01*
X855297D01*
X858984Y259449D01*
Y317035D01*
X855547Y320472D01*
X815996D01*
G75*
G02*
X822280Y310487I-4793J-9986D01*
G01*
Y310486D01*
G75*
G02*
X805631Y300913I-11077J0D01*
G01*
G75*
G02*
X805705Y299736I-9505J-1182D01*
G01*
G75*
G02*
X786701I-9502J0D01*
G01*
G75*
G02*
X800346Y308287I9502J0D01*
G01*
G75*
G02*
X800126Y310486I10858J2199D01*
G01*
G75*
G02*
X806410Y320472I11078J0D01*
G01*
X796386D01*
X785612Y309699D01*
Y295919D01*
X745705Y256012D01*
G37*
X799785Y545919D02*
Y489620D01*
X811990Y477415D01*
X833250D01*
X837187Y481352D01*
Y489620D01*
X843486Y495919D01*
X874251D01*
G75*
G02*
X879313Y511287I5062J6850D01*
G01*
G75*
G02*
X884375Y495919I0J-8518D01*
G01*
X890337D01*
X894274Y499856D01*
Y517573D01*
X890337Y521510D01*
X875770D01*
X839943Y557337D01*
X811203D01*
X799785Y545919D01*
X808591Y511943D02*
G75*
G02*
X829563I10486J0D01*
G01*
G75*
G02*
X824147Y502764I-10486J0D01*
G01*
G75*
G02*
X819077Y487402I-5070J-6844D01*
G01*
G75*
G02*
X814007Y502764I0J8518D01*
G01*
G75*
G02*
X808591Y511943I5070J9179D01*
G01*
Y541943D02*
G75*
G02*
X829563I10486J0D01*
G01*
G75*
G02*
X808591I-10486J0D01*
G01*
X800035Y504915D02*
G36*
X800035Y504915D02*
Y489370D01*
X811740Y477665D01*
X833500D01*
X837187Y481352D01*
Y489620D01*
X843486Y495919D01*
X874251D01*
G75*
G02*
X870795Y502770I5062J6850D01*
G01*
G75*
G02*
X871070Y504915I8518J0D01*
G01*
X826860D01*
G75*
G02*
X824147Y502764I-7783J7028D01*
G01*
G75*
G02*
X827594Y495919I-5070J-6844D01*
G01*
G75*
G02*
X819077Y487402I-8518J0D01*
G01*
G75*
G02*
X810559Y495919I0J8518D01*
G01*
G75*
G02*
X814007Y502764I8518J0D01*
G01*
G75*
G02*
X811294Y504915I5070J9180D01*
G01*
X800035D01*
G37*
X887831Y502770D02*
G36*
X887831Y502770D02*
G75*
G02*
X884375Y495919I-8518J0D01*
G01*
X890337D01*
X894024Y499606D01*
Y504915D01*
X887556D01*
G75*
G02*
X887831Y502770I-8244J-2146D01*
G01*
G37*
X800035Y541943D02*
G36*
X800035Y541943D02*
Y504915D01*
X811294D01*
G75*
G02*
X808591Y511943I7783J7028D01*
G01*
G75*
G02*
X829563I10486J0D01*
G01*
G75*
G02*
X826860Y504915I-10487J0D01*
G01*
X871070D01*
G75*
G02*
X879313Y511287I8243J-2146D01*
G01*
G75*
G02*
X887556Y504915I0J-8517D01*
G01*
X894024D01*
Y517823D01*
X890337Y521510D01*
X875770D01*
X855337Y541943D01*
X829563D01*
G75*
G02*
X808591I-10486J0D01*
G01*
X800035D01*
G37*
Y546169D02*
G36*
X800035Y546169D02*
Y541943D01*
X808591D01*
G75*
G02*
X829563I10486J0D01*
G01*
X855337D01*
X840193Y557087D01*
X810953D01*
X800035Y546169D01*
G37*
X843880Y485289D02*
Y440014D01*
X847817Y436077D01*
X875543D01*
G75*
G02*
X879313Y452232I3770J7638D01*
G01*
G75*
G02*
X883083Y436077I0J-8518D01*
G01*
X890337D01*
X894274Y440014D01*
Y485289D01*
X890337Y489226D01*
X884869D01*
G75*
G02*
X879313Y474252I-5556J-6457D01*
G01*
G75*
G02*
X873757Y489226I0J8518D01*
G01*
X847817D01*
X843880Y485289D01*
G36*
X843880Y485289D02*
Y440014D01*
X847817Y436077D01*
X875543D01*
G75*
G02*
X879313Y452232I3770J7638D01*
G01*
G75*
G02*
X883083Y436077I0J-8518D01*
G01*
X890337D01*
X894274Y440014D01*
Y485289D01*
X890337Y489226D01*
X884869D01*
G75*
G02*
X879313Y474252I-5556J-6457D01*
G01*
G75*
G02*
X873757Y489226I0J8518D01*
G01*
X847817D01*
X843880Y485289D01*
G37*
D02*
D11*
X688014Y509994D02*
X683289D01*
X688763Y508184D02*
X685423Y504844D01*
X688763Y511804D02*
X685423Y515144D01*
X690573Y507435D02*
Y502711D01*
Y512553D02*
Y517278D01*
X698644Y420130D02*
X693919D01*
X699739Y417485D02*
X696398Y414145D01*
X699739Y422775D02*
X696398Y426116D01*
X702384Y416390D02*
Y411666D01*
Y423870D02*
Y428595D01*
X705029Y417485D02*
X708369Y414145D01*
X705029Y422775D02*
X708369Y426116D01*
X706124Y420130D02*
X710848D01*
X711405Y387766D02*
X709596Y383401D01*
X711405Y392494D02*
X709596Y396859D01*
X713363Y387766D02*
X715171Y383401D01*
X713363Y392494D02*
X715171Y396859D01*
X720929Y297552D02*
X716564Y295744D01*
X724018Y294462D02*
X722210Y290097D01*
X728387Y294462D02*
X730195Y290097D01*
X728387Y305010D02*
X730195Y309375D01*
X731477Y297552D02*
X735842Y295744D01*
X731477Y301921D02*
X735842Y303729D01*
X748644Y328486D02*
X743919D01*
X749393Y326676D02*
X746053Y323336D01*
X749393Y330296D02*
X746053Y333636D01*
X751203Y331045D02*
Y335770D01*
X761203Y325927D02*
Y321203D01*
Y331045D02*
Y335770D01*
X792166Y295700D02*
X788826Y292359D01*
X792166Y303773D02*
X788826Y307113D01*
X796203Y294028D02*
Y289303D01*
Y305445D02*
Y310169D01*
X800239Y295700D02*
X803580Y292359D01*
X812384Y406943D02*
X807659D01*
X812384Y436943D02*
X807659D01*
X812384Y511943D02*
X807659D01*
X812893Y539381D02*
X808528Y537574D01*
X812893Y544504D02*
X808528Y546312D01*
X814344Y402210D02*
X811004Y398870D01*
X814344Y411676D02*
X811004Y415016D01*
X814344Y432210D02*
X811004Y428870D01*
X814344Y441676D02*
X811004Y445016D01*
X814344Y507210D02*
X811004Y503870D01*
X814344Y516676D02*
X811004Y520016D01*
X814352Y495919D02*
X809628D01*
X815736Y492578D02*
X812395Y489238D01*
X815736Y499260D02*
X812395Y502601D01*
X816516Y535759D02*
X814708Y531394D01*
X816516Y548126D02*
X814708Y552491D01*
X819077Y400250D02*
Y395526D01*
Y413636D02*
Y418360D01*
Y430250D02*
Y425526D01*
Y443636D02*
Y448360D01*
Y491195D02*
Y486470D01*
Y518636D02*
Y523360D01*
X821638Y535759D02*
X823446Y531394D01*
X821638Y548126D02*
X823446Y552491D01*
X822418Y492578D02*
X825758Y489238D01*
X822418Y499260D02*
X825758Y502601D01*
X823801Y495919D02*
X828526D01*
X823809Y402210D02*
X827150Y398870D01*
X823809Y411676D02*
X827150Y415016D01*
X823809Y432210D02*
X827150Y428870D01*
X823809Y441676D02*
X827150Y445016D01*
X823809Y507210D02*
X827150Y503870D01*
X823809Y516676D02*
X827150Y520016D01*
X825260Y539381D02*
X829625Y537574D01*
X825260Y544504D02*
X829625Y546312D01*
X825770Y406943D02*
X830494D01*
X825770Y436943D02*
X830494D01*
X825770Y511943D02*
X830494D01*
X874589Y345604D02*
X869864D01*
X874589Y385604D02*
X869864D01*
X874589Y443715D02*
X869864D01*
X874948Y480962D02*
X870583Y479154D01*
X874948Y484578D02*
X870583Y486385D01*
X874948Y500962D02*
X870583Y499154D01*
X874948Y504578D02*
X870583Y506385D01*
X875972Y342263D02*
X872631Y338923D01*
X875972Y348945D02*
X872631Y352286D01*
X875972Y382263D02*
X872631Y378923D01*
X875972Y388945D02*
X872631Y392286D01*
X875972Y440374D02*
X872631Y437033D01*
X875972Y447056D02*
X872631Y450396D01*
X877505Y478405D02*
X875697Y474040D01*
X877505Y507134D02*
X875697Y511499D01*
X879313Y340880D02*
Y336156D01*
Y390329D02*
Y395053D01*
Y448439D02*
Y453163D01*
X881121Y478405D02*
X882929Y474040D01*
X881121Y507135D02*
X882929Y511500D01*
X882654Y342263D02*
X885994Y338923D01*
X882654Y348945D02*
X885994Y352286D01*
X882654Y382263D02*
X885994Y378923D01*
X882654Y388945D02*
X885994Y392286D01*
X882654Y440374D02*
X885994Y437033D01*
X882654Y447056D02*
X885994Y450396D01*
X883678Y480962D02*
X888043Y479154D01*
X883678Y484578D02*
X888043Y486386D01*
X883678Y500962D02*
X888043Y499154D01*
X883678Y504578D02*
X888043Y506386D01*
X884037Y345604D02*
X888762D01*
X884037Y385604D02*
X888762D01*
X884037Y443715D02*
X888762D01*
D02*
D12*
X276163Y277809D02*
X242305D01*
Y334896D01*
X258053Y350644D01*
Y391982D01*
X437187Y188439D02*
X435219Y186470D01*
X428919D01*
X423407Y191982D01*
Y192770D01*
X478427Y414817D02*
X478152D01*
X468289Y404955D01*
Y391982D01*
X567010Y414817D02*
X566715D01*
X556872Y404974D01*
Y391982D01*
X580888Y55368D02*
Y28990D01*
X579313Y27415D01*
X571833D01*
X585612Y53400D02*
Y25841D01*
X591124Y20329D01*
X630297D01*
X585612Y60093D02*
X565140D01*
X564549Y60683D01*
X585612Y60093D02*
Y53400D01*
X610022Y217179D02*
Y229384D01*
X637581Y60093D02*
X585612D01*
X637974Y20329D02*
Y18754D01*
X634825Y15604D01*
X583644D01*
X571833Y27415D01*
X678132Y369148D02*
X694274D01*
X715927Y133695D02*
X716321D01*
X716715D01*
X715927Y138695D02*
X716321D01*
X716715D01*
X715927Y143695D02*
X716321D01*
X715927Y148695D02*
X716321D01*
X716715D01*
X715927Y173065D02*
X716321D01*
X716715D01*
X715927Y178065D02*
X716321D01*
X716715D01*
X715927Y183065D02*
X716321D01*
X715927Y188065D02*
X716321D01*
X715927Y212435D02*
Y227435D02*
X717108Y290378D02*
X705327D01*
X698211Y297494D01*
Y317179D01*
X706085Y325053D01*
X741518D01*
X735299Y308992D02*
X741518Y315211D01*
Y325053D01*
Y325093D01*
D02*
D13*
X122226Y42927D02*
X118683D01*
X123570Y41122D02*
X120993Y38544D01*
X123570Y44733D02*
X120993Y47311D01*
X125376Y41156D02*
Y37612D01*
X127181Y41122D02*
X129759Y38544D01*
X127181Y44733D02*
X129759Y47311D01*
X128526Y42927D02*
X132069D01*
X135730Y326274D02*
Y329817D01*
X147423Y42927D02*
X143880D01*
X148767Y41122D02*
X146189Y38544D01*
X148767Y44733D02*
X146189Y47311D01*
X150573Y41156D02*
Y37612D01*
X152378Y41122D02*
X154956Y38544D01*
X152378Y44733D02*
X154956Y47311D01*
X153722Y42927D02*
X157266D01*
X167170Y170351D02*
X164665Y167846D01*
X168841Y169659D02*
Y166116D01*
X169470Y42927D02*
X165927D01*
X170511Y170351D02*
X173017Y167846D01*
X170511Y173692D02*
X173017Y176198D01*
X170815Y41122D02*
X168237Y38544D01*
X170815Y44733D02*
X168237Y47311D01*
X171203Y172022D02*
X174746D01*
X172620Y41156D02*
Y37612D01*
X174426Y41122D02*
X177004Y38544D01*
X174426Y44733D02*
X177004Y47311D01*
X175770Y42927D02*
X179313D01*
D02*
D14*
X274982Y339620D02*
Y340014D01*
X315337Y22691D02*
Y32533D01*
X265927D01*
X320258Y339620D02*
Y341982D01*
X371833Y41589D02*
X362778Y32533D01*
X315337D01*
X586931Y485289D02*
Y479778D01*
D02*
D15*
X87974Y284108D02*
X95848D01*
Y289226D01*
Y299463D01*
Y309699D01*
Y319935D01*
Y330171D01*
Y336470D01*
X135730D01*
X102935Y277415D02*
Y284108D01*
X87974D01*
X109234Y216785D02*
Y249069D01*
X87974D01*
Y284108D01*
X109234Y216785D02*
Y163636D01*
X122226D01*
Y145132D02*
Y163636D01*
X162778D01*
X123801Y135683D02*
Y145132D01*
X122226D01*
X124589Y262061D02*
Y284108D01*
X102935D01*
X125376Y42927D02*
X150573D01*
X135730Y325191D02*
Y336470D01*
X170652D01*
X150573Y42927D02*
X162778D01*
X153722Y216785D02*
X109234D01*
X161203Y290801D02*
Y315211D01*
X170652D01*
Y318754D01*
X162778Y42927D02*
X172620D01*
X162778Y163636D02*
Y42927D01*
Y163636D02*
X168841D01*
Y172022D02*
Y163636D01*
X170652Y318754D02*
Y336470D01*
X172226D01*
Y353006D01*
Y383321D01*
X180100Y171510D02*
Y163636D01*
X168841D01*
X184431Y395132D02*
Y383321D01*
X172226D01*
X184431Y433715D02*
Y395132D01*
X188762Y255762D02*
Y333321D01*
Y353006D01*
X172226D01*
X190337Y37652D02*
Y42927D01*
X172620D01*
X200179Y353006D02*
X188762D01*
X208447Y333321D02*
X188762D01*
X212384Y37652D02*
Y42927D01*
X190337D01*
X219470Y333321D02*
X208447D01*
X265927Y32533D02*
Y93163D01*
Y109305D01*
X276163Y272297D02*
Y247888D01*
X291124D01*
Y247652D01*
X276163Y272297D02*
Y235683D01*
X280100D01*
Y199069D01*
X278919Y156943D02*
X286793D01*
Y157337D01*
X294923D01*
X278919Y156943D02*
Y135289D01*
X265927D01*
Y109305D01*
X280100Y199069D02*
X294667D01*
Y198675D01*
X309234D01*
X280100Y199069D02*
Y178203D01*
X278919D01*
Y156943D01*
X294923Y157337D02*
X317896D01*
Y149069D01*
X329707D01*
X294923Y157337D02*
Y146313D01*
X297817Y272297D02*
Y266392D01*
X352541D01*
Y179384D01*
X304510Y178990D02*
X320258D01*
Y183321D01*
X309234Y198675D02*
Y204581D01*
X304510D01*
X309234Y198675D02*
X320258D01*
X315533Y208124D02*
X320258D01*
Y198675D01*
Y183321D01*
X332069Y269935D02*
Y266785D01*
X297817D01*
X340337Y119935D02*
Y109699D01*
X289549D01*
X343486Y119935D02*
X340337D01*
X352541Y179384D02*
Y119935D01*
X340337D01*
X694274Y369148D02*
X712384D01*
X700573Y502612D02*
X723801Y479384D01*
X764352D01*
X700573Y520329D02*
X764352D01*
Y479384D01*
X702384Y420130D02*
Y420329D01*
X690573D01*
Y509994D01*
X702384Y420130D02*
Y404187D01*
X712384D01*
X761203Y360486D02*
X712384D01*
X764352Y479384D02*
Y456943D01*
X819077D01*
Y436943D01*
X796242Y281746D02*
X780100D01*
X755691Y257337D01*
Y239226D01*
X772226D01*
X780100Y231352D01*
X805297D01*
X819077Y406943D02*
Y436943D01*
Y511943D02*
Y495919D01*
Y525841D02*
Y511943D01*
Y541943D02*
Y525841D01*
X879313Y345604D02*
X860022D01*
Y345526D01*
X817896D01*
X779313Y384108D01*
X743093D01*
Y404187D01*
X712384D01*
X879313Y385604D02*
X819077D01*
Y406943D01*
X879313Y515211D02*
X852935D01*
Y525841D01*
X819077D01*
D02*
D16*
X690573Y509994D03*
X700573D03*
X702384Y390130D03*
X710573Y509994D03*
X712384Y360486D02*
Y369148D01*
Y390130D01*
D03*
Y404187D02*
Y390130D01*
X722384D03*
X726203Y299736D02*
X726193Y299463D01*
X717108Y290378D01*
X726203Y299736D02*
Y300250D01*
X726557D01*
X735299Y308992D01*
X741518Y325093D02*
X746242D01*
Y325053D01*
X751203Y328486D01*
D03*
X761203D03*
Y360486D01*
Y328486D02*
Y288439D01*
X771203Y328486D03*
X796203Y299736D02*
Y311667D01*
X796242D01*
Y312455D01*
X796203Y299736D02*
Y287652D01*
X796242D01*
Y281746D01*
D02*
D17*
X62384Y374266D03*
X69470Y250250D03*
X70652Y430565D03*
X75376Y206943D03*
X77738Y284502D03*
Y395132D03*
X82856Y368754D03*
X85219Y225841D03*
X93880Y224659D03*
Y236864D03*
X94667Y200250D03*
X95848Y289226D03*
Y299463D03*
Y309699D03*
Y319935D03*
Y330171D03*
X97423Y135683D03*
X97522Y423478D03*
X100573Y145132D03*
X102935Y262061D03*
Y277415D03*
X107266Y375053D03*
X113959Y255762D03*
X122226Y145132D03*
X122620Y460093D03*
X123801Y135683D03*
X124589Y262061D03*
X126557Y257337D03*
X127344Y232140D03*
Y299463D03*
X130100Y448281D03*
X130494Y307730D03*
X132069Y227022D03*
X140730Y307730D03*
X142699Y141982D03*
Y151431D03*
X143093Y199069D03*
X143486Y263242D03*
Y268754D03*
Y274266D03*
X143880Y427415D03*
X145848Y433715D03*
X145868Y314817D03*
X146636Y203400D03*
X147030Y146707D03*
Y156156D03*
X147817Y257730D03*
X149785Y208124D03*
X152148Y242376D03*
X153722Y216785D03*
X156085Y291982D03*
X158053Y251825D03*
Y258518D03*
X159628Y274266D03*
X161203Y290801D03*
X162384Y216785D03*
X167915Y242376D03*
X170652Y311274D03*
Y318754D03*
X171833Y305762D03*
X172226Y383321D03*
Y391982D03*
X174982Y221904D03*
Y228203D03*
X175376Y258911D03*
X176951Y137258D03*
Y146707D03*
Y156156D03*
X181281Y132533D03*
Y141982D03*
Y151431D03*
X184431Y395132D03*
Y433715D03*
X186400Y214817D03*
X186793Y225053D03*
X188762Y255762D03*
X190337Y37652D03*
X190730Y56156D03*
X194274Y265998D03*
X199785Y301037D03*
X200179Y353006D03*
Y358518D03*
Y364030D03*
X206872Y225053D03*
X207266Y215211D03*
X208447Y311274D03*
Y333321D03*
X209234Y258911D03*
X212384Y37652D03*
X212778Y56156D03*
X214746Y140801D03*
X216321Y285683D03*
Y291195D03*
X219470Y305762D03*
Y333321D03*
X219864Y144738D03*
X221045Y284108D03*
Y352612D03*
Y377809D03*
X223407Y217179D03*
X223801Y343951D03*
X224982Y148675D03*
X225770Y365211D03*
X234037Y280959D03*
X248604Y377809D03*
X250179Y272297D03*
X253722Y256156D03*
X254904Y162455D03*
Y173085D03*
Y178990D03*
X258053Y391982D03*
X258841Y306549D03*
X259628Y203793D03*
X261990Y225053D03*
X265927Y109305D03*
X270258Y203793D03*
X274057Y306549D03*
X274195Y103006D03*
X274982Y333715D03*
Y339620D03*
Y345526D03*
X275770Y202219D03*
X276163Y266785D03*
Y272297D03*
Y277809D03*
X279057Y306549D03*
X280100Y402612D03*
X283250Y169148D03*
X284037Y286470D03*
X286400Y256549D03*
X289156Y373085D03*
Y378203D03*
X289549Y109699D03*
Y146313D03*
X291124Y237652D03*
Y247652D03*
X294274Y306549D03*
X294923Y146313D03*
X297817Y266785D03*
Y272297D03*
Y277809D03*
X298211Y23478D03*
Y402612D03*
X300967Y189226D03*
X301360Y152219D03*
X302935Y71116D03*
X304116Y195132D03*
X304510Y178990D03*
Y186077D03*
Y204581D03*
Y223872D03*
X304904Y146313D03*
X307659Y93163D03*
X308053Y22691D03*
X310809Y162848D03*
Y501037D03*
Y553400D03*
X312384Y146313D03*
X315337Y22691D03*
X315533Y191982D03*
Y208124D03*
Y218360D03*
X319470Y286470D03*
X320258Y99463D03*
Y162848D03*
Y183321D03*
Y333715D03*
Y339620D03*
Y345526D03*
Y362848D03*
X321045Y56943D03*
X321833Y27415D03*
Y218360D03*
X323407Y327022D03*
X323801Y159305D03*
X324195Y272297D03*
X326557Y72297D03*
X326951Y99463D03*
X327344Y378596D03*
Y395722D03*
Y404581D03*
X328919Y201825D03*
X329707Y149069D03*
X332069Y256963D03*
Y269935D03*
X333644Y230959D03*
X343486Y119935D03*
X345455Y260900D03*
X345848Y127022D03*
Y145132D03*
X347817Y378596D03*
X351360Y47888D03*
X352541Y64423D03*
X365927Y405762D03*
X367502Y362455D03*
X367896Y461274D03*
X371833Y41589D03*
X378526Y414817D03*
X378919Y62848D03*
X381675Y58124D03*
X382069Y204581D03*
X386793Y82533D03*
X392699Y122297D03*
X398604Y146313D03*
X398998Y373872D03*
X402541Y388833D03*
X405691Y139226D03*
X415140Y397494D03*
Y422691D03*
X417502Y348281D03*
Y503006D03*
X421045Y327415D03*
X421439Y58518D03*
X422620Y273478D03*
Y295919D03*
X423407Y192770D03*
X430100Y512455D03*
X430494Y192770D03*
X432463Y123872D03*
Y333715D03*
X434411Y479384D03*
X434963Y228203D03*
X437187Y188439D03*
X439963Y228203D03*
X441518Y192770D03*
X441911Y323478D03*
X442305Y123872D03*
X442640Y286077D03*
X447640Y320722D03*
X449392Y123872D03*
X450179Y262455D03*
X450573Y100644D03*
X451754Y338439D03*
X454116Y484108D03*
X454904Y468754D03*
X459628Y262455D03*
X460415Y524266D03*
X461203Y100644D03*
X463565Y237258D03*
X465927Y490407D03*
X468289Y391982D03*
X469077Y262455D03*
X469864Y222691D03*
X474195Y428596D03*
X475770Y391982D03*
X476163Y529778D03*
X478427Y414817D03*
X478526Y262455D03*
X483250Y477022D03*
X483644Y440407D03*
X491518Y128596D03*
X492699Y116785D03*
X493486Y197100D03*
X494667Y167179D03*
Y172297D03*
X496242Y290801D03*
X497030Y80171D03*
X497817Y212061D03*
X503329D03*
X505691Y503793D03*
X510415Y80171D03*
X512778Y235289D03*
Y267179D03*
Y286470D03*
X518289Y27415D03*
Y512455D03*
X523407Y216392D03*
X529707D03*
X530494Y132927D03*
X535612Y136864D03*
X538762Y19541D03*
Y188045D03*
X543486Y55762D03*
Y484108D03*
X543880Y291589D03*
X548191Y142376D03*
X550573Y282533D03*
X551360Y27415D03*
X553329Y156549D03*
Y181589D03*
X553722Y94344D03*
Y469935D03*
X555829Y271116D03*
X556085Y493951D03*
X556478Y68754D03*
X556872Y391982D03*
X557266Y59699D03*
X558841Y501825D03*
X559234Y76234D03*
X562581Y429187D03*
X563171Y278596D03*
X564746Y391982D03*
X567010Y414817D03*
X569864Y71116D03*
X571439Y483321D03*
X571833Y27415D03*
Y53400D03*
X573014Y440801D03*
X573407Y327022D03*
X574982Y515211D03*
X580888Y55368D03*
Y478596D03*
X581931Y514817D03*
X582069Y314423D03*
X586931Y479778D03*
Y501825D03*
X587974Y218754D03*
X590730Y362848D03*
X591911Y236864D03*
X597817Y282533D03*
X599392Y350250D03*
X600573Y203793D03*
X600967Y314817D03*
X602541Y495526D03*
X608053Y351037D03*
X610022Y217179D03*
X611990Y318360D03*
X613171Y97494D03*
X613959Y75841D03*
X614746Y65604D03*
X615927Y109305D03*
X618289Y351037D03*
X618683Y70329D03*
Y95526D03*
X620258Y375447D03*
X622620Y88439D03*
X624195Y193557D03*
Y199069D03*
Y204581D03*
X626163Y187258D03*
X626951Y250250D03*
Y289226D03*
X630297Y20329D03*
X634037Y249856D03*
Y289226D03*
X637581Y60093D03*
X637974Y20329D03*
X645061Y82140D03*
Y334108D03*
X647030Y214817D03*
X661596Y224659D03*
X669077Y152612D03*
Y188045D03*
X670258Y242376D03*
X670652Y68360D03*
X671439Y78990D03*
X675376Y210093D03*
X678132Y369148D03*
X683250Y238045D03*
X689156Y241589D03*
X697030Y232140D03*
X700179Y151431D03*
Y161667D03*
Y186864D03*
Y200250D03*
X703722Y213636D03*
X713565Y254187D03*
X715927Y133695D03*
Y138695D03*
Y143695D03*
Y148695D03*
Y173065D03*
Y178065D03*
Y183065D03*
Y188065D03*
Y212435D03*
Y217179D03*
Y222297D03*
Y227435D03*
Y249856D03*
Y258124D03*
X718289Y254187D03*
X743880Y148675D03*
Y188045D03*
X763171Y232140D03*
X786793Y156156D03*
Y194738D03*
X795061Y213636D03*
X799392Y161667D03*
X799785Y200250D03*
X805297Y231352D03*
Y236077D03*
Y240801D03*
X822226Y134108D03*
Y138833D03*
Y143557D03*
Y173085D03*
Y177809D03*
Y182533D03*
D02*
D18*
X18250Y221116D03*
X28250D03*
X38250D03*
X48250D03*
X87187Y512455D03*
X113959Y507730D03*
X148841Y172022D03*
Y182022D03*
X158841Y172022D03*
Y182022D03*
X168841Y172022D03*
Y182022D03*
X180100Y171510D03*
X184037Y488833D03*
X191124Y462061D03*
Y538715D03*
X192305Y377691D03*
X204510Y544738D03*
X207659Y445132D03*
X249392Y362061D03*
X249510Y324659D03*
X253329Y333715D03*
X258959Y244344D03*
X284825Y440014D03*
Y448675D03*
X294274Y362061D03*
X298604Y333715D03*
X332069Y286352D03*
Y447494D03*
X336006Y296707D03*
X341124Y353400D03*
X345337Y329778D03*
X352541Y179384D03*
X356085Y519541D03*
X357659Y459699D03*
X362384Y128203D03*
Y154974D03*
X365533Y51431D03*
X371045Y73085D03*
X372226Y127809D03*
X383644Y296707D03*
X393880Y154974D03*
Y179384D03*
X395848Y548557D03*
X510415Y176354D03*
Y186354D03*
X590455Y534502D03*
X593209Y432140D03*
X603209D03*
X694274Y369148D03*
X734431D03*
X773407D03*
X784825Y441982D03*
X796242Y281746D03*
Y312455D03*
X849785Y473085D03*
X852541Y281746D03*
Y312455D03*
D02*
D19*
X36793Y31746D03*
Y307337D03*
Y539620D03*
X213959Y189226D03*
X371439Y539620D03*
X391124Y267967D03*
X430494Y31746D03*
X623407Y130565D03*
Y406156D03*
X883250Y31746D03*
Y307337D03*
Y539620D03*
D02*
D70*
X40730Y474502D03*
Y494502D03*
X61990Y482533D03*
X150967D03*
X761203Y288439D02*
X741911Y269148D01*
X724982D01*
X715927Y260093D01*
Y258124D01*
X819077Y495919D03*
X879313Y345604D03*
Y365604D03*
Y385604D03*
Y423715D03*
Y443715D03*
Y482770D03*
Y502770D03*
D02*
D71*
X213644Y399069D03*
X223644D03*
X233644D03*
D02*
D20*
X78250Y294423D03*
Y304423D03*
Y314423D03*
Y324423D03*
Y334423D03*
X88250Y294423D03*
Y304423D03*
Y314423D03*
Y324423D03*
Y334423D03*
X220297Y480959D03*
Y533715D03*
X230297Y480959D03*
Y533715D03*
X240297Y480959D03*
Y533715D03*
X260297Y480959D03*
Y533715D03*
X270297Y480959D03*
Y533715D03*
X280297Y480959D03*
Y533715D03*
X290297Y480959D03*
Y533715D03*
D02*
D21*
X36793Y353596D03*
Y363439D03*
Y373281D03*
Y383124D03*
Y410683D03*
Y420526D03*
Y430368D03*
Y440211D03*
X887187Y61274D03*
Y75053D03*
Y88833D03*
D02*
D22*
X819077Y406943D03*
Y436943D03*
Y511943D03*
Y541943D03*
D02*
D23*
X650573Y497494D03*
X662384Y405130D03*
X711203Y310486D03*
X726203Y299736D03*
X750573Y497494D03*
X762384Y405130D03*
X796203Y299736D03*
X811203Y310486D03*
D02*
D24*
X702384Y420130D03*
X722384D03*
X746203Y299736D03*
X776203D03*
D02*
D25*
X48211Y167415D03*
Y187415D03*
X56872Y167415D03*
Y187415D03*
X65533Y167415D03*
Y187415D03*
X78132Y167415D03*
Y187415D03*
X565927Y111510D03*
Y131510D03*
X574589Y111510D03*
Y131510D03*
X583250Y111510D03*
Y131510D03*
X595848Y111510D03*
Y131510D03*
X677344Y26077D03*
Y46077D03*
X685848Y77415D03*
Y86077D03*
Y94738D03*
Y107337D03*
X689943Y26077D03*
Y46077D03*
X698604Y26077D03*
Y46077D03*
X705848Y77415D03*
Y86077D03*
Y94738D03*
Y107337D03*
X707266Y26077D03*
Y46077D03*
D02*
D26*
X130730Y320191D03*
Y325191D03*
X135730Y320191D03*
Y325191D03*
X140730Y320191D03*
Y325191D03*
X145730Y320191D03*
Y325191D03*
X150730Y320191D03*
Y325191D03*
D02*
D27*
X32856Y173281D03*
Y187061D03*
X887187Y232337D03*
Y246116D03*
D02*
D28*
X125376Y42927D03*
Y52927D03*
Y62927D03*
Y72927D03*
Y82927D03*
Y92927D03*
Y102927D03*
Y112927D03*
X150573Y42927D03*
Y52927D03*
Y62927D03*
Y72927D03*
Y82927D03*
Y92927D03*
Y102927D03*
Y112927D03*
Y122927D03*
X172620Y42927D03*
Y52927D03*
Y62927D03*
Y72927D03*
Y82927D03*
Y92927D03*
Y102927D03*
Y112927D03*
Y122927D03*
D02*
D29*
X271833Y346313D02*
Y332927D01*
X278526D01*
Y346313D01*
X271833D01*
G36*
X271833Y346313D02*
Y332927D01*
X278526D01*
Y346313D01*
X271833D01*
G37*
X317108D02*
Y332927D01*
X323801D01*
Y346313D01*
X317108D01*
G36*
X317108Y346313D02*
Y332927D01*
X323801D01*
Y346313D01*
X317108D01*
G37*
X721045Y261667D02*
Y132927D01*
X719470Y131352D01*
X712778D01*
X710809Y133321D01*
Y261274D01*
X711203Y261667D01*
X721045D01*
G36*
X721045Y261667D02*
Y132927D01*
X719470Y131352D01*
X712778D01*
X710809Y133321D01*
Y261274D01*
X711203Y261667D01*
X721045D01*
G37*
D02*
D72*
X36793Y410683D02*
X38959D01*
X47817Y401825D01*
Y359305D01*
X42108Y353596D01*
X36793D01*
X274982Y333715D02*
Y333321D01*
X287187Y321116D01*
X308447D01*
X320258Y309305D01*
X337187D01*
X362384Y284108D01*
Y154974D01*
X276163Y277809D02*
Y290407D01*
X282463Y296707D01*
X336006D01*
X307659Y93163D02*
X265927D01*
X320258Y339620D02*
X397817D01*
X414352Y356156D01*
X544667D01*
X573407Y327415D01*
Y327022D01*
X341124Y353400D02*
X393486D01*
X407266Y367179D01*
X468289D01*
X343486Y119935D02*
Y112455D01*
X449392D01*
X461203Y100644D01*
X362384Y154974D02*
Y128203D01*
X371045Y73085D02*
X397030D01*
X402935Y67179D01*
X536793D01*
X538368Y68754D01*
X556478D01*
X371045Y73085D02*
X370258Y72297D01*
X326557D01*
X372226Y127809D02*
Y165998D01*
X463565D01*
X471045Y158518D01*
X516715D01*
X539785Y181589D01*
X553329D01*
X372226Y165998D02*
Y288833D01*
X327344Y333715D01*
X320258D01*
X378526Y414817D02*
X300967D01*
X274982Y388833D01*
Y345526D01*
X383644Y296707D02*
X390337Y303400D01*
X415140D01*
X386793Y82533D02*
Y87258D01*
X465927D01*
X492699Y114030D01*
Y116785D01*
X386793Y87258D02*
X380888Y93163D01*
X307659D01*
X393880Y154974D02*
X460415D01*
X467896Y147494D01*
X526951D01*
X536006Y156549D01*
X553329D01*
X393880Y179384D02*
X475770D01*
X493486Y197100D01*
X402541Y388833D02*
Y432533D01*
X454116Y484108D01*
X402541Y388833D02*
X370652D01*
X348211Y366392D01*
X340730D01*
X320258Y345919D01*
Y345526D01*
X415140Y222691D02*
Y201037D01*
X423407Y192770D01*
X415140Y303400D02*
Y222691D01*
Y303400D02*
X432463D01*
X430100Y512455D02*
X414746D01*
X388368Y486077D01*
Y424659D01*
X378526Y414817D01*
X430100Y512455D02*
X518289D01*
X432463Y303400D02*
Y333715D01*
X454116Y484108D02*
X473014D01*
X468289Y367179D02*
X556872D01*
X468289D02*
Y391982D01*
X469864Y222691D02*
X463565Y216392D01*
X415140D01*
Y222691D01*
X473014Y484108D02*
Y429778D01*
X474195Y428596D01*
X473014Y484108D02*
X543486D01*
X493486Y197100D02*
X494274Y197888D01*
X567108D01*
X587974Y218754D01*
X518289Y512455D02*
X572226D01*
X574982Y515211D01*
X538762Y19541D02*
X508841D01*
X476951Y51431D01*
X365533D01*
X543486Y484108D02*
X562581D01*
X555829Y271116D02*
X600179D01*
X555829D02*
X543880D01*
X511596Y303400D01*
X432463D01*
X556478Y68754D02*
X564549Y60683D01*
X556872Y367179D02*
X573801Y350250D01*
X599392D01*
X556872Y367179D02*
Y391982D01*
X562581Y484108D02*
Y486077D01*
X569667Y493163D01*
X579057D01*
X586931Y485289D01*
X562581Y484108D02*
Y429187D01*
X564549Y60683D02*
X571833Y53400D01*
Y27415D02*
X563959Y19541D01*
X538762D01*
X599392Y350250D02*
Y349069D01*
X634037Y314423D01*
Y289226D01*
X600179Y271116D02*
Y239226D01*
X610022Y229384D01*
X600179Y271116D02*
X611990Y282927D01*
Y318360D01*
X610022Y229384D02*
X656872D01*
X661596Y224659D01*
X634037Y289226D02*
Y249856D01*
X700573Y509994D02*
Y520329D01*
Y509994D02*
Y502612D01*
X879313Y482770D02*
Y443715D01*
Y502770D02*
Y515211D01*
X0Y0D02*
M02*
