G04 DesignSpark PCB Gerber Version 11.0 Build 5877*
G04 #@! TF.Part,Single*
G04 #@! TF.FileFunction,Copper,L2,Inr*
G04 #@! TF.FilePolarity,Positive*
%FSLAX35Y35*%
%MOIN*%
G04 #@! TA.AperFunction,ComponentPad*
%ADD28O,0.07874X0.05118*%
G04 #@! TD.AperFunction*
%ADD10C,0.00500*%
%ADD15C,0.01181*%
%ADD13C,0.01575*%
%ADD12C,0.01969*%
%ADD11C,0.02362*%
G04 #@! TA.AperFunction,ViaPad*
%ADD17C,0.03543*%
G04 #@! TA.AperFunction,ComponentPad*
%ADD26C,0.03740*%
G04 #@! TD.AperFunction*
%ADD14C,0.03937*%
G04 #@! TA.AperFunction,ComponentPad*
%ADD25C,0.05512*%
G04 #@! TA.AperFunction,ViaPad*
%ADD18C,0.06299*%
G04 #@! TA.AperFunction,ComponentPad*
%ADD20C,0.07087*%
G04 #@! TD.AperFunction*
%ADD16C,0.07480*%
G04 #@! TA.AperFunction,ComponentPad*
%ADD21C,0.07874*%
%ADD71C,0.08031*%
%ADD27C,0.08268*%
%ADD24C,0.09843*%
%ADD70C,0.11811*%
%ADD23C,0.13780*%
%ADD22C,0.15748*%
G04 #@! TA.AperFunction,WasherPad*
%ADD19C,0.23622*%
G04 #@! TD.AperFunction*
X0Y0D02*
D02*
D10*
X19077Y154581D02*
Y17573D01*
X23014Y13636D01*
X651360D01*
X654510Y16785D01*
X645061D01*
X643093Y18754D01*
Y27415D01*
X640730Y29778D01*
X622620D01*
X616715Y23872D01*
X592699D01*
X587974Y28596D01*
Y52219D01*
X592699Y56943D01*
X616715D01*
X622620Y51037D01*
X640730D01*
X643093Y53400D01*
Y63636D01*
X645455Y65998D01*
X654904D01*
Y62061D01*
X658841Y65998D01*
X667436D01*
G75*
G02*
X666661Y68360I3216J2362D01*
G01*
G75*
G02*
X674619Y68785I3990J0D01*
G01*
X675770Y69935D01*
Y116785D01*
X686793Y127809D01*
Y236211D01*
G75*
G02*
X679260Y238045I-3543J1835D01*
G01*
G75*
G02*
X685166Y241546I3990J0D01*
G01*
G75*
G02*
X685165Y241589I3978J58D01*
G01*
G75*
G02*
X686793Y244804I3990J0D01*
G01*
Y262061D01*
X674589Y274266D01*
Y359699D01*
X644667Y389620D01*
Y432140D01*
X616321D01*
Y557337D01*
X253329D01*
X249392Y553400D01*
Y460880D01*
X237581Y449069D01*
X143093D01*
X139156Y445132D01*
Y355762D01*
X124589Y341195D01*
X76557D01*
X73407Y338045D01*
Y337546D01*
G75*
G02*
X83250Y337287I4843J-3122D01*
G01*
G75*
G02*
X94012Y334423I5000J-2863D01*
G01*
G75*
G02*
X93965Y333689I-5761J-1D01*
G01*
G75*
G02*
X99839Y330171I1883J-3518D01*
G01*
G75*
G02*
X93389Y327030I-3990J0D01*
G01*
G75*
G02*
X93926Y323431I-5139J-2607D01*
G01*
G75*
G02*
X99839Y319935I1922J-3496D01*
G01*
G75*
G02*
X93556Y316669I-3990J0D01*
G01*
G75*
G02*
X94012Y314423I-5306J-2246D01*
G01*
G75*
G02*
X93873Y313166I-5761J0D01*
G01*
G75*
G02*
X99839Y309699I1976J-3467D01*
G01*
G75*
G02*
X93680Y306349I-3990J0D01*
G01*
G75*
G02*
X94012Y304423I-5430J-1926D01*
G01*
G75*
G02*
X93804Y302889I-5763J0D01*
G01*
G75*
G02*
X99839Y299463I2044J-3426D01*
G01*
G75*
G02*
X93777Y296052I-3990J0D01*
G01*
G75*
G02*
X93715Y292598I-5527J-1629D01*
G01*
G75*
G02*
X99839Y289226I2133J-3372D01*
G01*
G75*
G02*
X91858I-3990J0D01*
G01*
G75*
G02*
X91932Y289992I3991J0D01*
G01*
G75*
G02*
X83250Y291560I-3682J4431D01*
G01*
G75*
G02*
X73407Y291301I-5000J2863D01*
G01*
Y267179D01*
X65533Y259305D01*
Y250899D01*
G75*
G02*
X73461Y250250I3937J-649D01*
G01*
G75*
G02*
X65533Y249601I-3990J0D01*
G01*
Y201825D01*
X73014D01*
Y154581D01*
X19077D01*
X657606Y224659D02*
G75*
G02*
X665587I3990J0D01*
G01*
G75*
G02*
X657606I-3990J0D01*
G01*
X665087Y152612D02*
G75*
G02*
X673067I3990J0D01*
G01*
G75*
G02*
X665087I-3990J0D01*
G01*
X667449Y78990D02*
G75*
G02*
X675429I3990J0D01*
G01*
G75*
G02*
X667449I-3990J0D01*
G01*
X665087Y188045D02*
G75*
G02*
X673067I3990J0D01*
G01*
G75*
G02*
X665087I-3990J0D01*
G01*
X671386Y210093D02*
G75*
G02*
X679366I3990J0D01*
G01*
G75*
G02*
X671386I-3990J0D01*
G01*
X254063Y391982D02*
G75*
G02*
X262043I3990J0D01*
G01*
G75*
G02*
X254063I-3990J0D01*
G01*
X285297Y483822D02*
G75*
G02*
X296059Y480959I5000J-2863D01*
G01*
G75*
G02*
X285297Y478095I-5762J0D01*
G01*
G75*
G02*
X275297I-5000J2863D01*
G01*
G75*
G02*
X265297I-5000J2863D01*
G01*
G75*
G02*
X254535Y480959I-5000J2863D01*
G01*
G75*
G02*
X265297Y483822I5762J0D01*
G01*
G75*
G02*
X275297I5000J-2863D01*
G01*
G75*
G02*
X285297I5000J-2863D01*
G01*
X285559Y109699D02*
G75*
G02*
X293539I3990J0D01*
G01*
G75*
G02*
X285559I-3990J0D01*
G01*
X287134Y247652D02*
G75*
G02*
X295114I3990J0D01*
G01*
G75*
G02*
X287134I-3990J0D01*
G01*
X290933Y146313D02*
G75*
G02*
X298913I3990J0D01*
G01*
G75*
G02*
X290933I-3990J0D01*
G01*
X293827Y277809D02*
G75*
G02*
X301807I3990J0D01*
G01*
G75*
G02*
X300702Y275053I-3990J0D01*
G01*
G75*
G02*
Y269541I-2885J-2756D01*
G01*
G75*
G02*
X301807Y266785I-2885J-2756D01*
G01*
G75*
G02*
X293827I-3990J0D01*
G01*
G75*
G02*
X294931Y269541I3990J0D01*
G01*
G75*
G02*
Y275053I2885J2756D01*
G01*
G75*
G02*
X293827Y277809I2885J2756D01*
G01*
X304861Y150303D02*
G75*
G02*
X308894Y146313I43J-3990D01*
G01*
G75*
G02*
X300913I-3990J0D01*
G01*
G75*
G02*
X301403Y148229I3991J0D01*
G01*
G75*
G02*
X297370Y152219I-43J3990D01*
G01*
G75*
G02*
X305350I3990J0D01*
G01*
G75*
G02*
X304861Y150303I-3991J0D01*
G01*
X303669Y93163D02*
G75*
G02*
X311650I3990J0D01*
G01*
G75*
G02*
X303669I-3990J0D01*
G01*
X311346Y22691D02*
G75*
G02*
X319327I3990J0D01*
G01*
G75*
G02*
X311346I-3990J0D01*
G01*
X300520Y178990D02*
G75*
G02*
X308500I3990J0D01*
G01*
G75*
G02*
X300520I-3990J0D01*
G01*
Y204581D02*
G75*
G02*
X308500I3990J0D01*
G01*
G75*
G02*
X300520I-3990J0D01*
G01*
X266268Y203793D02*
G75*
G02*
X274248I3990J0D01*
G01*
G75*
G02*
X266268I-3990J0D01*
G01*
X270992Y345526D02*
G75*
G02*
X278972I3990J0D01*
G01*
G75*
G02*
X277666Y342573I-3990J0D01*
G01*
G75*
G02*
Y336667I-2684J-2953D01*
G01*
G75*
G02*
X278972Y333715I-2684J-2953D01*
G01*
G75*
G02*
X270992I-3990J0D01*
G01*
G75*
G02*
X272298Y336667I3990J0D01*
G01*
G75*
G02*
Y342573I2684J2953D01*
G01*
G75*
G02*
X270992Y345526I2684J2953D01*
G01*
X272173Y277809D02*
G75*
G02*
X280154I3990J0D01*
G01*
G75*
G02*
X279049Y275053I-3990J0D01*
G01*
G75*
G02*
Y269541I-2885J-2756D01*
G01*
G75*
G02*
X280154Y266785I-2885J-2756D01*
G01*
G75*
G02*
X272173I-3990J0D01*
G01*
G75*
G02*
X273278Y269541I3990J0D01*
G01*
G75*
G02*
Y275053I2885J2756D01*
G01*
G75*
G02*
X272173Y277809I2885J2756D01*
G01*
X285297Y536578D02*
G75*
G02*
X296059Y533715I5000J-2863D01*
G01*
G75*
G02*
X285297Y530851I-5762J0D01*
G01*
G75*
G02*
X275297I-5000J2863D01*
G01*
G75*
G02*
X265297I-5000J2863D01*
G01*
G75*
G02*
X254535Y533715I-5000J2863D01*
G01*
G75*
G02*
X265297Y536578I5762J0D01*
G01*
G75*
G02*
X275297I5000J-2863D01*
G01*
G75*
G02*
X285297I5000J-2863D01*
G01*
X311543Y208124D02*
G75*
G02*
X319524I3990J0D01*
G01*
G75*
G02*
X311543I-3990J0D01*
G01*
X316268Y183321D02*
G75*
G02*
X324248I3990J0D01*
G01*
G75*
G02*
X316268I-3990J0D01*
G01*
X322567Y72297D02*
G75*
G02*
X330547I3990J0D01*
G01*
G75*
G02*
X322567I-3990J0D01*
G01*
X316268Y345526D02*
G75*
G02*
X324248I3990J0D01*
G01*
G75*
G02*
X322942Y342573I-3990J0D01*
G01*
G75*
G02*
Y336667I-2684J-2953D01*
G01*
G75*
G02*
X324248Y333715I-2684J-2953D01*
G01*
G75*
G02*
X316268I-3990J0D01*
G01*
G75*
G02*
X317574Y336667I3990J0D01*
G01*
G75*
G02*
Y342573I2684J2953D01*
G01*
G75*
G02*
X316268Y345526I2684J2953D01*
G01*
X325717Y149069D02*
G75*
G02*
X333697I3990J0D01*
G01*
G75*
G02*
X325717I-3990J0D01*
G01*
X332069Y291720D02*
G75*
G02*
X337437Y286352I0J-5368D01*
G01*
G75*
G02*
X332069Y280984I-5368J0D01*
G01*
G75*
G02*
X326701Y286352I0J5368D01*
G01*
G75*
G02*
X332069Y291720I5368J0D01*
G01*
X328079Y269935D02*
G75*
G02*
X336059I3990J0D01*
G01*
G75*
G02*
X328079I-3990J0D01*
G01*
X329654Y230959D02*
G75*
G02*
X337634I3990J0D01*
G01*
G75*
G02*
X329654I-3990J0D01*
G01*
X330638Y296707D02*
G75*
G02*
X341374I5368J0D01*
G01*
G75*
G02*
X330638I-5368J0D01*
G01*
X339496Y119935D02*
G75*
G02*
X347476I3990J0D01*
G01*
G75*
G02*
X339496I-3990J0D01*
G01*
X347370Y47888D02*
G75*
G02*
X355350I3990J0D01*
G01*
G75*
G02*
X347370I-3990J0D01*
G01*
X335756Y353400D02*
G75*
G02*
X346492I5368J0D01*
G01*
G75*
G02*
X335756I-5368J0D01*
G01*
X343827Y378596D02*
G75*
G02*
X351807I3990J0D01*
G01*
G75*
G02*
X343827I-3990J0D01*
G01*
X347173Y179384D02*
G75*
G02*
X357909I5368J0D01*
G01*
G75*
G02*
X347173I-5368J0D01*
G01*
X367391Y130139D02*
G75*
G02*
X377594Y127809I4836J-2330D01*
G01*
G75*
G02*
X367220Y125872I-5368J0D01*
G01*
G75*
G02*
X357016Y128203I-4836J2330D01*
G01*
G75*
G02*
X367391Y130139I5368J0D01*
G01*
X360165Y51431D02*
G75*
G02*
X370902I5368J0D01*
G01*
G75*
G02*
X360165I-5368J0D01*
G01*
X367843Y41589D02*
G75*
G02*
X375823I3990J0D01*
G01*
G75*
G02*
X367843I-3990J0D01*
G01*
X365677Y73085D02*
G75*
G02*
X376413I5368J0D01*
G01*
G75*
G02*
X365677I-5368J0D01*
G01*
X357016Y154974D02*
G75*
G02*
X367752I5368J0D01*
G01*
G75*
G02*
X357016I-5368J0D01*
G01*
X357409Y539620D02*
G75*
G02*
X385469I14030J0D01*
G01*
G75*
G02*
X357409I-14030J0D01*
G01*
X363512Y362455D02*
G75*
G02*
X371492I3990J0D01*
G01*
G75*
G02*
X363512I-3990J0D01*
G01*
X374535Y414817D02*
G75*
G02*
X382516I3990J0D01*
G01*
G75*
G02*
X374535I-3990J0D01*
G01*
X377094Y267967D02*
G75*
G02*
X405154I14030J0D01*
G01*
G75*
G02*
X377094I-14030J0D01*
G01*
X378079Y204581D02*
G75*
G02*
X386059I3990J0D01*
G01*
G75*
G02*
X378079I-3990J0D01*
G01*
X382803Y82533D02*
G75*
G02*
X390783I3990J0D01*
G01*
G75*
G02*
X382803I-3990J0D01*
G01*
X388512Y154974D02*
G75*
G02*
X399248I5368J0D01*
G01*
G75*
G02*
X388512I-5368J0D01*
G01*
X388709Y122297D02*
G75*
G02*
X396689I3990J0D01*
G01*
G75*
G02*
X388709I-3990J0D01*
G01*
X394614Y146313D02*
G75*
G02*
X402594I3990J0D01*
G01*
G75*
G02*
X394614I-3990J0D01*
G01*
X401701Y139226D02*
G75*
G02*
X409681I3990J0D01*
G01*
G75*
G02*
X401701I-3990J0D01*
G01*
X388512Y179384D02*
G75*
G02*
X399248I5368J0D01*
G01*
G75*
G02*
X388512I-5368J0D01*
G01*
X378276Y296707D02*
G75*
G02*
X389012I5368J0D01*
G01*
G75*
G02*
X378276I-5368J0D01*
G01*
X395848Y553925D02*
G75*
G02*
X401217Y548557I0J-5368D01*
G01*
G75*
G02*
X395848Y543189I-5368J0D01*
G01*
G75*
G02*
X390480Y548557I0J5368D01*
G01*
G75*
G02*
X395848Y553925I5368J0D01*
G01*
X398551Y388833D02*
G75*
G02*
X406531I3990J0D01*
G01*
G75*
G02*
X398551I-3990J0D01*
G01*
X413512Y348281D02*
G75*
G02*
X421492I3990J0D01*
G01*
G75*
G02*
X413512I-3990J0D01*
G01*
X416465Y31746D02*
G75*
G02*
X444524I14030J0D01*
G01*
G75*
G02*
X416465I-14030J0D01*
G01*
X417449Y58518D02*
G75*
G02*
X425429I3990J0D01*
G01*
G75*
G02*
X417449I-3990J0D01*
G01*
X419417Y192770D02*
G75*
G02*
X427398I3990J0D01*
G01*
G75*
G02*
X419417I-3990J0D01*
G01*
X426110Y512455D02*
G75*
G02*
X434091I3990J0D01*
G01*
G75*
G02*
X426110I-3990J0D01*
G01*
X428472Y333715D02*
G75*
G02*
X436453I3990J0D01*
G01*
G75*
G02*
X428472I-3990J0D01*
G01*
X433197Y188439D02*
G75*
G02*
X441177I3990J0D01*
G01*
G75*
G02*
X433197I-3990J0D01*
G01*
X430421Y479384D02*
G75*
G02*
X438402I3990J0D01*
G01*
G75*
G02*
X430421I-3990J0D01*
G01*
X445821Y324274D02*
G75*
G02*
X451630Y320722I1819J-3552D01*
G01*
G75*
G02*
X443730Y319927I-3990J0D01*
G01*
G75*
G02*
X437921Y323478I-1819J3552D01*
G01*
G75*
G02*
X445821Y324274I3990J0D01*
G01*
X446189Y262455D02*
G75*
G02*
X454169I3990J0D01*
G01*
G75*
G02*
X446189I-3990J0D01*
G01*
X450126Y484108D02*
G75*
G02*
X458106I3990J0D01*
G01*
G75*
G02*
X450126I-3990J0D01*
G01*
X455638Y262455D02*
G75*
G02*
X463618I3990J0D01*
G01*
G75*
G02*
X455638I-3990J0D01*
G01*
X457213Y100644D02*
G75*
G02*
X465193I3990J0D01*
G01*
G75*
G02*
X457213I-3990J0D01*
G01*
X464299Y391982D02*
G75*
G02*
X472280I3990J0D01*
G01*
G75*
G02*
X464299I-3990J0D01*
G01*
X465087Y262455D02*
G75*
G02*
X473067I3990J0D01*
G01*
G75*
G02*
X465087I-3990J0D01*
G01*
X465874Y222691D02*
G75*
G02*
X473854I3990J0D01*
G01*
G75*
G02*
X465874I-3990J0D01*
G01*
X470205Y428596D02*
G75*
G02*
X478185I3990J0D01*
G01*
G75*
G02*
X470205I-3990J0D01*
G01*
X474437Y414817D02*
G75*
G02*
X482417I3990J0D01*
G01*
G75*
G02*
X474437I-3990J0D01*
G01*
X474535Y262455D02*
G75*
G02*
X482516I3990J0D01*
G01*
G75*
G02*
X474535I-3990J0D01*
G01*
X479260Y477022D02*
G75*
G02*
X487240I3990J0D01*
G01*
G75*
G02*
X479260I-3990J0D01*
G01*
X492699Y120776D02*
G75*
G02*
X496689Y116785I0J-3990D01*
G01*
G75*
G02*
X492699Y112795I-3990J0D01*
G01*
G75*
G02*
X488709Y116785I0J3990D01*
G01*
G75*
G02*
X492699Y120776I3990J0D01*
G01*
X493039Y80171D02*
G75*
G02*
X501020I3990J0D01*
G01*
G75*
G02*
X493039I-3990J0D01*
G01*
X489496Y197100D02*
G75*
G02*
X497476I3990J0D01*
G01*
G75*
G02*
X489496I-3990J0D01*
G01*
X510415Y191722D02*
G75*
G02*
X512369Y181354I0J-5368D01*
G01*
G75*
G02*
X510415Y170986I-1954J-5000D01*
G01*
G75*
G02*
X508462Y181354I0J5368D01*
G01*
G75*
G02*
X510415Y191722I1954J5000D01*
G01*
X506425Y80171D02*
G75*
G02*
X514406I3990J0D01*
G01*
G75*
G02*
X506425I-3990J0D01*
G01*
X514299Y512455D02*
G75*
G02*
X522280I3990J0D01*
G01*
G75*
G02*
X514299I-3990J0D01*
G01*
X526557Y218841D02*
G75*
G02*
X533697Y216392I3150J-2450D01*
G01*
G75*
G02*
X526557Y213942I-3990J0D01*
G01*
G75*
G02*
X519417Y216392I-3150J2450D01*
G01*
G75*
G02*
X526557Y218841I3990J0D01*
G01*
X531622Y136864D02*
G75*
G02*
X539602I3990J0D01*
G01*
G75*
G02*
X534483Y133037I-3990J0D01*
G01*
G75*
G02*
X534484Y132927I-3996J-112D01*
G01*
G75*
G02*
X526504I-3990J0D01*
G01*
G75*
G02*
X531624Y136754I3990J0D01*
G01*
G75*
G02*
X531622Y136864I3996J112D01*
G01*
X534772Y19541D02*
G75*
G02*
X542752I3990J0D01*
G01*
G75*
G02*
X534772I-3990J0D01*
G01*
X539496Y484108D02*
G75*
G02*
X547476I3990J0D01*
G01*
G75*
G02*
X539496I-3990J0D01*
G01*
X549339Y156549D02*
G75*
G02*
X557319I3990J0D01*
G01*
G75*
G02*
X549339I-3990J0D01*
G01*
X552488Y68754D02*
G75*
G02*
X560469I3990J0D01*
G01*
G75*
G02*
X552488I-3990J0D01*
G01*
X592699Y182927D02*
X594274Y181352D01*
Y141982D01*
X589549Y137258D01*
Y128596D01*
X582069Y121116D01*
X561203D01*
X554904Y127415D01*
Y151037D01*
X561596Y157730D01*
Y181352D01*
X563171Y182927D01*
X592699D01*
X590874Y111510D02*
G75*
G02*
X600823I4974J0D01*
G01*
G75*
G02*
X590874I-4974J0D01*
G01*
Y131510D02*
G75*
G02*
X600823I4974J0D01*
G01*
G75*
G02*
X590874I-4974J0D01*
G01*
X578919Y113957D02*
G75*
G02*
X588224Y111510I4331J-2447D01*
G01*
G75*
G02*
X578919Y109063I-4974J0D01*
G01*
G75*
G02*
X570258I-4331J2447D01*
G01*
G75*
G02*
X560953Y111510I-4331J2447D01*
G01*
G75*
G02*
X570258Y113957I4974J0D01*
G01*
G75*
G02*
X578919I4331J-2447D01*
G01*
X576898Y55368D02*
G75*
G02*
X584878I3990J0D01*
G01*
G75*
G02*
X576898I-3990J0D01*
G01*
X567843Y27415D02*
G75*
G02*
X575823I3990J0D01*
G01*
G75*
G02*
X567843I-3990J0D01*
G01*
Y53400D02*
G75*
G02*
X575823I3990J0D01*
G01*
G75*
G02*
X567843I-3990J0D01*
G01*
X549339Y181589D02*
G75*
G02*
X557319I3990J0D01*
G01*
G75*
G02*
X549339I-3990J0D01*
G01*
X551839Y271116D02*
G75*
G02*
X559819I3990J0D01*
G01*
G75*
G02*
X551839I-3990J0D01*
G01*
X552882Y391982D02*
G75*
G02*
X560862I3990J0D01*
G01*
G75*
G02*
X552882I-3990J0D01*
G01*
X559181Y278596D02*
G75*
G02*
X567161I3990J0D01*
G01*
G75*
G02*
X559181I-3990J0D01*
G01*
X558591Y429187D02*
G75*
G02*
X566571I3990J0D01*
G01*
G75*
G02*
X558591I-3990J0D01*
G01*
X563020Y414817D02*
G75*
G02*
X571000I3990J0D01*
G01*
G75*
G02*
X563020I-3990J0D01*
G01*
X569417Y327022D02*
G75*
G02*
X577398I3990J0D01*
G01*
G75*
G02*
X569417I-3990J0D01*
G01*
X570992Y515211D02*
G75*
G02*
X578972I3990J0D01*
G01*
G75*
G02*
X570992I-3990J0D01*
G01*
X582941Y479778D02*
G75*
G02*
X590921I3990J0D01*
G01*
G75*
G02*
X582941I-3990J0D01*
G01*
X583984Y218754D02*
G75*
G02*
X591965I3990J0D01*
G01*
G75*
G02*
X583984I-3990J0D01*
G01*
X598209Y434093D02*
G75*
G02*
X608577Y432140I5000J-1954D01*
G01*
G75*
G02*
X598209Y430186I-5368J0D01*
G01*
G75*
G02*
X587841Y432140I-5000J1954D01*
G01*
G75*
G02*
X598209Y434093I5368J0D01*
G01*
X606031Y217179D02*
G75*
G02*
X614012I3990J0D01*
G01*
G75*
G02*
X606031I-3990J0D01*
G01*
X609181Y97494D02*
G75*
G02*
X617161I3990J0D01*
G01*
G75*
G02*
X609181I-3990J0D01*
G01*
X609969Y75841D02*
G75*
G02*
X617949I3990J0D01*
G01*
G75*
G02*
X609969I-3990J0D01*
G01*
X610756Y65604D02*
G75*
G02*
X618736I3990J0D01*
G01*
G75*
G02*
X610756I-3990J0D01*
G01*
X609378Y130565D02*
G75*
G02*
X637437I14030J0D01*
G01*
G75*
G02*
X609378I-14030J0D01*
G01*
X618630Y88439D02*
G75*
G02*
X626610I3990J0D01*
G01*
G75*
G02*
X618630I-3990J0D01*
G01*
X633591Y60093D02*
G75*
G02*
X641571I3990J0D01*
G01*
G75*
G02*
X633591I-3990J0D01*
G01*
X608000Y318360D02*
G75*
G02*
X615980I3990J0D01*
G01*
G75*
G02*
X608000I-3990J0D01*
G01*
X587921Y236864D02*
G75*
G02*
X595902I3990J0D01*
G01*
G75*
G02*
X587921I-3990J0D01*
G01*
X595402Y350250D02*
G75*
G02*
X603382I3990J0D01*
G01*
G75*
G02*
X595402I-3990J0D01*
G01*
X585087Y534502D02*
G75*
G02*
X595823I5368J0D01*
G01*
G75*
G02*
X585087I-5368J0D01*
G01*
X609378Y406156D02*
G75*
G02*
X637437I14030J0D01*
G01*
G75*
G02*
X609378I-14030J0D01*
G01*
X616268Y375447D02*
G75*
G02*
X624248I3990J0D01*
G01*
G75*
G02*
X616268I-3990J0D01*
G01*
X620205Y204581D02*
G75*
G02*
X628185I3990J0D01*
G01*
G75*
G02*
X627080Y201825I-3990J0D01*
G01*
G75*
G02*
Y196313I-2885J-2756D01*
G01*
G75*
G02*
X628185Y193557I-2885J-2756D01*
G01*
G75*
G02*
X620205I-3990J0D01*
G01*
G75*
G02*
X621309Y196313I3990J0D01*
G01*
G75*
G02*
Y201825I2885J2756D01*
G01*
G75*
G02*
X620205Y204581I2885J2756D01*
G01*
X630047Y249856D02*
G75*
G02*
X638028I3990J0D01*
G01*
G75*
G02*
X630047I-3990J0D01*
G01*
Y289226D02*
G75*
G02*
X638028I3990J0D01*
G01*
G75*
G02*
X630047I-3990J0D01*
G01*
X244142Y324659D02*
G75*
G02*
X254878I5368J0D01*
G01*
G75*
G02*
X244142I-5368J0D01*
G01*
X250913Y178990D02*
G75*
G02*
X258894I3990J0D01*
G01*
G75*
G02*
X250913I-3990J0D01*
G01*
X253591Y244344D02*
G75*
G02*
X264327I5368J0D01*
G01*
G75*
G02*
X253591I-5368J0D01*
G01*
X255638Y203793D02*
G75*
G02*
X263618I3990J0D01*
G01*
G75*
G02*
X255638I-3990J0D01*
G01*
X261937Y109305D02*
G75*
G02*
X269917I3990J0D01*
G01*
G75*
G02*
X261937I-3990J0D01*
G01*
X258000Y225053D02*
G75*
G02*
X265980I3990J0D01*
G01*
G75*
G02*
X258000I-3990J0D01*
G01*
X155638Y274266D02*
G75*
G02*
X163618I3990J0D01*
G01*
G75*
G02*
X155638I-3990J0D01*
G01*
X157213Y290801D02*
G75*
G02*
X165193I3990J0D01*
G01*
G75*
G02*
X157213I-3990J0D01*
G01*
X163925Y242376D02*
G75*
G02*
X171906I3990J0D01*
G01*
G75*
G02*
X163925I-3990J0D01*
G01*
X170992Y228203D02*
G75*
G02*
X178972I3990J0D01*
G01*
G75*
G02*
X177432Y225053I-3990J0D01*
G01*
G75*
G02*
X178972Y221904I-2450J-3150D01*
G01*
G75*
G02*
X170992I-3990J0D01*
G01*
G75*
G02*
X172533Y225053I3990J0D01*
G01*
G75*
G02*
X170992Y228203I2450J3150D01*
G01*
X174732Y171510D02*
G75*
G02*
X185469I5368J0D01*
G01*
G75*
G02*
X174732I-5368J0D01*
G01*
X174004Y309109D02*
G75*
G02*
X175823Y305762I-2171J-3348D01*
G01*
G75*
G02*
X167843I-3990J0D01*
G01*
G75*
G02*
X168480Y307926I3990J0D01*
G01*
G75*
G02*
X169261Y315014I2171J3348D01*
G01*
G75*
G02*
X166661Y318754I1390J3740D01*
G01*
G75*
G02*
X174642I3990J0D01*
G01*
G75*
G02*
X172042Y315014I-3990J0D01*
G01*
G75*
G02*
X174004Y309109I-1390J-3740D01*
G01*
X168236Y383321D02*
G75*
G02*
X176217I3990J0D01*
G01*
G75*
G02*
X168236I-3990J0D01*
G01*
X180441Y395132D02*
G75*
G02*
X188421I3990J0D01*
G01*
G75*
G02*
X180441I-3990J0D01*
G01*
X182409Y214817D02*
G75*
G02*
X190390I3990J0D01*
G01*
G75*
G02*
X182409I-3990J0D01*
G01*
X186346Y37652D02*
G75*
G02*
X194327I3990J0D01*
G01*
G75*
G02*
X186346I-3990J0D01*
G01*
X182803Y225053D02*
G75*
G02*
X190783I3990J0D01*
G01*
G75*
G02*
X182803I-3990J0D01*
G01*
X184772Y255762D02*
G75*
G02*
X192752I3990J0D01*
G01*
G75*
G02*
X184772I-3990J0D01*
G01*
X192305Y383059D02*
G75*
G02*
X197673Y377691I0J-5368D01*
G01*
G75*
G02*
X192305Y372323I-5368J0D01*
G01*
G75*
G02*
X186937Y377691I0J5368D01*
G01*
G75*
G02*
X192305Y383059I5368J0D01*
G01*
X195795Y301037D02*
G75*
G02*
X203776I3990J0D01*
G01*
G75*
G02*
X195795I-3990J0D01*
G01*
X199929Y189226D02*
G75*
G02*
X227988I14030J0D01*
G01*
G75*
G02*
X199929I-14030J0D01*
G01*
X208394Y37652D02*
G75*
G02*
X216374I3990J0D01*
G01*
G75*
G02*
X208394I-3990J0D01*
G01*
X220992Y148675D02*
G75*
G02*
X228972I3990J0D01*
G01*
G75*
G02*
X223853Y144848I-3990J0D01*
G01*
G75*
G02*
X223854Y144738I-3996J-112D01*
G01*
G75*
G02*
X218735Y140911I-3990J0D01*
G01*
G75*
G02*
X218736Y140801I-3996J-112D01*
G01*
G75*
G02*
X210756I-3990J0D01*
G01*
G75*
G02*
X215876Y144628I3990J0D01*
G01*
G75*
G02*
X215874Y144738I3996J112D01*
G01*
G75*
G02*
X220994Y148565I3990J0D01*
G01*
G75*
G02*
X220992Y148675I3996J112D01*
G01*
X202882Y225053D02*
G75*
G02*
X210862I3990J0D01*
G01*
G75*
G02*
X202882I-3990J0D01*
G01*
X203276Y215211D02*
G75*
G02*
X211256I3990J0D01*
G01*
G75*
G02*
X203276I-3990J0D01*
G01*
X196189Y364030D02*
G75*
G02*
X204169I3990J0D01*
G01*
G75*
G02*
X203065Y361274I-3990J0D01*
G01*
G75*
G02*
Y355762I-2885J-2756D01*
G01*
G75*
G02*
X204169Y353006I-2885J-2756D01*
G01*
G75*
G02*
X196189I-3990J0D01*
G01*
G75*
G02*
X197294Y355762I3990J0D01*
G01*
G75*
G02*
Y361274I2885J2756D01*
G01*
G75*
G02*
X196189Y364030I2885J2756D01*
G01*
X180441Y433715D02*
G75*
G02*
X188421I3990J0D01*
G01*
G75*
G02*
X180441I-3990J0D01*
G01*
X204457Y311274D02*
G75*
G02*
X212437I3990J0D01*
G01*
G75*
G02*
X204457I-3990J0D01*
G01*
Y333321D02*
G75*
G02*
X212437I3990J0D01*
G01*
G75*
G02*
X204457I-3990J0D01*
G01*
X228644Y402793D02*
G75*
G02*
X239878Y399069I5000J-3724D01*
G01*
G75*
G02*
X228644Y395345I-6234J0D01*
G01*
G75*
G02*
X218644I-5000J3724D01*
G01*
G75*
G02*
X207409Y399069I-5000J3724D01*
G01*
G75*
G02*
X218644Y402793I6234J0D01*
G01*
G75*
G02*
X228644I5000J-3724D01*
G01*
X219811Y343951D02*
G75*
G02*
X227791I3990J0D01*
G01*
G75*
G02*
X219811I-3990J0D01*
G01*
X215480Y305762D02*
G75*
G02*
X223461I3990J0D01*
G01*
G75*
G02*
X215480I-3990J0D01*
G01*
X219417Y217179D02*
G75*
G02*
X227398I3990J0D01*
G01*
G75*
G02*
X219417I-3990J0D01*
G01*
X215480Y333321D02*
G75*
G02*
X223461I3990J0D01*
G01*
G75*
G02*
X215480I-3990J0D01*
G01*
X126504Y307730D02*
G75*
G02*
X134484I3990J0D01*
G01*
G75*
G02*
X126504I-3990J0D01*
G01*
X148230Y328426D02*
G75*
G02*
X153965Y322691I2500J-3235D01*
G01*
G75*
G02*
X149586Y316266I-3235J-2500D01*
G01*
G75*
G02*
X149858Y314817I-3718J-1449D01*
G01*
G75*
G02*
X141878I-3990J0D01*
G01*
G75*
G02*
X142194Y316373I3990J0D01*
G01*
G75*
G02*
X138230Y316956I-1463J3818D01*
G01*
G75*
G02*
X133230I-2500J3235D01*
G01*
G75*
G02*
X127495Y322691I-2500J3235D01*
G01*
G75*
G02*
X133230Y328426I3235J2500D01*
G01*
G75*
G02*
X138230I2500J-3235D01*
G01*
G75*
G02*
X143230I2500J-3235D01*
G01*
G75*
G02*
X148230I2500J-3235D01*
G01*
X154063Y258518D02*
G75*
G02*
X162043I3990J0D01*
G01*
G75*
G02*
X160226Y255171I-3990J0D01*
G01*
G75*
G02*
X162043Y251825I-2173J-3346D01*
G01*
G75*
G02*
X154063I-3990J0D01*
G01*
G75*
G02*
X155880Y255171I3990J0D01*
G01*
G75*
G02*
X154063Y258518I2173J3346D01*
G01*
X136740Y307730D02*
G75*
G02*
X144720I3990J0D01*
G01*
G75*
G02*
X136740I-3990J0D01*
G01*
X143039Y156156D02*
G75*
G02*
X151020I3990J0D01*
G01*
G75*
G02*
X146617Y152187I-3990J0D01*
G01*
G75*
G02*
X146689Y151431I-3917J-755D01*
G01*
G75*
G02*
X146617Y150676I-3989J-1D01*
G01*
G75*
G02*
X151020Y146707I413J-3969D01*
G01*
G75*
G02*
X146617Y142738I-3990J0D01*
G01*
G75*
G02*
X146689Y141982I-3917J-755D01*
G01*
G75*
G02*
X138709I-3990J0D01*
G01*
G75*
G02*
X143111Y145951I3990J0D01*
G01*
G75*
G02*
X143039Y146707I3917J755D01*
G01*
G75*
G02*
X143111Y147462I3989J1D01*
G01*
G75*
G02*
X138709Y151431I-413J3969D01*
G01*
G75*
G02*
X143111Y155400I3990J0D01*
G01*
G75*
G02*
X143039Y156156I3917J755D01*
G01*
X151951Y47705D02*
G75*
G02*
X156728Y42927I0J-4778D01*
G01*
G75*
G02*
X151951Y38150I-4778J0D01*
G01*
X149195D01*
G75*
G02*
X144417Y42927I0J4778D01*
G01*
G75*
G02*
X149195Y47705I4778J0D01*
G01*
X151951D01*
Y57705D02*
G75*
G02*
X156728Y52927I0J-4778D01*
G01*
G75*
G02*
X151951Y48150I-4778J0D01*
G01*
X149195D01*
G75*
G02*
X144417Y52927I0J4778D01*
G01*
G75*
G02*
X149195Y57705I4778J0D01*
G01*
X151951D01*
Y67705D02*
G75*
G02*
X156728Y62927I0J-4778D01*
G01*
G75*
G02*
X151951Y58150I-4778J0D01*
G01*
X149195D01*
G75*
G02*
X144417Y62927I0J4778D01*
G01*
G75*
G02*
X149195Y67705I4778J0D01*
G01*
X151951D01*
Y77705D02*
G75*
G02*
X156728Y72927I0J-4778D01*
G01*
G75*
G02*
X151951Y68150I-4778J0D01*
G01*
X149195D01*
G75*
G02*
X144417Y72927I0J4778D01*
G01*
G75*
G02*
X149195Y77705I4778J0D01*
G01*
X151951D01*
Y87705D02*
G75*
G02*
X156728Y82927I0J-4778D01*
G01*
G75*
G02*
X151951Y78150I-4778J0D01*
G01*
X149195D01*
G75*
G02*
X144417Y82927I0J4778D01*
G01*
G75*
G02*
X149195Y87705I4778J0D01*
G01*
X151951D01*
Y97705D02*
G75*
G02*
X156728Y92927I0J-4778D01*
G01*
G75*
G02*
X151951Y88150I-4778J0D01*
G01*
X149195D01*
G75*
G02*
X144417Y92927I0J4778D01*
G01*
G75*
G02*
X149195Y97705I4778J0D01*
G01*
X151951D01*
Y107705D02*
G75*
G02*
X156728Y102927I0J-4778D01*
G01*
G75*
G02*
X151951Y98150I-4778J0D01*
G01*
X149195D01*
G75*
G02*
X144417Y102927I0J4778D01*
G01*
G75*
G02*
X149195Y107705I4778J0D01*
G01*
X151951D01*
Y117705D02*
G75*
G02*
X156728Y112927I0J-4778D01*
G01*
G75*
G02*
X151951Y108150I-4778J0D01*
G01*
X149195D01*
G75*
G02*
X144417Y112927I0J4778D01*
G01*
G75*
G02*
X149195Y117705I4778J0D01*
G01*
X151951D01*
Y127705D02*
G75*
G02*
X156728Y122927I0J-4778D01*
G01*
G75*
G02*
X151951Y118150I-4778J0D01*
G01*
X149195D01*
G75*
G02*
X144417Y122927I0J4778D01*
G01*
G75*
G02*
X149195Y127705I4778J0D01*
G01*
X151951D01*
X145795Y208124D02*
G75*
G02*
X153776I3990J0D01*
G01*
G75*
G02*
X150544Y204207I-3990J0D01*
G01*
G75*
G02*
X147066Y199433I-3908J-807D01*
G01*
G75*
G02*
X147083Y199069I-3974J-363D01*
G01*
G75*
G02*
X139102I-3990J0D01*
G01*
G75*
G02*
X142662Y203036I3990J0D01*
G01*
G75*
G02*
X145878Y207317I3974J364D01*
G01*
G75*
G02*
X145795Y208124I3909J806D01*
G01*
X163841Y183975D02*
G75*
G02*
X174209Y182022I5000J-1954D01*
G01*
G75*
G02*
X170794Y177022I-5368J0D01*
G01*
G75*
G02*
X168841Y166654I-1954J-5000D01*
G01*
G75*
G02*
X163841Y170068I0J5368D01*
G01*
G75*
G02*
X153841I-5000J1954D01*
G01*
G75*
G02*
X143472Y172022I-5000J1954D01*
G01*
G75*
G02*
X146887Y177022I5368J0D01*
G01*
G75*
G02*
X148841Y187390I1954J5000D01*
G01*
G75*
G02*
X153841Y183975I0J-5368D01*
G01*
G75*
G02*
X163841I5000J-1954D01*
G01*
X180869Y155400D02*
G75*
G02*
X185272Y151431I413J-3969D01*
G01*
G75*
G02*
X180869Y147462I-3990J0D01*
G01*
G75*
G02*
X180941Y146707I-3917J-755D01*
G01*
G75*
G02*
X180869Y145951I-3989J-1D01*
G01*
G75*
G02*
X185272Y141982I413J-3969D01*
G01*
G75*
G02*
X180869Y138013I-3990J0D01*
G01*
G75*
G02*
X180941Y137258I-3917J-755D01*
G01*
G75*
G02*
X180869Y136502I-3989J-1D01*
G01*
G75*
G02*
X185272Y132533I413J-3969D01*
G01*
G75*
G02*
X177291I-3990J0D01*
G01*
G75*
G02*
X177363Y133289I3989J1D01*
G01*
G75*
G02*
X172961Y137258I-413J3969D01*
G01*
G75*
G02*
X177363Y141227I3990J0D01*
G01*
G75*
G02*
X177291Y141982I3917J755D01*
G01*
G75*
G02*
X177363Y142738I3989J1D01*
G01*
G75*
G02*
X172961Y146707I-413J3969D01*
G01*
G75*
G02*
X177363Y150676I3990J0D01*
G01*
G75*
G02*
X177291Y151431I3917J755D01*
G01*
G75*
G02*
X177363Y152187I3989J1D01*
G01*
G75*
G02*
X172961Y156156I-413J3969D01*
G01*
G75*
G02*
X180941I3990J0D01*
G01*
G75*
G02*
X180869Y155400I-3989J-1D01*
G01*
X173998Y47705D02*
G75*
G02*
X178776Y42927I0J-4778D01*
G01*
G75*
G02*
X173998Y38150I-4778J0D01*
G01*
X171242D01*
G75*
G02*
X166465Y42927I0J4778D01*
G01*
G75*
G02*
X171242Y47705I4778J0D01*
G01*
X173998D01*
Y57705D02*
G75*
G02*
X178776Y52927I0J-4778D01*
G01*
G75*
G02*
X173998Y48150I-4778J0D01*
G01*
X171242D01*
G75*
G02*
X166465Y52927I0J4778D01*
G01*
G75*
G02*
X171242Y57705I4778J0D01*
G01*
X173998D01*
Y67705D02*
G75*
G02*
X178776Y62927I0J-4778D01*
G01*
G75*
G02*
X173998Y58150I-4778J0D01*
G01*
X171242D01*
G75*
G02*
X166465Y62927I0J4778D01*
G01*
G75*
G02*
X171242Y67705I4778J0D01*
G01*
X173998D01*
Y77705D02*
G75*
G02*
X178776Y72927I0J-4778D01*
G01*
G75*
G02*
X173998Y68150I-4778J0D01*
G01*
X171242D01*
G75*
G02*
X166465Y72927I0J4778D01*
G01*
G75*
G02*
X171242Y77705I4778J0D01*
G01*
X173998D01*
Y87705D02*
G75*
G02*
Y78150I0J-4778D01*
G01*
X171242D01*
G75*
G02*
X166465Y82927I0J4778D01*
G01*
G75*
G02*
X171242Y87705I4778J0D01*
G01*
X173998D01*
Y97705D02*
G75*
G02*
Y88150I0J-4778D01*
G01*
X171242D01*
G75*
G02*
X166465Y92927I0J4778D01*
G01*
G75*
G02*
X171242Y97705I4778J0D01*
G01*
X173998D01*
Y107705D02*
G75*
G02*
X178776Y102927I0J-4778D01*
G01*
G75*
G02*
X173998Y98150I-4778J0D01*
G01*
X171242D01*
G75*
G02*
X166465Y102927I0J4778D01*
G01*
G75*
G02*
X171242Y107705I4778J0D01*
G01*
X173998D01*
Y117705D02*
G75*
G02*
X178776Y112927I0J-4778D01*
G01*
G75*
G02*
X173998Y108150I-4778J0D01*
G01*
X171242D01*
G75*
G02*
X166465Y112927I0J4778D01*
G01*
G75*
G02*
X171242Y117705I4778J0D01*
G01*
X173998D01*
Y127705D02*
G75*
G02*
X178776Y122927I0J-4778D01*
G01*
G75*
G02*
X173998Y118150I-4778J0D01*
G01*
X171242D01*
G75*
G02*
X166465Y122927I0J4778D01*
G01*
G75*
G02*
X171242Y127705I4778J0D01*
G01*
X173998D01*
X147151Y261665D02*
G75*
G02*
X151807Y257730I666J-3934D01*
G01*
G75*
G02*
X143827I-3990J0D01*
G01*
G75*
G02*
X144152Y259308I3990J0D01*
G01*
G75*
G02*
X140601Y265998I-666J3934D01*
G01*
G75*
G02*
Y271510I2885J2756D01*
G01*
G75*
G02*
X139496Y274266I2885J2756D01*
G01*
G75*
G02*
X147476I3990J0D01*
G01*
G75*
G02*
X146372Y271510I-3990J0D01*
G01*
G75*
G02*
Y265998I-2885J-2756D01*
G01*
G75*
G02*
X147151Y261665I-2885J-2756D01*
G01*
X148157Y242376D02*
G75*
G02*
X156138I3990J0D01*
G01*
G75*
G02*
X148157I-3990J0D01*
G01*
X149732Y216785D02*
G75*
G02*
X157713I3990J0D01*
G01*
G75*
G02*
X149732I-3990J0D01*
G01*
X118236Y145132D02*
G75*
G02*
X126217I3990J0D01*
G01*
G75*
G02*
X118236I-3990J0D01*
G01*
X126754Y47705D02*
G75*
G02*
X131531Y42927I0J-4778D01*
G01*
G75*
G02*
X126754Y38150I-4778J0D01*
G01*
X123998D01*
G75*
G02*
X119220Y42927I0J4778D01*
G01*
G75*
G02*
X123998Y47705I4778J0D01*
G01*
X126754D01*
Y57705D02*
G75*
G02*
X131531Y52927I0J-4778D01*
G01*
G75*
G02*
X126754Y48150I-4778J0D01*
G01*
X123998D01*
G75*
G02*
X119220Y52927I0J4778D01*
G01*
G75*
G02*
X123998Y57705I4778J0D01*
G01*
X126754D01*
Y67705D02*
G75*
G02*
X131531Y62927I0J-4778D01*
G01*
G75*
G02*
X126754Y58150I-4778J0D01*
G01*
X123998D01*
G75*
G02*
X119220Y62927I0J4778D01*
G01*
G75*
G02*
X123998Y67705I4778J0D01*
G01*
X126754D01*
Y77705D02*
G75*
G02*
X131531Y72927I0J-4778D01*
G01*
G75*
G02*
X126754Y68150I-4778J0D01*
G01*
X123998D01*
G75*
G02*
X119220Y72927I0J4778D01*
G01*
G75*
G02*
X123998Y77705I4778J0D01*
G01*
X126754D01*
Y87705D02*
G75*
G02*
Y78150I0J-4778D01*
G01*
X123998D01*
G75*
G02*
X119220Y82927I0J4778D01*
G01*
G75*
G02*
X123998Y87705I4778J0D01*
G01*
X126754D01*
Y97705D02*
G75*
G02*
X131531Y92927I0J-4778D01*
G01*
G75*
G02*
X126754Y88150I-4778J0D01*
G01*
X123998D01*
G75*
G02*
X119220Y92927I0J4778D01*
G01*
G75*
G02*
X123998Y97705I4778J0D01*
G01*
X126754D01*
Y107705D02*
G75*
G02*
X131531Y102927I0J-4778D01*
G01*
G75*
G02*
X126754Y98150I-4778J0D01*
G01*
X123998D01*
G75*
G02*
X119220Y102927I0J4778D01*
G01*
G75*
G02*
X123998Y107705I4778J0D01*
G01*
X126754D01*
Y117705D02*
G75*
G02*
X131531Y112927I0J-4778D01*
G01*
G75*
G02*
X126754Y108150I-4778J0D01*
G01*
X123998D01*
G75*
G02*
X119220Y112927I0J4778D01*
G01*
G75*
G02*
X123998Y117705I4778J0D01*
G01*
X126754D01*
X119811Y135683D02*
G75*
G02*
X127791I3990J0D01*
G01*
G75*
G02*
X119811I-3990J0D01*
G01*
X120598Y262061D02*
G75*
G02*
X128579I3990J0D01*
G01*
G75*
G02*
X120598I-3990J0D01*
G01*
X131138Y230902D02*
G75*
G02*
X136059Y227022I931J-3880D01*
G01*
G75*
G02*
X128079I-3990J0D01*
G01*
G75*
G02*
X128276Y228260I3990J0D01*
G01*
G75*
G02*
X123354Y232140I-931J3880D01*
G01*
G75*
G02*
X131335I3990J0D01*
G01*
G75*
G02*
X131138Y230902I-3990J0D01*
G01*
X123354Y299463D02*
G75*
G02*
X131335I3990J0D01*
G01*
G75*
G02*
X123354I-3990J0D01*
G01*
X98945Y262061D02*
G75*
G02*
X106925I3990J0D01*
G01*
G75*
G02*
X98945I-3990J0D01*
G01*
Y277415D02*
G75*
G02*
X106925I3990J0D01*
G01*
G75*
G02*
X98945I-3990J0D01*
G01*
X73157Y167415D02*
G75*
G02*
X83106I4974J0D01*
G01*
G75*
G02*
X73157I-4974J0D01*
G01*
Y187415D02*
G75*
G02*
X83106I4974J0D01*
G01*
G75*
G02*
X73157I-4974J0D01*
G01*
X22764Y31746D02*
G75*
G02*
X50823I14030J0D01*
G01*
G75*
G02*
X22764I-14030J0D01*
G01*
X634136Y21418D02*
G75*
G02*
X641965Y20329I3839J-1089D01*
G01*
G75*
G02*
X634136Y19239I-3990J0D01*
G01*
G75*
G02*
X626307Y20329I-3839J1089D01*
G01*
G75*
G02*
X634136Y21418I3990J0D01*
G01*
X19327Y22691D02*
G36*
X19327Y22691D02*
Y17323D01*
X22764Y13886D01*
X651610D01*
X654510Y16785D01*
X645061D01*
X643093Y18754D01*
Y22691D01*
X641190D01*
G75*
G02*
X641965Y20329I-3216J-2362D01*
G01*
G75*
G02*
X634136Y19239I-3990J0D01*
G01*
G75*
G02*
X626307Y20329I-3839J1089D01*
G01*
G75*
G02*
X627081Y22691I3990J0D01*
G01*
X541211D01*
G75*
G02*
X542752Y19541I-2450J-3150D01*
G01*
G75*
G02*
X534772I-3990J0D01*
G01*
G75*
G02*
X536312Y22691I3990J0D01*
G01*
X441210D01*
G75*
G02*
X419778I-10716J9056D01*
G01*
X319327D01*
G75*
G02*
X311346I-3990J0D01*
G01*
X47509D01*
G75*
G02*
X26077I-10716J9056D01*
G01*
X19327D01*
G37*
X633513D02*
G36*
X633513Y22691D02*
G75*
G02*
X634136Y21418I-3216J-2362D01*
G01*
G75*
G02*
X634759Y22691I3839J-1089D01*
G01*
X633513D01*
G37*
X19327Y27415D02*
G36*
X19327Y27415D02*
Y22691D01*
X26077D01*
G75*
G02*
X23449Y27415I10716J9055D01*
G01*
X19327D01*
G37*
X50138D02*
G36*
X50138Y27415D02*
G75*
G02*
X47509Y22691I-13344J4331D01*
G01*
X311346D01*
G75*
G02*
X319327I3990J0D01*
G01*
X419778D01*
G75*
G02*
X417150Y27415I10716J9055D01*
G01*
X50138D01*
G37*
X443839D02*
G36*
X443839Y27415D02*
G75*
G02*
X441210Y22691I-13344J4331D01*
G01*
X536312D01*
G75*
G02*
X541211I2450J-3150D01*
G01*
X627081D01*
G75*
G02*
X633513I3216J-2362D01*
G01*
X634759D01*
G75*
G02*
X641190I3216J-2362D01*
G01*
X643093D01*
Y27415D01*
X620258D01*
X616715Y23872D01*
X592699D01*
X589156Y27415D01*
X575823D01*
G75*
G02*
X567843I-3990J0D01*
G01*
X443839D01*
G37*
X19327Y37652D02*
G36*
X19327Y37652D02*
Y27415D01*
X23449D01*
G75*
G02*
X22764Y31746I13344J4330D01*
G01*
G75*
G02*
X24067Y37652I14030J0D01*
G01*
X19327D01*
G37*
X50823Y31746D02*
G36*
X50823Y31746D02*
G75*
G02*
X50138Y27415I-14030J0D01*
G01*
X417150D01*
G75*
G02*
X416465Y31746I13344J4330D01*
G01*
G75*
G02*
X417768Y37652I14030J0D01*
G01*
X372482D01*
G75*
G02*
X371183I-649J3938D01*
G01*
X216374D01*
G75*
G02*
X208394I-3990J0D01*
G01*
X194327D01*
G75*
G02*
X186346I-3990J0D01*
G01*
X49519D01*
G75*
G02*
X50823Y31746I-12726J-5906D01*
G01*
G37*
X444524D02*
G36*
X444524Y31746D02*
G75*
G02*
X443839Y27415I-14030J0D01*
G01*
X567843D01*
G75*
G02*
X575823I3990J0D01*
G01*
X589156D01*
X587974Y28596D01*
Y37652D01*
X443220D01*
G75*
G02*
X444524Y31746I-12726J-5906D01*
G01*
G37*
X622620Y29778D02*
G36*
X622620Y29778D02*
X620258Y27415D01*
X643093D01*
X640730Y29778D01*
X622620D01*
G37*
X19327Y41589D02*
G36*
X19327Y41589D02*
Y37652D01*
X24067D01*
G75*
G02*
X26796Y41589I12726J-5906D01*
G01*
X19327D01*
G37*
X46791D02*
G36*
X46791Y41589D02*
G75*
G02*
X49519Y37652I-9998J-9843D01*
G01*
X186346D01*
G75*
G02*
X189687Y41589I3990J0D01*
G01*
X178584D01*
G75*
G02*
X173998Y38150I-4586J1338D01*
G01*
X171242D01*
G75*
G02*
X166656Y41589I0J4777D01*
G01*
X156537D01*
G75*
G02*
X151951Y38150I-4586J1338D01*
G01*
X149195D01*
G75*
G02*
X144609Y41589I0J4777D01*
G01*
X131340D01*
G75*
G02*
X126754Y38150I-4586J1338D01*
G01*
X123998D01*
G75*
G02*
X119412Y41589I0J4777D01*
G01*
X46791D01*
G37*
X190986D02*
G36*
X190986Y41589D02*
G75*
G02*
X194327Y37652I-649J-3937D01*
G01*
X208394D01*
G75*
G02*
X211735Y41589I3990J0D01*
G01*
X190986D01*
G37*
X213033D02*
G36*
X213033Y41589D02*
G75*
G02*
X216374Y37652I-649J-3937D01*
G01*
X371183D01*
G75*
G02*
X367843Y41589I649J3937D01*
G01*
X213033D01*
G37*
X375823D02*
G36*
X375823Y41589D02*
G75*
G02*
X372482Y37652I-3990J0D01*
G01*
X417768D01*
G75*
G02*
X420496Y41589I12726J-5906D01*
G01*
X375823D01*
G37*
X440492D02*
G36*
X440492Y41589D02*
G75*
G02*
X443220Y37652I-9998J-9843D01*
G01*
X587974D01*
Y41589D01*
X440492D01*
G37*
X19327Y47888D02*
G36*
X19327Y47888D02*
Y41589D01*
X26796D01*
G75*
G02*
X46791I9998J-9843D01*
G01*
X119412D01*
G75*
G02*
X119220Y42927I4586J1339D01*
G01*
Y42927D01*
Y42928D01*
G75*
G02*
X123998Y47705I4778J0D01*
G01*
X126754D01*
G75*
G02*
X131531Y42928I0J-4777D01*
G01*
Y42927D01*
Y42927D01*
G75*
G02*
X131340Y41589I-4777J0D01*
G01*
X144609D01*
G75*
G02*
X144417Y42927I4586J1339D01*
G01*
Y42927D01*
Y42928D01*
G75*
G02*
X149195Y47705I4778J0D01*
G01*
X151951D01*
G75*
G02*
X156728Y42928I0J-4777D01*
G01*
Y42927D01*
Y42927D01*
G75*
G02*
X156537Y41589I-4777J0D01*
G01*
X166656D01*
G75*
G02*
X166465Y42927I4586J1339D01*
G01*
Y42927D01*
Y42928D01*
G75*
G02*
X171242Y47705I4778J0D01*
G01*
X173998D01*
G75*
G02*
X178776Y42928I0J-4777D01*
G01*
Y42927D01*
Y42927D01*
G75*
G02*
X178584Y41589I-4777J0D01*
G01*
X189687D01*
G75*
G02*
X190986I649J-3938D01*
G01*
X211735D01*
G75*
G02*
X213033I649J-3938D01*
G01*
X367843D01*
G75*
G02*
X375823I3990J0D01*
G01*
X420496D01*
G75*
G02*
X440492I9998J-9843D01*
G01*
X587974D01*
Y47888D01*
X369566D01*
G75*
G02*
X361501I-4033J3543D01*
G01*
X355350D01*
G75*
G02*
X347370I-3990J0D01*
G01*
X19327D01*
G37*
Y53400D02*
G36*
X19327Y53400D02*
Y47888D01*
X347370D01*
G75*
G02*
X355350I3990J0D01*
G01*
X361501D01*
G75*
G02*
X360165Y51431I4033J3543D01*
G01*
G75*
G02*
X360539Y53400I5368J0D01*
G01*
X178752D01*
G75*
G02*
X178776Y52928I-4754J-470D01*
G01*
Y52927D01*
Y52927D01*
G75*
G02*
X173998Y48150I-4778J0D01*
G01*
X171242D01*
G75*
G02*
X166465Y52927I0J4777D01*
G01*
Y52927D01*
Y52928D01*
G75*
G02*
X166488Y53400I4777J2D01*
G01*
X156705D01*
G75*
G02*
X156728Y52928I-4754J-470D01*
G01*
Y52927D01*
Y52927D01*
G75*
G02*
X151951Y48150I-4778J0D01*
G01*
X149195D01*
G75*
G02*
X144417Y52927I0J4777D01*
G01*
Y52927D01*
Y52928D01*
G75*
G02*
X144441Y53400I4777J2D01*
G01*
X131508D01*
G75*
G02*
X131531Y52928I-4754J-470D01*
G01*
Y52927D01*
Y52927D01*
G75*
G02*
X126754Y48150I-4778J0D01*
G01*
X123998D01*
G75*
G02*
X119220Y52927I0J4777D01*
G01*
Y52927D01*
Y52928D01*
G75*
G02*
X119244Y53400I4777J2D01*
G01*
X19327D01*
G37*
X370902Y51431D02*
G36*
X370902Y51431D02*
G75*
G02*
X369566Y47888I-5368J0D01*
G01*
X587974D01*
Y52219D01*
X589156Y53400D01*
X584359D01*
G75*
G02*
X577417I-3471J1969D01*
G01*
X575823D01*
G75*
G02*
X567843I-3990J0D01*
G01*
X370528D01*
G75*
G02*
X370902Y51431I-4994J-1969D01*
G01*
G37*
X620258Y53400D02*
G36*
X620258Y53400D02*
X622620Y51037D01*
X640730D01*
X643093Y53400D01*
X620258D01*
G37*
X19327Y58518D02*
G36*
X19327Y58518D02*
Y53400D01*
X119244D01*
G75*
G02*
X123998Y57705I4754J-472D01*
G01*
X126754D01*
G75*
G02*
X131508Y53400I0J-4777D01*
G01*
X144441D01*
G75*
G02*
X149195Y57705I4754J-472D01*
G01*
X151951D01*
G75*
G02*
X156705Y53400I0J-4777D01*
G01*
X166488D01*
G75*
G02*
X171242Y57705I4754J-472D01*
G01*
X173998D01*
G75*
G02*
X178752Y53400I0J-4777D01*
G01*
X360539D01*
G75*
G02*
X370528I4994J-1969D01*
G01*
X567843D01*
G75*
G02*
X575823I3990J0D01*
G01*
X577417D01*
G75*
G02*
X576898Y55368I3471J1969D01*
G01*
G75*
G02*
X578438Y58518I3990J0D01*
G01*
X425429D01*
G75*
G02*
X417449I-3990J0D01*
G01*
X175837D01*
G75*
G02*
X173998Y58150I-1839J4409D01*
G01*
X171242D01*
G75*
G02*
X169403Y58518I0J4778D01*
G01*
X153790D01*
G75*
G02*
X151951Y58150I-1839J4409D01*
G01*
X149195D01*
G75*
G02*
X147356Y58518I0J4778D01*
G01*
X128593D01*
G75*
G02*
X126754Y58150I-1839J4409D01*
G01*
X123998D01*
G75*
G02*
X122159Y58518I0J4778D01*
G01*
X19327D01*
G37*
X584878Y55368D02*
G36*
X584878Y55368D02*
G75*
G02*
X584359Y53400I-3990J0D01*
G01*
X589156D01*
X592699Y56943D01*
X616715D01*
X620258Y53400D01*
X643093D01*
Y58518D01*
X641247D01*
G75*
G02*
X633915I-3666J1575D01*
G01*
X583337D01*
G75*
G02*
X584878Y55368I-2450J-3150D01*
G01*
G37*
X19327Y65604D02*
G36*
X19327Y65604D02*
Y58518D01*
X122159D01*
G75*
G02*
X119220Y62927I1839J4409D01*
G01*
Y62927D01*
Y62928D01*
G75*
G02*
X120041Y65604I4777J0D01*
G01*
X19327D01*
G37*
X131531Y62927D02*
G36*
X131531Y62927D02*
G75*
G02*
X128593Y58518I-4777J0D01*
G01*
X147356D01*
G75*
G02*
X144417Y62927I1839J4409D01*
G01*
Y62927D01*
Y62928D01*
G75*
G02*
X145238Y65604I4777J0D01*
G01*
X130711D01*
G75*
G02*
X131531Y62928I-3957J-2677D01*
G01*
Y62927D01*
Y62927D01*
G37*
X156728D02*
G36*
X156728Y62927D02*
G75*
G02*
X153790Y58518I-4777J0D01*
G01*
X169403D01*
G75*
G02*
X166465Y62927I1839J4409D01*
G01*
Y62927D01*
Y62928D01*
G75*
G02*
X167285Y65604I4777J0D01*
G01*
X155908D01*
G75*
G02*
X156728Y62928I-3957J-2677D01*
G01*
Y62927D01*
Y62927D01*
G37*
X178776D02*
G36*
X178776Y62927D02*
G75*
G02*
X175837Y58518I-4777J0D01*
G01*
X417449D01*
G75*
G02*
X425429I3990J0D01*
G01*
X578438D01*
G75*
G02*
X583337I2450J-3150D01*
G01*
X633915D01*
G75*
G02*
X633591Y60093I3666J1575D01*
G01*
G75*
G02*
X641571I3990J0D01*
G01*
G75*
G02*
X641247Y58518I-3990J0D01*
G01*
X643093D01*
Y63636D01*
X645061Y65604D01*
X618736D01*
G75*
G02*
X610756I-3990J0D01*
G01*
X558928D01*
G75*
G02*
X554029I-2450J3150D01*
G01*
X177955D01*
G75*
G02*
X178776Y62928I-3957J-2677D01*
G01*
Y62927D01*
Y62927D01*
G37*
X654904Y65604D02*
G36*
X654904Y65604D02*
Y62061D01*
X658447Y65604D01*
X654904D01*
G37*
X19327Y72297D02*
G36*
X19327Y72297D02*
Y65604D01*
X120041D01*
G75*
G02*
X123998Y67705I3957J-2677D01*
G01*
X126754D01*
G75*
G02*
X130711Y65604I0J-4777D01*
G01*
X145238D01*
G75*
G02*
X149195Y67705I3957J-2677D01*
G01*
X151951D01*
G75*
G02*
X155908Y65604I0J-4777D01*
G01*
X167285D01*
G75*
G02*
X171242Y67705I3957J-2677D01*
G01*
X173998D01*
G75*
G02*
X177955Y65604I0J-4777D01*
G01*
X554029D01*
G75*
G02*
X552488Y68754I2450J3150D01*
G01*
G75*
G02*
X554644Y72297I3990J0D01*
G01*
X376356D01*
G75*
G02*
X365735I-5310J787D01*
G01*
X330547D01*
G75*
G02*
X322567I-3990J0D01*
G01*
X178734D01*
G75*
G02*
X173998Y68150I-4735J630D01*
G01*
X171242D01*
G75*
G02*
X166506Y72297I0J4777D01*
G01*
X156687D01*
G75*
G02*
X151951Y68150I-4735J630D01*
G01*
X149195D01*
G75*
G02*
X144459Y72297I0J4777D01*
G01*
X131490D01*
G75*
G02*
X126754Y68150I-4735J630D01*
G01*
X123998D01*
G75*
G02*
X119262Y72297I0J4777D01*
G01*
X19327D01*
G37*
X560469Y68754D02*
G36*
X560469Y68754D02*
G75*
G02*
X558928Y65604I-3990J0D01*
G01*
X610756D01*
G75*
G02*
X618736I3990J0D01*
G01*
X645061D01*
X645455Y65998D01*
X654904D01*
Y65604D01*
X658447D01*
X658841Y65998D01*
X667436D01*
G75*
G02*
X666661Y68359I3213J2361D01*
G01*
G75*
G02*
Y68360I5639J0D01*
G01*
G75*
G02*
X670002Y72297I3990J0D01*
G01*
X615793D01*
G75*
G02*
X612124I-1835J3543D01*
G01*
X558313D01*
G75*
G02*
X560469Y68754I-1835J-3543D01*
G01*
G37*
X671302Y72297D02*
G36*
X671302Y72297D02*
G75*
G02*
X674619Y68785I-650J-3937D01*
G01*
X675770Y69935D01*
Y72297D01*
X671302D01*
G37*
X19327Y78990D02*
G36*
X19327Y78990D02*
Y72297D01*
X119262D01*
G75*
G02*
X119220Y72927I4736J630D01*
G01*
Y72927D01*
Y72928D01*
G75*
G02*
X123998Y77705I4778J0D01*
G01*
X126754D01*
G75*
G02*
X131531Y72928I0J-4777D01*
G01*
Y72927D01*
Y72927D01*
G75*
G02*
X131490Y72297I-4778J0D01*
G01*
X144459D01*
G75*
G02*
X144417Y72927I4736J630D01*
G01*
Y72927D01*
Y72928D01*
G75*
G02*
X149195Y77705I4778J0D01*
G01*
X151951D01*
G75*
G02*
X156728Y72928I0J-4777D01*
G01*
Y72927D01*
Y72927D01*
G75*
G02*
X156687Y72297I-4778J0D01*
G01*
X166506D01*
G75*
G02*
X166465Y72927I4736J630D01*
G01*
Y72927D01*
Y72928D01*
G75*
G02*
X171242Y77705I4778J0D01*
G01*
X173998D01*
G75*
G02*
X178776Y72928I0J-4777D01*
G01*
Y72927D01*
Y72927D01*
G75*
G02*
X178734Y72297I-4778J0D01*
G01*
X322567D01*
G75*
G02*
X330547I3990J0D01*
G01*
X365735D01*
G75*
G02*
X365677Y73085I5311J786D01*
G01*
G75*
G02*
X376413I5368J0D01*
G01*
G75*
G02*
X376356Y72297I-5369J-1D01*
G01*
X554644D01*
G75*
G02*
X558313I1835J-3543D01*
G01*
X612124D01*
G75*
G02*
X609969Y75841I1835J3543D01*
G01*
G75*
G02*
X611509Y78990I3990J0D01*
G01*
X514227D01*
G75*
G02*
X506604I-3811J1181D01*
G01*
X500841D01*
G75*
G02*
X493218I-3811J1181D01*
G01*
X388628D01*
G75*
G02*
X384959I-1835J3543D01*
G01*
X176704D01*
G75*
G02*
X173998Y78150I-2706J3937D01*
G01*
X171242D01*
G75*
G02*
X168535Y78990I0J4777D01*
G01*
X154657D01*
G75*
G02*
X151951Y78150I-2706J3937D01*
G01*
X149195D01*
G75*
G02*
X146488Y78990I0J4777D01*
G01*
X129460D01*
G75*
G02*
X126754Y78150I-2706J3937D01*
G01*
X123998D01*
G75*
G02*
X121291Y78990I0J4777D01*
G01*
X19327D01*
G37*
X617949Y75841D02*
G36*
X617949Y75841D02*
G75*
G02*
X615793Y72297I-3990J0D01*
G01*
X670002D01*
G75*
G02*
X671302I650J-3937D01*
G01*
X675770D01*
Y78990D01*
X675429D01*
G75*
G02*
X667449I-3990J0D01*
G01*
X616408D01*
G75*
G02*
X617949Y75841I-2450J-3150D01*
G01*
G37*
X19327Y88439D02*
G36*
X19327Y88439D02*
Y78990D01*
X121291D01*
G75*
G02*
X119220Y82927I2706J3937D01*
G01*
Y82927D01*
Y82928D01*
G75*
G02*
X123998Y87705I4778J0D01*
G01*
X126754D01*
G75*
G02*
X131531Y82927I0J-4778D01*
G01*
G75*
G02*
X129460Y78990I-4778J0D01*
G01*
X146488D01*
G75*
G02*
X144417Y82927I2706J3937D01*
G01*
Y82927D01*
Y82928D01*
G75*
G02*
X149195Y87705I4778J0D01*
G01*
X151951D01*
G75*
G02*
X156728Y82928I0J-4777D01*
G01*
Y82927D01*
Y82927D01*
G75*
G02*
X154657Y78990I-4777J0D01*
G01*
X168535D01*
G75*
G02*
X166465Y82927I2706J3937D01*
G01*
Y82927D01*
Y82928D01*
G75*
G02*
X171242Y87705I4778J0D01*
G01*
X173998D01*
G75*
G02*
X178776Y82927I0J-4778D01*
G01*
G75*
G02*
X176704Y78990I-4778J0D01*
G01*
X384959D01*
G75*
G02*
X382803Y82533I1835J3543D01*
G01*
G75*
G02*
X390783I3990J0D01*
G01*
G75*
G02*
X388628Y78990I-3990J0D01*
G01*
X493218D01*
G75*
G02*
X493039Y80171I3811J1181D01*
G01*
G75*
G02*
X501020I3990J0D01*
G01*
G75*
G02*
X500841Y78990I-3990J0D01*
G01*
X506604D01*
G75*
G02*
X506425Y80171I3811J1181D01*
G01*
G75*
G02*
X514406I3990J0D01*
G01*
G75*
G02*
X514227Y78990I-3990J0D01*
G01*
X611509D01*
G75*
G02*
X616408I2450J-3150D01*
G01*
X667449D01*
G75*
G02*
X675429I3990J0D01*
G01*
X675770D01*
Y88439D01*
X626610D01*
G75*
G02*
X618630I-3990J0D01*
G01*
X175635D01*
G75*
G02*
X173998Y88150I-1637J4488D01*
G01*
X171242D01*
G75*
G02*
X169604Y88439I0J4778D01*
G01*
X153589D01*
G75*
G02*
X151951Y88150I-1637J4488D01*
G01*
X149195D01*
G75*
G02*
X147557Y88439I0J4778D01*
G01*
X128392D01*
G75*
G02*
X126754Y88150I-1637J4488D01*
G01*
X123998D01*
G75*
G02*
X122360Y88439I0J4778D01*
G01*
X19327D01*
G37*
Y93163D02*
G36*
X19327Y93163D02*
Y88439D01*
X122360D01*
G75*
G02*
X119220Y92927I1637J4488D01*
G01*
Y92927D01*
Y92928D01*
G75*
G02*
X119226Y93163I4776J-2D01*
G01*
X19327D01*
G37*
X131531Y92927D02*
G36*
X131531Y92927D02*
G75*
G02*
X128392Y88439I-4777J0D01*
G01*
X147557D01*
G75*
G02*
X144417Y92927I1637J4488D01*
G01*
Y92927D01*
Y92928D01*
G75*
G02*
X144423Y93163I4776J-2D01*
G01*
X131526D01*
G75*
G02*
X131531Y92928I-4770J-237D01*
G01*
Y92927D01*
Y92927D01*
G37*
X156728D02*
G36*
X156728Y92927D02*
G75*
G02*
X153589Y88439I-4777J0D01*
G01*
X169604D01*
G75*
G02*
X166465Y92927I1637J4488D01*
G01*
Y92927D01*
Y92928D01*
G75*
G02*
X166470Y93163I4776J-2D01*
G01*
X156722D01*
G75*
G02*
X156728Y92928I-4770J-237D01*
G01*
Y92927D01*
Y92927D01*
G37*
X178776Y92927D02*
G36*
X178776Y92927D02*
G75*
G02*
X175635Y88439I-4778J0D01*
G01*
X618630D01*
G75*
G02*
X626610I3990J0D01*
G01*
X675770D01*
Y93163D01*
X311650D01*
G75*
G02*
X303669I-3990J0D01*
G01*
X178770D01*
G75*
G02*
X178776Y92927I-4772J-237D01*
G01*
G37*
X19327Y100644D02*
G36*
X19327Y100644D02*
Y93163D01*
X119226D01*
G75*
G02*
X123998Y97705I4771J-236D01*
G01*
X126754D01*
G75*
G02*
X131526Y93163I0J-4777D01*
G01*
X144423D01*
G75*
G02*
X149195Y97705I4771J-236D01*
G01*
X151951D01*
G75*
G02*
X156722Y93163I0J-4777D01*
G01*
X166470D01*
G75*
G02*
X171242Y97705I4771J-236D01*
G01*
X173998D01*
G75*
G02*
X178770Y93163I0J-4778D01*
G01*
X303669D01*
G75*
G02*
X311650I3990J0D01*
G01*
X675770D01*
Y100644D01*
X615621D01*
G75*
G02*
X617161Y97494I-2450J-3150D01*
G01*
G75*
G02*
X609181I-3990J0D01*
G01*
G75*
G02*
X610722Y100644I3990J0D01*
G01*
X465193D01*
G75*
G02*
X457213I-3990J0D01*
G01*
X178195D01*
G75*
G02*
X173998Y98150I-4196J2283D01*
G01*
X171242D01*
G75*
G02*
X167045Y100644I0J4778D01*
G01*
X156148D01*
G75*
G02*
X151951Y98150I-4196J2283D01*
G01*
X149195D01*
G75*
G02*
X144998Y100644I0J4778D01*
G01*
X130951D01*
G75*
G02*
X126754Y98150I-4196J2283D01*
G01*
X123998D01*
G75*
G02*
X119801Y100644I0J4778D01*
G01*
X19327D01*
G37*
Y109699D02*
G36*
X19327Y109699D02*
Y100644D01*
X119801D01*
G75*
G02*
X119220Y102927I4196J2283D01*
G01*
Y102927D01*
Y102928D01*
G75*
G02*
X123998Y107705I4778J0D01*
G01*
X126754D01*
G75*
G02*
X131531Y102928I0J-4777D01*
G01*
Y102927D01*
Y102927D01*
G75*
G02*
X130951Y100644I-4777J0D01*
G01*
X144998D01*
G75*
G02*
X144417Y102927I4196J2283D01*
G01*
Y102927D01*
Y102928D01*
G75*
G02*
X149195Y107705I4778J0D01*
G01*
X151951D01*
G75*
G02*
X156728Y102928I0J-4777D01*
G01*
Y102927D01*
Y102927D01*
G75*
G02*
X156148Y100644I-4777J0D01*
G01*
X167045D01*
G75*
G02*
X166465Y102927I4196J2283D01*
G01*
Y102927D01*
Y102928D01*
G75*
G02*
X171242Y107705I4778J0D01*
G01*
X173998D01*
G75*
G02*
X178776Y102928I0J-4777D01*
G01*
Y102927D01*
Y102927D01*
G75*
G02*
X178195Y100644I-4777J0D01*
G01*
X457213D01*
G75*
G02*
X465193I3990J0D01*
G01*
X610722D01*
G75*
G02*
X615621I2450J-3150D01*
G01*
X675770D01*
Y109699D01*
X600481D01*
G75*
G02*
X591215I-4633J1811D01*
G01*
X587883D01*
G75*
G02*
X578919Y109063I-4633J1811D01*
G01*
G75*
G02*
X570258I-4331J2447D01*
G01*
G75*
G02*
X561294Y109699I-4331J2448D01*
G01*
X293539D01*
G75*
G02*
X285559I-3990J0D01*
G01*
X269898D01*
G75*
G02*
X269917Y109305I-3971J-392D01*
G01*
G75*
G02*
X261937I-3990J0D01*
G01*
G75*
G02*
X261956Y109699I3991J2D01*
G01*
X177520D01*
G75*
G02*
X173998Y108150I-3522J3228D01*
G01*
X171242D01*
G75*
G02*
X167720Y109699I0J4777D01*
G01*
X155473D01*
G75*
G02*
X151951Y108150I-3522J3228D01*
G01*
X149195D01*
G75*
G02*
X145673Y109699I0J4777D01*
G01*
X130276D01*
G75*
G02*
X126754Y108150I-3522J3228D01*
G01*
X123998D01*
G75*
G02*
X120476Y109699I0J4777D01*
G01*
X19327D01*
G37*
Y119935D02*
G36*
X19327Y119935D02*
Y109699D01*
X120476D01*
G75*
G02*
X119220Y112927I3522J3228D01*
G01*
Y112927D01*
Y112928D01*
G75*
G02*
X123998Y117705I4778J0D01*
G01*
X126754D01*
G75*
G02*
X131531Y112928I0J-4777D01*
G01*
Y112927D01*
Y112927D01*
G75*
G02*
X130276Y109699I-4777J0D01*
G01*
X145673D01*
G75*
G02*
X144417Y112927I3522J3228D01*
G01*
Y112927D01*
Y112928D01*
G75*
G02*
X149195Y117705I4778J0D01*
G01*
X151951D01*
G75*
G02*
X156728Y112928I0J-4777D01*
G01*
Y112927D01*
Y112927D01*
G75*
G02*
X155473Y109699I-4777J0D01*
G01*
X167720D01*
G75*
G02*
X166465Y112927I3522J3228D01*
G01*
Y112927D01*
Y112928D01*
G75*
G02*
X171242Y117705I4778J0D01*
G01*
X173998D01*
G75*
G02*
X178776Y112928I0J-4777D01*
G01*
Y112927D01*
Y112927D01*
G75*
G02*
X177520Y109699I-4777J0D01*
G01*
X261956D01*
G75*
G02*
X269898I3971J-394D01*
G01*
X285559D01*
G75*
G02*
X293539I3990J0D01*
G01*
X561294D01*
G75*
G02*
X560953Y111510I4633J1811D01*
G01*
G75*
G02*
X570258Y113957I4974J0D01*
G01*
G75*
G02*
X578919I4331J-2447D01*
G01*
G75*
G02*
X588224Y111510I4331J-2447D01*
G01*
G75*
G02*
X587883Y109699I-4974J0D01*
G01*
X591215D01*
G75*
G02*
X590874Y111510I4633J1811D01*
G01*
G75*
G02*
X600823I4974J0D01*
G01*
G75*
G02*
X600481Y109699I-4974J0D01*
G01*
X675770D01*
Y116785D01*
X678919Y119935D01*
X632563D01*
G75*
G02*
X614252I-9156J10630D01*
G01*
X495149D01*
G75*
G02*
X496689Y116786I-2449J-3149D01*
G01*
G75*
G02*
Y116785I-5013J0D01*
G01*
G75*
G02*
X492699Y112795I-3990J-1D01*
G01*
G75*
G02*
X488709Y116785I0J3989D01*
G01*
G75*
G02*
Y116786I5013J1D01*
G01*
G75*
G02*
X490249Y119935I3989J0D01*
G01*
X395915D01*
G75*
G02*
X389483I-3216J2362D01*
G01*
X347476D01*
G75*
G02*
X339496I-3990J0D01*
G01*
X177723D01*
G75*
G02*
X173998Y118150I-3724J2992D01*
G01*
X171242D01*
G75*
G02*
X167517Y119935I0J4777D01*
G01*
X155676D01*
G75*
G02*
X151951Y118150I-3724J2992D01*
G01*
X149195D01*
G75*
G02*
X145470Y119935I0J4777D01*
G01*
X19327D01*
G37*
Y128006D02*
G36*
X19327Y128006D02*
Y119935D01*
X145470D01*
G75*
G02*
X144417Y122927I3724J2992D01*
G01*
Y122927D01*
Y122928D01*
G75*
G02*
X149195Y127705I4778J0D01*
G01*
X151951D01*
G75*
G02*
X156728Y122928I0J-4777D01*
G01*
Y122927D01*
Y122927D01*
G75*
G02*
X155676Y119935I-4777J0D01*
G01*
X167517D01*
G75*
G02*
X166465Y122927I3724J2992D01*
G01*
Y122927D01*
Y122928D01*
G75*
G02*
X171242Y127705I4778J0D01*
G01*
X173998D01*
G75*
G02*
X178776Y122928I0J-4777D01*
G01*
Y122927D01*
Y122927D01*
G75*
G02*
X177723Y119935I-4777J0D01*
G01*
X339496D01*
G75*
G02*
X347476I3990J0D01*
G01*
X389483D01*
G75*
G02*
X388709Y122297I3216J2362D01*
G01*
G75*
G02*
X396689I3990J0D01*
G01*
G75*
G02*
X395915Y119935I-3990J0D01*
G01*
X490249D01*
G75*
G02*
X492699Y120776I2450J-3149D01*
G01*
G75*
G02*
X495149Y119935I0J-3989D01*
G01*
X614252D01*
G75*
G02*
X609613Y128006I9156J10630D01*
G01*
X599379D01*
G75*
G02*
X592318I-3531J3504D01*
G01*
X588959D01*
X582069Y121116D01*
X561203D01*
X554904Y127415D01*
Y128006D01*
X377591D01*
G75*
G02*
X377594Y127809I-5371J-195D01*
G01*
G75*
G02*
X367220Y125872I-5368J0D01*
G01*
G75*
G02*
X357019Y128006I-4836J2330D01*
G01*
X19327D01*
G37*
X637202D02*
G36*
X637202Y128006D02*
G75*
G02*
X632563Y119935I-13794J2559D01*
G01*
X678919D01*
X686543Y127559D01*
Y128006D01*
X637202D01*
G37*
X19327Y139226D02*
G36*
X19327Y139226D02*
Y128006D01*
X357019D01*
G75*
G02*
X357016Y128203I5371J195D01*
G01*
G75*
G02*
X367391Y130139I5368J0D01*
G01*
G75*
G02*
X377591Y128006I4836J-2330D01*
G01*
X554904D01*
Y139226D01*
X538828D01*
G75*
G02*
X539602Y136864I-3216J-2362D01*
G01*
G75*
G02*
X534483Y133037I-3990J0D01*
G01*
G75*
G02*
X534484Y132927I-3859J-110D01*
G01*
G75*
G02*
X526504I-3990J0D01*
G01*
G75*
G02*
X531624Y136754I3990J0D01*
G01*
G75*
G02*
X531622Y136864I3859J110D01*
G01*
G75*
G02*
X532396Y139226I3990J0D01*
G01*
X409681D01*
G75*
G02*
X401701I-3990J0D01*
G01*
X218412D01*
G75*
G02*
X211080I-3666J1575D01*
G01*
X184167D01*
G75*
G02*
X180869Y138013I-2886J2756D01*
G01*
G75*
G02*
X180941Y137258I-3937J-757D01*
G01*
G75*
G02*
X180869Y136502I-4009J1D01*
G01*
G75*
G02*
X185272Y132533I413J-3969D01*
G01*
G75*
G02*
X177291I-3990J0D01*
G01*
G75*
G02*
X177363Y133289I4009J-1D01*
G01*
G75*
G02*
X172961Y137258I-413J3969D01*
G01*
G75*
G02*
X173480Y139226I3990J0D01*
G01*
X145584D01*
G75*
G02*
X139813I-2885J2756D01*
G01*
X125636D01*
G75*
G02*
X127791Y135683I-1835J-3543D01*
G01*
G75*
G02*
X119811I-3990J0D01*
G01*
G75*
G02*
X121967Y139226I3990J0D01*
G01*
X19327D01*
G37*
X589549Y128596D02*
G36*
X589549Y128596D02*
X588959Y128006D01*
X592318D01*
G75*
G02*
X590874Y131510I3531J3504D01*
G01*
G75*
G02*
X600823I4974J0D01*
G01*
G75*
G02*
X599379Y128006I-4974J0D01*
G01*
X609613D01*
G75*
G02*
X609378Y130565I13795J2559D01*
G01*
G75*
G02*
X612371Y139226I14030J0D01*
G01*
X591518D01*
X589549Y137258D01*
Y128596D01*
G37*
X637437Y130565D02*
G36*
X637437Y130565D02*
G75*
G02*
X637202Y128006I-14031J0D01*
G01*
X686543D01*
Y139226D01*
X634444D01*
G75*
G02*
X637437Y130565I-11037J-8661D01*
G01*
G37*
X19327Y146313D02*
G36*
X19327Y146313D02*
Y139226D01*
X121967D01*
G75*
G02*
X125636I1835J-3543D01*
G01*
X139813D01*
G75*
G02*
X138709Y141982I2885J2756D01*
G01*
G75*
G02*
X143111Y145951I3990J0D01*
G01*
G75*
G02*
X143059Y146313I3937J759D01*
G01*
X126038D01*
G75*
G02*
X126217Y145132I-3811J-1181D01*
G01*
G75*
G02*
X118236I-3990J0D01*
G01*
G75*
G02*
X118415Y146313I3990J0D01*
G01*
X19327D01*
G37*
X146689Y141982D02*
G36*
X146689Y141982D02*
G75*
G02*
X145584Y139226I-3990J0D01*
G01*
X173480D01*
G75*
G02*
X177363Y141227I3471J-1969D01*
G01*
G75*
G02*
X177291Y141982I3937J757D01*
G01*
G75*
G02*
X177363Y142738I4009J-1D01*
G01*
G75*
G02*
X172980Y146313I-413J3969D01*
G01*
X151000D01*
G75*
G02*
X146617Y142738I-3971J394D01*
G01*
G75*
G02*
X146689Y141982I-3937J-757D01*
G01*
G37*
X180922Y146313D02*
G36*
X180922Y146313D02*
G75*
G02*
X180869Y145951I-3990J397D01*
G01*
G75*
G02*
X185272Y141982I413J-3969D01*
G01*
G75*
G02*
X184167Y139226I-3991J0D01*
G01*
X211080D01*
G75*
G02*
X210756Y140801I3666J1575D01*
G01*
G75*
G02*
X215876Y144628I3990J0D01*
G01*
G75*
G02*
X215874Y144738I3859J110D01*
G01*
G75*
G02*
X216198Y146313I3990J0D01*
G01*
X180922D01*
G37*
X218736Y140801D02*
G36*
X218736Y140801D02*
G75*
G02*
X218412Y139226I-3990J0D01*
G01*
X401701D01*
G75*
G02*
X409681I3990J0D01*
G01*
X532396D01*
G75*
G02*
X538828I3216J-2362D01*
G01*
X554904D01*
Y146313D01*
X402594D01*
G75*
G02*
X394614I-3990J0D01*
G01*
X332592D01*
G75*
G02*
X326821I-2885J2756D01*
G01*
X308894D01*
G75*
G02*
X300913I-3990J0D01*
G01*
X298913D01*
G75*
G02*
X290933I-3990J0D01*
G01*
X228198D01*
G75*
G02*
X223853Y144848I-3216J2363D01*
G01*
G75*
G02*
X223854Y144738I-3859J-110D01*
G01*
G75*
G02*
X218735Y140911I-3990J0D01*
G01*
G75*
G02*
X218736Y140801I-3859J-110D01*
G01*
G37*
X594274Y141982D02*
G36*
X594274Y141982D02*
X591518Y139226D01*
X612371D01*
G75*
G02*
X634444I11037J-8661D01*
G01*
X686543D01*
Y146313D01*
X594274D01*
Y141982D01*
G37*
X19327Y152612D02*
G36*
X19327Y152612D02*
Y146313D01*
X118415D01*
G75*
G02*
X126038I3811J-1181D01*
G01*
X143059D01*
G75*
G02*
X143039Y146707I3989J393D01*
G01*
G75*
G02*
X143111Y147462I4009J-1D01*
G01*
G75*
G02*
X138709Y151431I-413J3969D01*
G01*
G75*
G02*
X138887Y152612I3990J0D01*
G01*
X19327D01*
G37*
X146689Y151431D02*
G36*
X146689Y151431D02*
G75*
G02*
X146617Y150676I-4009J1D01*
G01*
G75*
G02*
X151020Y146707I413J-3969D01*
G01*
G75*
G02*
X151000Y146313I-3991J-2D01*
G01*
X172980D01*
G75*
G02*
X172961Y146707I3971J392D01*
G01*
G75*
G02*
X177363Y150676I3990J0D01*
G01*
G75*
G02*
X177291Y151431I3937J757D01*
G01*
G75*
G02*
X177363Y152187I4009J-1D01*
G01*
G75*
G02*
X175116Y152612I-413J3969D01*
G01*
X148865D01*
G75*
G02*
X146617Y152187I-1835J3544D01*
G01*
G75*
G02*
X146689Y151431I-3937J-757D01*
G01*
G37*
X180941Y146707D02*
G36*
X180941Y146707D02*
G75*
G02*
X180922Y146313I-4009J-1D01*
G01*
X216198D01*
G75*
G02*
X220994Y148565I3666J-1575D01*
G01*
G75*
G02*
X220992Y148675I3859J110D01*
G01*
G75*
G02*
X224333Y152612I3990J0D01*
G01*
X185093D01*
G75*
G02*
X185272Y151431I-3811J-1181D01*
G01*
G75*
G02*
X180869Y147462I-3990J0D01*
G01*
G75*
G02*
X180941Y146707I-3937J-757D01*
G01*
G37*
X228972Y148675D02*
G36*
X228972Y148675D02*
G75*
G02*
X228198Y146313I-3990J0D01*
G01*
X290933D01*
G75*
G02*
X298913I3990J0D01*
G01*
X300913D01*
G75*
G02*
X301403Y148229I3993J0D01*
G01*
G75*
G02*
X297370Y152218I-43J3989D01*
G01*
Y152219D01*
G75*
G02*
X297389Y152612I3991J2D01*
G01*
X225631D01*
G75*
G02*
X228972Y148675I-649J-3937D01*
G01*
G37*
X305350Y152219D02*
G36*
X305350Y152219D02*
G75*
G02*
X304861Y150303I-3993J0D01*
G01*
G75*
G02*
X308894Y146313I43J-3989D01*
G01*
Y146313D01*
X326821D01*
G75*
G02*
X325717Y149069I2885J2756D01*
G01*
G75*
G02*
X327872Y152612I3990J0D01*
G01*
X305331D01*
G75*
G02*
X305350Y152219I-3971J-392D01*
G01*
G37*
X333697Y149069D02*
G36*
X333697Y149069D02*
G75*
G02*
X332592Y146313I-3990J0D01*
G01*
X394614D01*
G75*
G02*
X402594I3990J0D01*
G01*
X554904D01*
Y151037D01*
X556478Y152612D01*
X553978D01*
G75*
G02*
X552680I-649J3938D01*
G01*
X398700D01*
G75*
G02*
X389059I-4820J2362D01*
G01*
X367204D01*
G75*
G02*
X357563I-4820J2362D01*
G01*
X331541D01*
G75*
G02*
X333697Y149069I-1835J-3543D01*
G01*
G37*
X594274Y152612D02*
G36*
X594274Y152612D02*
Y146313D01*
X686543D01*
Y152612D01*
X673067D01*
G75*
G02*
X665087I-3990J0D01*
G01*
X594274D01*
G37*
X19327Y154581D02*
G36*
X19327Y154581D02*
Y152612D01*
X138887D01*
G75*
G02*
X143111Y155400I3811J-1181D01*
G01*
G75*
G02*
X143039Y156156I3937J757D01*
G01*
G75*
G02*
X143059Y156549I3991J2D01*
G01*
X73014D01*
Y154581D01*
X19327D01*
G37*
X151000Y156549D02*
G36*
X151000Y156549D02*
G75*
G02*
X151020Y156156I-3971J-392D01*
G01*
G75*
G02*
X148865Y152612I-3990J0D01*
G01*
X175116D01*
G75*
G02*
X172961Y156156I1835J3543D01*
G01*
G75*
G02*
X172980Y156549I3991J2D01*
G01*
X151000D01*
G37*
X180941Y156156D02*
G36*
X180941Y156156D02*
G75*
G02*
X180869Y155400I-4009J1D01*
G01*
G75*
G02*
X185093Y152612I413J-3969D01*
G01*
X224333D01*
G75*
G02*
X225631I649J-3938D01*
G01*
X297389D01*
G75*
G02*
X305331I3971J-394D01*
G01*
X327872D01*
G75*
G02*
X331541I1835J-3543D01*
G01*
X357563D01*
G75*
G02*
X357016Y154974I4820J2362D01*
G01*
G75*
G02*
X357252Y156549I5368J0D01*
G01*
X180922D01*
G75*
G02*
X180941Y156156I-3971J-392D01*
G01*
G37*
X367752Y154974D02*
G36*
X367752Y154974D02*
G75*
G02*
X367204Y152612I-5368J0D01*
G01*
X389059D01*
G75*
G02*
X388512Y154974I4820J2362D01*
G01*
G75*
G02*
X388748Y156549I5368J0D01*
G01*
X367516D01*
G75*
G02*
X367752Y154974I-5132J-1575D01*
G01*
G37*
X399248D02*
G36*
X399248Y154974D02*
G75*
G02*
X398700Y152612I-5368J0D01*
G01*
X552680D01*
G75*
G02*
X549339Y156549I649J3937D01*
G01*
X399012D01*
G75*
G02*
X399248Y154974I-5132J-1575D01*
G01*
G37*
X553978Y152612D02*
G36*
X553978Y152612D02*
X556478D01*
X560415Y156549D01*
X557319D01*
G75*
G02*
X553978Y152612I-3990J0D01*
G01*
G37*
X594274Y156549D02*
G36*
X594274Y156549D02*
Y152612D01*
X665087D01*
G75*
G02*
X668428Y156549I3990J0D01*
G01*
X594274D01*
G37*
X669726D02*
G36*
X669726Y156549D02*
G75*
G02*
X673067Y152612I-649J-3937D01*
G01*
X686543D01*
Y156549D01*
X669726D01*
G37*
X73014Y171510D02*
G36*
X73014Y171510D02*
Y156549D01*
X143059D01*
G75*
G02*
X151000I3971J-394D01*
G01*
X172980D01*
G75*
G02*
X180922I3971J-394D01*
G01*
X357252D01*
G75*
G02*
X367516I5132J-1575D01*
G01*
X388748D01*
G75*
G02*
X399012I5132J-1575D01*
G01*
X549339D01*
G75*
G02*
X557319I3990J0D01*
G01*
X560415D01*
X561596Y157730D01*
Y171510D01*
X512729D01*
G75*
G02*
X510415Y170986I-2313J4844D01*
G01*
G75*
G02*
X508102Y171510I0J5369D01*
G01*
X185469D01*
G75*
G02*
X174732I-5368J0D01*
G01*
X174184D01*
G75*
G02*
X168841Y166654I-5344J512D01*
G01*
G75*
G02*
X163841Y170068I0J5369D01*
G01*
G75*
G02*
X153841I-5000J1954D01*
G01*
G75*
G02*
X143497Y171510I-5000J1954D01*
G01*
X80957D01*
G75*
G02*
X83106Y167415I-2825J-4094D01*
G01*
G75*
G02*
X73157I-4974J0D01*
G01*
G75*
G02*
X75307Y171510I4974J0D01*
G01*
X73014D01*
G37*
X594274D02*
G36*
X594274Y171510D02*
Y156549D01*
X668428D01*
G75*
G02*
X669726I649J-3938D01*
G01*
X686543D01*
Y171510D01*
X594274D01*
G37*
X73014Y178990D02*
G36*
X73014Y178990D02*
Y171510D01*
X75307D01*
G75*
G02*
X80957I2825J-4094D01*
G01*
X143497D01*
G75*
G02*
X143472Y172022I5344J511D01*
G01*
G75*
G02*
X146887Y177022I5369J0D01*
G01*
G75*
G02*
X144410Y178990I1954J5000D01*
G01*
X73014D01*
G37*
X173270D02*
G36*
X173270Y178990D02*
G75*
G02*
X170794Y177022I-4430J3031D01*
G01*
G75*
G02*
X174209Y172022I-1954J-5000D01*
G01*
G75*
G02*
X174184Y171510I-5368J0D01*
G01*
X174732D01*
G75*
G02*
X185469I5368J0D01*
G01*
X508102D01*
G75*
G02*
X505047Y176354I2313J4844D01*
G01*
G75*
G02*
X505739Y178990I5368J0D01*
G01*
X399233D01*
G75*
G02*
X388526I-5354J394D01*
G01*
X357895D01*
G75*
G02*
X347188I-5354J394D01*
G01*
X308500D01*
G75*
G02*
X300520I-3990J0D01*
G01*
X258894D01*
G75*
G02*
X250913I-3990J0D01*
G01*
X223553D01*
G75*
G02*
X204365I-9594J10236D01*
G01*
X173270D01*
G37*
X515783Y176354D02*
G36*
X515783Y176354D02*
G75*
G02*
X512729Y171510I-5368J0D01*
G01*
X561596D01*
Y178990D01*
X556357D01*
G75*
G02*
X550301I-3028J2598D01*
G01*
X515091D01*
G75*
G02*
X515783Y176354I-4676J-2637D01*
G01*
G37*
X594274Y178990D02*
G36*
X594274Y178990D02*
Y171510D01*
X686543D01*
Y178990D01*
X594274D01*
G37*
X73014Y183321D02*
G36*
X73014Y183321D02*
Y178990D01*
X144410D01*
G75*
G02*
X143472Y182022I4430J3031D01*
G01*
G75*
G02*
X143632Y183321I5368J-1D01*
G01*
X80957D01*
G75*
G02*
X75307I-2825J4094D01*
G01*
X73014D01*
G37*
X174209Y182022D02*
G36*
X174209Y182022D02*
G75*
G02*
X173270Y178990I-5369J0D01*
G01*
X204365D01*
G75*
G02*
X201233Y183321I9594J10237D01*
G01*
X174049D01*
G75*
G02*
X174209Y182022I-5209J-1299D01*
G01*
G37*
X226685Y183321D02*
G36*
X226685Y183321D02*
G75*
G02*
X223553Y178990I-12726J5906D01*
G01*
X250913D01*
G75*
G02*
X258894I3990J0D01*
G01*
X300520D01*
G75*
G02*
X308500I3990J0D01*
G01*
X347188D01*
G75*
G02*
X347173Y179384I5355J395D01*
G01*
G75*
G02*
X348892Y183321I5368J0D01*
G01*
X324248D01*
G75*
G02*
X316268I-3990J0D01*
G01*
X226685D01*
G37*
X357909Y179384D02*
G36*
X357909Y179384D02*
G75*
G02*
X357895Y178990I-5369J2D01*
G01*
X388526D01*
G75*
G02*
X388512Y179384I5355J395D01*
G01*
G75*
G02*
X390231Y183321I5368J0D01*
G01*
X356191D01*
G75*
G02*
X357909Y179384I-3649J-3937D01*
G01*
G37*
X399248D02*
G36*
X399248Y179384D02*
G75*
G02*
X399233Y178990I-5369J2D01*
G01*
X505739D01*
G75*
G02*
X508462Y181354I4676J-2636D01*
G01*
G75*
G02*
X505986Y183321I1954J5000D01*
G01*
X397529D01*
G75*
G02*
X399248Y179384I-3649J-3937D01*
G01*
G37*
X514844Y183321D02*
G36*
X514844Y183321D02*
G75*
G02*
X512369Y181354I-4429J3033D01*
G01*
G75*
G02*
X515091Y178990I-1954J-5000D01*
G01*
X550301D01*
G75*
G02*
X549339Y181589I3028J2599D01*
G01*
G75*
G02*
X549734Y183321I3990J0D01*
G01*
X514844D01*
G37*
X557319Y181589D02*
G36*
X557319Y181589D02*
G75*
G02*
X556357Y178990I-3990J0D01*
G01*
X561596D01*
Y181352D01*
X563171Y182927D01*
X592699D01*
X594274Y181352D01*
Y178990D01*
X686543D01*
Y183321D01*
X556923D01*
G75*
G02*
X557319Y181589I-3594J-1732D01*
G01*
G37*
X73014Y188045D02*
G36*
X73014Y188045D02*
Y183321D01*
X75307D01*
G75*
G02*
X73157Y187415I2825J4094D01*
G01*
G75*
G02*
X73198Y188045I4974J-1D01*
G01*
X73014D01*
G37*
X83106Y187415D02*
G36*
X83106Y187415D02*
G75*
G02*
X80957Y183321I-4974J0D01*
G01*
X143632D01*
G75*
G02*
X148841Y187390I5208J-1299D01*
G01*
G75*
G02*
X153841Y183975I0J-5369D01*
G01*
G75*
G02*
X163841I5000J-1954D01*
G01*
G75*
G02*
X174049Y183321I5000J-1954D01*
G01*
X201233D01*
G75*
G02*
X199979Y188045I12726J5905D01*
G01*
X83066D01*
G75*
G02*
X83106Y187415I-4934J-631D01*
G01*
G37*
X227938Y188045D02*
G36*
X227938Y188045D02*
G75*
G02*
X226685Y183321I-13980J1181D01*
G01*
X316268D01*
G75*
G02*
X324248I3990J0D01*
G01*
X348892D01*
G75*
G02*
X356191I3649J-3937D01*
G01*
X390231D01*
G75*
G02*
X397529I3649J-3937D01*
G01*
X505986D01*
G75*
G02*
X505047Y186354I4429J3033D01*
G01*
G75*
G02*
X505321Y188045I5368J-1D01*
G01*
X441158D01*
G75*
G02*
X433216I-3971J394D01*
G01*
X227938D01*
G37*
X515783Y186354D02*
G36*
X515783Y186354D02*
G75*
G02*
X514844Y183321I-5368J0D01*
G01*
X549734D01*
G75*
G02*
X556923I3594J-1732D01*
G01*
X686543D01*
Y188045D01*
X673067D01*
G75*
G02*
X665087I-3990J0D01*
G01*
X515510D01*
G75*
G02*
X515783Y186354I-5094J-1692D01*
G01*
G37*
X73014Y192770D02*
G36*
X73014Y192770D02*
Y188045D01*
X73198D01*
G75*
G02*
X83066I4934J-630D01*
G01*
X199979D01*
G75*
G02*
X199929Y189226I13980J1183D01*
G01*
G75*
G02*
X200384Y192770I14030J0D01*
G01*
X73014D01*
G37*
X227988Y189226D02*
G36*
X227988Y189226D02*
G75*
G02*
X227938Y188045I-14030J2D01*
G01*
X433216D01*
G75*
G02*
X433197Y188439I3971J392D01*
G01*
G75*
G02*
X441177I3990J0D01*
G01*
G75*
G02*
X441158Y188045I-3991J-2D01*
G01*
X505321D01*
G75*
G02*
X510415Y191722I5094J-1691D01*
G01*
G75*
G02*
X515510Y188045I0J-5368D01*
G01*
X665087D01*
G75*
G02*
X673067I3990J0D01*
G01*
X686543D01*
Y192770D01*
X628107D01*
G75*
G02*
X620283I-3912J787D01*
G01*
X427398D01*
G75*
G02*
X419417I-3990J0D01*
G01*
X227533D01*
G75*
G02*
X227988Y189226I-13575J-3543D01*
G01*
G37*
X73014Y197100D02*
G36*
X73014Y197100D02*
Y192770D01*
X200384D01*
G75*
G02*
X202347Y197100I13576J-3544D01*
G01*
X146563D01*
G75*
G02*
X139622I-3471J1969D01*
G01*
X73014D01*
G37*
X225570D02*
G36*
X225570Y197100D02*
G75*
G02*
X227533Y192770I-11612J-7875D01*
G01*
X419417D01*
G75*
G02*
X427398I3990J0D01*
G01*
X620283D01*
G75*
G02*
X620205Y193557I3912J787D01*
G01*
G75*
G02*
X621309Y196313I3991J0D01*
G01*
G75*
G02*
X620724Y197100I2885J2757D01*
G01*
X497476D01*
G75*
G02*
X489496I-3990J0D01*
G01*
X225570D01*
G37*
X627666D02*
G36*
X627666Y197100D02*
G75*
G02*
X627080Y196313I-3471J1969D01*
G01*
G75*
G02*
X628185Y193557I-2887J-2756D01*
G01*
G75*
G02*
X628107Y192770I-3990J0D01*
G01*
X686543D01*
Y197100D01*
X627666D01*
G37*
X65533Y204581D02*
G36*
X65533Y204581D02*
Y201825D01*
X73014D01*
Y197100D01*
X139622D01*
G75*
G02*
X139102Y199069I3471J1969D01*
G01*
G75*
G02*
X142662Y203036I3991J0D01*
G01*
G75*
G02*
X142646Y203399I3973J363D01*
G01*
G75*
G02*
X142824Y204581I3991J0D01*
G01*
X65533D01*
G37*
X147083Y199069D02*
G36*
X147083Y199069D02*
G75*
G02*
X146563Y197100I-3990J0D01*
G01*
X202347D01*
G75*
G02*
X225570I11611J-7874D01*
G01*
X489496D01*
G75*
G02*
X497476I3990J0D01*
G01*
X620724D01*
G75*
G02*
X620205Y199069I3470J1968D01*
G01*
G75*
G02*
X621309Y201825I3990J0D01*
G01*
G75*
G02*
X620205Y204581I2887J2756D01*
G01*
X386059D01*
G75*
G02*
X378079I-3990J0D01*
G01*
X317368D01*
G75*
G02*
X313699I-1835J3543D01*
G01*
X308500D01*
G75*
G02*
X300520I-3990J0D01*
G01*
X274170D01*
G75*
G02*
X274248Y203793I-3912J-787D01*
G01*
G75*
G02*
X266268I-3990J0D01*
G01*
G75*
G02*
X266346Y204581I3990J0D01*
G01*
X263540D01*
G75*
G02*
X263618Y203793I-3912J-787D01*
G01*
G75*
G02*
X255638I-3990J0D01*
G01*
G75*
G02*
X255716Y204581I3990J0D01*
G01*
X151620D01*
G75*
G02*
X150544Y204207I-1834J3543D01*
G01*
G75*
G02*
X150626Y203400I-3909J-806D01*
G01*
G75*
G02*
X147066Y199433I-3991J0D01*
G01*
G75*
G02*
X147083Y199078I-3802J-355D01*
G01*
G75*
G02*
Y199069I-3817J-4D01*
G01*
G37*
X628185D02*
G36*
X628185Y199069D02*
G75*
G02*
X627666Y197100I-3990J0D01*
G01*
X686543D01*
Y204581D01*
X628185D01*
G75*
G02*
X627080Y201825I-3991J0D01*
G01*
G75*
G02*
X628185Y199069I-2885J-2756D01*
G01*
G37*
X65533Y210093D02*
G36*
X65533Y210093D02*
Y204581D01*
X142824D01*
G75*
G02*
X145878Y207317I3811J-1181D01*
G01*
G75*
G02*
X145795Y208121I3891J804D01*
G01*
G75*
G02*
Y208124I4155J2D01*
G01*
G75*
G02*
X146315Y210093I3990J0D01*
G01*
X65533D01*
G37*
X153256D02*
G36*
X153256Y210093D02*
G75*
G02*
X153776Y208124I-3471J-1969D01*
G01*
Y208124D01*
G75*
G02*
X151620Y204581I-3990J0D01*
G01*
X255716D01*
G75*
G02*
X263540I3912J-787D01*
G01*
X266346D01*
G75*
G02*
X274170I3912J-787D01*
G01*
X300520D01*
G75*
G02*
X308500I3990J0D01*
G01*
X313699D01*
G75*
G02*
X311543Y208124I1835J3543D01*
G01*
G75*
G02*
X312063Y210093I3990J0D01*
G01*
X153256D01*
G37*
X319524Y208124D02*
G36*
X319524Y208124D02*
G75*
G02*
X317368Y204581I-3990J0D01*
G01*
X378079D01*
G75*
G02*
X386059I3990J0D01*
G01*
X620205D01*
G75*
G02*
X628185I3990J0D01*
G01*
X686543D01*
Y210093D01*
X679366D01*
G75*
G02*
X671386I-3990J0D01*
G01*
X319004D01*
G75*
G02*
X319524Y208124I-3471J-1969D01*
G01*
G37*
X65533Y216392D02*
G36*
X65533Y216392D02*
Y210093D01*
X146315D01*
G75*
G02*
X153256I3471J-1969D01*
G01*
X312063D01*
G75*
G02*
X319004I3471J-1969D01*
G01*
X671386D01*
G75*
G02*
X679366I3990J0D01*
G01*
X686543D01*
Y216392D01*
X613933D01*
G75*
G02*
X606110I-3912J787D01*
G01*
X591190D01*
G75*
G02*
X584759I-3216J2362D01*
G01*
X533697D01*
G75*
G02*
X526557Y213942I-3990J0D01*
G01*
G75*
G02*
X519417Y216392I-3150J2450D01*
G01*
X227319D01*
G75*
G02*
X219496I-3912J787D01*
G01*
X211077D01*
G75*
G02*
X211256Y215211I-3811J-1181D01*
G01*
G75*
G02*
X203276I-3990J0D01*
G01*
G75*
G02*
X203454Y216392I3990J0D01*
G01*
X190066D01*
G75*
G02*
X190390Y214817I-3666J-1575D01*
G01*
G75*
G02*
X182409I-3990J0D01*
G01*
G75*
G02*
X182733Y216392I3990J0D01*
G01*
X157693D01*
G75*
G02*
X149752I-3971J394D01*
G01*
X65533D01*
G37*
Y224659D02*
G36*
X65533Y224659D02*
Y216392D01*
X149752D01*
G75*
G02*
X149732Y216785I3971J392D01*
G01*
G75*
G02*
X157713I3990J0D01*
G01*
G75*
G02*
X157693Y216392I-3991J-2D01*
G01*
X182733D01*
G75*
G02*
X190066I3666J-1575D01*
G01*
X203454D01*
G75*
G02*
X211077I3811J-1181D01*
G01*
X219496D01*
G75*
G02*
X219417Y217179I3912J787D01*
G01*
G75*
G02*
X227398I3990J0D01*
G01*
G75*
G02*
X227319Y216392I-3990J0D01*
G01*
X519417D01*
G75*
G02*
X526557Y218841I3990J0D01*
G01*
G75*
G02*
X533697Y216392I3150J-2450D01*
G01*
X584759D01*
G75*
G02*
X583984Y218754I3216J2362D01*
G01*
G75*
G02*
X591965I3990J0D01*
G01*
G75*
G02*
X591190Y216392I-3990J0D01*
G01*
X606110D01*
G75*
G02*
X606031Y217179I3912J787D01*
G01*
G75*
G02*
X614012I3990J0D01*
G01*
G75*
G02*
X613933Y216392I-3990J0D01*
G01*
X686543D01*
Y224659D01*
X665587D01*
G75*
G02*
X657606I-3990J0D01*
G01*
X473335D01*
G75*
G02*
X473854Y222691I-3471J-1969D01*
G01*
G75*
G02*
X465874I-3990J0D01*
G01*
G75*
G02*
X466393Y224659I3990J0D01*
G01*
X265961D01*
G75*
G02*
X258019I-3971J394D01*
G01*
X210843D01*
G75*
G02*
X202901I-3971J394D01*
G01*
X190764D01*
G75*
G02*
X182822I-3971J394D01*
G01*
X177868D01*
G75*
G02*
X178972Y221904I-2886J-2756D01*
G01*
G75*
G02*
X170992I-3990J0D01*
G01*
G75*
G02*
X172097Y224659I3991J0D01*
G01*
X135285D01*
G75*
G02*
X128853I-3216J2362D01*
G01*
X65533D01*
G37*
Y230959D02*
G36*
X65533Y230959D02*
Y224659D01*
X128853D01*
G75*
G02*
X128079Y227022I3216J2362D01*
G01*
G75*
G02*
X128276Y228260I4001J-1D01*
G01*
G75*
G02*
X123533Y230959I-931J3880D01*
G01*
X65533D01*
G37*
X131156D02*
G36*
X131156Y230959D02*
G75*
G02*
X131138Y230902I-3826J1182D01*
G01*
G75*
G02*
X131420Y230959I931J-3879D01*
G01*
X131156D01*
G37*
X136059Y227022D02*
G36*
X136059Y227022D02*
G75*
G02*
X135285Y224659I-3990J0D01*
G01*
X172097D01*
G75*
G02*
X172533Y225053I2886J-2757D01*
G01*
G75*
G02*
X170992Y228203I2450J3150D01*
G01*
G75*
G02*
X172097Y230959I3990J0D01*
G01*
X132718D01*
G75*
G02*
X136059Y227022I-649J-3937D01*
G01*
G37*
X177432Y225053D02*
G36*
X177432Y225053D02*
G75*
G02*
X177868Y224659I-2450J-3150D01*
G01*
X182822D01*
G75*
G02*
X182803Y225053I3971J392D01*
G01*
G75*
G02*
X190783I3990J0D01*
G01*
G75*
G02*
X190764Y224659I-3991J-2D01*
G01*
X202901D01*
G75*
G02*
X202882Y225053I3971J392D01*
G01*
G75*
G02*
X210862I3990J0D01*
G01*
G75*
G02*
X210843Y224659I-3991J-2D01*
G01*
X258019D01*
G75*
G02*
X258000Y225053I3971J392D01*
G01*
G75*
G02*
X265980I3990J0D01*
G01*
G75*
G02*
X265961Y224659I-3991J-2D01*
G01*
X466393D01*
G75*
G02*
X473335I3471J-1969D01*
G01*
X657606D01*
G75*
G02*
X665587I3990J0D01*
G01*
X686543D01*
Y230959D01*
X337634D01*
G75*
G02*
X329654I-3990J0D01*
G01*
X177868D01*
G75*
G02*
X178972Y228203I-2885J-2756D01*
G01*
G75*
G02*
X177432Y225053I-3991J0D01*
G01*
G37*
X65533Y236864D02*
G36*
X65533Y236864D02*
Y230959D01*
X123533D01*
G75*
G02*
X123354Y232140I3812J1181D01*
G01*
G75*
G02*
X131335I3990J0D01*
G01*
G75*
G02*
X131156Y230959I-4001J1D01*
G01*
X131420D01*
G75*
G02*
X132718I649J-3937D01*
G01*
X172097D01*
G75*
G02*
X177868I2885J-2756D01*
G01*
X329654D01*
G75*
G02*
X337634I3990J0D01*
G01*
X686543D01*
Y235793D01*
G75*
G02*
X679439Y236864I-3293J2253D01*
G01*
X595902D01*
G75*
G02*
X587921I-3990J0D01*
G01*
X65533D01*
G37*
Y242376D02*
G36*
X65533Y242376D02*
Y236864D01*
X587921D01*
G75*
G02*
X595902I3990J0D01*
G01*
X679439D01*
G75*
G02*
X679260Y238045I3811J1181D01*
G01*
G75*
G02*
X685166Y241546I3990J0D01*
G01*
G75*
G02*
X685165Y241578I1166J30D01*
G01*
G75*
G02*
Y241589I1139J6D01*
G01*
G75*
G02*
X685244Y242376I3991J0D01*
G01*
X263953D01*
G75*
G02*
X253965I-4994J1969D01*
G01*
X171906D01*
G75*
G02*
X163925I-3990J0D01*
G01*
X156138D01*
G75*
G02*
X148157I-3990J0D01*
G01*
X65533D01*
G37*
Y247652D02*
G36*
X65533Y247652D02*
Y242376D01*
X148157D01*
G75*
G02*
X156138I3990J0D01*
G01*
X163925D01*
G75*
G02*
X171906I3990J0D01*
G01*
X253965D01*
G75*
G02*
X253591Y244344I4994J1969D01*
G01*
G75*
G02*
X254730Y247652I5368J0D01*
G01*
X72498D01*
G75*
G02*
X66443I-3028J2598D01*
G01*
X65533D01*
G37*
X264327Y244344D02*
G36*
X264327Y244344D02*
G75*
G02*
X263953Y242376I-5368J0D01*
G01*
X685244D01*
G75*
G02*
X686543Y244605I3912J-788D01*
G01*
Y247652D01*
X637363D01*
G75*
G02*
X630712I-3326J2205D01*
G01*
X295114D01*
G75*
G02*
X287134I-3990J0D01*
G01*
X263187D01*
G75*
G02*
X264327Y244344I-4228J-3307D01*
G01*
G37*
X65533Y249601D02*
G36*
X65533Y249601D02*
Y247652D01*
X66443D01*
G75*
G02*
X65533Y249601I3028J2599D01*
G01*
G37*
Y255762D02*
G36*
X65533Y255762D02*
Y250899D01*
G75*
G02*
X73461Y250250I3937J-649D01*
G01*
G75*
G02*
X72498Y247652I-3990J0D01*
G01*
X254730D01*
G75*
G02*
X263187I4228J-3307D01*
G01*
X287134D01*
G75*
G02*
X295114I3990J0D01*
G01*
X630712D01*
G75*
G02*
X630047Y249856I3326J2205D01*
G01*
G75*
G02*
X638028I3990J0D01*
G01*
G75*
G02*
X637363Y247652I-3990J0D01*
G01*
X686543D01*
Y255762D01*
X398043D01*
G75*
G02*
X384205I-6919J12205D01*
G01*
X192752D01*
G75*
G02*
X184772I-3990J0D01*
G01*
X160939D01*
G75*
G02*
X160226Y255171I-2885J2755D01*
G01*
G75*
G02*
X162043Y251825I-2173J-3346D01*
G01*
Y251825D01*
G75*
G02*
X154063I-3990J0D01*
G01*
Y251825D01*
G75*
G02*
X155880Y255171I3990J0D01*
G01*
G75*
G02*
X155168Y255762I2173J3345D01*
G01*
X151288D01*
G75*
G02*
X144346I-3471J1969D01*
G01*
X65533D01*
G37*
Y259305D02*
G36*
X65533Y259305D02*
Y255762D01*
X144346D01*
G75*
G02*
X143827Y257730I3471J1969D01*
G01*
G75*
G02*
X144152Y259308I3994J-1D01*
G01*
G75*
G02*
X139574Y262455I-666J3934D01*
G01*
X128559D01*
G75*
G02*
X128579Y262061I-3971J-392D01*
G01*
G75*
G02*
X120598I-3990J0D01*
G01*
G75*
G02*
X120618Y262455I3991J2D01*
G01*
X106906D01*
G75*
G02*
X106925Y262061I-3971J-392D01*
G01*
G75*
G02*
X98945I-3990J0D01*
G01*
G75*
G02*
X98964Y262455I3991J2D01*
G01*
X68683D01*
X65533Y259305D01*
G37*
X147398Y262455D02*
G36*
X147398Y262455D02*
G75*
G02*
X147151Y261665I-3911J788D01*
G01*
G75*
G02*
X151807Y257730I665J-3935D01*
G01*
G75*
G02*
X151288Y255762I-3990J0D01*
G01*
X155168D01*
G75*
G02*
X154063Y258517I2885J2756D01*
G01*
Y258518D01*
G75*
G02*
X157404Y262455I3990J0D01*
G01*
X147398D01*
G37*
X158702D02*
G36*
X158702Y262455D02*
G75*
G02*
X162043Y258518I-649J-3937D01*
G01*
Y258517D01*
G75*
G02*
X160939Y255762I-3990J0D01*
G01*
X184772D01*
G75*
G02*
X192752I3990J0D01*
G01*
X384205D01*
G75*
G02*
X378222Y262455I6919J12205D01*
G01*
X158702D01*
G37*
X404026D02*
G36*
X404026Y262455D02*
G75*
G02*
X398043Y255762I-12902J5512D01*
G01*
X686543D01*
Y262311D01*
X686400Y262455D01*
X482516D01*
G75*
G02*
X474535I-3990J0D01*
G01*
X473067D01*
G75*
G02*
X465087I-3990J0D01*
G01*
X463618D01*
G75*
G02*
X455638I-3990J0D01*
G01*
X454169D01*
G75*
G02*
X446189I-3990J0D01*
G01*
X404026D01*
G37*
X73407Y267179D02*
G36*
X73407Y267179D02*
X68683Y262455D01*
X98964D01*
G75*
G02*
X106906I3971J-394D01*
G01*
X120618D01*
G75*
G02*
X128559I3971J-394D01*
G01*
X139574D01*
G75*
G02*
X139496Y263242I3912J787D01*
G01*
G75*
G02*
X140601Y265998I3990J0D01*
G01*
G75*
G02*
X139496Y268754I2885J2756D01*
G01*
G75*
G02*
X140601Y271510I3990J0D01*
G01*
G75*
G02*
X140016Y272297I2887J2756D01*
G01*
X73407D01*
Y267179D01*
G37*
X146957Y272297D02*
G36*
X146957Y272297D02*
G75*
G02*
X146372Y271510I-3472J1969D01*
G01*
G75*
G02*
X147476Y268754I-2885J-2756D01*
G01*
G75*
G02*
X146372Y265998I-3990J0D01*
G01*
G75*
G02*
X147476Y263242I-2885J-2756D01*
G01*
G75*
G02*
X147398Y262455I-3989J-1D01*
G01*
X157404D01*
G75*
G02*
X158702I649J-3938D01*
G01*
X378222D01*
G75*
G02*
X377094Y267967I12902J5511D01*
G01*
G75*
G02*
X377780Y272297I14030J0D01*
G01*
X335285D01*
G75*
G02*
X336059Y269935I-3216J-2362D01*
G01*
G75*
G02*
X328079I-3990J0D01*
G01*
G75*
G02*
X328853Y272297I3990J0D01*
G01*
X301807D01*
G75*
G02*
X300702Y269541I-3990J0D01*
G01*
G75*
G02*
X301807Y266785I-2887J-2756D01*
G01*
G75*
G02*
X293827I-3990J0D01*
G01*
G75*
G02*
X294931Y269541I3991J0D01*
G01*
G75*
G02*
X293827Y272297I2885J2756D01*
G01*
X280154D01*
G75*
G02*
X279049Y269541I-3990J0D01*
G01*
G75*
G02*
X280154Y266785I-2887J-2756D01*
G01*
G75*
G02*
X272173I-3990J0D01*
G01*
G75*
G02*
X273278Y269541I3991J0D01*
G01*
G75*
G02*
X272173Y272297I2885J2756D01*
G01*
X163099D01*
G75*
G02*
X156157I-3471J1969D01*
G01*
X146957D01*
G37*
X405154Y267967D02*
G36*
X405154Y267967D02*
G75*
G02*
X404026Y262455I-14030J0D01*
G01*
X446189D01*
G75*
G02*
X454169I3990J0D01*
G01*
X455638D01*
G75*
G02*
X463618I3990J0D01*
G01*
X465087D01*
G75*
G02*
X473067I3990J0D01*
G01*
X474535D01*
G75*
G02*
X482516I3990J0D01*
G01*
X686400D01*
X676557Y272297D01*
X559640D01*
G75*
G02*
X559819Y271116I-3811J-1181D01*
G01*
G75*
G02*
X551839I-3990J0D01*
G01*
G75*
G02*
X552017Y272297I3990J0D01*
G01*
X404469D01*
G75*
G02*
X405154Y267967I-13344J-4330D01*
G01*
G37*
X73407Y278596D02*
G36*
X73407Y278596D02*
Y272297D01*
X140016D01*
G75*
G02*
X139496Y274266I3472J1969D01*
G01*
G75*
G02*
X147476I3990J0D01*
G01*
G75*
G02*
X146957Y272297I-3991J1D01*
G01*
X156157D01*
G75*
G02*
X155638Y274266I3471J1969D01*
G01*
G75*
G02*
X163618I3990J0D01*
G01*
G75*
G02*
X163099Y272297I-3990J0D01*
G01*
X272173D01*
G75*
G02*
X273278Y275053I3990J0D01*
G01*
G75*
G02*
X272173Y277809I2887J2756D01*
G01*
G75*
G02*
X272252Y278596I3990J0D01*
G01*
X106746D01*
G75*
G02*
X106925Y277415I-3811J-1181D01*
G01*
G75*
G02*
X98945I-3990J0D01*
G01*
G75*
G02*
X99124Y278596I3990J0D01*
G01*
X73407D01*
G37*
X279049Y275053D02*
G36*
X279049Y275053D02*
G75*
G02*
X280154Y272297I-2885J-2756D01*
G01*
X293827D01*
G75*
G02*
X294931Y275053I3990J0D01*
G01*
G75*
G02*
X293827Y277809I2887J2756D01*
G01*
G75*
G02*
X293905Y278596I3990J0D01*
G01*
X280075D01*
G75*
G02*
X280154Y277809I-3912J-787D01*
G01*
G75*
G02*
X279049Y275053I-3991J0D01*
G01*
G37*
X300702D02*
G36*
X300702Y275053D02*
G75*
G02*
X301807Y272297I-2885J-2756D01*
G01*
X328853D01*
G75*
G02*
X335285I3216J-2362D01*
G01*
X377780D01*
G75*
G02*
X381968Y278596I13344J-4331D01*
G01*
X301729D01*
G75*
G02*
X301807Y277809I-3912J-787D01*
G01*
G75*
G02*
X300702Y275053I-3991J0D01*
G01*
G37*
X400280Y278596D02*
G36*
X400280Y278596D02*
G75*
G02*
X404469Y272297I-9156J-10630D01*
G01*
X552017D01*
G75*
G02*
X559640I3811J-1181D01*
G01*
X676557D01*
X674589Y274266D01*
Y278596D01*
X567161D01*
G75*
G02*
X559181I-3990J0D01*
G01*
X400280D01*
G37*
X73407Y286352D02*
G36*
X73407Y286352D02*
Y278596D01*
X99124D01*
G75*
G02*
X106746I3811J-1181D01*
G01*
X272252D01*
G75*
G02*
X280075I3912J-787D01*
G01*
X293905D01*
G75*
G02*
X301729I3912J-787D01*
G01*
X381968D01*
G75*
G02*
X400280I9156J-10630D01*
G01*
X559181D01*
G75*
G02*
X567161I3990J0D01*
G01*
X674589D01*
Y286352D01*
X636806D01*
G75*
G02*
X631269I-2768J2874D01*
G01*
X337437D01*
G75*
G02*
X332069Y280984I-5368J0D01*
G01*
G75*
G02*
X326701Y286352I0J5368D01*
G01*
X98617D01*
G75*
G02*
X93080I-2768J2874D01*
G01*
X73407D01*
G37*
Y290801D02*
G36*
X73407Y290801D02*
Y286352D01*
X93080D01*
G75*
G02*
X91858Y289226I2768J2874D01*
G01*
Y289227D01*
G75*
G02*
X91932Y289992I3990J0D01*
G01*
G75*
G02*
X83769Y290801I-3682J4431D01*
G01*
X82731D01*
G75*
G02*
X73769I-4481J3622D01*
G01*
X73407D01*
G37*
X99839Y289226D02*
G36*
X99839Y289226D02*
G75*
G02*
X98617Y286352I-3990J0D01*
G01*
X326701D01*
G75*
G02*
X329065Y290801I5369J-1D01*
G01*
X165193D01*
G75*
G02*
X157213I-3990J0D01*
G01*
X99515D01*
G75*
G02*
X99839Y289226I-3667J-1575D01*
G01*
G37*
X335072Y290801D02*
G36*
X335072Y290801D02*
G75*
G02*
X337437Y286352I-3004J-4450D01*
G01*
X631269D01*
G75*
G02*
X630047Y289226I2768J2874D01*
G01*
G75*
G02*
X630371Y290801I3990J0D01*
G01*
X335072D01*
G37*
X638028Y289226D02*
G36*
X638028Y289226D02*
G75*
G02*
X636806Y286352I-3990J0D01*
G01*
X674589D01*
Y290801D01*
X637704D01*
G75*
G02*
X638028Y289226I-3666J-1575D01*
G01*
G37*
X73407Y291301D02*
G36*
X73407Y291301D02*
Y290801D01*
X73769D01*
G75*
G02*
X73407Y291301I4481J3622D01*
G01*
G37*
X83250Y291560D02*
G36*
X83250Y291560D02*
G75*
G02*
X82731Y290801I-5000J2863D01*
G01*
X83769D01*
G75*
G02*
X83250Y291560I4481J3622D01*
G01*
G37*
X94012Y294423D02*
G36*
X94012Y294423D02*
G75*
G02*
X93715Y292598I-5762J0D01*
G01*
G75*
G02*
X99515Y290801I2133J-3372D01*
G01*
X157213D01*
G75*
G02*
X165193I3990J0D01*
G01*
X329065D01*
G75*
G02*
X332069Y291720I3004J-4449D01*
G01*
G75*
G02*
X335072Y290801I-1J-5369D01*
G01*
X630371D01*
G75*
G02*
X637704I3666J-1575D01*
G01*
X674589D01*
Y296707D01*
X389012D01*
G75*
G02*
X378276I-5368J0D01*
G01*
X341374D01*
G75*
G02*
X330638I-5368J0D01*
G01*
X130230D01*
G75*
G02*
X124459I-2885J2756D01*
G01*
X98734D01*
G75*
G02*
X93777Y296052I-2885J2756D01*
G01*
G75*
G02*
X94012Y294423I-5526J-1629D01*
G01*
G37*
X99839Y299463D02*
G36*
X99839Y299463D02*
G75*
G02*
X98734Y296707I-3990J0D01*
G01*
X124459D01*
G75*
G02*
X123354Y299463I2885J2756D01*
G01*
G75*
G02*
X123678Y301037I3990J0D01*
G01*
X99515D01*
G75*
G02*
X99839Y299463I-3666J-1575D01*
G01*
G37*
X131335D02*
G36*
X131335Y299463D02*
G75*
G02*
X130230Y296707I-3990J0D01*
G01*
X330638D01*
G75*
G02*
X332834Y301037I5368J0D01*
G01*
X203776D01*
G75*
G02*
X195795I-3990J0D01*
G01*
X131011D01*
G75*
G02*
X131335Y299463I-3666J-1575D01*
G01*
G37*
X339178Y301037D02*
G36*
X339178Y301037D02*
G75*
G02*
X341374Y296707I-3172J-4331D01*
G01*
X378276D01*
G75*
G02*
X380472Y301037I5368J0D01*
G01*
X339178D01*
G37*
X386816D02*
G36*
X386816Y301037D02*
G75*
G02*
X389012Y296707I-3172J-4331D01*
G01*
X674589D01*
Y301037D01*
X386816D01*
G37*
X94012Y304423D02*
G36*
X94012Y304423D02*
G75*
G02*
X93804Y302889I-5785J3D01*
G01*
G75*
G02*
X99515Y301037I2044J-3427D01*
G01*
X123678D01*
G75*
G02*
X131011I3666J-1575D01*
G01*
X195795D01*
G75*
G02*
X203776I3990J0D01*
G01*
X332834D01*
G75*
G02*
X339178I3172J-4331D01*
G01*
X380472D01*
G75*
G02*
X386816I3172J-4331D01*
G01*
X674589D01*
Y305762D01*
X223461D01*
G75*
G02*
X215480I-3990J0D01*
G01*
X175823D01*
G75*
G02*
X167843I-3990J0D01*
G01*
X144201D01*
G75*
G02*
X137259I-3471J1969D01*
G01*
X133965D01*
G75*
G02*
X127023I-3471J1969D01*
G01*
X96498D01*
G75*
G02*
X95198I-650J3938D01*
G01*
X93854D01*
G75*
G02*
X94012Y304424I-5598J-1339D01*
G01*
Y304423D01*
G37*
X93680Y306349D02*
G36*
X93680Y306349D02*
G75*
G02*
X93854Y305762I-5424J-1924D01*
G01*
X95198D01*
G75*
G02*
X93680Y306349I650J3937D01*
G01*
G37*
X99839Y309699D02*
G36*
X99839Y309699D02*
G75*
G02*
X96498Y305762I-3990J0D01*
G01*
X127023D01*
G75*
G02*
X126504Y307730I3471J1969D01*
G01*
G75*
G02*
X128659Y311274I3990J0D01*
G01*
X99515D01*
G75*
G02*
X99839Y309699I-3667J-1575D01*
G01*
G37*
X134484Y307730D02*
G36*
X134484Y307730D02*
G75*
G02*
X133965Y305762I-3990J0D01*
G01*
X137259D01*
G75*
G02*
X136740Y307730I3471J1969D01*
G01*
G75*
G02*
X138896Y311274I3990J0D01*
G01*
X132329D01*
G75*
G02*
X134484Y307730I-1835J-3543D01*
G01*
G37*
X144033Y311274D02*
G36*
X144033Y311274D02*
X142565D01*
G75*
G02*
X144720Y307730I-1835J-3543D01*
G01*
G75*
G02*
X144201Y305762I-3990J0D01*
G01*
X167843D01*
G75*
G02*
Y305763I3759J0D01*
G01*
G75*
G02*
X168480Y307926I3988J0D01*
G01*
G75*
G02*
X166661Y311274I2171J3348D01*
G01*
X147703D01*
G75*
G02*
X144033I-1835J3543D01*
G01*
G37*
X174642D02*
G36*
X174642Y311274D02*
G75*
G02*
X174004Y309109I-3990J0D01*
G01*
G75*
G02*
X175823Y305762I-2172J-3348D01*
G01*
X215480D01*
G75*
G02*
X223461I3990J0D01*
G01*
X674589D01*
Y311274D01*
X212437D01*
G75*
G02*
X204457I-3990J0D01*
G01*
X174642D01*
G37*
X94012Y314423D02*
G36*
X94012Y314423D02*
G75*
G02*
X93873Y313166I-5788J3D01*
G01*
G75*
G02*
X99515Y311274I1976J-3467D01*
G01*
X128659D01*
G75*
G02*
X132329I1835J-3543D01*
G01*
X138896D01*
G75*
G02*
X142565I1835J-3543D01*
G01*
X144033D01*
G75*
G02*
X141878Y314817I1835J3543D01*
G01*
G75*
G02*
X142194Y316373I3993J-1D01*
G01*
G75*
G02*
X138230Y316956I-1464J3817D01*
G01*
G75*
G02*
X133230I-2500J3234D01*
G01*
G75*
G02*
X126642Y320191I-2500J3235D01*
G01*
G75*
G02*
X127115Y322100I4088J0D01*
G01*
X99200D01*
G75*
G02*
X99839Y319935I-3351J-2165D01*
G01*
Y319935D01*
Y319935D01*
G75*
G02*
X93556Y316669I-3990J0D01*
G01*
G75*
G02*
X94012Y314423I-5315J-2248D01*
G01*
G37*
X149858Y314817D02*
G36*
X149858Y314817D02*
G75*
G02*
X147703Y311274I-3990J0D01*
G01*
X166661D01*
G75*
G02*
X169261Y315014I3990J0D01*
G01*
G75*
G02*
X166661Y318754I1390J3740D01*
G01*
Y318754D01*
G75*
G02*
X168478Y322100I3990J0D01*
G01*
X154346D01*
G75*
G02*
X154819Y320191I-3615J-1909D01*
G01*
G75*
G02*
X149586Y316266I-4089J0D01*
G01*
G75*
G02*
X149858Y314817I-3728J-1451D01*
G01*
G37*
X172825Y322100D02*
G36*
X172825Y322100D02*
G75*
G02*
X174642Y318754I-2173J-3346D01*
G01*
Y318754D01*
G75*
G02*
X172042Y315014I-3990J0D01*
G01*
G75*
G02*
X174642Y311274I-1390J-3740D01*
G01*
X204457D01*
G75*
G02*
X212437I3990J0D01*
G01*
X674589D01*
Y322100D01*
X613380D01*
G75*
G02*
X615980Y318360I-1390J-3740D01*
G01*
G75*
G02*
X608000I-3990J0D01*
G01*
G75*
G02*
X610600Y322100I3990J0D01*
G01*
X451384D01*
G75*
G02*
X451630Y320722I-3745J-1378D01*
G01*
G75*
G02*
X443730Y319927I-3990J0D01*
G01*
G75*
G02*
X438167Y322100I-1818J3552D01*
G01*
X254229D01*
G75*
G02*
X244791I-4719J2559D01*
G01*
X172825D01*
G37*
X93399Y327022D02*
G36*
X93399Y327022D02*
X93393D01*
G75*
G02*
X94012Y324423I-5141J-2598D01*
G01*
G75*
G02*
X93926Y323431I-5760J-1D01*
G01*
G75*
G02*
X99200Y322100I1922J-3496D01*
G01*
X127115D01*
G75*
G02*
X127495Y322691I3615J-1911D01*
G01*
G75*
G02*
X126642Y325191I3235J2500D01*
G01*
G75*
G02*
X127074Y327022I4089J0D01*
G01*
X98298D01*
G75*
G02*
X93399I-2449J3150D01*
G01*
G37*
X153965Y322691D02*
G36*
X153965Y322691D02*
G75*
G02*
X154346Y322100I-3235J-2501D01*
G01*
X168478D01*
G75*
G02*
X172825I2173J-3346D01*
G01*
X244791D01*
G75*
G02*
X244142Y324659I4719J2559D01*
G01*
G75*
G02*
X244689Y327022I5368J0D01*
G01*
X154386D01*
G75*
G02*
X154819Y325191I-3656J-1831D01*
G01*
G75*
G02*
X153965Y322691I-4089J0D01*
G01*
G37*
X254878Y324659D02*
G36*
X254878Y324659D02*
G75*
G02*
X254229Y322100I-5368J0D01*
G01*
X438167D01*
G75*
G02*
X437921Y323478I3745J1378D01*
G01*
G75*
G02*
X440076Y327022I3990J0D01*
G01*
X254330D01*
G75*
G02*
X254878Y324659I-4820J-2362D01*
G01*
G37*
X443746Y327022D02*
G36*
X443746Y327022D02*
G75*
G02*
X445821Y324274I-1835J-3543D01*
G01*
G75*
G02*
X451384Y322100I1818J-3552D01*
G01*
X610600D01*
G75*
G02*
X613380I1390J-3740D01*
G01*
X674589D01*
Y327022D01*
X577398D01*
G75*
G02*
X569417I-3990J0D01*
G01*
X443746D01*
G37*
X93389Y327030D02*
G36*
X93389Y327030D02*
G75*
G02*
X93393Y327022I-5183J-2597D01*
G01*
X93399D01*
G75*
G02*
X93389Y327030I2460J3209D01*
G01*
G37*
X93968Y333715D02*
G36*
X93968Y333715D02*
G75*
G02*
X93965Y333689I-5797J700D01*
G01*
G75*
G02*
X94013Y333715I1885J-3508D01*
G01*
X93968D01*
G37*
X99839Y330171D02*
G36*
X99839Y330171D02*
G75*
G02*
X98298Y327022I-3991J0D01*
G01*
X127074D01*
G75*
G02*
X133230Y328426I3656J-1831D01*
G01*
G75*
G02*
X138230I2500J-3234D01*
G01*
G75*
G02*
X143230I2500J-3234D01*
G01*
G75*
G02*
X148230I2500J-3234D01*
G01*
G75*
G02*
X154386Y327022I2500J-3235D01*
G01*
X244689D01*
G75*
G02*
X254330I4820J-2362D01*
G01*
X440076D01*
G75*
G02*
X443746I1835J-3543D01*
G01*
X569417D01*
G75*
G02*
X577398I3990J0D01*
G01*
X674589D01*
Y333715D01*
X436453D01*
G75*
G02*
X428472I-3990J0D01*
G01*
X324248D01*
G75*
G02*
X316268I-3990J0D01*
G01*
X278972D01*
G75*
G02*
X270992I-3990J0D01*
G01*
X223441D01*
G75*
G02*
X223461Y333321I-3971J-392D01*
G01*
G75*
G02*
X215480I-3990J0D01*
G01*
G75*
G02*
X215500Y333715I3991J2D01*
G01*
X212418D01*
G75*
G02*
X212437Y333321I-3971J-392D01*
G01*
G75*
G02*
X204457I-3990J0D01*
G01*
G75*
G02*
X204476Y333715I3991J2D01*
G01*
X97683D01*
G75*
G02*
X99839Y330171I-1835J-3543D01*
G01*
G37*
X73407Y338045D02*
G36*
X73407Y338045D02*
Y337546D01*
G75*
G02*
X75762Y339620I4843J-3123D01*
G01*
X74982D01*
X73407Y338045D01*
G37*
X80738Y339620D02*
G36*
X80738Y339620D02*
G75*
G02*
X83250Y337287I-2488J-5197D01*
G01*
G75*
G02*
X85762Y339620I5000J-2864D01*
G01*
X80738D01*
G37*
X94012Y334423D02*
G36*
X94012Y334423D02*
G75*
G02*
X93968Y333715I-5825J4D01*
G01*
X94013D01*
G75*
G02*
X97683I1835J-3544D01*
G01*
X204476D01*
G75*
G02*
X212418I3971J-394D01*
G01*
X215500D01*
G75*
G02*
X223441I3971J-394D01*
G01*
X270992D01*
G75*
G02*
Y333716I3981J1D01*
G01*
G75*
G02*
X272298Y336667I3988J0D01*
G01*
G75*
G02*
X270992Y339620I2684J2953D01*
G01*
X90738D01*
G75*
G02*
X94012Y334423I-2488J-5197D01*
G01*
G37*
X278972Y339620D02*
G36*
X278972Y339620D02*
G75*
G02*
X277666Y336667I-3991J0D01*
G01*
G75*
G02*
X278972Y333716I-2681J-2952D01*
G01*
G75*
G02*
Y333715I-3981J0D01*
G01*
X316268D01*
G75*
G02*
Y333716I3981J1D01*
G01*
G75*
G02*
X317574Y336667I3988J0D01*
G01*
G75*
G02*
X316268Y339620I2684J2953D01*
G01*
X278972D01*
G37*
X324248D02*
G36*
X324248Y339620D02*
G75*
G02*
X322942Y336667I-3991J0D01*
G01*
G75*
G02*
X324248Y333716I-2681J-2952D01*
G01*
G75*
G02*
Y333715I-3981J0D01*
G01*
X428472D01*
G75*
G02*
X436453I3990J0D01*
G01*
X674589D01*
Y339620D01*
X324248D01*
G37*
X74982D02*
G36*
X74982Y339620D02*
X75762D01*
G75*
G02*
X80738I2488J-5197D01*
G01*
X85762D01*
G75*
G02*
X90738I2488J-5197D01*
G01*
X270992D01*
G75*
G02*
X272298Y342573I3991J0D01*
G01*
G75*
G02*
X271316Y343951I2681J2952D01*
G01*
X227791D01*
G75*
G02*
X219811I-3990J0D01*
G01*
X127344D01*
X124589Y341195D01*
X76557D01*
X74982Y339620D01*
G37*
X278649Y343951D02*
G36*
X278649Y343951D02*
G75*
G02*
X277666Y342573I-3664J1574D01*
G01*
G75*
G02*
X278972Y339620I-2684J-2953D01*
G01*
X316268D01*
G75*
G02*
X317574Y342573I3991J0D01*
G01*
G75*
G02*
X316591Y343951I2681J2952D01*
G01*
X278649D01*
G37*
X323924D02*
G36*
X323924Y343951D02*
G75*
G02*
X322942Y342573I-3664J1574D01*
G01*
G75*
G02*
X324248Y339620I-2684J-2953D01*
G01*
X674589D01*
Y343951D01*
X323924D01*
G37*
X131675Y348281D02*
G36*
X131675Y348281D02*
X127344Y343951D01*
X219811D01*
G75*
G02*
X227791I3990J0D01*
G01*
X271316D01*
G75*
G02*
X270992Y345524I3664J1574D01*
G01*
G75*
G02*
Y345526I3981J1D01*
G01*
G75*
G02*
X272097Y348281I3990J0D01*
G01*
X131675D01*
G37*
X277868D02*
G36*
X277868Y348281D02*
G75*
G02*
X278972Y345526I-2885J-2756D01*
G01*
G75*
G02*
Y345524I-3981J0D01*
G01*
G75*
G02*
X278649Y343951I-3988J0D01*
G01*
X316591D01*
G75*
G02*
X316268Y345524I3664J1574D01*
G01*
G75*
G02*
Y345526I3981J1D01*
G01*
G75*
G02*
X317372Y348281I3990J0D01*
G01*
X277868D01*
G37*
X323143D02*
G36*
X323143Y348281D02*
G75*
G02*
X324248Y345526I-2885J-2756D01*
G01*
G75*
G02*
Y345524I-3981J0D01*
G01*
G75*
G02*
X323924Y343951I-3988J0D01*
G01*
X674589D01*
Y348281D01*
X602863D01*
G75*
G02*
X595921I-3471J1969D01*
G01*
X421492D01*
G75*
G02*
X413512I-3990J0D01*
G01*
X342743D01*
G75*
G02*
X339505I-1619J5119D01*
G01*
X323143D01*
G37*
X136793Y353400D02*
G36*
X136793Y353400D02*
X131675Y348281D01*
X272097D01*
G75*
G02*
X277868I2885J-2756D01*
G01*
X317372D01*
G75*
G02*
X323143I2885J-2756D01*
G01*
X339505D01*
G75*
G02*
X335756Y353400I1619J5118D01*
G01*
X204150D01*
G75*
G02*
X204169Y353006I-3972J-396D01*
G01*
G75*
G02*
X196189I-3990J0D01*
G01*
G75*
G02*
X196209Y353400I3991J-2D01*
G01*
X136793D01*
G37*
X346492D02*
G36*
X346492Y353400D02*
G75*
G02*
X342743Y348281I-5368J0D01*
G01*
X413512D01*
G75*
G02*
X421492I3990J0D01*
G01*
X595921D01*
G75*
G02*
X595402Y350250I3471J1969D01*
G01*
G75*
G02*
X596942Y353400I3990J0D01*
G01*
X346492D01*
G37*
X603382Y350250D02*
G36*
X603382Y350250D02*
G75*
G02*
X602863Y348281I-3990J0D01*
G01*
X674589D01*
Y353400D01*
X601841D01*
G75*
G02*
X603382Y350250I-2450J-3150D01*
G01*
G37*
X139156Y355762D02*
G36*
X139156Y355762D02*
X136793Y353400D01*
X196209D01*
G75*
G02*
X197294Y355762I3972J-394D01*
G01*
G75*
G02*
X196189Y358518I2885J2756D01*
G01*
G75*
G02*
X197294Y361274I3990J0D01*
G01*
G75*
G02*
X196513Y362455I2887J2757D01*
G01*
X139156D01*
Y355762D01*
G37*
X203845Y362455D02*
G36*
X203845Y362455D02*
G75*
G02*
X203065Y361274I-3667J1576D01*
G01*
G75*
G02*
X204169Y358518I-2885J-2756D01*
G01*
G75*
G02*
X203065Y355762I-3990J0D01*
G01*
G75*
G02*
X204150Y353400I-2887J-2756D01*
G01*
X335756D01*
G75*
G02*
X346492I5368J0D01*
G01*
X596942D01*
G75*
G02*
X601841I2450J-3150D01*
G01*
X674589D01*
Y359699D01*
X671833Y362455D01*
X371492D01*
G75*
G02*
X363512I-3990J0D01*
G01*
X203845D01*
G37*
X139156Y378596D02*
G36*
X139156Y378596D02*
Y362455D01*
X196513D01*
G75*
G02*
X196189Y364030I3667J1575D01*
G01*
G75*
G02*
X204169I3990J0D01*
G01*
G75*
G02*
X203845Y362455I-3991J0D01*
G01*
X363512D01*
G75*
G02*
X371492I3990J0D01*
G01*
X671833D01*
X655691Y378596D01*
X622707D01*
G75*
G02*
X624248Y375447I-2450J-3150D01*
G01*
G75*
G02*
X616268I-3990J0D01*
G01*
G75*
G02*
X617808Y378596I3990J0D01*
G01*
X351807D01*
G75*
G02*
X343827I-3990J0D01*
G01*
X197596D01*
G75*
G02*
X197673Y377691I-5292J-907D01*
G01*
G75*
G02*
X192305Y372323I-5368J0D01*
G01*
G75*
G02*
X186937Y377691I0J5368D01*
G01*
G75*
G02*
X187014Y378596I5369J-2D01*
G01*
X139156D01*
G37*
Y383321D02*
G36*
X139156Y383321D02*
Y378596D01*
X187014D01*
G75*
G02*
X192305Y383059I5292J-906D01*
G01*
G75*
G02*
X197596Y378596I-1J-5369D01*
G01*
X343827D01*
G75*
G02*
X351807I3990J0D01*
G01*
X617808D01*
G75*
G02*
X622707I2450J-3150D01*
G01*
X655691D01*
X650967Y383321D01*
X176217D01*
G75*
G02*
X168236I-3990J0D01*
G01*
X139156D01*
G37*
Y391982D02*
G36*
X139156Y391982D02*
Y383321D01*
X168236D01*
G75*
G02*
X176217I3990J0D01*
G01*
X650967D01*
X644667Y389620D01*
Y391982D01*
X560862D01*
G75*
G02*
X552882I-3990J0D01*
G01*
X472280D01*
G75*
G02*
X464299I-3990J0D01*
G01*
X404991D01*
G75*
G02*
X406531Y388833I-2450J-3150D01*
G01*
G75*
G02*
X398551I-3990J0D01*
G01*
G75*
G02*
X400092Y391982I3990J0D01*
G01*
X262043D01*
G75*
G02*
X254063I-3990J0D01*
G01*
X186881D01*
G75*
G02*
X181981I-2450J3150D01*
G01*
X139156D01*
G37*
Y399069D02*
G36*
X139156Y399069D02*
Y391982D01*
X181981D01*
G75*
G02*
X180441Y395132I2450J3150D01*
G01*
G75*
G02*
X183782Y399069I3990J0D01*
G01*
X139156D01*
G37*
X188421Y395132D02*
G36*
X188421Y395132D02*
G75*
G02*
X186881Y391982I-3990J0D01*
G01*
X254063D01*
G75*
G02*
X262043I3990J0D01*
G01*
X400092D01*
G75*
G02*
X404991I2450J-3150D01*
G01*
X464299D01*
G75*
G02*
X472280I3990J0D01*
G01*
X552882D01*
G75*
G02*
X560862I3990J0D01*
G01*
X644667D01*
Y399069D01*
X635516D01*
G75*
G02*
X611299I-12108J7087D01*
G01*
X239878D01*
G75*
G02*
X228644Y395345I-6234J0D01*
G01*
G75*
G02*
X218644I-5000J3724D01*
G01*
G75*
G02*
X207409Y399069I-5000J3724D01*
G01*
X185080D01*
G75*
G02*
X188421Y395132I-649J-3937D01*
G01*
G37*
X139156Y414817D02*
G36*
X139156Y414817D02*
Y399069D01*
X183782D01*
G75*
G02*
X185080I649J-3938D01*
G01*
X207409D01*
G75*
G02*
X218644Y402793I6234J0D01*
G01*
G75*
G02*
X228644I5000J-3724D01*
G01*
G75*
G02*
X239878Y399069I5000J-3724D01*
G01*
X611299D01*
G75*
G02*
X609378Y406156I12108J7087D01*
G01*
G75*
G02*
X612371Y414817I14030J0D01*
G01*
X571000D01*
G75*
G02*
X563020I-3990J0D01*
G01*
X482417D01*
G75*
G02*
X474437I-3990J0D01*
G01*
X382516D01*
G75*
G02*
X374535I-3990J0D01*
G01*
X139156D01*
G37*
X637437Y406156D02*
G36*
X637437Y406156D02*
G75*
G02*
X635516Y399069I-14030J0D01*
G01*
X644667D01*
Y414817D01*
X634444D01*
G75*
G02*
X637437Y406156I-11037J-8661D01*
G01*
G37*
X139156Y428596D02*
G36*
X139156Y428596D02*
Y414817D01*
X374535D01*
G75*
G02*
X382516I3990J0D01*
G01*
X474437D01*
G75*
G02*
X482417I3990J0D01*
G01*
X563020D01*
G75*
G02*
X571000I3990J0D01*
G01*
X612371D01*
G75*
G02*
X634444I11037J-8661D01*
G01*
X644667D01*
Y428596D01*
X607242D01*
G75*
G02*
X599176I-4033J3544D01*
G01*
X597242D01*
G75*
G02*
X589176I-4033J3544D01*
G01*
X566527D01*
G75*
G02*
X558635I-3946J591D01*
G01*
X478185D01*
G75*
G02*
X470205I-3990J0D01*
G01*
X139156D01*
G37*
Y433715D02*
G36*
X139156Y433715D02*
Y428596D01*
X470205D01*
G75*
G02*
X478185I3990J0D01*
G01*
X558635D01*
G75*
G02*
X558591Y429187I3946J592D01*
G01*
G75*
G02*
X566571I3990J0D01*
G01*
G75*
G02*
X566527Y428596I-3990J1D01*
G01*
X589176D01*
G75*
G02*
X587841Y432140I4033J3543D01*
G01*
G75*
G02*
X588077Y433715I5368J0D01*
G01*
X188421D01*
G75*
G02*
X180441I-3990J0D01*
G01*
X139156D01*
G37*
X598209Y430186D02*
G36*
X598209Y430186D02*
G75*
G02*
X597242Y428596I-5000J1953D01*
G01*
X599176D01*
G75*
G02*
X598209Y430186I4033J3543D01*
G01*
G37*
X608577Y432140D02*
G36*
X608577Y432140D02*
G75*
G02*
X607242Y428596I-5368J0D01*
G01*
X644667D01*
Y432140D01*
X616321D01*
Y433715D01*
X608341D01*
G75*
G02*
X608577Y432140I-5132J-1575D01*
G01*
G37*
X139156Y445132D02*
G36*
X139156Y445132D02*
Y433715D01*
X180441D01*
G75*
G02*
X188421I3990J0D01*
G01*
X588077D01*
G75*
G02*
X598209Y434093I5132J-1575D01*
G01*
G75*
G02*
X608341Y433715I5000J-1954D01*
G01*
X616321D01*
Y477022D01*
X589817D01*
G75*
G02*
X584046I-2885J2756D01*
G01*
X487240D01*
G75*
G02*
X479260I-3990J0D01*
G01*
X437627D01*
G75*
G02*
X431196I-3216J2362D01*
G01*
X294504D01*
G75*
G02*
X286090I-4207J3937D01*
G01*
X284504D01*
G75*
G02*
X276090I-4207J3937D01*
G01*
X274504D01*
G75*
G02*
X266090I-4207J3937D01*
G01*
X264504D01*
G75*
G02*
X256090I-4207J3937D01*
G01*
X249392D01*
Y460880D01*
X237581Y449069D01*
X143093D01*
X139156Y445132D01*
G37*
X249392Y480959D02*
G36*
X249392Y480959D02*
Y477022D01*
X256090D01*
G75*
G02*
X254535Y480959I4207J3937D01*
G01*
X249392D01*
G37*
X265297Y478095D02*
G36*
X265297Y478095D02*
G75*
G02*
X264504Y477022I-5000J2863D01*
G01*
X266090D01*
G75*
G02*
X265297Y478095I4207J3937D01*
G01*
G37*
X275297D02*
G36*
X275297Y478095D02*
G75*
G02*
X274504Y477022I-5000J2863D01*
G01*
X276090D01*
G75*
G02*
X275297Y478095I4207J3937D01*
G01*
G37*
X285297D02*
G36*
X285297Y478095D02*
G75*
G02*
X284504Y477022I-5000J2863D01*
G01*
X286090D01*
G75*
G02*
X285297Y478095I4207J3937D01*
G01*
G37*
X296059Y480959D02*
G36*
X296059Y480959D02*
G75*
G02*
X294504Y477022I-5762J0D01*
G01*
X431196D01*
G75*
G02*
X430421Y479384I3216J2362D01*
G01*
G75*
G02*
X430745Y480959I3990J0D01*
G01*
X296059D01*
G37*
X438402Y479384D02*
G36*
X438402Y479384D02*
G75*
G02*
X437627Y477022I-3990J0D01*
G01*
X479260D01*
G75*
G02*
X482601Y480959I3990J0D01*
G01*
X456566D01*
G75*
G02*
X451667I-2450J3150D01*
G01*
X438078D01*
G75*
G02*
X438402Y479384I-3666J-1575D01*
G01*
G37*
X483899Y480959D02*
G36*
X483899Y480959D02*
G75*
G02*
X487240Y477022I-649J-3937D01*
G01*
X584046D01*
G75*
G02*
X582941Y479778I2885J2756D01*
G01*
G75*
G02*
X583120Y480959I3990J0D01*
G01*
X545936D01*
G75*
G02*
X541037I-2450J3150D01*
G01*
X483899D01*
G37*
X590921Y479778D02*
G36*
X590921Y479778D02*
G75*
G02*
X589817Y477022I-3990J0D01*
G01*
X616321D01*
Y480959D01*
X590743D01*
G75*
G02*
X590921Y479778I-3811J-1181D01*
G01*
G37*
X249392Y512455D02*
G36*
X249392Y512455D02*
Y480959D01*
X254535D01*
G75*
G02*
X265297Y483822I5762J0D01*
G01*
G75*
G02*
X275297I5000J-2863D01*
G01*
G75*
G02*
X285297I5000J-2863D01*
G01*
G75*
G02*
X296059Y480959I5000J-2863D01*
G01*
X430745D01*
G75*
G02*
X438078I3666J-1575D01*
G01*
X451667D01*
G75*
G02*
X450126Y484108I2450J3150D01*
G01*
G75*
G02*
X458106I3990J0D01*
G01*
G75*
G02*
X456566Y480959I-3990J0D01*
G01*
X482601D01*
G75*
G02*
X483899I649J-3938D01*
G01*
X541037D01*
G75*
G02*
X539496Y484108I2450J3150D01*
G01*
G75*
G02*
X547476I3990J0D01*
G01*
G75*
G02*
X545936Y480959I-3990J0D01*
G01*
X583120D01*
G75*
G02*
X590743I3811J-1181D01*
G01*
X616321D01*
Y512455D01*
X577868D01*
G75*
G02*
X572097I-2885J2756D01*
G01*
X522280D01*
G75*
G02*
X514299I-3990J0D01*
G01*
X434091D01*
G75*
G02*
X426110I-3990J0D01*
G01*
X249392D01*
G37*
Y533715D02*
G36*
X249392Y533715D02*
Y512455D01*
X426110D01*
G75*
G02*
X434091I3990J0D01*
G01*
X514299D01*
G75*
G02*
X522280I3990J0D01*
G01*
X572097D01*
G75*
G02*
X570992Y515211I2885J2756D01*
G01*
G75*
G02*
X578972I3990J0D01*
G01*
G75*
G02*
X577868Y512455I-3990J0D01*
G01*
X616321D01*
Y533715D01*
X595765D01*
G75*
G02*
X585144I-5310J787D01*
G01*
X384165D01*
G75*
G02*
X358713I-12726J5906D01*
G01*
X296059D01*
G75*
G02*
X285297Y530851I-5762J0D01*
G01*
G75*
G02*
X275297I-5000J2863D01*
G01*
G75*
G02*
X265297I-5000J2863D01*
G01*
G75*
G02*
X254535Y533715I-5000J2863D01*
G01*
X249392D01*
G37*
Y548557D02*
G36*
X249392Y548557D02*
Y533715D01*
X254535D01*
G75*
G02*
X265297Y536578I5762J0D01*
G01*
G75*
G02*
X275297I5000J-2863D01*
G01*
G75*
G02*
X285297I5000J-2863D01*
G01*
G75*
G02*
X296059Y533715I5000J-2863D01*
G01*
X358713D01*
G75*
G02*
X357409Y539620I12726J5906D01*
G01*
G75*
G02*
X360624Y548557I14030J0D01*
G01*
X249392D01*
G37*
X385469Y539620D02*
G36*
X385469Y539620D02*
G75*
G02*
X384165Y533715I-14030J0D01*
G01*
X585144D01*
G75*
G02*
X585087Y534502I5311J786D01*
G01*
G75*
G02*
X595823I5368J0D01*
G01*
G75*
G02*
X595765Y533715I-5369J-1D01*
G01*
X616321D01*
Y548557D01*
X401217D01*
G75*
G02*
X395848Y543189I-5368J0D01*
G01*
G75*
G02*
X390480Y548557I0J5368D01*
G01*
X382254D01*
G75*
G02*
X385469Y539620I-10815J-8937D01*
G01*
G37*
X249392Y553400D02*
G36*
X249392Y553400D02*
Y548557D01*
X360624D01*
G75*
G02*
X382254I10815J-8937D01*
G01*
X390480D01*
G75*
G02*
X395848Y553925I5368J0D01*
G01*
G75*
G02*
X401217Y548557I0J-5368D01*
G01*
X616321D01*
Y557087D01*
X253079D01*
X249392Y553400D01*
G37*
X19077Y445132D02*
Y348675D01*
X23014Y344738D01*
X40730D01*
X61596Y365604D01*
X110022D01*
X113959Y369541D01*
Y445132D01*
X110022Y449069D01*
X23014D01*
X19077Y445132D01*
X30244Y383124D02*
G75*
G02*
X43343I6549J0D01*
G01*
G75*
G02*
X41115Y378203I-6549J0D01*
G01*
G75*
G02*
X40807Y368106I-4321J-4921D01*
G01*
G75*
G02*
Y358772I-4014J-4667D01*
G01*
G75*
G02*
X36793Y347047I-4013J-5175D01*
G01*
G75*
G02*
X32780Y358772I0J6549D01*
G01*
G75*
G02*
Y368106I4014J4667D01*
G01*
G75*
G02*
X32472Y378203I4013J5175D01*
G01*
G75*
G02*
X30244Y383124I4321J4921D01*
G01*
Y440211D02*
G75*
G02*
X43343I6549J0D01*
G01*
G75*
G02*
X41115Y435289I-6549J0D01*
G01*
G75*
G02*
X40807Y425193I-4321J-4921D01*
G01*
G75*
G02*
Y415858I-4014J-4667D01*
G01*
G75*
G02*
X36793Y404134I-4013J-5175D01*
G01*
G75*
G02*
X32780Y415858I0J6549D01*
G01*
G75*
G02*
Y425193I4014J4667D01*
G01*
G75*
G02*
X32472Y435289I4013J5175D01*
G01*
G75*
G02*
X30244Y440211I4321J4921D01*
G01*
X58000Y374266D02*
G75*
G02*
X66768I4384J0D01*
G01*
G75*
G02*
X58000I-4384J0D01*
G01*
X19327Y368360D02*
G36*
X19327Y368360D02*
Y348425D01*
X22764Y344988D01*
X40980D01*
X61596Y365604D01*
X110022D01*
X112778Y368360D01*
X41114D01*
G75*
G02*
X40807Y368106I-4321J4919D01*
G01*
G75*
G02*
X42949Y363439I-4014J-4667D01*
G01*
G75*
G02*
X40807Y358772I-6156J0D01*
G01*
G75*
G02*
X43343Y353596I-4013J-5175D01*
G01*
G75*
G02*
X36793Y347047I-6549J0D01*
G01*
G75*
G02*
X30244Y353596I0J6549D01*
G01*
G75*
G02*
X32780Y358772I6549J0D01*
G01*
G75*
G02*
X30638Y363439I4014J4667D01*
G01*
G75*
G02*
X32780Y368106I6156J0D01*
G01*
G75*
G02*
X32472Y368360I4014J5173D01*
G01*
X19327D01*
G37*
Y374266D02*
G36*
X19327Y374266D02*
Y368360D01*
X32472D01*
G75*
G02*
X30244Y373281I4321J4922D01*
G01*
G75*
G02*
X30319Y374266I6550J0D01*
G01*
X19327D01*
G37*
X43343Y373281D02*
G36*
X43343Y373281D02*
G75*
G02*
X41114Y368360I-6549J0D01*
G01*
X112778D01*
X113709Y369291D01*
Y374266D01*
X66768D01*
G75*
G02*
X58000I-4384J0D01*
G01*
X43268D01*
G75*
G02*
X43343Y373281I-6476J-985D01*
G01*
G37*
X19327Y425447D02*
G36*
X19327Y425447D02*
Y374266D01*
X30319D01*
G75*
G02*
X32472Y378203I6475J-984D01*
G01*
G75*
G02*
X30244Y383124I4322J4922D01*
G01*
G75*
G02*
X43343I6549J0D01*
G01*
G75*
G02*
X41115Y378203I-6550J0D01*
G01*
G75*
G02*
X43268Y374266I-4321J-4921D01*
G01*
X58000D01*
G75*
G02*
X66768I4384J0D01*
G01*
X113709D01*
Y425447D01*
X41114D01*
G75*
G02*
X40807Y425193I-4321J4919D01*
G01*
G75*
G02*
X42949Y420526I-4014J-4667D01*
G01*
G75*
G02*
X40807Y415858I-6156J0D01*
G01*
G75*
G02*
X43343Y410683I-4013J-5175D01*
G01*
G75*
G02*
X36793Y404134I-6549J0D01*
G01*
G75*
G02*
X30244Y410683I0J6549D01*
G01*
G75*
G02*
X32780Y415858I6549J0D01*
G01*
G75*
G02*
X30638Y420526I4014J4667D01*
G01*
G75*
G02*
X32780Y425193I6156J0D01*
G01*
G75*
G02*
X32472Y425447I4014J5173D01*
G01*
X19327D01*
G37*
Y445382D02*
G36*
X19327Y445382D02*
Y425447D01*
X32472D01*
G75*
G02*
X30244Y430368I4321J4922D01*
G01*
G75*
G02*
X32472Y435289I6549J0D01*
G01*
G75*
G02*
X30244Y440211I4322J4922D01*
G01*
G75*
G02*
X43343I6549J0D01*
G01*
G75*
G02*
X41115Y435289I-6550J0D01*
G01*
G75*
G02*
X43343Y430368I-4321J-4921D01*
G01*
G75*
G02*
X41114Y425447I-6549J0D01*
G01*
X113709D01*
Y445382D01*
X110272Y448819D01*
X22764D01*
X19327Y445382D01*
G37*
X19077Y514817D02*
Y462061D01*
X23014Y458124D01*
X218289D01*
X234431Y474266D01*
Y476398D01*
G75*
G02*
X225063Y477720I-4134J4561D01*
G01*
G75*
G02*
X214535Y480959I-4765J3239D01*
G01*
G75*
G02*
X225063Y484197I5762J0D01*
G01*
G75*
G02*
X234431Y485520I5235J-3239D01*
G01*
Y529154D01*
G75*
G02*
X225063Y530476I-4134J4561D01*
G01*
G75*
G02*
X214535Y533715I-4765J3239D01*
G01*
G75*
G02*
X225063Y536953I5762J0D01*
G01*
G75*
G02*
X234431Y538276I5235J-3239D01*
G01*
Y553400D01*
X230494Y557337D01*
X61203D01*
X57266Y553400D01*
Y529778D01*
X46242Y518754D01*
X23014D01*
X19077Y514817D01*
X142449Y482533D02*
G75*
G02*
X159484I8518J0D01*
G01*
G75*
G02*
X142449I-8518J0D01*
G01*
X185756Y538715D02*
G75*
G02*
X196492I5368J0D01*
G01*
G75*
G02*
X185756I-5368J0D01*
G01*
X53472Y482533D02*
G75*
G02*
X70508I8518J0D01*
G01*
G75*
G02*
X53472I-8518J0D01*
G01*
X40730Y483020D02*
G75*
G02*
X49248Y474502I0J-8518D01*
G01*
G75*
G02*
X40730Y465984I-8518J0D01*
G01*
G75*
G02*
X32213Y474502I0J8518D01*
G01*
G75*
G02*
X40730Y483020I8518J0D01*
G01*
Y502626D02*
G75*
G02*
X48854Y494502I0J-8124D01*
G01*
G75*
G02*
X40730Y486378I-8124J0D01*
G01*
G75*
G02*
X32606Y494502I0J8124D01*
G01*
G75*
G02*
X40730Y502626I8124J0D01*
G01*
X19327Y482533D02*
G36*
X19327Y482533D02*
Y461811D01*
X22764Y458374D01*
X218539D01*
X234181Y474016D01*
Y476183D01*
G75*
G02*
X225063Y477720I-3884J4775D01*
G01*
G75*
G02*
X214535Y480959I-4765J3239D01*
G01*
G75*
G02*
X214755Y482533I5762J0D01*
G01*
X159484D01*
G75*
G02*
X142449I-8518J0D01*
G01*
X70508D01*
G75*
G02*
X53472I-8518J0D01*
G01*
X43567D01*
G75*
G02*
X49248Y474502I-2837J-8032D01*
G01*
G75*
G02*
X40730Y465984I-8518J0D01*
G01*
G75*
G02*
X32213Y474502I0J8518D01*
G01*
G75*
G02*
X37894Y482533I8518J0D01*
G01*
X19327D01*
G37*
Y494502D02*
G36*
X19327Y494502D02*
Y482533D01*
X37894D01*
G75*
G02*
X40730Y483020I2837J-8031D01*
G01*
G75*
G02*
X43567Y482533I0J-8518D01*
G01*
X53472D01*
G75*
G02*
X70508I8518J0D01*
G01*
X142449D01*
G75*
G02*
X159484I8518J0D01*
G01*
X214755D01*
G75*
G02*
X225063Y484197I5543J-1575D01*
G01*
G75*
G02*
X234181Y485734I5235J-3238D01*
G01*
Y494502D01*
X48854D01*
G75*
G02*
X40730Y486378I-8124J0D01*
G01*
G75*
G02*
X32606Y494502I0J8124D01*
G01*
X19327D01*
G37*
Y515067D02*
G36*
X19327Y515067D02*
Y494502D01*
X32606D01*
G75*
G02*
X40730Y502626I8124J0D01*
G01*
G75*
G02*
X48854Y494502I0J-8124D01*
G01*
X234181D01*
Y528939D01*
G75*
G02*
X225063Y530476I-3884J4775D01*
G01*
G75*
G02*
X214535Y533715I-4765J3239D01*
G01*
G75*
G02*
X217434Y538715I5762J0D01*
G01*
X196492D01*
G75*
G02*
X185756I-5368J0D01*
G01*
X57266D01*
Y529778D01*
X46242Y518754D01*
X23014D01*
X19327Y515067D01*
G37*
X223160Y538715D02*
G36*
X223160Y538715D02*
G75*
G02*
X225063Y536953I-2863J-5000D01*
G01*
G75*
G02*
X226707Y538715I5235J-3238D01*
G01*
X223160D01*
G37*
X233888D02*
G36*
X233888Y538715D02*
G75*
G02*
X234181Y538490I-3593J-5000D01*
G01*
Y538715D01*
X233888D01*
G37*
X57266Y553400D02*
G36*
X57266Y553400D02*
Y538715D01*
X185756D01*
G75*
G02*
X196492I5368J0D01*
G01*
X217434D01*
G75*
G02*
X223160I2863J-5000D01*
G01*
X226707D01*
G75*
G02*
X233888I3591J-5000D01*
G01*
X234181D01*
Y553650D01*
X230744Y557087D01*
X60953D01*
X57266Y553400D01*
G37*
X615533Y557337D02*
Y431352D01*
X787974D01*
Y372297D01*
X869280D01*
G75*
G02*
X872570Y375604I10034J-6693D01*
G01*
G75*
G02*
X879313Y397665I6743J10000D01*
G01*
G75*
G02*
X886056Y375604I0J-12061D01*
G01*
G75*
G02*
X889346Y372297I-6743J-10000D01*
G01*
X901360D01*
Y553400D01*
X897423Y557337D01*
X886237D01*
G75*
G02*
X901217Y539620I-2987J-17717D01*
G01*
G75*
G02*
X865283I-17967J0D01*
G01*
G75*
G02*
X880263Y557337I17967J0D01*
G01*
X615533D01*
X867252Y443715D02*
G75*
G02*
X891374I12061J0D01*
G01*
G75*
G02*
X881698Y431892I-12061J0D01*
G01*
G75*
G02*
X879313Y415197I-2385J-8177D01*
G01*
G75*
G02*
X876928Y431892I0J8518D01*
G01*
G75*
G02*
X867252Y443715I2385J11823D01*
G01*
Y502770D02*
G75*
G02*
X891374I12061J0D01*
G01*
G75*
G02*
X886056Y492770I-12061J0D01*
G01*
G75*
G02*
X879313Y470709I-6743J-10000D01*
G01*
G75*
G02*
X872570Y492770I0J12061D01*
G01*
G75*
G02*
X867252Y502770I6743J10000D01*
G01*
X637528Y497494D02*
G75*
G02*
X663618I13045J0D01*
G01*
G75*
G02*
X637528I-13045J0D01*
G01*
X705573Y518534D02*
G75*
G02*
X720469Y509994I5000J-8540D01*
G01*
G75*
G02*
X705573Y501454I-9896J0D01*
G01*
G75*
G02*
X695573I-5000J8540D01*
G01*
G75*
G02*
X680677Y509994I-5000J8540D01*
G01*
G75*
G02*
X695573Y518534I9896J0D01*
G01*
G75*
G02*
X705573I5000J-8540D01*
G01*
X737528Y497494D02*
G75*
G02*
X763618I13045J0D01*
G01*
G75*
G02*
X737528I-13045J0D01*
G01*
X805047Y406943D02*
G75*
G02*
X833106I14030J0D01*
G01*
G75*
G02*
X805047I-14030J0D01*
G01*
Y436943D02*
G75*
G02*
X833106I14030J0D01*
G01*
G75*
G02*
X805047I-14030J0D01*
G01*
Y511943D02*
G75*
G02*
X833106I14030J0D01*
G01*
G75*
G02*
X829294Y502328I-14030J0D01*
G01*
G75*
G02*
X819077Y483858I-10217J-6409D01*
G01*
G75*
G02*
X808859Y502328I0J12061D01*
G01*
G75*
G02*
X805047Y511943I10217J9614D01*
G01*
Y541943D02*
G75*
G02*
X833106I14030J0D01*
G01*
G75*
G02*
X805047I-14030J0D01*
G01*
X840480Y473085D02*
G75*
G02*
X859091I9305J0D01*
G01*
G75*
G02*
X840480I-9305J0D01*
G01*
X787974Y406943D02*
G36*
X787974Y406943D02*
Y372547D01*
X869451D01*
G75*
G02*
X872570Y375604I9862J-6943D01*
G01*
G75*
G02*
X867252Y385604I6743J10000D01*
G01*
G75*
G02*
X879313Y397665I12061J0D01*
G01*
G75*
G02*
X891374Y385604I0J-12061D01*
G01*
G75*
G02*
X886056Y375604I-12061J0D01*
G01*
G75*
G02*
X889175Y372547I-6743J-10000D01*
G01*
X901110D01*
Y406943D01*
X833106D01*
G75*
G02*
X805047I-14030J0D01*
G01*
X787974D01*
G37*
X615783Y435486D02*
G36*
X615783Y435486D02*
Y431352D01*
X787974D01*
Y406943D01*
X805047D01*
G75*
G02*
X833106I14030J0D01*
G01*
X901110D01*
Y435486D01*
X888131D01*
G75*
G02*
X881698Y431892I-8819J8230D01*
G01*
G75*
G02*
X887831Y423715I-2385J-8177D01*
G01*
G75*
G02*
X879313Y415197I-8518J0D01*
G01*
G75*
G02*
X870795Y423715I0J8518D01*
G01*
G75*
G02*
X876928Y431892I8518J0D01*
G01*
G75*
G02*
X870495Y435486I2385J11823D01*
G01*
X833030D01*
G75*
G02*
X805123I-13954J1457D01*
G01*
X615783D01*
G37*
Y473085D02*
G36*
X615783Y473085D02*
Y435486D01*
X805123D01*
G75*
G02*
X805047Y436943I13956J1458D01*
G01*
G75*
G02*
X833106I14030J0D01*
G01*
G75*
G02*
X833030Y435486I-14031J2D01*
G01*
X870495D01*
G75*
G02*
X867252Y443715I8818J8229D01*
G01*
G75*
G02*
X891374I12061J0D01*
G01*
G75*
G02*
X888131Y435486I-12062J0D01*
G01*
X901110D01*
Y473085D01*
X886501D01*
G75*
G02*
X879313Y470709I-7188J9685D01*
G01*
G75*
G02*
X872125Y473085I0J12061D01*
G01*
X859091D01*
G75*
G02*
X840480I-9305J0D01*
G01*
X615783D01*
G37*
Y492770D02*
G36*
X615783Y492770D02*
Y473085D01*
X840480D01*
G75*
G02*
X859091I9305J0D01*
G01*
X872125D01*
G75*
G02*
X867252Y482770I7188J9685D01*
G01*
G75*
G02*
X872570Y492770I12061J0D01*
G01*
X830719D01*
G75*
G02*
X819077Y483858I-11643J3150D01*
G01*
G75*
G02*
X807434Y492770I0J12061D01*
G01*
X762733D01*
G75*
G02*
X738413I-12160J4724D01*
G01*
X662733D01*
G75*
G02*
X638413I-12160J4724D01*
G01*
X615783D01*
G37*
X891374Y482770D02*
G36*
X891374Y482770D02*
G75*
G02*
X886501Y473085I-12061J0D01*
G01*
X901110D01*
Y492770D01*
X886056D01*
G75*
G02*
X891374Y482770I-6743J-10000D01*
G01*
G37*
X615783Y509994D02*
G36*
X615783Y509994D02*
Y492770D01*
X638413D01*
G75*
G02*
X637528Y497494I12160J4724D01*
G01*
G75*
G02*
X646841Y509994I13045J0D01*
G01*
X615783D01*
G37*
X663618Y497494D02*
G36*
X663618Y497494D02*
G75*
G02*
X662733Y492770I-13046J0D01*
G01*
X738413D01*
G75*
G02*
X737528Y497494I12160J4724D01*
G01*
G75*
G02*
X746841Y509994I13045J0D01*
G01*
X720469D01*
G75*
G02*
X705573Y501454I-9896J0D01*
G01*
G75*
G02*
X695573I-5000J8541D01*
G01*
G75*
G02*
X680677Y509994I-5000J8540D01*
G01*
X654305D01*
G75*
G02*
X663618Y497494I-3732J-12500D01*
G01*
G37*
X763618D02*
G36*
X763618Y497494D02*
G75*
G02*
X762733Y492770I-13046J0D01*
G01*
X807434D01*
G75*
G02*
X807016Y495919I11643J3150D01*
G01*
G75*
G02*
X808859Y502328I12061J0D01*
G01*
G75*
G02*
X805183Y509994I10217J9614D01*
G01*
X754305D01*
G75*
G02*
X763618Y497494I-3732J-12500D01*
G01*
G37*
X831138Y495919D02*
G36*
X831138Y495919D02*
G75*
G02*
X830719Y492770I-12061J0D01*
G01*
X872570D01*
G75*
G02*
X867252Y502770I6743J10000D01*
G01*
G75*
G02*
X869655Y509994I12061J0D01*
G01*
X832970D01*
G75*
G02*
X829294Y502328I-13894J1949D01*
G01*
G75*
G02*
X831138Y495919I-10217J-6409D01*
G01*
G37*
X891374Y502770D02*
G36*
X891374Y502770D02*
G75*
G02*
X886056Y492770I-12061J0D01*
G01*
X901110D01*
Y509994D01*
X888971D01*
G75*
G02*
X891374Y502770I-9658J-7224D01*
G01*
G37*
X615783Y541943D02*
G36*
X615783Y541943D02*
Y509994D01*
X646841D01*
G75*
G02*
X654305I3732J-12500D01*
G01*
X680677D01*
G75*
G02*
X695573Y518534I9896J0D01*
G01*
G75*
G02*
X705573I5000J-8541D01*
G01*
G75*
G02*
X720469Y509994I5000J-8540D01*
G01*
X746841D01*
G75*
G02*
X754305I3732J-12500D01*
G01*
X805183D01*
G75*
G02*
X805047Y511942I13893J1947D01*
G01*
G75*
G02*
Y511943I22557J0D01*
G01*
G75*
G02*
X833106I14030J0D01*
G01*
G75*
G02*
X832970Y509994I-14031J-1D01*
G01*
X869655D01*
G75*
G02*
X888971I9658J-7224D01*
G01*
X901110D01*
Y537669D01*
G75*
G02*
X865283Y539620I-17860J1952D01*
G01*
Y539620D01*
G75*
G02*
X865434Y541943I17967J0D01*
G01*
X833106D01*
G75*
G02*
X805047I-14030J0D01*
G01*
X615783D01*
G37*
X901066D02*
G36*
X901066Y541943D02*
G75*
G02*
X901110Y541572I-17822J-2324D01*
G01*
Y541943D01*
X901066D01*
G37*
X615783Y557087D02*
G36*
X615783Y557087D02*
Y541943D01*
X805047D01*
G75*
G02*
X833106I14030J0D01*
G01*
X865434D01*
G75*
G02*
X879041Y557087I17815J-2323D01*
G01*
X615783D01*
G37*
X897673D02*
G36*
X897673Y557087D02*
X887459D01*
G75*
G02*
X901066Y541943I-4209J-17467D01*
G01*
X901110D01*
Y553650D01*
X897673Y557087D01*
G37*
X649785Y401745D02*
Y392376D01*
X670586Y371576D01*
G75*
G02*
X685467Y372153I7546J-2428D01*
G01*
G75*
G02*
X703579Y369148I8806J-3006D01*
G01*
G75*
G02*
X685467Y366142I-9305J0D01*
G01*
G75*
G02*
X679707Y361378I-7335J3006D01*
G01*
Y276628D01*
X691911Y264423D01*
Y249021D01*
G75*
G02*
X696935Y240067I-2756J-7432D01*
G01*
G75*
G02*
X704957Y232140I94J-7927D01*
G01*
G75*
G02*
X691911Y226086I-7927J0D01*
G01*
Y127809D01*
X696636Y123085D01*
X741518D01*
X754116Y110486D01*
X874982D01*
X882856Y102612D01*
X901360D01*
Y373085D01*
X888774D01*
G75*
G02*
X886056Y355604I-9461J-7480D01*
G01*
G75*
G02*
X879313Y333543I-6743J-10000D01*
G01*
G75*
G02*
X872570Y355604I0J12061D01*
G01*
G75*
G02*
X869852Y373085I6743J10000D01*
G01*
X788762D01*
Y432140D01*
X649785D01*
Y408515D01*
G75*
G02*
X675429Y405130I12598J-3385D01*
G01*
G75*
G02*
X649785Y401745I-13045J0D01*
G01*
X798157Y310486D02*
G75*
G02*
X824248I13045J0D01*
G01*
G75*
G02*
X805646Y298683I-13045J0D01*
G01*
G75*
G02*
X787013Y297321I-9443J1053D01*
G01*
G75*
G02*
X765126Y299736I-10810J2415D01*
G01*
G75*
G02*
X787013Y302152I11077J0D01*
G01*
G75*
G02*
X798241Y309017I9190J-2416D01*
G01*
G75*
G02*
X798157Y310486I12964J1470D01*
G01*
X865283Y307337D02*
G75*
G02*
X901217I17967J0D01*
G01*
G75*
G02*
X865283I-17967J0D01*
G01*
X887187Y256406D02*
G75*
G02*
X892027Y237036I0J-10289D01*
G01*
G75*
G02*
X887187Y225591I-4840J-4700D01*
G01*
G75*
G02*
X882347Y237036I0J6746D01*
G01*
G75*
G02*
X887187Y256406I4840J9080D01*
G01*
X691307Y420130D02*
G75*
G02*
X713461I11077J0D01*
G01*
G75*
G02*
X691307I-11077J0D01*
G01*
X720263Y396118D02*
G75*
G02*
X728736Y390130I2121J-5988D01*
G01*
G75*
G02*
X720263Y384143I-6352J0D01*
G01*
G75*
G02*
X707384Y381591I-7879J5988D01*
G01*
G75*
G02*
X692488Y390130I-5000J8540D01*
G01*
G75*
G02*
X707384Y398670I9896J0D01*
G01*
G75*
G02*
X720263Y396118I5000J-8540D01*
G01*
X714850Y420130D02*
G75*
G02*
X729917I7533J0D01*
G01*
G75*
G02*
X714850I-7533J0D01*
G01*
X766203Y337026D02*
G75*
G02*
X781098Y328486I5000J-8540D01*
G01*
G75*
G02*
X766203Y319946I-9896J0D01*
G01*
G75*
G02*
X756203I-5000J8540D01*
G01*
G75*
G02*
X741307Y328486I-5000J8540D01*
G01*
G75*
G02*
X756203Y337026I9896J0D01*
G01*
G75*
G02*
X766203I5000J-8540D01*
G01*
X843880Y255868D02*
G75*
G02*
X852254Y247494I0J-8374D01*
G01*
Y119148D01*
G75*
G02*
X843880Y110774I-8374J0D01*
G01*
X770652D01*
G75*
G02*
X764246Y117179I0J6406D01*
G01*
G75*
G02*
X770652Y123585I6406J0D01*
G01*
X839443D01*
Y243057D01*
X770652D01*
G75*
G02*
X764246Y249463I0J6406D01*
G01*
G75*
G02*
X770652Y255868I6406J0D01*
G01*
X843880D01*
X793433Y161667D02*
G75*
G02*
X805350I5959J0D01*
G01*
G75*
G02*
X794385Y158436I-5959J0D01*
G01*
G75*
G02*
X794720Y156156I-7592J-2280D01*
G01*
G75*
G02*
X778866I-7927J0D01*
G01*
G75*
G02*
X793621Y160184I7927J0D01*
G01*
G75*
G02*
X793433Y161667I5770J1484D01*
G01*
X778866Y194738D02*
G75*
G02*
X794720I7927J0D01*
G01*
G75*
G02*
X778866I-7927J0D01*
G01*
X787134Y213636D02*
G75*
G02*
X802988I7927J0D01*
G01*
G75*
G02*
X787134I-7927J0D01*
G01*
X793827Y200250D02*
G75*
G02*
X805744I5959J0D01*
G01*
G75*
G02*
X793827I-5959J0D01*
G01*
X749339Y405130D02*
G75*
G02*
X775429I13045J0D01*
G01*
G75*
G02*
X749339I-13045J0D01*
G01*
X737390Y306446D02*
G75*
G02*
X757280Y299736I8813J-6710D01*
G01*
G75*
G02*
X737390Y293026I-11077J0D01*
G01*
G75*
G02*
X713331Y297616I-11187J6710D01*
G01*
G75*
G02*
X698157Y310486I-2128J12870D01*
G01*
G75*
G02*
X724074Y312607I13045J0D01*
G01*
G75*
G02*
X737390Y306446I2128J-12870D01*
G01*
X755244Y232140D02*
G75*
G02*
X771098I7927J0D01*
G01*
G75*
G02*
X755244I-7927J0D01*
G01*
X735953Y148675D02*
G75*
G02*
X751807I7927J0D01*
G01*
G75*
G02*
X735953I-7927J0D01*
G01*
Y188045D02*
G75*
G02*
X751807I7927J0D01*
G01*
G75*
G02*
X735953I-7927J0D01*
G01*
X723615Y260059D02*
G75*
G02*
X723722Y248414I-5325J-5872D01*
G01*
G75*
G02*
X708132I-7795J1442D01*
G01*
G75*
G02*
X708240Y260059I5432J5773D01*
G01*
G75*
G02*
X723615I7687J-1935D01*
G01*
X708000Y227435D02*
G75*
G02*
X723854I7927J0D01*
G01*
G75*
G02*
X723426Y224866I-7928J0D01*
G01*
G75*
G02*
X723430Y219738I-7500J-2569D01*
G01*
G75*
G02*
X723491Y214807I-7504J-2559D01*
G01*
G75*
G02*
X709333Y208035I-7564J-2372D01*
G01*
G75*
G02*
X702196Y205857I-5610J5600D01*
G01*
G75*
G02*
X702006Y194578I-2017J-5607D01*
G01*
G75*
G02*
X708000Y188155I-1826J-7714D01*
G01*
G75*
G02*
X723854Y188065I7927J-90D01*
G01*
G75*
G02*
X723450Y185565I-7927J1D01*
G01*
G75*
G02*
X723854Y183065I-7522J-2501D01*
G01*
G75*
G02*
X723450Y180565I-7927J1D01*
G01*
G75*
G02*
X723854Y178065I-7522J-2501D01*
G01*
G75*
G02*
X723450Y175565I-7927J1D01*
G01*
G75*
G02*
X723854Y173065I-7522J-2501D01*
G01*
G75*
G02*
X708000I-7927J0D01*
G01*
G75*
G02*
X708405Y175565I7927J-1D01*
G01*
G75*
G02*
X708000Y178065I7522J2501D01*
G01*
G75*
G02*
X708405Y180565I7927J-1D01*
G01*
G75*
G02*
X708000Y183065I7522J2501D01*
G01*
G75*
G02*
X708405Y185565I7927J-1D01*
G01*
G75*
G02*
X708106Y186774I7524J2501D01*
G01*
G75*
G02*
X692252Y186864I-7927J90D01*
G01*
G75*
G02*
X698353Y194578I7927J0D01*
G01*
G75*
G02*
X701201Y206120I1826J5672D01*
G01*
G75*
G02*
X695795Y213636I2522J7515D01*
G01*
G75*
G02*
X708311Y220100I7927J0D01*
G01*
G75*
G02*
X708428Y224866I7617J2197D01*
G01*
G75*
G02*
X708000Y227435I7500J2569D01*
G01*
X704783Y157884D02*
G75*
G02*
X708106Y151431I-4604J-6453D01*
G01*
G75*
G02*
X692252I-7927J0D01*
G01*
G75*
G02*
X695575Y157884I7927J0D01*
G01*
G75*
G02*
X694220Y161667I4604J3783D01*
G01*
G75*
G02*
X706138I5959J0D01*
G01*
G75*
G02*
X704783Y157884I-5959J0D01*
G01*
X708000Y148695D02*
G75*
G02*
X723854I7927J0D01*
G01*
G75*
G02*
X723450Y146195I-7927J1D01*
G01*
G75*
G02*
X723854Y143695I-7522J-2501D01*
G01*
G75*
G02*
X723450Y141195I-7927J1D01*
G01*
G75*
G02*
X723854Y138695I-7522J-2501D01*
G01*
G75*
G02*
X723450Y136195I-7927J1D01*
G01*
G75*
G02*
X723854Y133695I-7522J-2501D01*
G01*
G75*
G02*
X708000I-7927J0D01*
G01*
G75*
G02*
X708405Y136195I7927J-1D01*
G01*
G75*
G02*
X708000Y138695I7522J2501D01*
G01*
G75*
G02*
X708405Y141195I7927J-1D01*
G01*
G75*
G02*
X708000Y143695I7522J2501D01*
G01*
G75*
G02*
X708405Y146195I7927J-1D01*
G01*
G75*
G02*
X708000Y148695I7522J2501D01*
G01*
X691911Y148675D02*
G36*
X691911Y148675D02*
Y127809D01*
X696636Y123085D01*
X741518D01*
X754116Y110486D01*
X874982D01*
X882606Y102862D01*
X901110D01*
Y148675D01*
X852254D01*
Y119148D01*
G75*
G02*
X843880Y110774I-8374J0D01*
G01*
X770652D01*
G75*
G02*
X764246Y117179I0J6405D01*
G01*
Y117179D01*
Y117180D01*
G75*
G02*
X770652Y123585I6406J0D01*
G01*
X839443D01*
Y148675D01*
X789417D01*
G75*
G02*
X784169I-2624J7481D01*
G01*
X751807D01*
G75*
G02*
X735953I-7927J0D01*
G01*
X723854D01*
G75*
G02*
X723450Y146195I-7935J22D01*
G01*
G75*
G02*
X723854Y143695I-7531J-2502D01*
G01*
G75*
G02*
X723450Y141195I-7935J2D01*
G01*
G75*
G02*
X723854Y138695I-7531J-2502D01*
G01*
G75*
G02*
X723450Y136195I-7935J2D01*
G01*
G75*
G02*
X723854Y133695I-7531J-2502D01*
G01*
G75*
G02*
X708000I-7927J0D01*
G01*
G75*
G02*
X708405Y136195I7935J-2D01*
G01*
G75*
G02*
X708000Y138695I7531J2502D01*
G01*
G75*
G02*
X708405Y141195I7935J-2D01*
G01*
G75*
G02*
X708000Y143695I7531J2502D01*
G01*
G75*
G02*
X708405Y146195I7935J-2D01*
G01*
G75*
G02*
X708000Y148675I7531J2502D01*
G01*
X707612D01*
G75*
G02*
X692746I-7433J2756D01*
G01*
X691911D01*
G37*
Y157927D02*
G36*
X691911Y157927D02*
Y148675D01*
X692746D01*
G75*
G02*
X692252Y151431I7433J2756D01*
G01*
G75*
G02*
X695575Y157884I7927J0D01*
G01*
G75*
G02*
X695540Y157927I4604J3795D01*
G01*
X691911D01*
G37*
X704818D02*
G36*
X704818Y157927D02*
G75*
G02*
X704783Y157884I-4639J3752D01*
G01*
G75*
G02*
X708106Y151432I-4602J-6452D01*
G01*
G75*
G02*
Y151431I-9023J0D01*
G01*
G75*
G02*
X707612Y148675I-7928J0D01*
G01*
X708000D01*
G75*
G02*
Y148695I7943J10D01*
G01*
G75*
G02*
X723854I7927J0D01*
G01*
G75*
G02*
Y148675I-7943J-10D01*
G01*
X735953D01*
G75*
G02*
X751807I7927J0D01*
G01*
X784169D01*
G75*
G02*
X778866Y156156I2624J7480D01*
G01*
G75*
G02*
X779067Y157927I7928J0D01*
G01*
X704818D01*
G37*
X794720Y156156D02*
G36*
X794720Y156156D02*
G75*
G02*
X789417Y148675I-7927J0D01*
G01*
X839443D01*
Y157927D01*
X804031D01*
G75*
G02*
X794753I-4639J3740D01*
G01*
X794520D01*
G75*
G02*
X794720Y156156I-7732J-1772D01*
G01*
G37*
X852254Y157927D02*
G36*
X852254Y157927D02*
Y148675D01*
X901110D01*
Y157927D01*
X852254D01*
G37*
X691911Y194738D02*
G36*
X691911Y194738D02*
Y157927D01*
X695540D01*
G75*
G02*
X694220Y161667I4639J3740D01*
G01*
Y161667D01*
G75*
G02*
X706138I5959J0D01*
G01*
Y161667D01*
G75*
G02*
X704818Y157927I-5959J0D01*
G01*
X779067D01*
G75*
G02*
X793621Y160184I7727J-1772D01*
G01*
G75*
G02*
X793433Y161667I5779J1485D01*
G01*
G75*
G02*
X805350I5959J0D01*
G01*
Y161667D01*
G75*
G02*
X804031Y157927I-5958J0D01*
G01*
X839443D01*
Y194738D01*
X802049D01*
G75*
G02*
X797522I-2264J5511D01*
G01*
X794720D01*
G75*
G02*
X778866I-7927J0D01*
G01*
X748128D01*
G75*
G02*
X751807Y188045I-4248J-6693D01*
G01*
G75*
G02*
X735953I-7927J0D01*
G01*
G75*
G02*
X739632Y194738I7927J0D01*
G01*
X720206D01*
G75*
G02*
X723854Y188065I-4278J-6674D01*
G01*
G75*
G02*
X723450Y185565I-7935J2D01*
G01*
G75*
G02*
X723854Y183065I-7531J-2502D01*
G01*
G75*
G02*
X723450Y180565I-7935J2D01*
G01*
G75*
G02*
X723854Y178065I-7531J-2502D01*
G01*
G75*
G02*
X723450Y175565I-7935J2D01*
G01*
G75*
G02*
X723854Y173065I-7531J-2502D01*
G01*
G75*
G02*
X708000I-7927J0D01*
G01*
G75*
G02*
X708405Y175565I7935J-2D01*
G01*
G75*
G02*
X708000Y178065I7531J2502D01*
G01*
G75*
G02*
X708405Y180565I7935J-2D01*
G01*
G75*
G02*
X708000Y183065I7531J2502D01*
G01*
G75*
G02*
X708405Y185565I7935J-2D01*
G01*
G75*
G02*
X708106Y186774I7514J2498D01*
G01*
G75*
G02*
X692252Y186864I-7927J90D01*
G01*
G75*
G02*
X698353Y194578I7927J0D01*
G01*
G75*
G02*
X697915Y194738I1826J5674D01*
G01*
X691911D01*
G37*
X702444D02*
G36*
X702444Y194738D02*
G75*
G02*
X702006Y194578I-2265J5514D01*
G01*
G75*
G02*
X708000Y188155I-1826J-7713D01*
G01*
G75*
G02*
X711649Y194738I7927J-90D01*
G01*
X702444D01*
G37*
X794385Y158436D02*
G36*
X794385Y158436D02*
G75*
G02*
X794520Y157927I-7597J-2283D01*
G01*
X794753D01*
G75*
G02*
X794385Y158436I4639J3741D01*
G01*
G37*
X852254Y194738D02*
G36*
X852254Y194738D02*
Y157927D01*
X901110D01*
Y194738D01*
X852254D01*
G37*
X691911Y213636D02*
G36*
X691911Y213636D02*
Y194738D01*
X697915D01*
G75*
G02*
X694220Y200250I2264J5512D01*
G01*
G75*
G02*
X701201Y206120I5959J0D01*
G01*
G75*
G02*
X695795Y213636I2522J7515D01*
G01*
X691911D01*
G37*
X706138Y200250D02*
G36*
X706138Y200250D02*
G75*
G02*
X702444Y194738I-5959J0D01*
G01*
X711649D01*
G75*
G02*
X720206I4278J-6674D01*
G01*
X739632D01*
G75*
G02*
X748128I4248J-6693D01*
G01*
X778866D01*
G75*
G02*
X794720I7927J0D01*
G01*
X797522D01*
G75*
G02*
X793827Y200250I2264J5512D01*
G01*
G75*
G02*
X805744I5959J0D01*
G01*
G75*
G02*
X802049Y194738I-5959J0D01*
G01*
X839443D01*
Y213636D01*
X802988D01*
G75*
G02*
X787134I-7927J0D01*
G01*
X723763D01*
G75*
G02*
X723854Y212435I-7835J-1202D01*
G01*
G75*
G02*
X709333Y208035I-7927J0D01*
G01*
G75*
G02*
X702196Y205857I-5611J5601D01*
G01*
G75*
G02*
X706138Y200250I-2017J-5607D01*
G01*
G37*
X852254Y213636D02*
G36*
X852254Y213636D02*
Y194738D01*
X901110D01*
Y213636D01*
X852254D01*
G37*
X691911Y226086D02*
G36*
X691911Y226086D02*
Y213636D01*
X695795D01*
G75*
G02*
X708311Y220100I7927J0D01*
G01*
G75*
G02*
X708000Y222297I7622J2197D01*
G01*
G75*
G02*
X708428Y224866I7931J0D01*
G01*
G75*
G02*
X708000Y227435I7509J2571D01*
G01*
G75*
G02*
X709547Y232140I7927J0D01*
G01*
X704957D01*
G75*
G02*
X691911Y226086I-7927J0D01*
G01*
G37*
X723491Y214807D02*
G36*
X723491Y214807D02*
G75*
G02*
X723763Y213636I-7565J-2372D01*
G01*
X787134D01*
G75*
G02*
X802988I7927J0D01*
G01*
X839443D01*
Y232140D01*
X771098D01*
G75*
G02*
X755244I-7927J0D01*
G01*
X722307D01*
G75*
G02*
X723854Y227435I-6380J-4705D01*
G01*
G75*
G02*
X723426Y224866I-7937J2D01*
G01*
G75*
G02*
X723854Y222297I-7498J-2569D01*
G01*
G75*
G02*
X723430Y219738I-7926J0D01*
G01*
G75*
G02*
X723854Y217180I-7504J-2559D01*
G01*
G75*
G02*
X723491Y214807I-7930J0D01*
G01*
G37*
X852254Y232140D02*
G36*
X852254Y232140D02*
Y213636D01*
X901110D01*
Y232140D01*
X893930D01*
G75*
G02*
X887187Y225591I-6743J197D01*
G01*
G75*
G02*
X880444Y232140I0J6746D01*
G01*
X852254D01*
G37*
X697061Y240998D02*
G36*
X697061Y240998D02*
G75*
G02*
X696935Y240067I-7906J592D01*
G01*
G75*
G02*
X704957Y232140I94J-7927D01*
G01*
X709547D01*
G75*
G02*
X722307I6380J-4705D01*
G01*
X755244D01*
G75*
G02*
X771098I7927J0D01*
G01*
X839443D01*
Y240998D01*
X697061D01*
G37*
X852254D02*
G36*
X852254Y240998D02*
Y232140D01*
X880444D01*
G75*
G02*
X880441Y232337I6744J193D01*
G01*
G75*
G02*
X882347Y237036I6746J0D01*
G01*
G75*
G02*
X878261Y240998I4840J9080D01*
G01*
X852254D01*
G37*
X893933Y232337D02*
G36*
X893933Y232337D02*
G75*
G02*
X893930Y232140I-6746J-4D01*
G01*
X901110D01*
Y240998D01*
X896113D01*
G75*
G02*
X892027Y237036I-8926J5118D01*
G01*
G75*
G02*
X893933Y232337I-4840J-4700D01*
G01*
G37*
X691911Y253990D02*
G36*
X691911Y253990D02*
Y249021D01*
G75*
G02*
X697083Y241589I-2756J-7433D01*
G01*
G75*
G02*
X697061Y240998I-7926J0D01*
G01*
X839443D01*
Y243057D01*
X770652D01*
G75*
G02*
X764246Y249462I0J6405D01*
G01*
Y249463D01*
Y249463D01*
G75*
G02*
X766120Y253990I6405J0D01*
G01*
X726214D01*
G75*
G02*
X723722Y248414I-7925J197D01*
G01*
G75*
G02*
X708132I-7795J1442D01*
G01*
G75*
G02*
X705640Y253990I5433J5773D01*
G01*
X691911D01*
G37*
X852254Y247494D02*
G36*
X852254Y247494D02*
Y240998D01*
X878261D01*
G75*
G02*
X876898Y246116I8926J5119D01*
G01*
G75*
G02*
X880564Y253990I10290J0D01*
G01*
X849164D01*
G75*
G02*
X852254Y247494I-5285J-6496D01*
G01*
G37*
X897476Y246116D02*
G36*
X897476Y246116D02*
G75*
G02*
X896113Y240998I-10289J0D01*
G01*
X901110D01*
Y253990D01*
X893810D01*
G75*
G02*
X897476Y246116I-6624J-7874D01*
G01*
G37*
X679707Y306095D02*
G36*
X679707Y306095D02*
Y276628D01*
X691911Y264423D01*
Y253990D01*
X705640D01*
G75*
G02*
X705638Y254187I7930J194D01*
G01*
G75*
G02*
X708240Y260059I7927J0D01*
G01*
G75*
G02*
X723615I7687J-1935D01*
G01*
G75*
G02*
X726217Y254187I-5325J-5872D01*
G01*
G75*
G02*
X726214Y253990I-7932J-3D01*
G01*
X766120D01*
G75*
G02*
X770652Y255868I4531J-4527D01*
G01*
X843880D01*
G75*
G02*
X849164Y253990I0J-8374D01*
G01*
X880564D01*
G75*
G02*
X887187Y256406I6624J-7874D01*
G01*
G75*
G02*
X893810Y253990I0J-10289D01*
G01*
X901110D01*
Y305385D01*
G75*
G02*
X865326Y306095I-17860J1952D01*
G01*
X823487D01*
G75*
G02*
X805646Y298683I-12284J4391D01*
G01*
G75*
G02*
X787013Y297321I-9443J1053D01*
G01*
G75*
G02*
X765126Y299736I-10810J2416D01*
G01*
G75*
G02*
X767133Y306095I11077J0D01*
G01*
X755272D01*
G75*
G02*
X757280Y299736I-9070J-6359D01*
G01*
G75*
G02*
X737390Y293026I-11077J0D01*
G01*
G75*
G02*
X713331Y297616I-11187J6710D01*
G01*
G75*
G02*
X698919Y306095I-2128J12871D01*
G01*
X679707D01*
G37*
X785272D02*
G36*
X785272Y306095D02*
G75*
G02*
X787013Y302152I-9070J-6359D01*
G01*
G75*
G02*
X789143Y306095I9190J-2416D01*
G01*
X785272D01*
G37*
X679707Y328486D02*
G36*
X679707Y328486D02*
Y306095D01*
X698919D01*
G75*
G02*
X698157Y310486I12284J4392D01*
G01*
G75*
G02*
X724074Y312607I13045J0D01*
G01*
G75*
G02*
X737390Y306446I2128J-12870D01*
G01*
G75*
G02*
X755272Y306095I8813J-6710D01*
G01*
X767133D01*
G75*
G02*
X785272I9070J-6359D01*
G01*
X789143D01*
G75*
G02*
X798241Y309017I7061J-6360D01*
G01*
G75*
G02*
X798157Y310486I13005J1472D01*
G01*
G75*
G02*
X824248I13045J0D01*
G01*
Y310486D01*
G75*
G02*
X823487Y306095I-13045J0D01*
G01*
X865326D01*
G75*
G02*
X865283Y307337I17927J1241D01*
G01*
G75*
G02*
X901110Y309288I17967J0D01*
G01*
Y328486D01*
X781098D01*
G75*
G02*
X766203Y319946I-9896J0D01*
G01*
G75*
G02*
X756203I-5000J8541D01*
G01*
G75*
G02*
X741307Y328486I-5000J8540D01*
G01*
X679707D01*
G37*
X652031Y390130D02*
G36*
X652031Y390130D02*
X670586Y371576D01*
G75*
G02*
X685467Y372153I7546J-2428D01*
G01*
G75*
G02*
X703579Y369148I8806J-3006D01*
G01*
G75*
G02*
X685467Y366142I-9305J0D01*
G01*
G75*
G02*
X679707Y361378I-7335J3005D01*
G01*
Y328486D01*
X741307D01*
G75*
G02*
X756203Y337026I9896J0D01*
G01*
G75*
G02*
X766203I5000J-8541D01*
G01*
G75*
G02*
X781098Y328486I5000J-8540D01*
G01*
X901110D01*
Y373085D01*
X888774D01*
G75*
G02*
X891374Y365604I-9461J-7480D01*
G01*
G75*
G02*
X886056Y355604I-12061J0D01*
G01*
G75*
G02*
X891374Y345604I-6743J-10000D01*
G01*
G75*
G02*
X879313Y333543I-12061J0D01*
G01*
G75*
G02*
X867252Y345604I0J12061D01*
G01*
G75*
G02*
X872570Y355604I12061J0D01*
G01*
G75*
G02*
X867252Y365604I6743J10000D01*
G01*
G75*
G02*
X869852Y373085I12061J0D01*
G01*
X788762D01*
Y390130D01*
X728736D01*
G75*
G02*
X720263Y384143I-6352J0D01*
G01*
G75*
G02*
X707384Y381591I-7879J5988D01*
G01*
G75*
G02*
X692488Y390130I-5000J8540D01*
G01*
X652031D01*
G37*
X650035Y400924D02*
G36*
X650035Y400924D02*
Y392126D01*
X652031Y390130D01*
X692488D01*
G75*
G02*
X707384Y398670I9896J0D01*
G01*
G75*
G02*
X720263Y396118I5000J-8540D01*
G01*
G75*
G02*
X728736Y390130I2121J-5988D01*
G01*
X788762D01*
Y405130D01*
X775429D01*
G75*
G02*
X749339I-13045J0D01*
G01*
X675429D01*
G75*
G02*
X650035Y400924I-13045J0D01*
G01*
G37*
Y420130D02*
G36*
X650035Y420130D02*
Y409337D01*
G75*
G02*
X675429Y405130I12348J-4207D01*
G01*
X749339D01*
G75*
G02*
X775429I13045J0D01*
G01*
X788762D01*
Y420130D01*
X729917D01*
G75*
G02*
X714850I-7533J0D01*
G01*
X713461D01*
G75*
G02*
X691307I-11077J0D01*
G01*
X650035D01*
G37*
Y431890D02*
G36*
X650035Y431890D02*
Y420130D01*
X691307D01*
G75*
G02*
X713461I11077J0D01*
G01*
X714850D01*
G75*
G02*
X729917I7533J0D01*
G01*
X788762D01*
Y431890D01*
X650035D01*
G37*
D02*
D11*
X718929Y418699D02*
X714564Y416891D01*
X718929Y421562D02*
X714564Y423370D01*
X720952Y416675D02*
X719144Y412310D01*
X720952Y423585D02*
X719144Y427950D01*
X723363Y387766D02*
X725171Y383401D01*
X723363Y392494D02*
X725171Y396859D01*
X723815Y416675D02*
X725623Y412310D01*
X723815Y423586D02*
X725623Y427951D01*
X724748Y389151D02*
X729113Y387343D01*
X724748Y391110D02*
X729113Y392918D01*
X725839Y418699D02*
X730204Y416891D01*
X725839Y421562D02*
X730204Y423370D01*
X792166Y295700D02*
X788826Y292359D01*
X792166Y303773D02*
X788826Y307113D01*
X796203Y294028D02*
Y289303D01*
Y305445D02*
Y310169D01*
X800239Y295700D02*
X803580Y292359D01*
X874589Y423715D02*
X869864D01*
X875972Y420374D02*
X872631Y417033D01*
X875972Y427056D02*
X872631Y430396D01*
X879313Y418990D02*
Y414266D01*
X882654Y420374D02*
X885994Y417033D01*
X882654Y427056D02*
X885994Y430396D01*
X884037Y423715D02*
X888762D01*
D02*
D12*
X35809Y494502D02*
X31872D01*
X37250Y491022D02*
X34467Y488238D01*
X37250Y497982D02*
X34467Y500766D01*
X40730Y489581D02*
Y485644D01*
Y499423D02*
Y503360D01*
X44210Y491022D02*
X46994Y488238D01*
X44210Y497982D02*
X46994Y500766D01*
X45652Y494502D02*
X49589D01*
X78250Y294423D02*
Y284502D01*
Y294423D02*
Y304423D01*
Y314423D01*
Y324423D01*
Y334423D01*
X188959Y538715D02*
X185022D01*
X189593Y537183D02*
X186809Y534400D01*
X189593Y540246D02*
X186809Y543030D01*
X191124Y536549D02*
Y532612D01*
Y540880D02*
Y544817D01*
X192655Y537183D02*
X195439Y534400D01*
X192655Y540246D02*
X195439Y543030D01*
X193289Y538715D02*
X197226D01*
X217738Y480959D02*
X213801D01*
X217738Y533715D02*
X213801D01*
X218488Y479149D02*
X215704Y476365D01*
X218488Y482768D02*
X215704Y485552D01*
X218488Y531905D02*
X215704Y529121D01*
X218488Y535524D02*
X215704Y538308D01*
X220297Y478400D02*
Y474463D01*
Y483518D02*
Y487455D01*
Y531156D02*
Y527219D01*
Y536274D02*
Y540211D01*
X222107Y479149D02*
X224891Y476365D01*
X222107Y482768D02*
X224891Y485552D01*
X222107Y531905D02*
X224891Y529121D01*
X222107Y535524D02*
X224891Y538308D01*
X796203Y312455D02*
X796242D01*
Y281746D02*
X796203D01*
D02*
D13*
X33883Y362233D02*
X30610Y360878D01*
X33883Y364644D02*
X30610Y366000D01*
X33883Y419320D02*
X30610Y417965D01*
X33883Y421731D02*
X30610Y423087D01*
X39703Y362233D02*
X42977Y360878D01*
X39703Y364644D02*
X42977Y366000D01*
X39703Y419320D02*
X42977Y417964D01*
X39703Y421731D02*
X42977Y423087D01*
X78250Y291667D02*
Y288124D01*
X80199Y292474D02*
X82704Y289969D01*
X80199Y336372D02*
X82704Y338878D01*
X122226Y52927D02*
X118683D01*
X123570Y51122D02*
X120993Y48544D01*
X123570Y54733D02*
X120993Y57311D01*
X127181Y51122D02*
X129759Y48544D01*
X127181Y54733D02*
X129759Y57311D01*
X128526Y52927D02*
X132069D01*
X129648Y325191D02*
X126104D01*
X129965Y325957D02*
X127459Y328462D01*
X130730Y326274D02*
Y329817D01*
X146478Y172022D02*
X142935D01*
X147170Y170351D02*
X144665Y167846D01*
X147170Y173692D02*
X144665Y176198D01*
X147423Y62927D02*
X143880D01*
X148767Y61122D02*
X146189Y58544D01*
X148767Y64733D02*
X146189Y67311D01*
X148841Y169659D02*
Y166116D01*
X150511Y170351D02*
X153017Y167846D01*
X150730Y326274D02*
Y329817D01*
X151496Y325957D02*
X154002Y328462D01*
X151813Y325191D02*
X155356D01*
X152378Y61122D02*
X154956Y58544D01*
X152378Y64733D02*
X154956Y67311D01*
X153722Y62927D02*
X157266D01*
X169470Y52927D02*
X165927D01*
X169470Y122927D02*
X165927D01*
X170815Y51122D02*
X168237Y48544D01*
X170815Y54733D02*
X168237Y57311D01*
X170815Y121122D02*
X168237Y118544D01*
X170815Y124733D02*
X168237Y127311D01*
X172620Y124699D02*
Y128242D01*
X174426Y51122D02*
X177004Y48544D01*
X174426Y54733D02*
X177004Y57311D01*
X174426Y121122D02*
X177004Y118544D01*
X174426Y124733D02*
X177004Y127311D01*
X175770Y52927D02*
X179313D01*
X175770Y122927D02*
X179313D01*
X221361Y396786D02*
X218856Y394281D01*
X221361Y401352D02*
X218856Y403857D01*
X223644Y395841D02*
Y392297D01*
Y402297D02*
Y405841D01*
X225926Y396786D02*
X228432Y394281D01*
X225926Y401352D02*
X228432Y403857D01*
X278348Y479010D02*
X275843Y476504D01*
X278348Y482907D02*
X275843Y485413D01*
X278348Y531766D02*
X275843Y529260D01*
X278348Y535663D02*
X275843Y538169D01*
X280297Y478203D02*
Y474659D01*
Y483715D02*
Y487258D01*
Y530959D02*
Y527415D01*
Y536470D02*
Y540014D01*
X282246Y479010D02*
X284752Y476504D01*
X282246Y482907D02*
X284752Y485413D01*
X282246Y531766D02*
X284752Y529260D01*
X282246Y535663D02*
X284752Y538169D01*
X329707Y286352D02*
X326163D01*
X330398Y284682D02*
X327893Y282176D01*
X330398Y288023D02*
X327893Y290528D01*
X332069Y283990D02*
Y280447D01*
Y288715D02*
Y292258D01*
X333739Y284682D02*
X336245Y282176D01*
X333739Y288023D02*
X336245Y290528D01*
X334431Y286352D02*
X337974D01*
X393486Y548557D02*
X389943D01*
X394178Y546887D02*
X391672Y544381D01*
X394178Y550228D02*
X391672Y552733D01*
X395848Y546195D02*
Y542652D01*
Y550919D02*
Y554463D01*
X397519Y546887D02*
X400024Y544381D01*
X397519Y550228D02*
X400024Y552733D01*
X398211Y548557D02*
X401754D01*
X508053Y176354D02*
X504510D01*
X508745Y174683D02*
X506239Y172178D01*
X508745Y178024D02*
X506239Y180530D01*
X510415Y173992D02*
Y170448D01*
X512086Y174683D02*
X514591Y172178D01*
X512086Y178024D02*
X514591Y180530D01*
X512778Y176354D02*
X516321D01*
X563959Y111510D02*
X560415D01*
X564535Y110118D02*
X562030Y107613D01*
X564535Y112902D02*
X562030Y115407D01*
X565927Y109541D02*
Y105998D01*
Y113478D02*
Y117022D01*
X567319Y110118D02*
X569824Y107613D01*
X567319Y112902D02*
X569824Y115407D01*
X573196Y110118D02*
X570691Y107613D01*
X573196Y112902D02*
X570691Y115407D01*
X574589Y109541D02*
Y105998D01*
Y113478D02*
Y117022D01*
X575981Y110118D02*
X578486Y107613D01*
X575981Y112902D02*
X578486Y115407D01*
X581858Y110118D02*
X579353Y107613D01*
X581858Y112902D02*
X579353Y115407D01*
X583250Y109541D02*
Y105998D01*
Y113478D02*
Y117022D01*
X584642Y110118D02*
X587147Y107613D01*
X584642Y112902D02*
X587147Y115407D01*
X585219Y111510D02*
X588762D01*
X588093Y534502D02*
X584549D01*
X588784Y532831D02*
X586279Y530326D01*
X588784Y536172D02*
X586279Y538678D01*
X590455Y532140D02*
Y528596D01*
Y536864D02*
Y540407D01*
X590847Y432140D02*
X587304D01*
X591539Y430469D02*
X589033Y427964D01*
X591539Y433810D02*
X589033Y436316D01*
X592125Y532831D02*
X594631Y530326D01*
X592125Y536172D02*
X594631Y538678D01*
X592817Y534502D02*
X596360D01*
X593209Y429778D02*
Y426234D01*
Y434502D02*
Y438045D01*
X594880Y430469D02*
X597385Y427964D01*
X594880Y433810D02*
X597385Y436316D01*
D02*
D14*
X280297Y480959D02*
Y468360D01*
Y508124D02*
Y480959D01*
Y533715D02*
Y508124D01*
Y541982D02*
Y533715D01*
D02*
D15*
X36793Y420526D02*
X56478D01*
X40730Y494502D02*
X87187D01*
X56478Y387652D02*
Y363439D01*
X36793D01*
X56478Y403400D02*
Y420526D01*
Y403400D02*
Y387652D01*
X70652Y423478D02*
X97522D01*
X70652D02*
X56478D01*
Y420526D01*
X70652Y430565D02*
Y423478D01*
X75376Y206943D02*
Y212061D01*
X93880D01*
X77738Y284502D02*
X78250D01*
X77738Y395132D02*
X65140D01*
Y403400D01*
X56478D01*
X78250Y284502D02*
X80494D01*
Y246510D01*
Y246313D01*
X85219D01*
Y225841D02*
Y246313D01*
X87187Y494502D02*
Y512455D01*
X93486Y375053D02*
Y387652D01*
X56478D01*
X93486Y375053D02*
Y368754D01*
X82856D01*
X93880Y212061D02*
Y224659D01*
Y236864D01*
Y246313D01*
X85219D01*
X94667Y200250D02*
Y205762D01*
X93880D01*
Y212061D01*
X97423Y135683D02*
X112778D01*
X100573Y145132D02*
X112778D01*
X107266Y375053D02*
X93486D01*
X112778Y135683D02*
Y52927D01*
X125376D01*
X112778Y145132D02*
Y135683D01*
Y172022D02*
Y145132D01*
Y172022D02*
Y246510D01*
X113959D01*
Y255762D01*
X112778Y246510D02*
X80494D01*
X113959Y255762D02*
X119470D01*
Y257337D01*
X126557D01*
X113959Y494344D02*
X100573D01*
Y494502D01*
X87187D01*
X113959Y507730D02*
Y494344D01*
X125376Y52927D02*
X138368D01*
Y62927D01*
X150573D01*
X126557Y257337D02*
X136006D01*
Y247100D01*
X145455D01*
X130730Y325191D02*
X130494D01*
Y335289D01*
X150573D01*
X143880Y433715D02*
Y427415D01*
X145455Y247100D02*
X167896D01*
Y258911D01*
X145848Y433715D02*
X143880D01*
X148841Y172022D02*
X112778D01*
X150573Y62927D02*
X161203D01*
X150573Y335289D02*
X165927D01*
X150730Y325191D02*
X150573D01*
Y335289D01*
X156085Y291982D02*
Y296707D01*
X165927D01*
X161203Y62927D02*
Y52927D01*
X172620D01*
X162384Y216785D02*
Y237258D01*
X145455D01*
Y247100D01*
X165927Y296707D02*
Y335289D01*
Y396707D01*
Y439620D01*
X143880D01*
Y433715D01*
X167896Y258911D02*
Y265998D01*
Y290801D01*
Y296707D01*
X165927D01*
X172226Y391982D02*
X165927D01*
Y396707D01*
X172620Y122927D02*
X161203D01*
Y62927D01*
X175376Y258911D02*
X167896D01*
X184037Y488833D02*
Y494344D01*
X191124D01*
X184037D02*
X113959D01*
X190730Y52927D02*
X172620D01*
X190730Y56156D02*
Y52927D01*
X191124Y462061D02*
X156872D01*
Y460093D01*
X122620D01*
X191124Y462061D02*
Y494344D01*
X193486D01*
X191124Y538715D02*
Y544738D01*
X204510D01*
X192305Y377691D02*
X221045D01*
Y377809D01*
X193486Y494344D02*
X209234D01*
X194274Y265998D02*
X167896D01*
X204510Y544738D02*
Y520329D01*
X193486D01*
Y494344D01*
X207659Y296707D02*
X165927D01*
X207659Y439620D02*
X165927D01*
X207659Y445132D02*
Y439620D01*
X209234Y258911D02*
Y279384D01*
X207659D01*
Y296707D01*
X209234Y494344D02*
Y533715D01*
X220297D01*
X212778Y56156D02*
Y52927D01*
X190730D01*
X216321Y285683D02*
Y291195D01*
Y296707D01*
X207659D01*
X220297Y480959D02*
X209234D01*
Y494344D01*
X221045Y284108D02*
Y291195D01*
X216321D01*
X221045Y352612D02*
X225770D01*
Y365211D01*
X221045Y377809D02*
Y381746D01*
X223644D01*
Y399069D01*
Y439620D01*
X207659D01*
X225770Y365211D02*
Y373872D01*
X221045D01*
Y377809D01*
X234037Y280959D02*
Y291195D01*
X221045D01*
X248604Y377809D02*
Y408911D01*
X253329D01*
Y439620D01*
X249392Y362061D02*
X260415D01*
X249510Y324659D02*
X242305D01*
Y347888D01*
X253329D01*
X250179Y272297D02*
Y260880D01*
X253722D01*
X253329Y333715D02*
X269077D01*
Y325841D01*
X285612D01*
X253329Y333715D02*
Y347888D01*
X260415D01*
Y362061D01*
X253329Y439620D02*
X223644D01*
X253722Y256156D02*
Y260880D01*
X276951D01*
X254904Y162455D02*
Y169148D01*
Y173085D01*
X258841Y306549D02*
X274057D01*
X258959Y244344D02*
X253722D01*
Y256156D01*
X260415Y362061D02*
X289549D01*
X274057Y306549D02*
X279057D01*
X274195Y56943D02*
Y71116D01*
Y99463D01*
Y103006D01*
Y146313D01*
X283250D01*
Y146707D01*
X275770Y202219D02*
Y195132D01*
X300967D01*
X276951Y260880D02*
X304510D01*
Y238065D01*
X279057Y306549D02*
X285612D01*
X280100Y402612D02*
X289156D01*
X280297Y468360D02*
X253329D01*
Y439620D01*
X280297Y508124D02*
X301360D01*
X283250Y146707D02*
Y146313D01*
X289549D01*
X283250Y162848D02*
Y146707D01*
Y162848D02*
X310809D01*
X283250Y169148D02*
Y162848D01*
Y169148D02*
X254904D01*
X284037Y286470D02*
Y260880D01*
X304510D01*
Y260900D01*
X332069D01*
X284037Y286470D02*
Y296313D01*
X285612D01*
Y306549D01*
X284825Y440014D02*
Y448675D01*
Y468360D01*
X280297D01*
X285612Y325841D02*
Y306549D01*
X286400Y256549D02*
X276951D01*
Y260880D01*
X289156Y373085D02*
Y378203D01*
Y402612D02*
Y411667D01*
X284825D01*
Y440014D01*
X289156Y402612D02*
Y381746D01*
Y378203D01*
X289549Y362061D02*
X289156D01*
Y373085D01*
X294274Y306549D02*
X285612D01*
X294274Y362061D02*
X289549D01*
X298211Y23478D02*
X274195D01*
Y56943D01*
X298211Y402612D02*
X289156D01*
X298604Y333715D02*
X310809D01*
Y321904D01*
X298604Y333715D02*
X285612D01*
Y325841D01*
X300967Y189226D02*
Y195132D01*
X304116D01*
X301360Y508124D02*
Y541589D01*
Y541982D01*
X280297D01*
X302935Y71116D02*
X274195D01*
X304116Y195132D02*
X315533D01*
X304510Y225053D02*
Y223872D01*
Y225053D02*
Y238065D01*
Y237652D01*
X291124D01*
X308053Y22691D02*
Y27415D01*
X298211D01*
Y23478D01*
X310809Y162848D02*
X315533D01*
X310809Y201825D02*
Y195132D01*
X315533D01*
X310809Y218360D02*
Y201825D01*
Y225053D02*
Y218360D01*
Y225053D02*
X304510D01*
X310809Y501037D02*
X301360D01*
Y508124D01*
X310809Y553400D02*
X301360D01*
Y541589D01*
X312384Y146313D02*
X315533D01*
Y158124D01*
Y159305D01*
X323801D01*
X315533Y162848D02*
Y158124D01*
Y162848D02*
Y186470D01*
X310022D01*
Y186077D01*
X304510D01*
X315533Y186470D02*
Y191982D01*
Y195132D01*
Y218360D02*
X310809D01*
X319470Y99463D02*
X274195D01*
X319470D02*
X320258D01*
X319470Y286470D02*
Y304187D01*
X310809D01*
Y321904D01*
X320258Y162848D02*
X315533D01*
X320258Y362848D02*
Y371904D01*
X327344D01*
Y378596D01*
X321045Y56943D02*
X274195D01*
X321833Y27415D02*
X308053D01*
X321833Y218360D02*
Y225053D01*
X412384D01*
Y169148D01*
X432463D01*
X321833Y225053D02*
X310809D01*
X323014Y468360D02*
X284825D01*
X323407Y327022D02*
X310809D01*
Y321904D01*
X324195Y272297D02*
Y286470D01*
X319470D01*
X326951Y99463D02*
X319470D01*
X327344Y395722D02*
Y378596D01*
Y395722D02*
Y404581D01*
X312778D01*
Y402612D01*
X298211D01*
X328919Y201825D02*
X310809D01*
X332069Y256963D02*
Y260900D01*
Y286352D02*
X324195D01*
Y286470D01*
X332069Y447494D02*
X323014D01*
Y468360D01*
X338762Y467573D02*
Y468360D01*
X323014D01*
X345337Y329778D02*
X323407D01*
Y327022D01*
X345455Y260900D02*
X332069D01*
X345848Y127022D02*
X315533D01*
Y146313D01*
X345848Y145132D02*
Y127022D01*
X352541Y64423D02*
Y56943D01*
X321045D01*
X356085Y519541D02*
X338762D01*
Y467573D01*
X357659Y459699D02*
X338762D01*
Y467573D01*
X367896Y461274D02*
X362778D01*
Y459699D01*
X357659D01*
X378919Y62848D02*
Y58124D01*
X381675D01*
X378919Y62848D02*
Y99463D01*
X326951D01*
X395848Y548557D02*
Y524266D01*
X417502D01*
X398998Y327415D02*
Y341982D01*
Y373872D01*
X365927D01*
Y405762D01*
X402541Y503006D02*
Y440014D01*
X415140D01*
Y422691D01*
X402541Y503006D02*
Y440014D01*
X365927D01*
Y405762D01*
X415140Y397494D02*
Y422691D01*
X417502Y503006D02*
X402541D01*
X417502Y524266D02*
Y503006D01*
X421045Y327415D02*
X398998D01*
X422620Y273478D02*
Y286077D01*
X398998D01*
Y327415D01*
X422620Y295919D02*
Y286077D01*
X432463Y123872D02*
X442305D01*
X432463Y169148D02*
Y123872D01*
X439963Y228203D02*
X434963D01*
X441518Y192770D02*
X430494D01*
X442305Y123872D02*
X449392D01*
X442640Y286077D02*
X422620D01*
X449392Y123872D02*
Y142376D01*
X491518D01*
X450573Y100644D02*
Y123872D01*
X449392D01*
X451754Y192770D02*
X441518D01*
X451754D02*
Y189226D01*
X447030D01*
Y169148D01*
X432463D01*
X451754Y228203D02*
X439963D01*
X451754D02*
Y192770D01*
Y338439D02*
Y341982D01*
X398998D01*
X454904Y468754D02*
X465927D01*
Y490407D01*
X460415Y524266D02*
X417502D01*
X463565Y237258D02*
X451754D01*
Y228203D01*
X465927Y490407D02*
X417502D01*
Y503006D01*
X476163Y503793D02*
X465927D01*
Y490407D01*
X476163Y529778D02*
Y503793D01*
X483644Y440407D02*
X489943D01*
Y391982D01*
X475770D01*
X489943Y440407D02*
Y503793D01*
X476163D01*
X491518Y128596D02*
Y142376D01*
X510415D01*
X494667Y167179D02*
X510415D01*
Y167573D01*
X494667Y172297D02*
Y167179D01*
X496242Y290801D02*
X500967D01*
Y286470D01*
X497817Y212061D02*
X503329D01*
X500967Y273478D02*
X543880D01*
Y282533D01*
X500967Y273478D02*
X422620D01*
X500967Y275841D02*
Y273478D01*
Y286470D02*
Y275841D01*
X503329Y212061D02*
X534825D01*
X505691Y503793D02*
X489943D01*
X510415Y142376D02*
X534825D01*
Y151825D01*
X510415Y167573D02*
Y142376D01*
Y176354D02*
Y167573D01*
X512778Y235289D02*
X534825D01*
Y212061D01*
X512778Y267179D02*
X500967D01*
Y275841D01*
X512778Y286470D02*
X500967D01*
X518289Y27415D02*
X551360D01*
X534825Y212061D02*
Y151825D01*
X539943Y59699D02*
Y76234D01*
X553722D01*
X543486Y55762D02*
X539943D01*
Y59699D01*
X543880Y282533D02*
X550573D01*
X543880Y291589D02*
X566321D01*
X543880D02*
Y282533D01*
X548191Y142376D02*
Y188045D01*
X538762D01*
X548191Y142376D02*
X534825D01*
Y151825D01*
X550967Y495526D02*
Y501825D01*
Y503793D01*
X505691D01*
X551360Y27415D02*
Y55762D01*
X543486D01*
X553722Y76234D02*
X559234D01*
X553722Y94344D02*
Y76234D01*
Y111510D02*
Y142376D01*
X548191D01*
X553722Y111510D02*
Y94344D01*
Y469935D02*
X550967D01*
Y495526D01*
X556085Y493951D02*
X550967D01*
Y495526D01*
X557266Y59699D02*
X539943D01*
X558841Y501825D02*
X550967D01*
X559234Y76234D02*
X569864D01*
X564746Y391982D02*
X580888D01*
Y432140D01*
X565927Y111510D02*
X553722D01*
X565927D02*
X574589D01*
X569864Y76234D02*
Y71116D01*
X571439Y483321D02*
Y501825D01*
X558841D01*
X573014Y440801D02*
X580888D01*
X574589Y111510D02*
X583250D01*
X580888Y440801D02*
Y432140D01*
Y440801D02*
Y478596D01*
Y501825D01*
Y495526D01*
X602541D01*
X580888Y501825D02*
X571439D01*
X580888D02*
X581931D01*
Y514817D01*
X582069Y314423D02*
X566321D01*
Y291589D01*
X586931Y501825D02*
X581931D01*
X590455Y534502D02*
Y501825D01*
X586931D01*
X590730Y362848D02*
X608053D01*
Y351037D01*
X590730Y362848D02*
X582069D01*
Y314423D01*
X593209Y432140D02*
X580888D01*
X597817Y282533D02*
X626951D01*
Y283321D01*
X597817Y282533D02*
X566321D01*
Y291589D01*
X600573Y203793D02*
X538762D01*
Y188045D01*
X600573Y203793D02*
Y187258D01*
X626163D01*
X600573Y203793D02*
Y224659D01*
X644667D01*
X647030D01*
X600967Y314817D02*
X591518D01*
Y314423D01*
X582069D01*
X602541Y495526D02*
X624195D01*
Y455368D01*
X685219D01*
X608841Y82140D02*
Y91589D01*
X569864D01*
Y76234D01*
X615927Y109305D02*
X608841D01*
Y91589D01*
X618289Y351037D02*
X608053D01*
X618683Y70329D02*
X608841D01*
Y82140D01*
X618683Y95526D02*
Y91589D01*
X608841D01*
X626951Y250250D02*
Y242376D01*
X647030D01*
X626951Y283321D02*
Y250250D01*
Y283321D02*
Y289226D01*
X645061Y82140D02*
X608841D01*
X645061Y334108D02*
Y351037D01*
X618289D01*
X647030Y224659D02*
Y242376D01*
Y224659D02*
Y214817D01*
Y242376D02*
X670258D01*
X722384Y390130D02*
X734431D01*
Y388045D01*
X722384Y420130D02*
Y455368D01*
X685219D01*
X722384Y420130D02*
Y390130D01*
X734431Y388045D02*
Y369148D01*
X773407D02*
Y388045D01*
X734431D01*
X805297Y231352D02*
X822226D01*
Y182533D01*
X805297Y240801D02*
X750179D01*
Y282927D01*
X685219D01*
Y455368D01*
X822226Y173085D02*
Y143557D01*
X852541Y281746D02*
Y312455D01*
D02*
D16*
X690573Y509994D03*
X700573D03*
X702384Y390130D03*
X710573Y509994D03*
X712384Y390130D03*
X722384D03*
X751203Y328486D03*
X761203D03*
X771203D03*
X796203Y281746D02*
Y299736D01*
Y312455D01*
D02*
D17*
X62384Y374266D03*
X69470Y250250D03*
X70652Y430565D03*
X75376Y206943D03*
X77738Y284502D03*
Y395132D03*
X82856Y368754D03*
X85219Y225841D03*
X93880Y224659D03*
Y236864D03*
X94667Y200250D03*
X95848Y289226D03*
Y299463D03*
Y309699D03*
Y319935D03*
Y330171D03*
X97423Y135683D03*
X97522Y423478D03*
X100573Y145132D03*
X102935Y262061D03*
Y277415D03*
X107266Y375053D03*
X113959Y255762D03*
X122226Y145132D03*
X122620Y460093D03*
X123801Y135683D03*
X124589Y262061D03*
X126557Y257337D03*
X127344Y232140D03*
Y299463D03*
X130100Y448281D03*
X130494Y307730D03*
X132069Y227022D03*
X140730Y307730D03*
X142699Y141982D03*
Y151431D03*
X143093Y199069D03*
X143486Y263242D03*
Y268754D03*
Y274266D03*
X143880Y427415D03*
X145848Y433715D03*
X145868Y314817D03*
X146636Y203400D03*
X147030Y146707D03*
Y156156D03*
X147817Y257730D03*
X149785Y208124D03*
X152148Y242376D03*
X153722Y216785D03*
X156085Y291982D03*
X158053Y251825D03*
Y258518D03*
X159628Y274266D03*
X161203Y290801D03*
X162384Y216785D03*
X167915Y242376D03*
X170652Y311274D03*
Y318754D03*
X171833Y305762D03*
X172226Y383321D03*
Y391982D03*
X174982Y221904D03*
Y228203D03*
X175376Y258911D03*
X176951Y137258D03*
Y146707D03*
Y156156D03*
X181281Y132533D03*
Y141982D03*
Y151431D03*
X184431Y395132D03*
Y433715D03*
X186400Y214817D03*
X186793Y225053D03*
X188762Y255762D03*
X190337Y37652D03*
X190730Y56156D03*
X194274Y265998D03*
X199785Y301037D03*
X200179Y353006D03*
Y358518D03*
Y364030D03*
X206872Y225053D03*
X207266Y215211D03*
X208447Y311274D03*
Y333321D03*
X209234Y258911D03*
X212384Y37652D03*
X212778Y56156D03*
X214746Y140801D03*
X216321Y285683D03*
Y291195D03*
X219470Y305762D03*
Y333321D03*
X219864Y144738D03*
X221045Y284108D03*
Y352612D03*
Y377809D03*
X223407Y217179D03*
X223801Y343951D03*
X224982Y148675D03*
X225770Y365211D03*
X234037Y280959D03*
X248604Y377809D03*
X250179Y272297D03*
X253722Y256156D03*
X254904Y162455D03*
Y173085D03*
Y178990D03*
X258053Y391982D03*
X258841Y306549D03*
X259628Y203793D03*
X261990Y225053D03*
X265927Y109305D03*
X270258Y203793D03*
X274057Y306549D03*
X274195Y103006D03*
X274982Y333715D03*
Y339620D03*
Y345526D03*
X275770Y202219D03*
X276163Y266785D03*
Y272297D03*
Y277809D03*
X279057Y306549D03*
X280100Y402612D03*
X283250Y169148D03*
X284037Y286470D03*
X286400Y256549D03*
X289156Y373085D03*
Y378203D03*
X289549Y109699D03*
Y146313D03*
X291124Y237652D03*
Y247652D03*
X294274Y306549D03*
X294923Y146313D03*
X297817Y266785D03*
Y272297D03*
Y277809D03*
X298211Y23478D03*
Y402612D03*
X300967Y189226D03*
X301360Y152219D03*
X302935Y71116D03*
X304116Y195132D03*
X304510Y178990D03*
Y186077D03*
Y204581D03*
Y223872D03*
X304904Y146313D03*
X307659Y93163D03*
X308053Y22691D03*
X310809Y162848D03*
Y501037D03*
Y553400D03*
X312384Y146313D03*
X315337Y22691D03*
X315533Y191982D03*
Y208124D03*
Y218360D03*
X319470Y286470D03*
X320258Y99463D03*
Y162848D03*
Y183321D03*
Y333715D03*
Y339620D03*
Y345526D03*
Y362848D03*
X321045Y56943D03*
X321833Y27415D03*
Y218360D03*
X323407Y327022D03*
X323801Y159305D03*
X324195Y272297D03*
X326557Y72297D03*
X326951Y99463D03*
X327344Y378596D03*
Y395722D03*
Y404581D03*
X328919Y201825D03*
X329707Y149069D03*
X332069Y256963D03*
Y269935D03*
X333644Y230959D03*
X343486Y119935D03*
X345455Y260900D03*
X345848Y127022D03*
Y145132D03*
X347817Y378596D03*
X351360Y47888D03*
X352541Y64423D03*
X365927Y405762D03*
X367502Y362455D03*
X367896Y461274D03*
X371833Y41589D03*
X378526Y414817D03*
X378919Y62848D03*
X381675Y58124D03*
X382069Y204581D03*
X386793Y82533D03*
X392699Y122297D03*
X398604Y146313D03*
X398998Y373872D03*
X402541Y388833D03*
X405691Y139226D03*
X415140Y397494D03*
Y422691D03*
X417502Y348281D03*
Y503006D03*
X421045Y327415D03*
X421439Y58518D03*
X422620Y273478D03*
Y295919D03*
X423407Y192770D03*
X430100Y512455D03*
X430494Y192770D03*
X432463Y123872D03*
Y333715D03*
X434411Y479384D03*
X434963Y228203D03*
X437187Y188439D03*
X439963Y228203D03*
X441518Y192770D03*
X441911Y323478D03*
X442305Y123872D03*
X442640Y286077D03*
X447640Y320722D03*
X449392Y123872D03*
X450179Y262455D03*
X450573Y100644D03*
X451754Y338439D03*
X454116Y484108D03*
X454904Y468754D03*
X459628Y262455D03*
X460415Y524266D03*
X461203Y100644D03*
X463565Y237258D03*
X465927Y490407D03*
X468289Y391982D03*
X469077Y262455D03*
X469864Y222691D03*
X474195Y428596D03*
X475770Y391982D03*
X476163Y529778D03*
X478427Y414817D03*
X478526Y262455D03*
X483250Y477022D03*
X483644Y440407D03*
X491518Y128596D03*
X492699Y116785D03*
X493486Y197100D03*
X494667Y167179D03*
Y172297D03*
X496242Y290801D03*
X497030Y80171D03*
X497817Y212061D03*
X503329D03*
X505691Y503793D03*
X510415Y80171D03*
X512778Y235289D03*
Y267179D03*
Y286470D03*
X518289Y27415D03*
Y512455D03*
X523407Y216392D03*
X529707D03*
X530494Y132927D03*
X535612Y136864D03*
X538762Y19541D03*
Y188045D03*
X543486Y55762D03*
Y484108D03*
X543880Y291589D03*
X548191Y142376D03*
X550573Y282533D03*
X551360Y27415D03*
X553329Y156549D03*
Y181589D03*
X553722Y94344D03*
Y469935D03*
X555829Y271116D03*
X556085Y493951D03*
X556478Y68754D03*
X556872Y391982D03*
X557266Y59699D03*
X558841Y501825D03*
X559234Y76234D03*
X562581Y429187D03*
X563171Y278596D03*
X564746Y391982D03*
X567010Y414817D03*
X569864Y71116D03*
X571439Y483321D03*
X571833Y27415D03*
Y53400D03*
X573014Y440801D03*
X573407Y327022D03*
X574982Y515211D03*
X580888Y55368D03*
Y478596D03*
X581931Y514817D03*
X582069Y314423D03*
X586931Y479778D03*
Y501825D03*
X587974Y218754D03*
X590730Y362848D03*
X591911Y236864D03*
X597817Y282533D03*
X599392Y350250D03*
X600573Y203793D03*
X600967Y314817D03*
X602541Y495526D03*
X608053Y351037D03*
X610022Y217179D03*
X611990Y318360D03*
X613171Y97494D03*
X613959Y75841D03*
X614746Y65604D03*
X615927Y109305D03*
X618289Y351037D03*
X618683Y70329D03*
Y95526D03*
X620258Y375447D03*
X622620Y88439D03*
X624195Y193557D03*
Y199069D03*
Y204581D03*
X626163Y187258D03*
X626951Y250250D03*
Y289226D03*
X630297Y20329D03*
X634037Y249856D03*
Y289226D03*
X637581Y60093D03*
X637974Y20329D03*
X645061Y82140D03*
Y334108D03*
X647030Y214817D03*
X661596Y224659D03*
X669077Y152612D03*
Y188045D03*
X670258Y242376D03*
X670652Y68360D03*
X671439Y78990D03*
X675376Y210093D03*
X678132Y369148D03*
X683250Y238045D03*
X689156Y241589D03*
X697030Y232140D03*
X700179Y151431D03*
Y161667D03*
Y186864D03*
Y200250D03*
X703722Y213636D03*
X713565Y254187D03*
X715927Y133695D03*
Y138695D03*
Y143695D03*
Y148695D03*
Y173065D03*
Y178065D03*
Y183065D03*
Y188065D03*
Y212435D03*
Y217179D03*
Y222297D03*
Y227435D03*
Y249856D03*
Y258124D03*
X718289Y254187D03*
X743880Y148675D03*
Y188045D03*
X763171Y232140D03*
X786793Y156156D03*
Y194738D03*
X795061Y213636D03*
X799392Y161667D03*
X799785Y200250D03*
X805297Y231352D03*
Y236077D03*
Y240801D03*
X822226Y134108D03*
Y138833D03*
Y143557D03*
Y173085D03*
Y177809D03*
Y182533D03*
D02*
D18*
X18250Y221116D03*
X28250D03*
X38250D03*
X48250D03*
X87187Y512455D03*
X113959Y507730D03*
X148841Y172022D03*
Y182022D03*
X158841Y172022D03*
Y182022D03*
X168841Y172022D03*
Y182022D03*
X180100Y171510D03*
X184037Y488833D03*
X191124Y462061D03*
Y538715D03*
X192305Y377691D03*
X204510Y544738D03*
X207659Y445132D03*
X249392Y362061D03*
X249510Y324659D03*
X253329Y333715D03*
X258959Y244344D03*
X284825Y440014D03*
Y448675D03*
X294274Y362061D03*
X298604Y333715D03*
X332069Y286352D03*
Y447494D03*
X336006Y296707D03*
X341124Y353400D03*
X345337Y329778D03*
X352541Y179384D03*
X356085Y519541D03*
X357659Y459699D03*
X362384Y128203D03*
Y154974D03*
X365533Y51431D03*
X371045Y73085D03*
X372226Y127809D03*
X383644Y296707D03*
X393880Y154974D03*
Y179384D03*
X395848Y548557D03*
X510415Y176354D03*
Y186354D03*
X590455Y534502D03*
X593209Y432140D03*
X603209D03*
X694274Y369148D03*
X734431D03*
X773407D03*
X784825Y441982D03*
X796242Y281746D03*
Y312455D03*
X849785Y473085D03*
X852541Y281746D03*
Y312455D03*
D02*
D19*
X36793Y31746D03*
Y307337D03*
Y539620D03*
X213959Y189226D03*
X371439Y539620D03*
X391124Y267967D03*
X430494Y31746D03*
X623407Y130565D03*
Y406156D03*
X883250Y31746D03*
Y307337D03*
Y539620D03*
D02*
D70*
X40730Y474502D03*
Y494502D03*
X61990Y482533D03*
X150967D03*
X819077Y495919D03*
X879313Y345604D03*
Y365604D03*
Y385604D03*
Y423715D03*
Y443715D03*
Y482770D03*
Y502770D03*
D02*
D71*
X213644Y399069D03*
X223644D03*
X233644D03*
D02*
D20*
X78250Y294423D03*
Y304423D03*
Y314423D03*
Y324423D03*
Y334423D03*
X88250Y294423D03*
Y304423D03*
Y314423D03*
Y324423D03*
Y334423D03*
X220297Y480959D03*
Y533715D03*
X230297Y480959D03*
Y533715D03*
X240297Y480959D03*
Y533715D03*
X260297Y480959D03*
Y533715D03*
X270297Y480959D03*
Y533715D03*
X280297Y480959D03*
Y533715D03*
X290297Y480959D03*
Y533715D03*
D02*
D21*
X36793Y353596D03*
Y363439D03*
Y373281D03*
Y383124D03*
Y410683D03*
Y420526D03*
Y430368D03*
Y440211D03*
X887187Y61274D03*
Y75053D03*
Y88833D03*
D02*
D22*
X819077Y406943D03*
Y436943D03*
Y511943D03*
Y541943D03*
D02*
D23*
X650573Y497494D03*
X662384Y405130D03*
X711203Y310486D03*
X726203Y299736D03*
X750573Y497494D03*
X762384Y405130D03*
X796203Y299736D03*
X811203Y310486D03*
D02*
D24*
X702384Y420130D03*
X722384D03*
X746203Y299736D03*
X776203D03*
D02*
D25*
X48211Y167415D03*
Y187415D03*
X56872Y167415D03*
Y187415D03*
X65533Y167415D03*
Y187415D03*
X78132Y167415D03*
Y187415D03*
X565927Y111510D03*
Y131510D03*
X574589Y111510D03*
Y131510D03*
X583250Y111510D03*
Y131510D03*
X595848Y111510D03*
Y131510D03*
X677344Y26077D03*
Y46077D03*
X685848Y77415D03*
Y86077D03*
Y94738D03*
Y107337D03*
X689943Y26077D03*
Y46077D03*
X698604Y26077D03*
Y46077D03*
X705848Y77415D03*
Y86077D03*
Y94738D03*
Y107337D03*
X707266Y26077D03*
Y46077D03*
D02*
D26*
X130730Y320191D03*
Y325191D03*
X135730Y320191D03*
Y325191D03*
X140730Y320191D03*
Y325191D03*
X145730Y320191D03*
Y325191D03*
X150730Y320191D03*
Y325191D03*
D02*
D27*
X32856Y173281D03*
Y187061D03*
X887187Y232337D03*
Y246116D03*
D02*
D28*
X125376Y42927D03*
Y52927D03*
Y62927D03*
Y72927D03*
Y82927D03*
Y92927D03*
Y102927D03*
Y112927D03*
X150573Y42927D03*
Y52927D03*
Y62927D03*
Y72927D03*
Y82927D03*
Y92927D03*
Y102927D03*
Y112927D03*
Y122927D03*
X172620Y42927D03*
Y52927D03*
Y62927D03*
Y72927D03*
Y82927D03*
Y92927D03*
Y102927D03*
Y112927D03*
Y122927D03*
X0Y0D02*
M02*
