G04 DesignSpark PCB Gerber Version 11.0 Build 5877*
G04 #@! TF.Part,Single*
G04 #@! TF.FileFunction,Legend,Bot*
G04 #@! TF.FilePolarity,Positive*
%FSLAX35Y35*%
%MOIN*%
%ADD88C,0.01000*%
G04 #@! TD.AperFunction*
X0Y0D02*
D02*
D88*
X29313Y380073D02*
X26852Y385978D01*
X24392Y380073D01*
X28329Y382533D02*
X25376D01*
X25868Y373577D02*
X24884Y373085D01*
X24392Y372100D01*
X24884Y371116D01*
X25868Y370624D01*
X29313D01*
Y376530D01*
X25868D01*
X24884Y376037D01*
X24392Y375053D01*
X24884Y374069D01*
X25868Y373577D01*
X29313D01*
X25868Y363636D02*
X24392D01*
Y363144D01*
X24884Y362159D01*
X25376Y361667D01*
X26360Y361175D01*
X27344D01*
X28329Y361667D01*
X28821Y362159D01*
X29313Y363144D01*
Y365112D01*
X28821Y366096D01*
X28329Y366589D01*
X27344Y367081D01*
X26360D01*
X25376Y366589D01*
X24884Y366096D01*
X24392Y365112D01*
X21439Y361175D02*
Y367081D01*
X16518Y361175D01*
Y367081D01*
X13565Y361175D02*
Y367081D01*
X10612D01*
X9628Y366589D01*
X9136Y366096D01*
X8644Y365112D01*
Y363144D01*
X9136Y362159D01*
X9628Y361667D01*
X10612Y361175D01*
X13565D01*
X29313Y352219D02*
X28329Y351726D01*
X26852D01*
X25868Y352219D01*
X25376Y353203D01*
Y353695D01*
X25868Y354679D01*
X26852Y355171D01*
X29313D01*
Y357632D01*
X25376D01*
X21439D02*
X18978Y351726D01*
X16518Y357632D01*
X30100Y436372D02*
X27640Y442278D01*
X25179Y436372D01*
X29116Y438833D02*
X26163D01*
X26656Y429876D02*
X25671Y429384D01*
X25179Y428400D01*
X25671Y427415D01*
X26656Y426923D01*
X30100D01*
Y432829D01*
X26656D01*
X25671Y432337D01*
X25179Y431352D01*
X25671Y430368D01*
X26656Y429876D01*
X30100D01*
X26656Y419935D02*
X25179D01*
Y419443D01*
X25671Y418459D01*
X26163Y417967D01*
X27148Y417474D01*
X28132D01*
X29116Y417967D01*
X29608Y418459D01*
X30100Y419443D01*
Y421411D01*
X29608Y422396D01*
X29116Y422888D01*
X28132Y423380D01*
X27148D01*
X26163Y422888D01*
X25671Y422396D01*
X25179Y421411D01*
X22226Y417474D02*
Y423380D01*
X17305Y417474D01*
Y423380D01*
X14352Y417474D02*
Y423380D01*
X11400D01*
X10415Y422888D01*
X9923Y422396D01*
X9431Y421411D01*
Y419443D01*
X9923Y418459D01*
X10415Y417967D01*
X11400Y417474D01*
X14352D01*
X30100Y408518D02*
X29116Y408026D01*
X27640D01*
X26656Y408518D01*
X26163Y409502D01*
Y409994D01*
X26656Y410978D01*
X27640Y411470D01*
X30100D01*
Y413931D01*
X26163D01*
X22226D02*
X19766Y408026D01*
X17305Y413931D01*
X28132Y471805D02*
X32069D01*
X28624Y475250D01*
X28132Y476234D01*
X28624Y477219D01*
X29608Y477711D01*
X31085D01*
X32069Y477219D01*
X21734Y471805D02*
Y477711D01*
X24195Y473774D01*
X20258D01*
X16321Y477711D02*
X13860Y471805D01*
X11400Y477711D01*
X28624Y494738D02*
X27148D01*
Y494246D01*
X27640Y493262D01*
X28132Y492770D01*
X29116Y492278D01*
X30100D01*
X31085Y492770D01*
X31577Y493262D01*
X32069Y494246D01*
Y496215D01*
X31577Y497199D01*
X31085Y497691D01*
X30100Y498183D01*
X29116D01*
X28132Y497691D01*
X27640Y497199D01*
X27148Y496215D01*
X24195Y492278D02*
Y498183D01*
X19274Y492278D01*
Y498183D01*
X16321Y492278D02*
Y498183D01*
X13368D01*
X12384Y497691D01*
X11892Y497199D01*
X11400Y496215D01*
Y494246D01*
X11892Y493262D01*
X12384Y492770D01*
X13368Y492278D01*
X16321D01*
X42994Y408124D02*
X48900D01*
Y411569D01*
X48407Y412553D01*
X47423Y413045D01*
X46439Y412553D01*
X45947Y411569D01*
Y408124D01*
Y411569D02*
X42994Y413045D01*
X44470Y415998D02*
X43486Y416490D01*
X42994Y417474D01*
Y419443D01*
X43486Y420427D01*
X44470Y420919D01*
X45455Y420427D01*
X45947Y419443D01*
Y417474D01*
X46439Y416490D01*
X47423Y415998D01*
X48407Y416490D01*
X48900Y417474D01*
Y419443D01*
X48407Y420427D01*
X47423Y420919D01*
X42994Y426333D02*
X48900D01*
X44963Y423872D01*
Y427809D01*
X45947Y433222D02*
Y434207D01*
X46439Y435191D01*
X47423Y435683D01*
X48407Y435191D01*
X48900Y434207D01*
Y433222D01*
X48407Y432238D01*
X47423Y431746D01*
X46439Y432238D01*
X45947Y433222D01*
X45455Y432238D01*
X44470Y431746D01*
X43486Y432238D01*
X42994Y433222D01*
Y434207D01*
X43486Y435191D01*
X44470Y435683D01*
X45455Y435191D01*
X45947Y434207D01*
X43486Y439620D02*
X42994Y440604D01*
Y442081D01*
X43486Y443065D01*
X44470Y443557D01*
X44963D01*
X45947Y443065D01*
X46439Y442081D01*
Y439620D01*
X48900D01*
Y443557D01*
X43781Y350644D02*
X49687D01*
Y354089D01*
X49195Y355073D01*
X48211Y355565D01*
X47226Y355073D01*
X46734Y354089D01*
Y350644D01*
Y354089D02*
X43781Y355565D01*
X45258Y358518D02*
X44274Y359010D01*
X43781Y359994D01*
Y361963D01*
X44274Y362947D01*
X45258Y363439D01*
X46242Y362947D01*
X46734Y361963D01*
Y359994D01*
X47226Y359010D01*
X48211Y358518D01*
X49195Y359010D01*
X49687Y359994D01*
Y361963D01*
X49195Y362947D01*
X48211Y363439D01*
X43781Y368852D02*
X49687D01*
X45750Y366392D01*
Y370329D01*
X46734Y375742D02*
Y376726D01*
X47226Y377711D01*
X48211Y378203D01*
X49195Y377711D01*
X49687Y376726D01*
Y375742D01*
X49195Y374758D01*
X48211Y374266D01*
X47226Y374758D01*
X46734Y375742D01*
X46242Y374758D01*
X45258Y374266D01*
X44274Y374758D01*
X43781Y375742D01*
Y376726D01*
X44274Y377711D01*
X45258Y378203D01*
X46242Y377711D01*
X46734Y376726D01*
X44274Y382140D02*
X43781Y383124D01*
Y384600D01*
X44274Y385585D01*
X45258Y386077D01*
X45750D01*
X46734Y385585D01*
X47226Y384600D01*
Y382140D01*
X49687D01*
Y386077D01*
X48900Y463242D02*
X54805Y465703D01*
X48900Y468163D01*
X51360Y464226D02*
Y467179D01*
X48900Y471116D02*
X52837D01*
X52344D02*
X52837Y471608D01*
Y472593D01*
X52344Y473085D01*
X50868D01*
X52344D02*
X52837Y473577D01*
Y474561D01*
X52344Y475053D01*
X48900D01*
X52837Y478990D02*
X47423D01*
X50376D02*
X49392Y479482D01*
X48900Y480467D01*
Y481451D01*
X49392Y482435D01*
X50376Y482927D01*
X51360D01*
X52344Y482435D01*
X52837Y481451D01*
Y480467D01*
X52344Y479482D01*
X51360Y478990D01*
X50376D01*
X48900Y486864D02*
X54805D01*
Y490309D01*
X54313Y491293D01*
X53329Y491785D01*
X52344Y491293D01*
X51852Y490309D01*
Y486864D01*
X54805Y494738D02*
X48900Y495230D01*
X51852Y497199D01*
X48900Y499167D01*
X54805Y499659D01*
X48900Y502612D02*
X54805D01*
Y506057D01*
X54313Y507041D01*
X53329Y507533D01*
X52344Y507041D01*
X51852Y506057D01*
Y502612D01*
Y506057D02*
X48900Y507533D01*
X869963Y387652D02*
X864057D01*
X867010Y385191D01*
X864057Y382730D01*
X869963D01*
X868486Y379778D02*
X869470Y379285D01*
X869963Y378301D01*
Y377317D01*
X869470Y376333D01*
X868486Y375841D01*
X867502D01*
X866518Y376333D01*
X866026Y377317D01*
Y378301D01*
X866518Y379285D01*
X867502Y379778D01*
X868486D01*
X869470Y371904D02*
X869963Y370919D01*
Y368951D01*
X869470Y367967D01*
X868486D01*
X867994Y368951D01*
Y370919D01*
X867502Y371904D01*
X866518D01*
X866026Y370919D01*
Y368951D01*
X866518Y367967D01*
X869963Y364030D02*
X864057D01*
Y359108D01*
X867010Y360093D02*
Y364030D01*
X869963Y356156D02*
X864057D01*
Y351234D01*
X867010Y352219D02*
Y356156D01*
X869963D02*
Y351234D01*
Y345821D02*
X864057D01*
Y348281D02*
Y343360D01*
X867010Y457829D02*
X867502Y456844D01*
X868486Y456352D01*
X869470Y456844D01*
X869963Y457829D01*
Y461274D01*
X864057D01*
Y457829D01*
X864549Y456844D01*
X865533Y456352D01*
X866518Y456844D01*
X867010Y457829D01*
Y461274D01*
X869963Y451431D02*
X866026D01*
X864549D02*
X866518Y445526D02*
X866026Y444541D01*
Y443065D01*
X866518Y442081D01*
X867502Y441589D01*
X868978D01*
X869470Y442081D01*
X869963Y443065D01*
Y444049D01*
X869470Y445033D01*
X868978Y445526D01*
X868486D01*
X867994Y445033D01*
X867502Y444049D01*
Y443065D01*
X867994Y442081D01*
X868486Y441589D01*
X868978D02*
X869963D01*
X869470Y437652D02*
X869963Y436667D01*
Y434699D01*
X869470Y433715D01*
X868486D01*
X867994Y434699D01*
Y436667D01*
X867502Y437652D01*
X866518D01*
X866026Y436667D01*
Y434699D01*
X866518Y433715D01*
X869963Y429778D02*
X864057D01*
Y426333D01*
X864549Y425348D01*
X865533Y424856D01*
X866518Y425348D01*
X867010Y426333D01*
Y429778D01*
X864057Y421904D02*
X869963Y421411D01*
X867010Y419443D01*
X869963Y417474D01*
X864057Y416982D01*
X869963Y414030D02*
X864057D01*
Y410585D01*
X864549Y409600D01*
X865533Y409108D01*
X866518Y409600D01*
X867010Y410585D01*
Y414030D01*
Y410585D02*
X869963Y409108D01*
Y518754D02*
X864057D01*
Y515309D01*
X864549Y514325D01*
X865533Y513833D01*
X866518Y514325D01*
X867010Y515309D01*
Y518754D01*
X864057Y510880D02*
X869963Y508419D01*
X864057Y505959D01*
X868978Y490211D02*
X869470Y490703D01*
X869963Y491687D01*
Y493163D01*
X869470Y494148D01*
X868978Y494640D01*
X867994Y495132D01*
X866026D01*
X865041Y494640D01*
X864549Y494148D01*
X864057Y493163D01*
Y491687D01*
X864549Y490703D01*
X865041Y490211D01*
X866026Y487258D02*
X868486D01*
X869470Y486766D01*
X869963Y485781D01*
Y484797D01*
X869470Y483813D01*
X868486Y483321D01*
X866026D02*
X869963D01*
Y479384D02*
X866026D01*
X867502D02*
X866518Y478892D01*
X866026Y477907D01*
Y476923D01*
X866518Y475939D01*
X869963Y471510D02*
X866026D01*
X867502D02*
X866518Y471018D01*
X866026Y470033D01*
Y469049D01*
X866518Y468065D01*
X880986Y252612D02*
X875081D01*
X880986Y247691D01*
X875081D01*
X880986Y242278D02*
X875081D01*
Y244738D02*
Y239817D01*
X880002Y231943D02*
X880494Y232435D01*
X880986Y233419D01*
Y234896D01*
X880494Y235880D01*
X880002Y236372D01*
X879018Y236864D01*
X877049D01*
X876065Y236372D01*
X875573Y235880D01*
X875081Y234896D01*
Y233419D01*
X875573Y232435D01*
X876065Y231943D01*
X880986Y225053D02*
Y228990D01*
X877541Y225545D01*
X876557Y225053D01*
X875573Y225545D01*
X875081Y226530D01*
Y228006D01*
X875573Y228990D01*
X881774Y99856D02*
X875868D01*
Y96411D01*
X876360Y95427D01*
X877344Y94935D01*
X878329Y95427D01*
X878821Y96411D01*
Y99856D01*
X875868Y91982D02*
X881774Y89522D01*
X875868Y87061D01*
Y76234D02*
X881774Y73774D01*
X875868Y71313D01*
X880297Y68360D02*
X881281Y67868D01*
X881774Y66884D01*
Y65900D01*
X881281Y64915D01*
X880297Y64423D01*
X879313D01*
X878329Y64915D01*
X877837Y65900D01*
Y66884D01*
X878329Y67868D01*
X879313Y68360D01*
X880297D01*
X881774Y58026D02*
Y58518D01*
X875868D01*
X877837Y51792D02*
Y49495D01*
X876852Y50644D02*
X881281D01*
X881774Y50152D01*
Y49659D01*
X881281Y49167D01*
X895455Y343754D02*
X894963Y342770D01*
X893978Y342278D01*
X892010D01*
X891026Y342770D01*
X890533Y343754D01*
X891026Y344738D01*
X892010Y345230D01*
X893978D01*
X894963Y345722D01*
X895455Y346707D01*
X894963Y347691D01*
X893978Y348183D01*
X892010D01*
X891026Y347691D01*
X890533Y346707D01*
X892010Y365211D02*
X890533D01*
Y364719D01*
X891026Y363734D01*
X891518Y363242D01*
X892502Y362750D01*
X893486D01*
X894470Y363242D01*
X894963Y363734D01*
X895455Y364719D01*
Y366687D01*
X894963Y367671D01*
X894470Y368163D01*
X893486Y368656D01*
X892502D01*
X891518Y368163D01*
X891026Y367671D01*
X890533Y366687D01*
X895455Y383222D02*
Y389128D01*
X892502D01*
X891518Y388636D01*
X891026Y388144D01*
X890533Y387159D01*
Y385191D01*
X891026Y384207D01*
X891518Y383715D01*
X892502Y383222D01*
X895455D01*
X900573Y243459D02*
Y249364D01*
X897128D01*
X896144Y248872D01*
X895652Y247888D01*
X896144Y246904D01*
X897128Y246411D01*
X900573D01*
X895652Y501530D02*
X896144Y501037D01*
X897128Y500545D01*
X898604D01*
X899589Y501037D01*
X900081Y501530D01*
X900573Y502514D01*
Y504482D01*
X900081Y505467D01*
X899589Y505959D01*
X898604Y506451D01*
X897128D01*
X896144Y505959D01*
X895652Y505467D01*
X892699Y502514D02*
X888762D01*
X890730Y500545D02*
Y504482D01*
X896045Y481844D02*
X896537Y481352D01*
X897522Y480860D01*
X898998D01*
X899982Y481352D01*
X900474Y481844D01*
X900967Y482829D01*
Y484797D01*
X900474Y485781D01*
X899982Y486274D01*
X898998Y486766D01*
X897522D01*
X896537Y486274D01*
X896045Y485781D01*
X893093Y482829D02*
X889156D01*
X901360Y229679D02*
Y235585D01*
X896439Y229679D01*
Y235585D01*
X901754Y440801D02*
X900770Y440309D01*
X899293D01*
X898309Y440801D01*
X897817Y441785D01*
Y442278D01*
X898309Y443262D01*
X899293Y443754D01*
X901754D01*
Y446215D01*
X897817D01*
X893880D02*
X891419Y440309D01*
X888959Y446215D01*
X904904Y91884D02*
X902443Y85978D01*
X899982Y91884D01*
X897030Y87947D02*
X893093D01*
X895061Y85978D02*
Y89915D01*
X905297Y72888D02*
X904805Y71904D01*
X903821Y71411D01*
X901852D01*
X900868Y71904D01*
X900376Y72888D01*
X900868Y73872D01*
X901852Y74364D01*
X903821D01*
X904805Y74856D01*
X905297Y75841D01*
X904805Y76825D01*
X903821Y77317D01*
X901852D01*
X900868Y76825D01*
X900376Y75841D01*
X905691Y63537D02*
X903230Y57632D01*
X900770Y63537D01*
X897817Y59600D02*
X893880D01*
X905396Y423085D02*
X903919D01*
Y422593D01*
X904411Y421608D01*
X904904Y421116D01*
X905888Y420624D01*
X906872D01*
X907856Y421116D01*
X908348Y421608D01*
X908841Y422593D01*
Y424561D01*
X908348Y425545D01*
X907856Y426037D01*
X906872Y426530D01*
X905888D01*
X904904Y426037D01*
X904411Y425545D01*
X903919Y424561D01*
X900967Y420624D02*
Y426530D01*
X896045Y420624D01*
Y426530D01*
X893093Y420624D02*
Y426530D01*
X890140D01*
X889156Y426037D01*
X888663Y425545D01*
X888171Y424561D01*
Y422593D01*
X888663Y421608D01*
X889156Y421116D01*
X890140Y420624D01*
X893093D01*
X0Y0D02*
M02*
