G04 DesignSpark PCB Gerber Version 11.0 Build 5877*
G04 #@! TF.Part,Single*
G04 #@! TF.FileFunction,Soldermask,Bot*
G04 #@! TF.FilePolarity,Negative*
%FSLAX35Y35*%
%MOIN*%
G04 #@! TA.AperFunction,ComponentPad*
%ADD86O,0.08874X0.06118*%
%ADD84C,0.04740*%
%ADD83C,0.06512*%
%ADD78C,0.07299*%
%ADD76C,0.08087*%
%ADD82C,0.08480*%
%ADD77C,0.08874*%
%ADD75C,0.09031*%
%ADD85C,0.09268*%
%ADD81C,0.10843*%
%ADD74C,0.12811*%
%ADD80C,0.14780*%
%ADD79C,0.16748*%
G04 #@! TA.AperFunction,WasherPad*
%ADD73C,0.24622*%
G04 #@! TD.AperFunction*
X0Y0D02*
D02*
D73*
X36793Y31746D03*
Y307337D03*
Y539620D03*
X213959Y189226D03*
X371439Y539620D03*
X391124Y267967D03*
X430494Y31746D03*
X623407Y130565D03*
Y406156D03*
X883250Y31746D03*
Y307337D03*
Y539620D03*
D02*
D74*
X40730Y474502D03*
Y494502D03*
X61990Y482533D03*
X150967D03*
X819077Y495919D03*
X879313Y345604D03*
Y365604D03*
Y385604D03*
Y423715D03*
Y443715D03*
Y482770D03*
Y502770D03*
D02*
D75*
X213644Y399069D03*
X223644D03*
X233644D03*
D02*
D76*
X78250Y294423D03*
Y304423D03*
Y314423D03*
Y324423D03*
Y334423D03*
X88250Y294423D03*
Y304423D03*
Y314423D03*
Y324423D03*
Y334423D03*
X220297Y480959D03*
Y533715D03*
X230297Y480959D03*
Y533715D03*
X240297Y480959D03*
Y533715D03*
X260297Y480959D03*
Y533715D03*
X270297Y480959D03*
Y533715D03*
X280297Y480959D03*
Y533715D03*
X290297Y480959D03*
Y533715D03*
D02*
D77*
X36793Y353596D03*
Y363439D03*
Y373281D03*
Y383124D03*
Y410683D03*
Y420526D03*
Y430368D03*
Y440211D03*
X887187Y61274D03*
Y75053D03*
Y88833D03*
D02*
D78*
X18250Y221116D03*
X28250D03*
X38250D03*
X48250D03*
X148841Y172022D03*
Y182022D03*
X158841Y172022D03*
Y182022D03*
X168841Y172022D03*
Y182022D03*
X191124Y538715D03*
X192305Y377691D03*
X249510Y324659D03*
X258959Y244344D03*
X332069Y286352D03*
X345337Y329778D03*
X395848Y548557D03*
X510415Y176354D03*
Y186354D03*
X590455Y534502D03*
X593209Y432140D03*
X603209D03*
D02*
D79*
X819077Y406943D03*
Y436943D03*
Y511943D03*
Y541943D03*
D02*
D80*
X650573Y497494D03*
X662384Y405130D03*
X711203Y310486D03*
X726203Y299736D03*
X750573Y497494D03*
X762384Y405130D03*
X796203Y299736D03*
X811203Y310486D03*
D02*
D81*
X702384Y420130D03*
X722384D03*
X746203Y299736D03*
X776203D03*
D02*
D82*
X690573Y509994D03*
X700573D03*
X702384Y390130D03*
X710573Y509994D03*
X712384Y390130D03*
X722384D03*
X751203Y328486D03*
X761203D03*
X771203D03*
D02*
D83*
X48211Y167415D03*
Y187415D03*
X56872Y167415D03*
Y187415D03*
X65533Y167415D03*
Y187415D03*
X78132Y167415D03*
Y187415D03*
X565927Y111510D03*
Y131510D03*
X574589Y111510D03*
Y131510D03*
X583250Y111510D03*
Y131510D03*
X595848Y111510D03*
Y131510D03*
X677344Y26077D03*
Y46077D03*
X685848Y77415D03*
Y86077D03*
Y94738D03*
Y107337D03*
X689943Y26077D03*
Y46077D03*
X698604Y26077D03*
Y46077D03*
X705848Y77415D03*
Y86077D03*
Y94738D03*
Y107337D03*
X707266Y26077D03*
Y46077D03*
D02*
D84*
X130730Y320191D03*
Y325191D03*
X135730Y320191D03*
Y325191D03*
X140730Y320191D03*
Y325191D03*
X145730Y320191D03*
Y325191D03*
X150730Y320191D03*
Y325191D03*
D02*
D85*
X32856Y173281D03*
Y187061D03*
X887187Y232337D03*
Y246116D03*
D02*
D86*
X125376Y42927D03*
Y52927D03*
Y62927D03*
Y72927D03*
Y82927D03*
Y92927D03*
Y102927D03*
Y112927D03*
X150573Y42927D03*
Y52927D03*
Y62927D03*
Y72927D03*
Y82927D03*
Y92927D03*
Y102927D03*
Y112927D03*
Y122927D03*
X172620Y42927D03*
Y52927D03*
Y62927D03*
Y72927D03*
Y82927D03*
Y92927D03*
Y102927D03*
Y112927D03*
Y122927D03*
X0Y0D02*
M02*
